M48
; DRILL file {KiCad 6.0.11+dfsg-1~bpo11+1} date mar 08 ago 2023 14:26:03
; FORMAT={-:-/ absolute / metric / decimal}
; #@! TF.CreationDate,2023-08-08T14:26:03-03:00
; #@! TF.GenerationSoftware,Kicad,Pcbnew,6.0.11+dfsg-1~bpo11+1
; #@! TF.FileFunction,Plated,1,2,PTH
FMAT,2
METRIC
; #@! TA.AperFunction,Plated,PTH,ComponentDrill
T1C1.000
%
G90
G05
T1
X5.795Y81.855
X5.795Y79.315
X5.795Y76.775
X5.795Y74.235
X5.795Y71.695
X5.795Y69.155
X5.795Y66.615
X5.795Y64.075
X5.795Y61.535
X5.795Y58.995
X5.795Y53.955
X5.795Y51.415
X5.795Y48.875
X5.795Y46.335
X5.795Y43.795
X5.795Y41.255
X5.795Y38.715
X5.795Y36.175
X5.795Y33.635
X5.795Y31.095
X5.795Y28.555
X5.795Y26.015
X5.795Y23.495
X5.795Y20.935
X5.795Y18.395
X5.795Y15.855
X10.72Y28.0
X13.0Y85.5
X13.0Y82.96
X13.0Y80.42
X13.0Y77.88
X13.0Y75.34
X13.0Y72.8
X13.0Y70.26
X13.0Y67.72
X13.0Y65.18
X13.0Y62.64
X13.0Y60.1
X13.0Y57.56
X13.0Y55.02
X13.0Y52.48
X13.0Y49.94
X13.0Y47.4
X13.0Y44.86
X13.0Y42.32
X13.0Y39.78
X13.0Y37.24
X13.26Y28.0
X15.8Y28.0
X18.34Y28.0
X20.88Y28.0
X23.42Y28.0
X25.96Y28.0
X28.24Y85.5
X28.24Y82.96
X28.24Y80.42
X28.24Y77.88
X28.24Y75.34
X28.24Y72.8
X28.24Y70.26
X28.24Y67.72
X28.24Y65.18
X28.24Y62.64
X28.24Y60.1
X28.24Y57.56
X28.24Y55.02
X28.24Y52.48
X28.24Y49.94
X28.24Y47.4
X28.24Y44.86
X28.24Y42.32
X28.24Y39.78
X28.24Y37.24
X28.5Y28.0
X34.625Y66.5
X36.0Y5.5
X37.165Y66.5
X38.5Y5.5
X39.705Y66.5
X41.0Y86.5
X42.245Y66.5
X44.785Y66.5
X45.0Y5.5
X47.325Y66.5
X47.5Y5.5
X49.865Y66.5
X52.405Y66.5
X56.195Y85.955
X56.195Y83.415
X56.195Y80.875
X56.195Y78.335
X56.195Y75.795
X56.195Y73.255
X56.195Y70.715
X56.195Y68.175
X56.195Y65.635
X56.195Y63.095
X56.195Y60.555
X56.195Y58.015
X56.195Y55.475
X56.195Y52.935
X56.195Y50.395
X56.195Y47.855
X56.195Y44.255
X56.195Y41.715
X56.195Y39.175
X56.195Y36.635
X56.195Y34.095
X56.195Y31.555
X56.195Y29.015
X56.195Y26.475
X56.195Y23.935
X56.195Y21.395
X56.195Y18.855
X56.195Y16.315
X56.195Y13.775
X56.195Y11.235
T0
M30
