%TF.GenerationSoftware,KiCad,Pcbnew,6.0.11+dfsg-1~bpo11+1*%
%TF.CreationDate,2023-08-01T14:36:39-03:00*%
%TF.ProjectId,simo_shield_1,73696d6f-5f73-4686-9965-6c645f312e6b,0003*%
%TF.SameCoordinates,PX69db9c0PY791ddc0*%
%TF.FileFunction,Copper,L2,Bot*%
%TF.FilePolarity,Positive*%
%FSLAX46Y46*%
G04 Gerber Fmt 4.6, Leading zero omitted, Abs format (unit mm)*
G04 Created by KiCad (PCBNEW 6.0.11+dfsg-1~bpo11+1) date 2023-08-01 14:36:39*
%MOMM*%
%LPD*%
G01*
G04 APERTURE LIST*
G04 Aperture macros list*
%AMRoundRect*
0 Rectangle with rounded corners*
0 $1 Rounding radius*
0 $2 $3 $4 $5 $6 $7 $8 $9 X,Y pos of 4 corners*
0 Add a 4 corners polygon primitive as box body*
4,1,4,$2,$3,$4,$5,$6,$7,$8,$9,$2,$3,0*
0 Add four circle primitives for the rounded corners*
1,1,$1+$1,$2,$3*
1,1,$1+$1,$4,$5*
1,1,$1+$1,$6,$7*
1,1,$1+$1,$8,$9*
0 Add four rect primitives between the rounded corners*
20,1,$1+$1,$2,$3,$4,$5,0*
20,1,$1+$1,$4,$5,$6,$7,0*
20,1,$1+$1,$6,$7,$8,$9,0*
20,1,$1+$1,$8,$9,$2,$3,0*%
G04 Aperture macros list end*
%ADD10C,0.300000*%
%TA.AperFunction,NonConductor*%
%ADD11C,0.300000*%
%TD*%
%TA.AperFunction,ComponentPad*%
%ADD12O,1.600000X2.400000*%
%TD*%
%TA.AperFunction,ComponentPad*%
%ADD13RoundRect,0.250000X-0.600000X-0.750000X0.600000X-0.750000X0.600000X0.750000X-0.600000X0.750000X0*%
%TD*%
%TA.AperFunction,ComponentPad*%
%ADD14O,1.700000X2.000000*%
%TD*%
%TA.AperFunction,ComponentPad*%
%ADD15R,1.700000X1.700000*%
%TD*%
%TA.AperFunction,ComponentPad*%
%ADD16O,2.400000X1.600000*%
%TD*%
%TA.AperFunction,ComponentPad*%
%ADD17C,1.700000*%
%TD*%
%TA.AperFunction,Conductor*%
%ADD18C,1.000000*%
%TD*%
%TA.AperFunction,Conductor*%
%ADD19C,0.800000*%
%TD*%
G04 APERTURE END LIST*
D10*
D11*
X34892857Y11392858D02*
X34678571Y11321429D01*
X34321428Y11321429D01*
X34178571Y11392858D01*
X34107142Y11464286D01*
X34035714Y11607143D01*
X34035714Y11750000D01*
X34107142Y11892858D01*
X34178571Y11964286D01*
X34321428Y12035715D01*
X34607142Y12107143D01*
X34750000Y12178572D01*
X34821428Y12250000D01*
X34892857Y12392858D01*
X34892857Y12535715D01*
X34821428Y12678572D01*
X34750000Y12750000D01*
X34607142Y12821429D01*
X34250000Y12821429D01*
X34035714Y12750000D01*
X33392857Y11321429D02*
X33392857Y12821429D01*
X32678571Y11321429D02*
X32678571Y12821429D01*
X32178571Y11750000D01*
X31678571Y12821429D01*
X31678571Y11321429D01*
X30678571Y12821429D02*
X30392857Y12821429D01*
X30250000Y12750000D01*
X30107142Y12607143D01*
X30035714Y12321429D01*
X30035714Y11821429D01*
X30107142Y11535715D01*
X30250000Y11392858D01*
X30392857Y11321429D01*
X30678571Y11321429D01*
X30821428Y11392858D01*
X30964285Y11535715D01*
X31035714Y11821429D01*
X31035714Y12321429D01*
X30964285Y12607143D01*
X30821428Y12750000D01*
X30678571Y12821429D01*
X28321428Y11392858D02*
X28107142Y11321429D01*
X27750000Y11321429D01*
X27607142Y11392858D01*
X27535714Y11464286D01*
X27464285Y11607143D01*
X27464285Y11750000D01*
X27535714Y11892858D01*
X27607142Y11964286D01*
X27750000Y12035715D01*
X28035714Y12107143D01*
X28178571Y12178572D01*
X28250000Y12250000D01*
X28321428Y12392858D01*
X28321428Y12535715D01*
X28250000Y12678572D01*
X28178571Y12750000D01*
X28035714Y12821429D01*
X27678571Y12821429D01*
X27464285Y12750000D01*
X26821428Y11321429D02*
X26821428Y12821429D01*
X26821428Y12107143D02*
X25964285Y12107143D01*
X25964285Y11321429D02*
X25964285Y12821429D01*
X25250000Y11321429D02*
X25250000Y12821429D01*
X24535714Y12107143D02*
X24035714Y12107143D01*
X23821428Y11321429D02*
X24535714Y11321429D01*
X24535714Y12821429D01*
X23821428Y12821429D01*
X22464285Y11321429D02*
X23178571Y11321429D01*
X23178571Y12821429D01*
X21964285Y11321429D02*
X21964285Y12821429D01*
X21607142Y12821429D01*
X21392857Y12750000D01*
X21250000Y12607143D01*
X21178571Y12464286D01*
X21107142Y12178572D01*
X21107142Y11964286D01*
X21178571Y11678572D01*
X21250000Y11535715D01*
X21392857Y11392858D01*
X21607142Y11321429D01*
X21964285Y11321429D01*
X19464285Y12321429D02*
X19107142Y11321429D01*
X18750000Y12321429D01*
X17392857Y11321429D02*
X18250000Y11321429D01*
X17821428Y11321429D02*
X17821428Y12821429D01*
X17964285Y12607143D01*
X18107142Y12464286D01*
X18250000Y12392858D01*
X16750000Y11464286D02*
X16678571Y11392858D01*
X16750000Y11321429D01*
X16821428Y11392858D01*
X16750000Y11464286D01*
X16750000Y11321429D01*
X15750000Y12821429D02*
X15607142Y12821429D01*
X15464285Y12750000D01*
X15392857Y12678572D01*
X15321428Y12535715D01*
X15250000Y12250000D01*
X15250000Y11892858D01*
X15321428Y11607143D01*
X15392857Y11464286D01*
X15464285Y11392858D01*
X15607142Y11321429D01*
X15750000Y11321429D01*
X15892857Y11392858D01*
X15964285Y11464286D01*
X16035714Y11607143D01*
X16107142Y11892858D01*
X16107142Y12250000D01*
X16035714Y12535715D01*
X15964285Y12678572D01*
X15892857Y12750000D01*
X15750000Y12821429D01*
X14607142Y11464286D02*
X14535714Y11392858D01*
X14607142Y11321429D01*
X14678571Y11392858D01*
X14607142Y11464286D01*
X14607142Y11321429D01*
X13607142Y12821429D02*
X13464285Y12821429D01*
X13321428Y12750000D01*
X13250000Y12678572D01*
X13178571Y12535715D01*
X13107142Y12250000D01*
X13107142Y11892858D01*
X13178571Y11607143D01*
X13250000Y11464286D01*
X13321428Y11392858D01*
X13464285Y11321429D01*
X13607142Y11321429D01*
X13750000Y11392858D01*
X13821428Y11464286D01*
X13892857Y11607143D01*
X13964285Y11892858D01*
X13964285Y12250000D01*
X13892857Y12535715D01*
X13821428Y12678572D01*
X13750000Y12750000D01*
X13607142Y12821429D01*
D12*
%TO.P,U4,1,INT*%
%TO.N,unconnected-(U4-Pad1)*%
X38625000Y72000000D03*
%TO.P,U4,2,AD0*%
%TO.N,unconnected-(U4-Pad2)*%
X41165000Y72000000D03*
%TO.P,U4,3,XCL*%
%TO.N,unconnected-(U4-Pad3)*%
X43705000Y72000000D03*
%TO.P,U4,4,XDA*%
%TO.N,unconnected-(U4-Pad4)*%
X46245000Y72000000D03*
%TO.P,U4,5,SDA*%
%TO.N,Net-(U3-Pad36)*%
X48785000Y72000000D03*
%TO.P,U4,6,SCL*%
%TO.N,Net-(U3-Pad35)*%
X51325000Y72000000D03*
%TO.P,U4,7,GND*%
%TO.N,GND*%
X53865000Y72000000D03*
%TO.P,U4,8,VCC*%
%TO.N,+3.3V*%
X56405000Y72000000D03*
%TD*%
D13*
%TO.P,J1,1,Pin_1*%
%TO.N,Net-(J1-Pad1)*%
X40000000Y11000000D03*
D14*
%TO.P,J1,2,Pin_2*%
%TO.N,GND*%
X42500000Y11000000D03*
%TD*%
D13*
%TO.P,J2,1,Pin_1*%
%TO.N,/UART_DEBUG_RX*%
X49000000Y11000000D03*
D14*
%TO.P,J2,2,Pin_2*%
%TO.N,/UART_DEBUG_TX*%
X51500000Y11000000D03*
%TD*%
D15*
%TO.P,U3,1,PB12*%
%TO.N,unconnected-(U3-Pad1)*%
X17000000Y91000000D03*
D16*
%TO.P,U3,2,PB13*%
%TO.N,unconnected-(U3-Pad2)*%
X17000000Y88460000D03*
%TO.P,U3,3,PB14*%
%TO.N,unconnected-(U3-Pad3)*%
X17000000Y85920000D03*
%TO.P,U3,4,PB15*%
%TO.N,unconnected-(U3-Pad4)*%
X17000000Y83380000D03*
%TO.P,U3,5,PA8*%
%TO.N,unconnected-(U3-Pad5)*%
X17000000Y80840000D03*
%TO.P,U3,6,PA9*%
%TO.N,Net-(U3-Pad6)*%
X17000000Y78300000D03*
%TO.P,U3,7,PA10*%
%TO.N,Net-(U1-Pad4)*%
X17000000Y75760000D03*
%TO.P,U3,8,PA11*%
%TO.N,unconnected-(U3-Pad8)*%
X17000000Y73220000D03*
%TO.P,U3,9,PA12*%
%TO.N,Net-(U1-Pad9)*%
X17000000Y70680000D03*
%TO.P,U3,10,PA15*%
%TO.N,Net-(U1-Pad14)*%
X17000000Y68140000D03*
%TO.P,U3,11,PB3*%
%TO.N,Net-(U2-Pad5)*%
X17000000Y65600000D03*
%TO.P,U3,12,PB4*%
%TO.N,Net-(U2-Pad3)*%
X17000000Y63060000D03*
%TO.P,U3,13,PB5*%
%TO.N,Net-(U2-Pad4)*%
X17000000Y60520000D03*
%TO.P,U3,14,PB6*%
%TO.N,unconnected-(U3-Pad14)*%
X17000000Y57980000D03*
%TO.P,U3,15,PB7*%
%TO.N,unconnected-(U3-Pad15)*%
X17000000Y55440000D03*
%TO.P,U3,16,PB8*%
%TO.N,Net-(U2-Pad6)*%
X17000000Y52900000D03*
%TO.P,U3,17,PB9*%
%TO.N,unconnected-(U3-Pad17)*%
X17000000Y50360000D03*
%TO.P,U3,18,5V*%
%TO.N,unconnected-(U3-Pad18)*%
X17000000Y47820000D03*
%TO.P,U3,19,GND*%
%TO.N,unconnected-(U3-Pad19)*%
X17000000Y45280000D03*
%TO.P,U3,20,3V3*%
%TO.N,unconnected-(U3-Pad20)*%
X17000000Y42740000D03*
%TO.P,U3,21,VBat*%
%TO.N,unconnected-(U3-Pad21)*%
X32240000Y42740000D03*
%TO.P,U3,22,PC13*%
%TO.N,unconnected-(U3-Pad22)*%
X32240000Y45280000D03*
%TO.P,U3,23,PC14*%
%TO.N,unconnected-(U3-Pad23)*%
X32240000Y47820000D03*
%TO.P,U3,24,PC15*%
%TO.N,unconnected-(U3-Pad24)*%
X32240000Y50360000D03*
%TO.P,U3,25,PA0*%
%TO.N,Net-(J1-Pad1)*%
X32240000Y52900000D03*
%TO.P,U3,26,PA1*%
%TO.N,unconnected-(U3-Pad26)*%
X32240000Y55440000D03*
%TO.P,U3,27,PA2*%
%TO.N,/UART_DEBUG_RX*%
X32240000Y57980000D03*
%TO.P,U3,28,PA3*%
%TO.N,/UART_DEBUG_TX*%
X32240000Y60520000D03*
%TO.P,U3,29,PA4*%
%TO.N,/BAT_ENA_PIN*%
X32240000Y63060000D03*
%TO.P,U3,30,PA5*%
%TO.N,unconnected-(U3-Pad30)*%
X32240000Y65600000D03*
%TO.P,U3,31,PA6*%
%TO.N,unconnected-(U3-Pad31)*%
X32240000Y68140000D03*
%TO.P,U3,32,PA7*%
%TO.N,unconnected-(U3-Pad32)*%
X32240000Y70680000D03*
%TO.P,U3,33,PB0*%
%TO.N,unconnected-(U3-Pad33)*%
X32240000Y73220000D03*
%TO.P,U3,34,PB1*%
%TO.N,unconnected-(U3-Pad34)*%
X32240000Y75760000D03*
%TO.P,U3,35,PB10*%
%TO.N,Net-(U3-Pad35)*%
X32240000Y78300000D03*
%TO.P,U3,36,PB11*%
%TO.N,Net-(U3-Pad36)*%
X32240000Y80840000D03*
%TO.P,U3,37,RST*%
%TO.N,Net-(J3-Pad1)*%
X32240000Y83380000D03*
%TO.P,U3,38,3V3*%
%TO.N,+3.3V*%
X32240000Y85920000D03*
%TO.P,U3,39,GND*%
%TO.N,GND*%
X32240000Y88460000D03*
%TO.P,U3,40,5v*%
%TO.N,unconnected-(U3-Pad40)*%
X32240000Y91000000D03*
%TD*%
D15*
%TO.P,J3,1,Pin_1*%
%TO.N,Net-(J3-Pad1)*%
X45000000Y92000000D03*
%TD*%
%TO.P,U2,1,VCC*%
%TO.N,+3.3V*%
X33000000Y34000000D03*
D12*
%TO.P,U2,2,GND*%
%TO.N,GND*%
X30460000Y34000000D03*
%TO.P,U2,3,MISO*%
%TO.N,Net-(U2-Pad3)*%
X27920000Y34000000D03*
%TO.P,U2,4,MOSI*%
%TO.N,Net-(U2-Pad4)*%
X25380000Y34000000D03*
%TO.P,U2,5,SCK*%
%TO.N,Net-(U2-Pad5)*%
X22840000Y34000000D03*
%TO.P,U2,6,/CS*%
%TO.N,Net-(U2-Pad6)*%
X20300000Y34000000D03*
%TO.P,U2,7,/WP*%
%TO.N,unconnected-(U2-Pad7)*%
X17760000Y34000000D03*
%TO.P,U2,8,/RST*%
%TO.N,unconnected-(U2-Pad8)*%
X15220000Y34000000D03*
%TD*%
D15*
%TO.P,U1,1,PA07*%
%TO.N,unconnected-(U1-Pad1)*%
X9795000Y87355000D03*
D17*
%TO.P,U1,2,SER3_RX*%
%TO.N,Net-(U3-Pad6)*%
X9795000Y84815000D03*
%TO.P,U1,3,PA05*%
%TO.N,unconnected-(U1-Pad3)*%
X9795000Y82275000D03*
%TO.P,U1,4,SER3_TX*%
%TO.N,Net-(U1-Pad4)*%
X9795000Y79735000D03*
%TO.P,U1,5,SER1_TX*%
%TO.N,unconnected-(U1-Pad5)*%
X9795000Y77195000D03*
%TO.P,U1,6,SER1_RX*%
%TO.N,unconnected-(U1-Pad6)*%
X9795000Y74655000D03*
%TO.P,U1,7,STATUS*%
%TO.N,unconnected-(U1-Pad7)*%
X9795000Y72115000D03*
%TO.P,U1,8,D4*%
%TO.N,unconnected-(U1-Pad8)*%
X9795000Y69575000D03*
%TO.P,U1,9,PWRKEY*%
%TO.N,Net-(U1-Pad9)*%
X9795000Y67035000D03*
%TO.P,U1,10,GND*%
%TO.N,unconnected-(U1-Pad10)*%
X9795000Y64495000D03*
%TO.P,U1,11,D6*%
%TO.N,unconnected-(U1-Pad11)*%
X9795000Y59455000D03*
%TO.P,U1,12,A5*%
%TO.N,unconnected-(U1-Pad12)*%
X9795000Y56915000D03*
%TO.P,U1,13,A4*%
%TO.N,unconnected-(U1-Pad13)*%
X9795000Y54375000D03*
%TO.P,U1,14,RI*%
%TO.N,Net-(U1-Pad14)*%
X9795000Y51835000D03*
%TO.P,U1,15,RESET*%
%TO.N,unconnected-(U1-Pad15)*%
X9795000Y49295000D03*
%TO.P,U1,16,A1*%
%TO.N,unconnected-(U1-Pad16)*%
X9795000Y46755000D03*
%TO.P,U1,17,A2*%
%TO.N,unconnected-(U1-Pad17)*%
X9795000Y44215000D03*
%TO.P,U1,18,PB31*%
%TO.N,unconnected-(U1-Pad18)*%
X9795000Y41675000D03*
%TO.P,U1,19,WIRE_SDA*%
%TO.N,unconnected-(U1-Pad19)*%
X9795000Y39135000D03*
%TO.P,U1,20,WIRE_SCL*%
%TO.N,unconnected-(U1-Pad20)*%
X9795000Y36595000D03*
%TO.P,U1,21,+3.3V*%
%TO.N,unconnected-(U1-Pad21)*%
X9795000Y34055000D03*
%TO.P,U1,22,+3.3V*%
%TO.N,unconnected-(U1-Pad22)*%
X9795000Y31515000D03*
%TO.P,U1,23,USB33*%
%TO.N,+3.3V*%
X9795000Y28995008D03*
%TO.P,U1,24,GND*%
%TO.N,GND*%
X9795000Y26435000D03*
%TO.P,U1,25,+5VUSB*%
%TO.N,unconnected-(U1-Pad25)*%
X9795000Y23895000D03*
%TO.P,U1,26,+BATT*%
%TO.N,unconnected-(U1-Pad26)*%
X9795000Y21355000D03*
%TO.P,U1,27,A2*%
%TO.N,unconnected-(U1-Pad27)*%
X60195000Y91455000D03*
%TO.P,U1,28,A3*%
%TO.N,unconnected-(U1-Pad28)*%
X60195000Y88915000D03*
%TO.P,U1,29,D18*%
%TO.N,unconnected-(U1-Pad29)*%
X60195000Y86375000D03*
%TO.P,U1,30,D19*%
%TO.N,unconnected-(U1-Pad30)*%
X60195000Y83835000D03*
%TO.P,U1,31,D10*%
%TO.N,unconnected-(U1-Pad31)*%
X60195000Y81295000D03*
%TO.P,U1,32,D11*%
%TO.N,unconnected-(U1-Pad32)*%
X60195000Y78755000D03*
%TO.P,U1,33,D20*%
%TO.N,unconnected-(U1-Pad33)*%
X60195000Y76215000D03*
%TO.P,U1,34,D21*%
%TO.N,unconnected-(U1-Pad34)*%
X60195000Y73675000D03*
%TO.P,U1,35,D13*%
%TO.N,unconnected-(U1-Pad35)*%
X60195000Y71135000D03*
%TO.P,U1,36,SER2_RX*%
%TO.N,unconnected-(U1-Pad36)*%
X60195000Y68595000D03*
%TO.P,U1,37,PA17*%
%TO.N,unconnected-(U1-Pad37)*%
X60195000Y66055000D03*
%TO.P,U1,38,SER2_TX*%
%TO.N,unconnected-(U1-Pad38)*%
X60195000Y63515000D03*
%TO.P,U1,39,PA19*%
%TO.N,unconnected-(U1-Pad39)*%
X60195000Y60975000D03*
%TO.P,U1,40,D8*%
%TO.N,unconnected-(U1-Pad40)*%
X60195000Y58435000D03*
%TO.P,U1,41,D9*%
%TO.N,unconnected-(U1-Pad41)*%
X60195000Y55895000D03*
%TO.P,U1,42,GND*%
%TO.N,unconnected-(U1-Pad42)*%
X60195000Y53355000D03*
%TO.P,U1,43,NRST*%
%TO.N,unconnected-(U1-Pad43)*%
X60195000Y49755000D03*
%TO.P,U1,44,SER_TX*%
%TO.N,unconnected-(U1-Pad44)*%
X60195000Y47215000D03*
%TO.P,U1,45,SER_RX*%
%TO.N,unconnected-(U1-Pad45)*%
X60195000Y44675000D03*
%TO.P,U1,46,D12*%
%TO.N,unconnected-(U1-Pad46)*%
X60195000Y42135000D03*
%TO.P,U1,47,SPI_MISO*%
%TO.N,unconnected-(U1-Pad47)*%
X60195000Y39595000D03*
%TO.P,U1,48,SPI_SS*%
%TO.N,unconnected-(U1-Pad48)*%
X60195000Y37055000D03*
%TO.P,U1,49,SPI_MOSI*%
%TO.N,unconnected-(U1-Pad49)*%
X60195000Y34515000D03*
%TO.P,U1,50,SPI_SCK*%
%TO.N,unconnected-(U1-Pad50)*%
X60195000Y31975000D03*
%TO.P,U1,51,D15*%
%TO.N,unconnected-(U1-Pad51)*%
X60195000Y29435000D03*
%TO.P,U1,52,BAT_ENA*%
%TO.N,/BAT_ENA_PIN*%
X60195000Y26895000D03*
%TO.P,U1,53,PB11*%
%TO.N,unconnected-(U1-Pad53)*%
X60195000Y24355000D03*
%TO.P,U1,54,PB10*%
%TO.N,unconnected-(U1-Pad54)*%
X60195000Y21815000D03*
%TO.P,U1,55,ESP_RXD0*%
%TO.N,unconnected-(U1-Pad55)*%
X60195000Y19275000D03*
%TO.P,U1,56,ESP_TXD0*%
%TO.N,unconnected-(U1-Pad56)*%
X60195000Y16735000D03*
%TD*%
D18*
%TO.N,/UART_DEBUG_RX*%
X36020000Y57980000D02*
X49000000Y45000000D01*
X32240000Y57980000D02*
X36020000Y57980000D01*
X49000000Y45000000D02*
X49000000Y11000000D01*
%TO.N,Net-(J1-Pad1)*%
X40000000Y48000000D02*
X40000000Y11000000D01*
X35100000Y52900000D02*
X40000000Y48000000D01*
X32240000Y52900000D02*
X35100000Y52900000D01*
D19*
%TO.N,Net-(U1-Pad9)*%
X14680000Y70680000D02*
X17000000Y70680000D01*
X11035000Y67035000D02*
X14680000Y70680000D01*
X9795000Y67035000D02*
X11035000Y67035000D01*
%TO.N,Net-(U1-Pad14)*%
X10835000Y51835000D02*
X12900000Y53900000D01*
X9795000Y51835000D02*
X10835000Y51835000D01*
X14877258Y68140000D02*
X17000000Y68140000D01*
X12900000Y53900000D02*
X12900000Y66162742D01*
X12900000Y66162742D02*
X14877258Y68140000D01*
D18*
%TO.N,/UART_DEBUG_TX*%
X38480000Y60520000D02*
X32240000Y60520000D01*
X51500000Y47500000D02*
X38480000Y60520000D01*
X51500000Y11000000D02*
X51500000Y47500000D01*
%TO.N,/BAT_ENA_PIN*%
X56105000Y26895000D02*
X60195000Y26895000D01*
X44940000Y63060000D02*
X55000000Y53000000D01*
X32240000Y63060000D02*
X44940000Y63060000D01*
X55000000Y28000000D02*
X56105000Y26895000D01*
X55000000Y53000000D02*
X55000000Y28000000D01*
D19*
%TO.N,Net-(U2-Pad4)*%
X25380000Y34000000D02*
X25380000Y55120000D01*
X19980000Y60520000D02*
X17000000Y60520000D01*
X25380000Y55120000D02*
X19980000Y60520000D01*
%TO.N,Net-(U2-Pad3)*%
X27920000Y54842742D02*
X27920000Y34000000D01*
X19702742Y63060000D02*
X27920000Y54842742D01*
X17000000Y63060000D02*
X19702742Y63060000D01*
%TO.N,Net-(U2-Pad5)*%
X13220000Y51957258D02*
X14500000Y53237258D01*
X21000000Y30000000D02*
X15000000Y30000000D01*
X14500000Y53237258D02*
X14500000Y64500000D01*
X22840000Y34000000D02*
X22840000Y31840000D01*
X15600000Y65600000D02*
X17000000Y65600000D01*
X13220000Y31780000D02*
X13220000Y51957258D01*
X14500000Y64500000D02*
X15600000Y65600000D01*
X15000000Y30000000D02*
X13220000Y31780000D01*
X22840000Y31840000D02*
X21000000Y30000000D01*
%TO.N,Net-(U3-Pad6)*%
X15200000Y78300000D02*
X17000000Y78300000D01*
X13000000Y80500000D02*
X15200000Y78300000D01*
X12185000Y84815000D02*
X13000000Y84000000D01*
X13000000Y84000000D02*
X13000000Y80500000D01*
X9795000Y84815000D02*
X12185000Y84815000D01*
D18*
%TO.N,Net-(U3-Pad35)*%
X51325000Y69325000D02*
X51325000Y72000000D01*
X50000000Y68000000D02*
X51325000Y69325000D01*
X35369848Y77130152D02*
X35369848Y70107413D01*
X34200000Y78300000D02*
X35369848Y77130152D01*
X32240000Y78300000D02*
X34200000Y78300000D01*
X37477261Y68000000D02*
X50000000Y68000000D01*
X35369848Y70107413D02*
X37477261Y68000000D01*
%TO.N,Net-(U3-Pad36)*%
X48785000Y78215000D02*
X46160000Y80840000D01*
X46160000Y80840000D02*
X32240000Y80840000D01*
X48785000Y72000000D02*
X48785000Y78215000D01*
%TO.N,Net-(U2-Pad6)*%
X17000000Y52900000D02*
X19100000Y52900000D01*
X20300000Y51700000D02*
X20300000Y34000000D01*
X19100000Y52900000D02*
X20300000Y51700000D01*
%TO.N,+3.3V*%
X30080000Y85920000D02*
X32240000Y85920000D01*
X29000000Y96000000D02*
X29000000Y94500000D01*
X6000000Y28995008D02*
X6000000Y20000000D01*
X29000000Y87000000D02*
X30080000Y85920000D01*
X6000000Y20000000D02*
X8000000Y18000000D01*
X52000000Y96000000D02*
X29000000Y96000000D01*
X33000000Y22000000D02*
X33000000Y34000000D01*
X29000000Y94500000D02*
X29000000Y87000000D01*
X29000000Y18000000D02*
X33000000Y22000000D01*
X13000000Y96000000D02*
X6000000Y89000000D01*
X6000000Y89000000D02*
X6000000Y29575000D01*
X9795000Y28995008D02*
X6595000Y28995008D01*
X56405000Y72000000D02*
X56405000Y91595000D01*
X29000000Y94500000D02*
X29000000Y95250000D01*
X8000000Y18000000D02*
X29000000Y18000000D01*
X56405000Y91595000D02*
X52000000Y96000000D01*
X13000000Y96000000D02*
X29000000Y96000000D01*
%TO.N,Net-(J3-Pad1)*%
X45000000Y85000000D02*
X43380000Y83380000D01*
X43380000Y83380000D02*
X32240000Y83380000D01*
X45000000Y92000000D02*
X45000000Y85000000D01*
D19*
%TO.N,Net-(U1-Pad4)*%
X11265000Y79735000D02*
X15240000Y75760000D01*
X9795000Y79735000D02*
X11265000Y79735000D01*
X15240000Y75760000D02*
X17000000Y75760000D01*
%TD*%
%TA.AperFunction,Conductor*%
%TO.N,GND*%
G36*
X6438754Y98904498D02*
G01*
X6485247Y98850842D01*
X6495351Y98780568D01*
X6465857Y98715988D01*
X6453711Y98703769D01*
X6372908Y98632906D01*
X6372900Y98632898D01*
X6369811Y98630189D01*
X6367102Y98627100D01*
X6173693Y98406561D01*
X6173689Y98406555D01*
X6170975Y98403461D01*
X6003434Y98152718D01*
X5870055Y97882252D01*
X5773120Y97596691D01*
X5772316Y97592647D01*
X5772314Y97592641D01*
X5715192Y97305468D01*
X5714287Y97300920D01*
X5714018Y97296815D01*
X5714017Y97296808D01*
X5706692Y97185040D01*
X5694564Y97000000D01*
X5714287Y96699080D01*
X5773120Y96403309D01*
X5870055Y96117748D01*
X6003434Y95847282D01*
X6170975Y95596539D01*
X6173689Y95593445D01*
X6173693Y95593439D01*
X6367102Y95372900D01*
X6369811Y95369811D01*
X6372900Y95367102D01*
X6593439Y95173693D01*
X6593445Y95173689D01*
X6596539Y95170975D01*
X6599965Y95168686D01*
X6599970Y95168682D01*
X6787533Y95043357D01*
X6847282Y95003434D01*
X6850981Y95001610D01*
X6850986Y95001607D01*
X6989834Y94933135D01*
X7117748Y94870055D01*
X7121653Y94868729D01*
X7121654Y94868729D01*
X7399396Y94774448D01*
X7399400Y94774447D01*
X7403309Y94773120D01*
X7407353Y94772316D01*
X7407359Y94772314D01*
X7695041Y94715090D01*
X7695047Y94715089D01*
X7699080Y94714287D01*
X7703185Y94714018D01*
X7703192Y94714017D01*
X7922641Y94699634D01*
X7922650Y94699634D01*
X7924690Y94699500D01*
X8075310Y94699500D01*
X8077350Y94699634D01*
X8077359Y94699634D01*
X8296808Y94714017D01*
X8296815Y94714018D01*
X8300920Y94714287D01*
X8304953Y94715089D01*
X8304959Y94715090D01*
X8592641Y94772314D01*
X8592647Y94772316D01*
X8596691Y94773120D01*
X8600600Y94774447D01*
X8600604Y94774448D01*
X8878346Y94868729D01*
X8878347Y94868729D01*
X8882252Y94870055D01*
X9010166Y94933135D01*
X9149014Y95001607D01*
X9149019Y95001610D01*
X9152718Y95003434D01*
X9212467Y95043357D01*
X9400030Y95168682D01*
X9400035Y95168686D01*
X9403461Y95170975D01*
X9406555Y95173689D01*
X9406561Y95173693D01*
X9627100Y95367102D01*
X9630189Y95369811D01*
X9632898Y95372900D01*
X9826307Y95593439D01*
X9826311Y95593445D01*
X9829025Y95596539D01*
X9996566Y95847282D01*
X10129945Y96117748D01*
X10226880Y96403309D01*
X10285713Y96699080D01*
X10305436Y97000000D01*
X10293308Y97185040D01*
X10285983Y97296808D01*
X10285982Y97296815D01*
X10285713Y97300920D01*
X10284809Y97305468D01*
X10227686Y97592641D01*
X10227684Y97592647D01*
X10226880Y97596691D01*
X10129945Y97882252D01*
X9996566Y98152718D01*
X9829025Y98403461D01*
X9826311Y98406555D01*
X9826307Y98406561D01*
X9632898Y98627100D01*
X9630189Y98630189D01*
X9627100Y98632898D01*
X9627092Y98632906D01*
X9546289Y98703769D01*
X9508262Y98763722D01*
X9508684Y98834718D01*
X9547423Y98894214D01*
X9612178Y98923322D01*
X9629367Y98924500D01*
X60370633Y98924500D01*
X60438754Y98904498D01*
X60485247Y98850842D01*
X60495351Y98780568D01*
X60465857Y98715988D01*
X60453711Y98703769D01*
X60372908Y98632906D01*
X60372900Y98632898D01*
X60369811Y98630189D01*
X60367102Y98627100D01*
X60173693Y98406561D01*
X60173689Y98406555D01*
X60170975Y98403461D01*
X60003434Y98152718D01*
X59870055Y97882252D01*
X59773120Y97596691D01*
X59772316Y97592647D01*
X59772314Y97592641D01*
X59715192Y97305468D01*
X59714287Y97300920D01*
X59714018Y97296815D01*
X59714017Y97296808D01*
X59706692Y97185040D01*
X59694564Y97000000D01*
X59714287Y96699080D01*
X59773120Y96403309D01*
X59870055Y96117748D01*
X60003434Y95847282D01*
X60170975Y95596539D01*
X60173689Y95593445D01*
X60173693Y95593439D01*
X60367102Y95372900D01*
X60369811Y95369811D01*
X60372900Y95367102D01*
X60593439Y95173693D01*
X60593445Y95173689D01*
X60596539Y95170975D01*
X60599965Y95168686D01*
X60599970Y95168682D01*
X60787533Y95043357D01*
X60847282Y95003434D01*
X60850981Y95001610D01*
X60850986Y95001607D01*
X60989834Y94933135D01*
X61117748Y94870055D01*
X61121653Y94868729D01*
X61121654Y94868729D01*
X61399396Y94774448D01*
X61399400Y94774447D01*
X61403309Y94773120D01*
X61407353Y94772316D01*
X61407359Y94772314D01*
X61695041Y94715090D01*
X61695047Y94715089D01*
X61699080Y94714287D01*
X61703185Y94714018D01*
X61703192Y94714017D01*
X61922641Y94699634D01*
X61922650Y94699634D01*
X61924690Y94699500D01*
X62075310Y94699500D01*
X62077350Y94699634D01*
X62077359Y94699634D01*
X62296808Y94714017D01*
X62296815Y94714018D01*
X62300920Y94714287D01*
X62304953Y94715089D01*
X62304959Y94715090D01*
X62592641Y94772314D01*
X62592647Y94772316D01*
X62596691Y94773120D01*
X62600600Y94774447D01*
X62600604Y94774448D01*
X62878346Y94868729D01*
X62878347Y94868729D01*
X62882252Y94870055D01*
X63010166Y94933135D01*
X63149014Y95001607D01*
X63149019Y95001610D01*
X63152718Y95003434D01*
X63212467Y95043357D01*
X63400030Y95168682D01*
X63400035Y95168686D01*
X63403461Y95170975D01*
X63406555Y95173689D01*
X63406561Y95173693D01*
X63627100Y95367102D01*
X63630189Y95369811D01*
X63632898Y95372900D01*
X63826307Y95593439D01*
X63826311Y95593445D01*
X63829025Y95596539D01*
X63996566Y95847282D01*
X64129945Y96117748D01*
X64226880Y96403309D01*
X64285713Y96699080D01*
X64305436Y97000000D01*
X64293308Y97185040D01*
X64285983Y97296808D01*
X64285982Y97296815D01*
X64285713Y97300920D01*
X64284809Y97305468D01*
X64227686Y97592641D01*
X64227684Y97592647D01*
X64226880Y97596691D01*
X64129945Y97882252D01*
X63996566Y98152718D01*
X63829025Y98403461D01*
X63826311Y98406555D01*
X63826307Y98406561D01*
X63632898Y98627100D01*
X63630189Y98630189D01*
X63627100Y98632898D01*
X63627092Y98632906D01*
X63546289Y98703769D01*
X63508262Y98763722D01*
X63508684Y98834718D01*
X63547423Y98894214D01*
X63612178Y98923322D01*
X63629367Y98924500D01*
X64798500Y98924500D01*
X64866621Y98904498D01*
X64913114Y98850842D01*
X64924500Y98798500D01*
X64924500Y7201500D01*
X64904498Y7133379D01*
X64850842Y7086886D01*
X64798500Y7075500D01*
X5201500Y7075500D01*
X5133379Y7095502D01*
X5086886Y7149158D01*
X5075500Y7201500D01*
X5075500Y11000000D01*
X5694564Y11000000D01*
X5714287Y10699080D01*
X5715089Y10695047D01*
X5715090Y10695041D01*
X5772314Y10407359D01*
X5773120Y10403309D01*
X5774447Y10399400D01*
X5774448Y10399396D01*
X5868729Y10121654D01*
X5870055Y10117748D01*
X5887350Y10082678D01*
X5988848Y9876860D01*
X6003434Y9847282D01*
X6005728Y9843849D01*
X6150446Y9627263D01*
X6170975Y9596539D01*
X6173689Y9593445D01*
X6173693Y9593439D01*
X6313241Y9434316D01*
X6369811Y9369811D01*
X6372900Y9367102D01*
X6593439Y9173693D01*
X6593445Y9173689D01*
X6596539Y9170975D01*
X6599965Y9168686D01*
X6599970Y9168682D01*
X6787533Y9043357D01*
X6847282Y9003434D01*
X6850981Y9001610D01*
X6850986Y9001607D01*
X6989834Y8933135D01*
X7117748Y8870055D01*
X7121653Y8868729D01*
X7121654Y8868729D01*
X7399396Y8774448D01*
X7399400Y8774447D01*
X7403309Y8773120D01*
X7407353Y8772316D01*
X7407359Y8772314D01*
X7695041Y8715090D01*
X7695047Y8715089D01*
X7699080Y8714287D01*
X7703185Y8714018D01*
X7703192Y8714017D01*
X7922641Y8699634D01*
X7922650Y8699634D01*
X7924690Y8699500D01*
X8075310Y8699500D01*
X8077350Y8699634D01*
X8077359Y8699634D01*
X8296808Y8714017D01*
X8296815Y8714018D01*
X8300920Y8714287D01*
X8304953Y8715089D01*
X8304959Y8715090D01*
X8592641Y8772314D01*
X8592647Y8772316D01*
X8596691Y8773120D01*
X8600600Y8774447D01*
X8600604Y8774448D01*
X8878346Y8868729D01*
X8878347Y8868729D01*
X8882252Y8870055D01*
X9010166Y8933135D01*
X9149014Y9001607D01*
X9149019Y9001610D01*
X9152718Y9003434D01*
X9212467Y9043357D01*
X9400030Y9168682D01*
X9400035Y9168686D01*
X9403461Y9170975D01*
X9406555Y9173689D01*
X9406561Y9173693D01*
X9627100Y9367102D01*
X9630189Y9369811D01*
X9686759Y9434316D01*
X9826307Y9593439D01*
X9826311Y9593445D01*
X9829025Y9596539D01*
X9849555Y9627263D01*
X9942924Y9767000D01*
X11870929Y9767000D01*
X36129072Y9767000D01*
X36129072Y14233000D01*
X11870929Y14233000D01*
X11870929Y9767000D01*
X9942924Y9767000D01*
X9994272Y9843849D01*
X9996566Y9847282D01*
X10011153Y9876860D01*
X10112650Y10082678D01*
X10129945Y10117748D01*
X10131271Y10121654D01*
X10225552Y10399396D01*
X10225553Y10399400D01*
X10226880Y10403309D01*
X10227686Y10407359D01*
X10284910Y10695041D01*
X10284911Y10695047D01*
X10285713Y10699080D01*
X10305436Y11000000D01*
X10285713Y11300920D01*
X10265673Y11401671D01*
X10227686Y11592641D01*
X10227684Y11592647D01*
X10226880Y11596691D01*
X10223186Y11607575D01*
X10131271Y11878346D01*
X10131271Y11878347D01*
X10129945Y11882252D01*
X10045946Y12052585D01*
X9998393Y12149014D01*
X9998390Y12149019D01*
X9996566Y12152718D01*
X9913277Y12277369D01*
X9831318Y12400030D01*
X9831314Y12400035D01*
X9829025Y12403461D01*
X9826311Y12406555D01*
X9826307Y12406561D01*
X9632898Y12627100D01*
X9630189Y12630189D01*
X9627100Y12632898D01*
X9406561Y12826307D01*
X9406555Y12826311D01*
X9403461Y12829025D01*
X9400035Y12831314D01*
X9400030Y12831318D01*
X9156151Y12994272D01*
X9152718Y12996566D01*
X9149019Y12998390D01*
X9149014Y12998393D01*
X9010166Y13066865D01*
X8882252Y13129945D01*
X8878346Y13131271D01*
X8600604Y13225552D01*
X8600600Y13225553D01*
X8596691Y13226880D01*
X8592647Y13227684D01*
X8592641Y13227686D01*
X8304959Y13284910D01*
X8304953Y13284911D01*
X8300920Y13285713D01*
X8296815Y13285982D01*
X8296808Y13285983D01*
X8077359Y13300366D01*
X8077350Y13300366D01*
X8075310Y13300500D01*
X7924690Y13300500D01*
X7922650Y13300366D01*
X7922641Y13300366D01*
X7703192Y13285983D01*
X7703185Y13285982D01*
X7699080Y13285713D01*
X7695047Y13284911D01*
X7695041Y13284910D01*
X7407359Y13227686D01*
X7407353Y13227684D01*
X7403309Y13226880D01*
X7399400Y13225553D01*
X7399396Y13225552D01*
X7121654Y13131271D01*
X7117748Y13129945D01*
X6989834Y13066865D01*
X6850986Y12998393D01*
X6850981Y12998390D01*
X6847282Y12996566D01*
X6843849Y12994272D01*
X6599970Y12831318D01*
X6599965Y12831314D01*
X6596539Y12829025D01*
X6593445Y12826311D01*
X6593439Y12826307D01*
X6372900Y12632898D01*
X6369811Y12630189D01*
X6367102Y12627100D01*
X6173693Y12406561D01*
X6173689Y12406555D01*
X6170975Y12403461D01*
X6168686Y12400035D01*
X6168682Y12400030D01*
X6086723Y12277369D01*
X6003434Y12152718D01*
X6001610Y12149019D01*
X6001607Y12149014D01*
X5954054Y12052585D01*
X5870055Y11882252D01*
X5868729Y11878347D01*
X5868729Y11878346D01*
X5776815Y11607575D01*
X5773120Y11596691D01*
X5772316Y11592647D01*
X5772314Y11592641D01*
X5734328Y11401671D01*
X5714287Y11300920D01*
X5694564Y11000000D01*
X5075500Y11000000D01*
X5075500Y18781125D01*
X5095502Y18849246D01*
X5149158Y18895739D01*
X5219432Y18905843D01*
X5284012Y18876349D01*
X5290595Y18870220D01*
X6999951Y17160864D01*
X6999953Y17160861D01*
X7160861Y16999953D01*
X7165364Y16996800D01*
X7203048Y16970414D01*
X7211765Y16963725D01*
X7251214Y16930623D01*
X7295830Y16904864D01*
X7305076Y16898973D01*
X7347266Y16869432D01*
X7393946Y16847664D01*
X7403677Y16842598D01*
X7443516Y16819597D01*
X7443519Y16819596D01*
X7448285Y16816844D01*
X7453460Y16814960D01*
X7453461Y16814960D01*
X7496673Y16799232D01*
X7506826Y16795027D01*
X7553504Y16773261D01*
X7558814Y16771838D01*
X7558820Y16771836D01*
X7603248Y16759932D01*
X7613733Y16756626D01*
X7656947Y16740897D01*
X7656955Y16740895D01*
X7662120Y16739015D01*
X7707546Y16731005D01*
X7712836Y16730072D01*
X7723564Y16727694D01*
X7773308Y16714365D01*
X7778790Y16713885D01*
X7778798Y16713884D01*
X7824604Y16709876D01*
X7835501Y16708442D01*
X7874720Y16701527D01*
X7886221Y16699499D01*
X8113779Y16699499D01*
X8113783Y16699500D01*
X28886217Y16699500D01*
X28886221Y16699499D01*
X29113779Y16699499D01*
X29125280Y16701527D01*
X29164499Y16708442D01*
X29175396Y16709876D01*
X29221202Y16713884D01*
X29221210Y16713885D01*
X29226692Y16714365D01*
X29276436Y16727694D01*
X29287164Y16730072D01*
X29292454Y16731005D01*
X29337880Y16739015D01*
X29343045Y16740895D01*
X29343053Y16740897D01*
X29386267Y16756626D01*
X29396752Y16759932D01*
X29441180Y16771836D01*
X29441186Y16771838D01*
X29446496Y16773261D01*
X29493174Y16795027D01*
X29503327Y16799232D01*
X29546539Y16814960D01*
X29546540Y16814960D01*
X29551715Y16816844D01*
X29556481Y16819596D01*
X29556484Y16819597D01*
X29596323Y16842598D01*
X29606054Y16847664D01*
X29652734Y16869432D01*
X29694924Y16898973D01*
X29704170Y16904864D01*
X29748786Y16930623D01*
X29788235Y16963725D01*
X29796952Y16970414D01*
X29834636Y16996800D01*
X29839139Y16999953D01*
X30000047Y17160861D01*
X30000049Y17160864D01*
X33839136Y20999951D01*
X33839139Y20999953D01*
X34000047Y21160861D01*
X34029589Y21203053D01*
X34036279Y21211770D01*
X34065838Y21246997D01*
X34069377Y21251214D01*
X34095136Y21295830D01*
X34101027Y21305076D01*
X34130568Y21347266D01*
X34152336Y21393946D01*
X34157402Y21403677D01*
X34180403Y21443516D01*
X34180404Y21443519D01*
X34183156Y21448285D01*
X34200768Y21496673D01*
X34204974Y21506829D01*
X34224414Y21548519D01*
X34226739Y21553504D01*
X34228162Y21558814D01*
X34228164Y21558820D01*
X34240068Y21603248D01*
X34243374Y21613733D01*
X34259103Y21656947D01*
X34259105Y21656955D01*
X34260985Y21662120D01*
X34269928Y21712836D01*
X34272307Y21723567D01*
X34284211Y21767995D01*
X34285635Y21773308D01*
X34286115Y21778790D01*
X34286116Y21778798D01*
X34290124Y21824604D01*
X34291558Y21835501D01*
X34299545Y21880800D01*
X34300501Y21886221D01*
X34300501Y22113779D01*
X34300500Y22113785D01*
X34300500Y32424648D01*
X34320502Y32492769D01*
X34347891Y32523119D01*
X34414117Y32575987D01*
X34419620Y32580380D01*
X34531664Y32720734D01*
X34609827Y32882423D01*
X34650226Y33057411D01*
X34650500Y33062163D01*
X34650499Y34937836D01*
X34650226Y34942589D01*
X34609827Y35117577D01*
X34554005Y35233051D01*
X34534731Y35272922D01*
X34534730Y35272923D01*
X34531664Y35279266D01*
X34419620Y35419620D01*
X34279266Y35531664D01*
X34265624Y35538259D01*
X34148745Y35594760D01*
X34117577Y35609827D01*
X34110716Y35611411D01*
X33947788Y35649026D01*
X33947785Y35649026D01*
X33942589Y35650226D01*
X33937837Y35650500D01*
X33936013Y35650500D01*
X32991963Y35650499D01*
X32062164Y35650499D01*
X32057411Y35650226D01*
X31882423Y35609827D01*
X31851255Y35594760D01*
X31734377Y35538259D01*
X31720734Y35531664D01*
X31580380Y35419620D01*
X31539468Y35368371D01*
X31481339Y35327614D01*
X31410400Y35324754D01*
X31351904Y35357887D01*
X31307875Y35401916D01*
X31299467Y35408972D01*
X31121007Y35533931D01*
X31111511Y35539414D01*
X30914050Y35631491D01*
X30903760Y35635236D01*
X30877499Y35642273D01*
X30863401Y35641938D01*
X30860000Y35633997D01*
X30860000Y32371153D01*
X30863973Y32357622D01*
X30872521Y32356393D01*
X30903760Y32364764D01*
X30914050Y32368509D01*
X31111511Y32460586D01*
X31121007Y32466069D01*
X31299467Y32591028D01*
X31307875Y32598084D01*
X31351904Y32642113D01*
X31414216Y32676139D01*
X31485031Y32671074D01*
X31539468Y32631629D01*
X31580380Y32580380D01*
X31585883Y32575987D01*
X31652109Y32523119D01*
X31692868Y32464988D01*
X31699500Y32424648D01*
X31699500Y22590875D01*
X31679498Y22522754D01*
X31662595Y22501780D01*
X28498220Y19337405D01*
X28435908Y19303379D01*
X28409125Y19300500D01*
X8590875Y19300500D01*
X8522754Y19320502D01*
X8501780Y19337405D01*
X7337405Y20501780D01*
X7303379Y20564092D01*
X7300500Y20590875D01*
X7300500Y21355000D01*
X8139396Y21355000D01*
X8159779Y21096006D01*
X8160933Y21091199D01*
X8160934Y21091193D01*
X8199220Y20931724D01*
X8220427Y20843390D01*
X8222320Y20838819D01*
X8222321Y20838817D01*
X8305948Y20636925D01*
X8319846Y20603372D01*
X8455588Y20381860D01*
X8624311Y20184311D01*
X8821860Y20015588D01*
X9043372Y19879846D01*
X9047942Y19877953D01*
X9047946Y19877951D01*
X9278817Y19782321D01*
X9283390Y19780427D01*
X9313043Y19773308D01*
X9531193Y19720934D01*
X9531199Y19720933D01*
X9536006Y19719779D01*
X9795000Y19699396D01*
X10053994Y19719779D01*
X10058801Y19720933D01*
X10058807Y19720934D01*
X10276957Y19773308D01*
X10306610Y19780427D01*
X10311183Y19782321D01*
X10542054Y19877951D01*
X10542058Y19877953D01*
X10546628Y19879846D01*
X10768140Y20015588D01*
X10965689Y20184311D01*
X11134412Y20381860D01*
X11270154Y20603372D01*
X11284053Y20636925D01*
X11367679Y20838817D01*
X11367680Y20838819D01*
X11369573Y20843390D01*
X11390780Y20931724D01*
X11429066Y21091193D01*
X11429067Y21091199D01*
X11430221Y21096006D01*
X11450604Y21355000D01*
X11430221Y21613994D01*
X11429067Y21618801D01*
X11429066Y21618807D01*
X11383147Y21810070D01*
X11369573Y21866610D01*
X11367679Y21871183D01*
X11272049Y22102054D01*
X11272047Y22102058D01*
X11270154Y22106628D01*
X11134412Y22328140D01*
X10965689Y22525689D01*
X10961933Y22528897D01*
X10961928Y22528902D01*
X10961592Y22529189D01*
X10961500Y22529330D01*
X10958425Y22532405D01*
X10959071Y22533051D01*
X10922783Y22588639D01*
X10922275Y22659634D01*
X10959095Y22716925D01*
X10958425Y22717595D01*
X10961504Y22720674D01*
X10961592Y22720811D01*
X10961928Y22721098D01*
X10961933Y22721103D01*
X10965689Y22724311D01*
X11134412Y22921860D01*
X11270154Y23143372D01*
X11284053Y23176925D01*
X11367679Y23378817D01*
X11367680Y23378819D01*
X11369573Y23383390D01*
X11390780Y23471724D01*
X11429066Y23631193D01*
X11429067Y23631199D01*
X11430221Y23636006D01*
X11450604Y23895000D01*
X11430221Y24153994D01*
X11429067Y24158801D01*
X11429066Y24158807D01*
X11383147Y24350070D01*
X11369573Y24406610D01*
X11367679Y24411183D01*
X11272049Y24642054D01*
X11272047Y24642058D01*
X11270154Y24646628D01*
X11134412Y24868140D01*
X10965689Y25065689D01*
X10768140Y25234412D01*
X10546628Y25370154D01*
X10542058Y25372047D01*
X10542054Y25372049D01*
X10311183Y25467679D01*
X10311181Y25467680D01*
X10306610Y25469573D01*
X10193952Y25496620D01*
X10134271Y25530044D01*
X9807812Y25856503D01*
X9793868Y25864117D01*
X9792035Y25863986D01*
X9785420Y25859735D01*
X9455729Y25530044D01*
X9396048Y25496620D01*
X9283390Y25469573D01*
X9278819Y25467680D01*
X9278817Y25467679D01*
X9047946Y25372049D01*
X9047942Y25372047D01*
X9043372Y25370154D01*
X8821860Y25234412D01*
X8624311Y25065689D01*
X8455588Y24868140D01*
X8319846Y24646628D01*
X8317953Y24642058D01*
X8317951Y24642054D01*
X8222321Y24411183D01*
X8220427Y24406610D01*
X8206853Y24350070D01*
X8160934Y24158807D01*
X8160933Y24158801D01*
X8159779Y24153994D01*
X8139396Y23895000D01*
X8159779Y23636006D01*
X8160933Y23631199D01*
X8160934Y23631193D01*
X8199220Y23471724D01*
X8220427Y23383390D01*
X8222320Y23378819D01*
X8222321Y23378817D01*
X8305948Y23176925D01*
X8319846Y23143372D01*
X8455588Y22921860D01*
X8624311Y22724311D01*
X8628067Y22721103D01*
X8628072Y22721098D01*
X8628408Y22720811D01*
X8628500Y22720670D01*
X8631575Y22717595D01*
X8630929Y22716949D01*
X8667217Y22661361D01*
X8667725Y22590366D01*
X8630905Y22533075D01*
X8631575Y22532405D01*
X8628496Y22529326D01*
X8628408Y22529189D01*
X8628072Y22528902D01*
X8628067Y22528897D01*
X8624311Y22525689D01*
X8455588Y22328140D01*
X8319846Y22106628D01*
X8317953Y22102058D01*
X8317951Y22102054D01*
X8222321Y21871183D01*
X8220427Y21866610D01*
X8206853Y21810070D01*
X8160934Y21618807D01*
X8160933Y21618801D01*
X8159779Y21613994D01*
X8139396Y21355000D01*
X7300500Y21355000D01*
X7300500Y26463137D01*
X8433050Y26463137D01*
X8445309Y26250523D01*
X8446745Y26240303D01*
X8493565Y26032554D01*
X8496645Y26022725D01*
X8576770Y25825398D01*
X8581415Y25816203D01*
X8583008Y25813604D01*
X8593464Y25804143D01*
X8602242Y25807927D01*
X9216503Y26422188D01*
X9222881Y26433868D01*
X10365883Y26433868D01*
X10366014Y26432035D01*
X10370265Y26425420D01*
X10983115Y25812570D01*
X10995495Y25805810D01*
X11000928Y25809877D01*
X11059670Y25928733D01*
X11063469Y25938328D01*
X11125376Y26142085D01*
X11127555Y26152166D01*
X11155590Y26365113D01*
X11156109Y26371788D01*
X11157572Y26431636D01*
X11157378Y26438354D01*
X11139781Y26652396D01*
X11138096Y26662576D01*
X11086214Y26869125D01*
X11082894Y26878876D01*
X11005770Y27056249D01*
X10996732Y27067072D01*
X10991258Y27065573D01*
X10373497Y26447812D01*
X10365883Y26433868D01*
X9222881Y26433868D01*
X9224117Y26436132D01*
X9223986Y26437965D01*
X9219735Y26444580D01*
X8605892Y27058423D01*
X8593512Y27065183D01*
X8588545Y27061464D01*
X8518338Y26910217D01*
X8514775Y26900530D01*
X8457864Y26695319D01*
X8455933Y26685200D01*
X8433302Y26473426D01*
X8433050Y26463137D01*
X7300500Y26463137D01*
X7300500Y27568508D01*
X7320502Y27636629D01*
X7374158Y27683122D01*
X7426500Y27694508D01*
X8729816Y27694508D01*
X8797937Y27674506D01*
X8811647Y27664319D01*
X8821860Y27655596D01*
X9043372Y27519854D01*
X9047942Y27517961D01*
X9047946Y27517959D01*
X9278817Y27422329D01*
X9283390Y27420435D01*
X9340120Y27406815D01*
X9369719Y27399709D01*
X9429400Y27366285D01*
X9782188Y27013497D01*
X9796132Y27005883D01*
X9797965Y27006014D01*
X9804580Y27010265D01*
X10160600Y27366285D01*
X10220281Y27399709D01*
X10249880Y27406815D01*
X10306610Y27420435D01*
X10311183Y27422329D01*
X10542054Y27517959D01*
X10542058Y27517961D01*
X10546628Y27519854D01*
X10768140Y27655596D01*
X10965689Y27824319D01*
X11134412Y28021868D01*
X11270154Y28243380D01*
X11277318Y28260674D01*
X11367679Y28478825D01*
X11367680Y28478827D01*
X11369573Y28483398D01*
X11418681Y28687946D01*
X11429066Y28731201D01*
X11429067Y28731207D01*
X11430221Y28736014D01*
X11450604Y28995008D01*
X11430221Y29254002D01*
X11429067Y29258809D01*
X11429066Y29258815D01*
X11370728Y29501806D01*
X11369573Y29506618D01*
X11291959Y29693994D01*
X11272049Y29742062D01*
X11272047Y29742066D01*
X11270154Y29746636D01*
X11134412Y29968148D01*
X10965689Y30165697D01*
X10964485Y30166725D01*
X10930904Y30228213D01*
X10935964Y30299029D01*
X10964309Y30343132D01*
X10965689Y30344311D01*
X11134412Y30541860D01*
X11270154Y30763372D01*
X11284053Y30796925D01*
X11367679Y30998817D01*
X11367680Y30998819D01*
X11369573Y31003390D01*
X11404784Y31150053D01*
X11429066Y31251193D01*
X11429067Y31251199D01*
X11430221Y31256006D01*
X11450604Y31515000D01*
X11430221Y31773994D01*
X11429067Y31778801D01*
X11429066Y31778807D01*
X11383147Y31970070D01*
X11369573Y32026610D01*
X11367679Y32031183D01*
X11272049Y32262054D01*
X11272047Y32262058D01*
X11270154Y32266628D01*
X11134412Y32488140D01*
X10978171Y32671074D01*
X10968897Y32681933D01*
X10965689Y32685689D01*
X10961933Y32688897D01*
X10961928Y32688902D01*
X10961592Y32689189D01*
X10961500Y32689330D01*
X10958425Y32692405D01*
X10959071Y32693051D01*
X10922783Y32748639D01*
X10922275Y32819634D01*
X10959095Y32876925D01*
X10958425Y32877595D01*
X10961504Y32880674D01*
X10961592Y32880811D01*
X10961928Y32881098D01*
X10961933Y32881103D01*
X10965689Y32884311D01*
X11134412Y33081860D01*
X11270154Y33303372D01*
X11284053Y33336925D01*
X11367679Y33538817D01*
X11367680Y33538819D01*
X11369573Y33543390D01*
X11390780Y33631724D01*
X11429066Y33791193D01*
X11429067Y33791199D01*
X11430221Y33796006D01*
X11450604Y34055000D01*
X11430221Y34313994D01*
X11429067Y34318801D01*
X11429066Y34318807D01*
X11383147Y34510070D01*
X11369573Y34566610D01*
X11334556Y34651148D01*
X11272049Y34802054D01*
X11272047Y34802058D01*
X11270154Y34806628D01*
X11134412Y35028140D01*
X10965689Y35225689D01*
X10961933Y35228897D01*
X10961928Y35228902D01*
X10961592Y35229189D01*
X10961500Y35229330D01*
X10958425Y35232405D01*
X10959071Y35233051D01*
X10922783Y35288639D01*
X10922275Y35359634D01*
X10959095Y35416925D01*
X10958425Y35417595D01*
X10961504Y35420674D01*
X10961592Y35420811D01*
X10961928Y35421098D01*
X10961933Y35421103D01*
X10965689Y35424311D01*
X11134412Y35621860D01*
X11270154Y35843372D01*
X11282580Y35873369D01*
X11367679Y36078817D01*
X11367680Y36078819D01*
X11369573Y36083390D01*
X11390780Y36171724D01*
X11429066Y36331193D01*
X11429067Y36331199D01*
X11430221Y36336006D01*
X11450604Y36595000D01*
X11430221Y36853994D01*
X11429067Y36858801D01*
X11429066Y36858807D01*
X11383147Y37050070D01*
X11369573Y37106610D01*
X11367679Y37111183D01*
X11272049Y37342054D01*
X11272047Y37342058D01*
X11270154Y37346628D01*
X11134412Y37568140D01*
X10965689Y37765689D01*
X10961933Y37768897D01*
X10961928Y37768902D01*
X10961592Y37769189D01*
X10961500Y37769330D01*
X10958425Y37772405D01*
X10959071Y37773051D01*
X10922783Y37828639D01*
X10922275Y37899634D01*
X10959095Y37956925D01*
X10958425Y37957595D01*
X10961504Y37960674D01*
X10961592Y37960811D01*
X10961928Y37961098D01*
X10961933Y37961103D01*
X10965689Y37964311D01*
X11134412Y38161860D01*
X11270154Y38383372D01*
X11284053Y38416925D01*
X11367679Y38618817D01*
X11367680Y38618819D01*
X11369573Y38623390D01*
X11390780Y38711724D01*
X11429066Y38871193D01*
X11429067Y38871199D01*
X11430221Y38876006D01*
X11450604Y39135000D01*
X11430221Y39393994D01*
X11429067Y39398801D01*
X11429066Y39398807D01*
X11383147Y39590070D01*
X11369573Y39646610D01*
X11367679Y39651183D01*
X11272049Y39882054D01*
X11272047Y39882058D01*
X11270154Y39886628D01*
X11134412Y40108140D01*
X10965689Y40305689D01*
X10961933Y40308897D01*
X10961928Y40308902D01*
X10961592Y40309189D01*
X10961500Y40309330D01*
X10958425Y40312405D01*
X10959071Y40313051D01*
X10922783Y40368639D01*
X10922275Y40439634D01*
X10959095Y40496925D01*
X10958425Y40497595D01*
X10961504Y40500674D01*
X10961592Y40500811D01*
X10961928Y40501098D01*
X10961933Y40501103D01*
X10965689Y40504311D01*
X11134412Y40701860D01*
X11270154Y40923372D01*
X11284053Y40956925D01*
X11367679Y41158817D01*
X11367680Y41158819D01*
X11369573Y41163390D01*
X11405280Y41312120D01*
X11429066Y41411193D01*
X11429067Y41411199D01*
X11430221Y41416006D01*
X11450604Y41675000D01*
X11430221Y41933994D01*
X11429067Y41938801D01*
X11429066Y41938807D01*
X11383147Y42130070D01*
X11369573Y42186610D01*
X11367679Y42191183D01*
X11272049Y42422054D01*
X11272047Y42422058D01*
X11270154Y42426628D01*
X11134412Y42648140D01*
X10965689Y42845689D01*
X10961933Y42848897D01*
X10961928Y42848902D01*
X10961592Y42849189D01*
X10961500Y42849330D01*
X10958425Y42852405D01*
X10959071Y42853051D01*
X10922783Y42908639D01*
X10922275Y42979634D01*
X10959095Y43036925D01*
X10958425Y43037595D01*
X10961504Y43040674D01*
X10961592Y43040811D01*
X10961928Y43041098D01*
X10961933Y43041103D01*
X10965689Y43044311D01*
X11134412Y43241860D01*
X11270154Y43463372D01*
X11284053Y43496925D01*
X11367679Y43698817D01*
X11367680Y43698819D01*
X11369573Y43703390D01*
X11390780Y43791724D01*
X11429066Y43951193D01*
X11429067Y43951199D01*
X11430221Y43956006D01*
X11450604Y44215000D01*
X11430221Y44473994D01*
X11429067Y44478801D01*
X11429066Y44478807D01*
X11383147Y44670070D01*
X11369573Y44726610D01*
X11367679Y44731183D01*
X11272049Y44962054D01*
X11272047Y44962058D01*
X11270154Y44966628D01*
X11134412Y45188140D01*
X10965689Y45385689D01*
X10961933Y45388897D01*
X10961928Y45388902D01*
X10961592Y45389189D01*
X10961500Y45389330D01*
X10958425Y45392405D01*
X10959071Y45393051D01*
X10922783Y45448639D01*
X10922275Y45519634D01*
X10959095Y45576925D01*
X10958425Y45577595D01*
X10961504Y45580674D01*
X10961592Y45580811D01*
X10961928Y45581098D01*
X10961933Y45581103D01*
X10965689Y45584311D01*
X11134412Y45781860D01*
X11270154Y46003372D01*
X11284053Y46036925D01*
X11367679Y46238817D01*
X11367680Y46238819D01*
X11369573Y46243390D01*
X11390780Y46331724D01*
X11429066Y46491193D01*
X11429067Y46491199D01*
X11430221Y46496006D01*
X11450604Y46755000D01*
X11430221Y47013994D01*
X11429067Y47018801D01*
X11429066Y47018807D01*
X11383147Y47210070D01*
X11369573Y47266610D01*
X11367679Y47271183D01*
X11272049Y47502054D01*
X11272047Y47502058D01*
X11270154Y47506628D01*
X11134412Y47728140D01*
X10965689Y47925689D01*
X10961933Y47928897D01*
X10961928Y47928902D01*
X10961592Y47929189D01*
X10961500Y47929330D01*
X10958425Y47932405D01*
X10959071Y47933051D01*
X10922783Y47988639D01*
X10922275Y48059634D01*
X10959095Y48116925D01*
X10958425Y48117595D01*
X10961504Y48120674D01*
X10961592Y48120811D01*
X10961928Y48121098D01*
X10961933Y48121103D01*
X10965689Y48124311D01*
X11134412Y48321860D01*
X11270154Y48543372D01*
X11275585Y48556482D01*
X11367679Y48778817D01*
X11367680Y48778819D01*
X11369573Y48783390D01*
X11390780Y48871724D01*
X11429066Y49031193D01*
X11429067Y49031199D01*
X11430221Y49036006D01*
X11450604Y49295000D01*
X11430221Y49553994D01*
X11429067Y49558801D01*
X11429066Y49558807D01*
X11383147Y49750070D01*
X11369573Y49806610D01*
X11367679Y49811183D01*
X11272049Y50042054D01*
X11272047Y50042058D01*
X11270154Y50046628D01*
X11134412Y50268140D01*
X11131202Y50271899D01*
X11131197Y50271906D01*
X10983624Y50444691D01*
X10954593Y50509480D01*
X10965198Y50579680D01*
X11012073Y50633003D01*
X11054131Y50649493D01*
X11054711Y50649546D01*
X11060283Y50651118D01*
X11060285Y50651118D01*
X11060406Y50651152D01*
X11079789Y50655008D01*
X11079929Y50655025D01*
X11085667Y50655704D01*
X11174459Y50683274D01*
X11177535Y50684186D01*
X11267064Y50709435D01*
X11272241Y50711988D01*
X11272251Y50711992D01*
X11272376Y50712054D01*
X11290737Y50719379D01*
X11290860Y50719417D01*
X11290864Y50719419D01*
X11296379Y50721131D01*
X11378634Y50764407D01*
X11381565Y50765901D01*
X11464947Y50807020D01*
X11469693Y50810564D01*
X11486405Y50821108D01*
X11491641Y50823863D01*
X11564663Y50881428D01*
X11567265Y50883425D01*
X11637109Y50935580D01*
X11641733Y50939033D01*
X11700418Y51002519D01*
X11703848Y51006084D01*
X11804405Y51106641D01*
X11866717Y51140667D01*
X11937532Y51135602D01*
X11994368Y51093055D01*
X12019179Y51026535D01*
X12019500Y51017546D01*
X12019500Y31824729D01*
X12019230Y31816488D01*
X12014770Y31748440D01*
X12022483Y31683280D01*
X12025699Y31656105D01*
X12026040Y31652851D01*
X12034546Y31560289D01*
X12036116Y31554722D01*
X12036117Y31554718D01*
X12036152Y31554594D01*
X12040008Y31535211D01*
X12040704Y31529333D01*
X12061180Y31463390D01*
X12068272Y31440549D01*
X12069186Y31437465D01*
X12094435Y31347936D01*
X12096988Y31342759D01*
X12096992Y31342749D01*
X12097054Y31342624D01*
X12104379Y31324263D01*
X12106131Y31318621D01*
X12149403Y31236375D01*
X12150896Y31233444D01*
X12192020Y31150053D01*
X12195564Y31145307D01*
X12206108Y31128595D01*
X12208863Y31123359D01*
X12266417Y31050352D01*
X12268413Y31047750D01*
X12324033Y30973267D01*
X12332850Y30965117D01*
X12387518Y30914582D01*
X12391084Y30911152D01*
X14119480Y29182757D01*
X14125117Y29176739D01*
X14170090Y29125457D01*
X14243142Y29067868D01*
X14245633Y29065850D01*
X14268999Y29046417D01*
X14317116Y29006398D01*
X14322151Y29003578D01*
X14322157Y29003574D01*
X14322287Y29003501D01*
X14338713Y28992526D01*
X14338818Y28992443D01*
X14338822Y28992440D01*
X14343360Y28988863D01*
X14425622Y28945583D01*
X14428495Y28944023D01*
X14465338Y28923390D01*
X14509621Y28898590D01*
X14515220Y28896690D01*
X14533387Y28888884D01*
X14533465Y28888843D01*
X14538620Y28886131D01*
X14568053Y28876992D01*
X14627384Y28858569D01*
X14630520Y28857550D01*
X14713079Y28829525D01*
X14713084Y28829524D01*
X14718548Y28827669D01*
X14724416Y28826818D01*
X14743670Y28822461D01*
X14743817Y28822415D01*
X14743823Y28822414D01*
X14749333Y28820703D01*
X14755061Y28820025D01*
X14755066Y28820024D01*
X14828806Y28811297D01*
X14841656Y28809776D01*
X14844915Y28809347D01*
X14861173Y28806990D01*
X14931189Y28796837D01*
X14931193Y28796837D01*
X14936902Y28796009D01*
X15023286Y28799403D01*
X15028233Y28799500D01*
X20955271Y28799500D01*
X20963513Y28799230D01*
X21031560Y28794770D01*
X21123927Y28805702D01*
X21127149Y28806040D01*
X21219711Y28814546D01*
X21225278Y28816116D01*
X21225282Y28816117D01*
X21225406Y28816152D01*
X21244789Y28820008D01*
X21244929Y28820025D01*
X21250667Y28820704D01*
X21339459Y28848274D01*
X21342535Y28849186D01*
X21432064Y28874435D01*
X21437241Y28876988D01*
X21437251Y28876992D01*
X21437376Y28877054D01*
X21455737Y28884379D01*
X21455860Y28884417D01*
X21455864Y28884419D01*
X21461379Y28886131D01*
X21543634Y28929407D01*
X21546565Y28930901D01*
X21576366Y28945597D01*
X21629947Y28972020D01*
X21634693Y28975564D01*
X21651405Y28986108D01*
X21656641Y28988863D01*
X21729663Y29046428D01*
X21732265Y29048425D01*
X21802109Y29100580D01*
X21806733Y29104033D01*
X21865418Y29167519D01*
X21868848Y29171084D01*
X23657243Y30959480D01*
X23663261Y30965117D01*
X23700872Y30998101D01*
X23714543Y31010090D01*
X23772111Y31083114D01*
X23774186Y31085676D01*
X23829908Y31152675D01*
X23829910Y31152677D01*
X23833602Y31157117D01*
X23836498Y31162287D01*
X23847471Y31178709D01*
X23847562Y31178824D01*
X23847565Y31178829D01*
X23851137Y31183360D01*
X23869968Y31219152D01*
X23894415Y31265617D01*
X23895989Y31268517D01*
X23938586Y31344578D01*
X23938587Y31344580D01*
X23941410Y31349621D01*
X23943310Y31355220D01*
X23951116Y31373387D01*
X23951178Y31373506D01*
X23953869Y31378620D01*
X23981434Y31467394D01*
X23982450Y31470520D01*
X24010475Y31553079D01*
X24010476Y31553084D01*
X24012331Y31558548D01*
X24013182Y31564416D01*
X24017539Y31583670D01*
X24017585Y31583817D01*
X24017586Y31583823D01*
X24019297Y31589333D01*
X24026812Y31652824D01*
X24030223Y31681650D01*
X24030654Y31684922D01*
X24043163Y31771189D01*
X24043163Y31771193D01*
X24043991Y31776902D01*
X24040597Y31863286D01*
X24040500Y31868233D01*
X24040500Y32365930D01*
X24060502Y32434051D01*
X24114158Y32480544D01*
X24184432Y32490648D01*
X24248328Y32461742D01*
X24436341Y32301164D01*
X24651141Y32169534D01*
X24655711Y32167641D01*
X24655715Y32167639D01*
X24879316Y32075021D01*
X24883889Y32073127D01*
X24968289Y32052865D01*
X25124039Y32015472D01*
X25124045Y32015471D01*
X25128852Y32014317D01*
X25380000Y31994551D01*
X25631148Y32014317D01*
X25635955Y32015471D01*
X25635961Y32015472D01*
X25791711Y32052865D01*
X25876111Y32073127D01*
X25880684Y32075021D01*
X26104285Y32167639D01*
X26104289Y32167641D01*
X26108859Y32169534D01*
X26323659Y32301164D01*
X26327419Y32304376D01*
X26327424Y32304379D01*
X26511457Y32461558D01*
X26511462Y32461563D01*
X26515224Y32464776D01*
X26554189Y32510398D01*
X26613640Y32549207D01*
X26684634Y32549713D01*
X26745811Y32510398D01*
X26784776Y32464776D01*
X26788538Y32461563D01*
X26788543Y32461558D01*
X26972576Y32304379D01*
X26972581Y32304376D01*
X26976341Y32301164D01*
X27191141Y32169534D01*
X27195711Y32167641D01*
X27195715Y32167639D01*
X27419316Y32075021D01*
X27423889Y32073127D01*
X27508289Y32052865D01*
X27664039Y32015472D01*
X27664045Y32015471D01*
X27668852Y32014317D01*
X27920000Y31994551D01*
X28171148Y32014317D01*
X28175955Y32015471D01*
X28175961Y32015472D01*
X28331711Y32052865D01*
X28416111Y32073127D01*
X28420684Y32075021D01*
X28644285Y32167639D01*
X28644289Y32167641D01*
X28648859Y32169534D01*
X28863659Y32301164D01*
X28867419Y32304376D01*
X28867424Y32304379D01*
X29051462Y32461563D01*
X29055224Y32464776D01*
X29127767Y32549713D01*
X29215621Y32652576D01*
X29215624Y32652581D01*
X29218836Y32656341D01*
X29221424Y32660564D01*
X29262624Y32727796D01*
X29315272Y32775428D01*
X29385313Y32787035D01*
X29450511Y32758932D01*
X29459152Y32751057D01*
X29612125Y32598084D01*
X29620533Y32591028D01*
X29798993Y32466069D01*
X29808489Y32460586D01*
X30005950Y32368509D01*
X30016240Y32364764D01*
X30042501Y32357727D01*
X30056599Y32358062D01*
X30060000Y32366003D01*
X30060000Y35628847D01*
X30056027Y35642378D01*
X30047479Y35643607D01*
X30016240Y35635236D01*
X30005950Y35631491D01*
X29808489Y35539414D01*
X29798993Y35533931D01*
X29620533Y35408972D01*
X29612125Y35401916D01*
X29459152Y35248943D01*
X29396840Y35214917D01*
X29326025Y35219982D01*
X29269189Y35262529D01*
X29262624Y35272204D01*
X29221424Y35339436D01*
X29221423Y35339437D01*
X29218836Y35343659D01*
X29215624Y35347419D01*
X29215621Y35347424D01*
X29150689Y35423449D01*
X29121658Y35488238D01*
X29120500Y35505279D01*
X29120500Y54798013D01*
X29120770Y54806254D01*
X29124852Y54868536D01*
X29125230Y54874302D01*
X29114298Y54966662D01*
X29113955Y54969937D01*
X29105983Y55056698D01*
X29105983Y55056700D01*
X29105454Y55062453D01*
X29103886Y55068012D01*
X29103885Y55068019D01*
X29103848Y55068150D01*
X29099994Y55087524D01*
X29099977Y55087668D01*
X29099976Y55087673D01*
X29099297Y55093409D01*
X29071722Y55182218D01*
X29070790Y55185365D01*
X29047134Y55269242D01*
X29045565Y55274806D01*
X29043008Y55279991D01*
X29043006Y55279996D01*
X29042946Y55280118D01*
X29035621Y55298479D01*
X29035582Y55298606D01*
X29035579Y55298612D01*
X29033869Y55304121D01*
X29031183Y55309226D01*
X29031179Y55309236D01*
X28990602Y55386360D01*
X28989104Y55389299D01*
X28950537Y55467506D01*
X28950532Y55467514D01*
X28947980Y55472689D01*
X28944439Y55477431D01*
X28933884Y55494160D01*
X28933825Y55494272D01*
X28931137Y55499382D01*
X28873585Y55572386D01*
X28871589Y55574988D01*
X28819420Y55644851D01*
X28819420Y55644852D01*
X28815967Y55649475D01*
X28752468Y55708172D01*
X28748903Y55711602D01*
X20583262Y63877243D01*
X20577625Y63883261D01*
X20536457Y63930204D01*
X20532652Y63934543D01*
X20464586Y63988202D01*
X20459628Y63992111D01*
X20457066Y63994186D01*
X20390067Y64049908D01*
X20390065Y64049910D01*
X20385625Y64053602D01*
X20380581Y64056427D01*
X20380455Y64056498D01*
X20364033Y64067471D01*
X20363918Y64067562D01*
X20363913Y64067565D01*
X20359382Y64071137D01*
X20277125Y64114415D01*
X20274244Y64115979D01*
X20229909Y64140808D01*
X20198164Y64158586D01*
X20198162Y64158587D01*
X20193121Y64161410D01*
X20187522Y64163310D01*
X20169355Y64171116D01*
X20169236Y64171178D01*
X20164122Y64173869D01*
X20075348Y64201434D01*
X20072222Y64202450D01*
X19989663Y64230475D01*
X19989658Y64230476D01*
X19984194Y64232331D01*
X19978326Y64233182D01*
X19959072Y64237539D01*
X19958925Y64237585D01*
X19958919Y64237586D01*
X19953409Y64239297D01*
X19947681Y64239975D01*
X19947676Y64239976D01*
X19873936Y64248703D01*
X19861086Y64250224D01*
X19857827Y64250653D01*
X19841569Y64253010D01*
X19771553Y64263163D01*
X19771549Y64263163D01*
X19765840Y64263991D01*
X19679456Y64260597D01*
X19674509Y64260500D01*
X18634070Y64260500D01*
X18565949Y64280502D01*
X18519456Y64334158D01*
X18509352Y64404432D01*
X18538258Y64468328D01*
X18698836Y64656341D01*
X18830466Y64871141D01*
X18833140Y64877595D01*
X18924979Y65099316D01*
X18924980Y65099318D01*
X18926873Y65103889D01*
X18960043Y65242054D01*
X18984528Y65344039D01*
X18984529Y65344045D01*
X18985683Y65348852D01*
X19005449Y65600000D01*
X18985683Y65851148D01*
X18984291Y65856949D01*
X18928028Y66091299D01*
X18926873Y66096111D01*
X18924979Y66100684D01*
X18832361Y66324285D01*
X18832359Y66324289D01*
X18830466Y66328859D01*
X18698836Y66543659D01*
X18695624Y66547419D01*
X18695621Y66547424D01*
X18538442Y66731457D01*
X18538437Y66731462D01*
X18535224Y66735224D01*
X18530786Y66739015D01*
X18489602Y66774189D01*
X18450793Y66833640D01*
X18450287Y66904634D01*
X18489602Y66965811D01*
X18531460Y67001561D01*
X18531462Y67001563D01*
X18535224Y67004776D01*
X18538437Y67008538D01*
X18538442Y67008543D01*
X18695621Y67192576D01*
X18695624Y67192581D01*
X18698836Y67196341D01*
X18830466Y67411141D01*
X18833140Y67417595D01*
X18924979Y67639316D01*
X18924980Y67639318D01*
X18926873Y67643889D01*
X18960043Y67782054D01*
X18984528Y67884039D01*
X18984529Y67884045D01*
X18985683Y67888852D01*
X19005449Y68140000D01*
X18985683Y68391148D01*
X18984291Y68396949D01*
X18928028Y68631299D01*
X18926873Y68636111D01*
X18888531Y68728677D01*
X18832361Y68864285D01*
X18832359Y68864289D01*
X18830466Y68868859D01*
X18698836Y69083659D01*
X18695624Y69087419D01*
X18695621Y69087424D01*
X18538442Y69271457D01*
X18538437Y69271462D01*
X18535224Y69275224D01*
X18489602Y69314189D01*
X18450793Y69373640D01*
X18450287Y69444634D01*
X18489602Y69505811D01*
X18531460Y69541561D01*
X18531462Y69541563D01*
X18535224Y69544776D01*
X18538437Y69548538D01*
X18538442Y69548543D01*
X18695621Y69732576D01*
X18695624Y69732581D01*
X18698836Y69736341D01*
X18830466Y69951141D01*
X18833140Y69957595D01*
X18924979Y70179316D01*
X18924980Y70179318D01*
X18926873Y70183889D01*
X18960043Y70322054D01*
X18984528Y70424039D01*
X18984529Y70424045D01*
X18985683Y70428852D01*
X19005449Y70680000D01*
X18985683Y70931148D01*
X18984297Y70936925D01*
X18928028Y71171299D01*
X18926873Y71176111D01*
X18924979Y71180684D01*
X18832361Y71404285D01*
X18832359Y71404289D01*
X18830466Y71408859D01*
X18698836Y71623659D01*
X18695624Y71627419D01*
X18695621Y71627424D01*
X18538442Y71811457D01*
X18538437Y71811462D01*
X18535224Y71815224D01*
X18489602Y71854189D01*
X18450793Y71913640D01*
X18450287Y71984634D01*
X18489602Y72045811D01*
X18531460Y72081561D01*
X18531462Y72081563D01*
X18535224Y72084776D01*
X18538437Y72088538D01*
X18538442Y72088543D01*
X18695621Y72272576D01*
X18695626Y72272583D01*
X18698836Y72276341D01*
X18830466Y72491141D01*
X18833140Y72497595D01*
X18924979Y72719316D01*
X18924980Y72719318D01*
X18926873Y72723889D01*
X18960043Y72862054D01*
X18984528Y72964039D01*
X18984529Y72964045D01*
X18985683Y72968852D01*
X19005449Y73220000D01*
X18985683Y73471148D01*
X18984297Y73476925D01*
X18928028Y73711299D01*
X18926873Y73716111D01*
X18878721Y73832361D01*
X18832361Y73944285D01*
X18832359Y73944289D01*
X18830466Y73948859D01*
X18698836Y74163659D01*
X18695624Y74167419D01*
X18695621Y74167424D01*
X18538442Y74351457D01*
X18538437Y74351462D01*
X18535224Y74355224D01*
X18489602Y74394189D01*
X18450793Y74453640D01*
X18450287Y74524634D01*
X18489602Y74585811D01*
X18531460Y74621561D01*
X18531462Y74621563D01*
X18535224Y74624776D01*
X18538437Y74628538D01*
X18538442Y74628543D01*
X18695621Y74812576D01*
X18695624Y74812581D01*
X18698836Y74816341D01*
X18830466Y75031141D01*
X18833140Y75037595D01*
X18924979Y75259316D01*
X18924980Y75259318D01*
X18926873Y75263889D01*
X18960043Y75402054D01*
X18984528Y75504039D01*
X18984529Y75504045D01*
X18985683Y75508852D01*
X19005449Y75760000D01*
X18985683Y76011148D01*
X18984297Y76016925D01*
X18928028Y76251299D01*
X18926873Y76256111D01*
X18924979Y76260684D01*
X18832361Y76484285D01*
X18832359Y76484289D01*
X18830466Y76488859D01*
X18698836Y76703659D01*
X18695624Y76707419D01*
X18695621Y76707424D01*
X18538442Y76891457D01*
X18538437Y76891462D01*
X18535224Y76895224D01*
X18489602Y76934189D01*
X18450793Y76993640D01*
X18450287Y77064634D01*
X18489602Y77125811D01*
X18531460Y77161561D01*
X18531462Y77161563D01*
X18535224Y77164776D01*
X18538437Y77168538D01*
X18538442Y77168543D01*
X18695621Y77352576D01*
X18695624Y77352581D01*
X18698836Y77356341D01*
X18830466Y77571141D01*
X18833140Y77577595D01*
X18924979Y77799316D01*
X18924980Y77799318D01*
X18926873Y77803889D01*
X18960043Y77942054D01*
X18984528Y78044039D01*
X18984529Y78044045D01*
X18985683Y78048852D01*
X19005449Y78300000D01*
X18985683Y78551148D01*
X18984291Y78556949D01*
X18935559Y78759930D01*
X18926873Y78796111D01*
X18877867Y78914423D01*
X18832361Y79024285D01*
X18832359Y79024289D01*
X18830466Y79028859D01*
X18698836Y79243659D01*
X18695624Y79247419D01*
X18695621Y79247424D01*
X18538442Y79431457D01*
X18538437Y79431462D01*
X18535224Y79435224D01*
X18512475Y79454654D01*
X18489602Y79474189D01*
X18450793Y79533640D01*
X18450287Y79604634D01*
X18489602Y79665811D01*
X18531460Y79701561D01*
X18531462Y79701563D01*
X18535224Y79704776D01*
X18538437Y79708538D01*
X18538442Y79708543D01*
X18695621Y79892576D01*
X18695624Y79892581D01*
X18698836Y79896341D01*
X18830466Y80111141D01*
X18833140Y80117595D01*
X18924979Y80339316D01*
X18924980Y80339318D01*
X18926873Y80343889D01*
X18960043Y80482054D01*
X18984528Y80584039D01*
X18984529Y80584045D01*
X18985683Y80588852D01*
X19005449Y80840000D01*
X18985683Y81091148D01*
X18984291Y81096949D01*
X18928028Y81331299D01*
X18926873Y81336111D01*
X18924979Y81340684D01*
X18832361Y81564285D01*
X18832359Y81564289D01*
X18830466Y81568859D01*
X18698836Y81783659D01*
X18695624Y81787419D01*
X18695621Y81787424D01*
X18538442Y81971457D01*
X18538437Y81971462D01*
X18535224Y81975224D01*
X18512475Y81994654D01*
X18489602Y82014189D01*
X18450793Y82073640D01*
X18450287Y82144634D01*
X18489602Y82205811D01*
X18531460Y82241561D01*
X18531462Y82241563D01*
X18535224Y82244776D01*
X18538437Y82248538D01*
X18538442Y82248543D01*
X18695621Y82432576D01*
X18695624Y82432581D01*
X18698836Y82436341D01*
X18830466Y82651141D01*
X18833140Y82657595D01*
X18924979Y82879316D01*
X18924980Y82879318D01*
X18926873Y82883889D01*
X18960043Y83022054D01*
X18984528Y83124039D01*
X18984529Y83124045D01*
X18985683Y83128852D01*
X19005449Y83380000D01*
X18985683Y83631148D01*
X18984291Y83636949D01*
X18928028Y83871299D01*
X18926873Y83876111D01*
X18892377Y83959393D01*
X18832361Y84104285D01*
X18832359Y84104289D01*
X18830466Y84108859D01*
X18698836Y84323659D01*
X18695624Y84327419D01*
X18695621Y84327424D01*
X18538442Y84511457D01*
X18538437Y84511462D01*
X18535224Y84515224D01*
X18489602Y84554189D01*
X18450793Y84613640D01*
X18450287Y84684634D01*
X18489602Y84745811D01*
X18531460Y84781561D01*
X18531462Y84781563D01*
X18535224Y84784776D01*
X18538437Y84788538D01*
X18538442Y84788543D01*
X18695621Y84972576D01*
X18695626Y84972583D01*
X18698836Y84976341D01*
X18830466Y85191141D01*
X18833140Y85197595D01*
X18924979Y85419316D01*
X18924980Y85419318D01*
X18926873Y85423889D01*
X18960043Y85562054D01*
X18984528Y85664039D01*
X18984529Y85664045D01*
X18985683Y85668852D01*
X19005449Y85920000D01*
X18985683Y86171148D01*
X18976944Y86207552D01*
X18929009Y86407212D01*
X18926873Y86416111D01*
X18911402Y86453461D01*
X18832361Y86644285D01*
X18832359Y86644289D01*
X18830466Y86648859D01*
X18698836Y86863659D01*
X18695624Y86867419D01*
X18695621Y86867424D01*
X18538442Y87051457D01*
X18538437Y87051462D01*
X18535224Y87055224D01*
X18489602Y87094189D01*
X18450793Y87153640D01*
X18450287Y87224634D01*
X18489602Y87285811D01*
X18531460Y87321561D01*
X18531462Y87321563D01*
X18535224Y87324776D01*
X18538437Y87328538D01*
X18538442Y87328543D01*
X18695621Y87512576D01*
X18695624Y87512581D01*
X18698836Y87516341D01*
X18830466Y87731141D01*
X18833140Y87737595D01*
X18924979Y87959316D01*
X18924980Y87959318D01*
X18926873Y87963889D01*
X18967631Y88133658D01*
X18984528Y88204039D01*
X18984529Y88204045D01*
X18985683Y88208852D01*
X19005449Y88460000D01*
X18985683Y88711148D01*
X18982287Y88725297D01*
X18928028Y88951299D01*
X18926873Y88956111D01*
X18906529Y89005226D01*
X18832361Y89184285D01*
X18832359Y89184289D01*
X18830466Y89188859D01*
X18698836Y89403659D01*
X18547366Y89581008D01*
X18518336Y89645795D01*
X18528941Y89715995D01*
X18531217Y89720174D01*
X18531664Y89720734D01*
X18609827Y89882423D01*
X18612015Y89891899D01*
X18649026Y90052212D01*
X18649026Y90052215D01*
X18650226Y90057411D01*
X18650500Y90062163D01*
X18650500Y91000000D01*
X18650499Y91936043D01*
X18650499Y91937836D01*
X18650226Y91942589D01*
X18609827Y92117577D01*
X18569464Y92201073D01*
X18534731Y92272922D01*
X18534730Y92272923D01*
X18531664Y92279266D01*
X18419620Y92419620D01*
X18279266Y92531664D01*
X18117577Y92609827D01*
X18048871Y92625689D01*
X17947788Y92649026D01*
X17947785Y92649026D01*
X17942589Y92650226D01*
X17937837Y92650500D01*
X17936013Y92650500D01*
X16991963Y92650499D01*
X16062164Y92650499D01*
X16057411Y92650226D01*
X15882423Y92609827D01*
X15720734Y92531664D01*
X15580380Y92419620D01*
X15468336Y92279266D01*
X15465270Y92272923D01*
X15465269Y92272922D01*
X15430536Y92201073D01*
X15390173Y92117577D01*
X15388589Y92110716D01*
X15353705Y91959614D01*
X15349774Y91942589D01*
X15349500Y91937837D01*
X15349500Y91936013D01*
X15349501Y90995070D01*
X15349501Y90062164D01*
X15349774Y90057411D01*
X15390173Y89882423D01*
X15393239Y89876081D01*
X15468336Y89720734D01*
X15466341Y89719769D01*
X15482817Y89661666D01*
X15462183Y89593734D01*
X15452641Y89581016D01*
X15301164Y89403659D01*
X15169534Y89188859D01*
X15167641Y89184289D01*
X15167639Y89184285D01*
X15093471Y89005226D01*
X15073127Y88956111D01*
X15071972Y88951299D01*
X15017714Y88725297D01*
X15014317Y88711148D01*
X14994551Y88460000D01*
X15014317Y88208852D01*
X15015471Y88204045D01*
X15015472Y88204039D01*
X15032369Y88133658D01*
X15073127Y87963889D01*
X15075020Y87959318D01*
X15075021Y87959316D01*
X15166861Y87737595D01*
X15169534Y87731141D01*
X15301164Y87516341D01*
X15304376Y87512581D01*
X15304379Y87512576D01*
X15461558Y87328543D01*
X15461563Y87328538D01*
X15464776Y87324776D01*
X15468538Y87321563D01*
X15468540Y87321561D01*
X15510398Y87285811D01*
X15549207Y87226360D01*
X15549713Y87155366D01*
X15510398Y87094189D01*
X15464776Y87055224D01*
X15461563Y87051462D01*
X15461558Y87051457D01*
X15304379Y86867424D01*
X15304376Y86867419D01*
X15301164Y86863659D01*
X15169534Y86648859D01*
X15167641Y86644289D01*
X15167639Y86644285D01*
X15088598Y86453461D01*
X15073127Y86416111D01*
X15070991Y86407212D01*
X15023057Y86207552D01*
X15014317Y86171148D01*
X14994551Y85920000D01*
X15014317Y85668852D01*
X15015471Y85664045D01*
X15015472Y85664039D01*
X15039957Y85562054D01*
X15073127Y85423889D01*
X15075020Y85419318D01*
X15075021Y85419316D01*
X15166861Y85197595D01*
X15169534Y85191141D01*
X15301164Y84976341D01*
X15304374Y84972583D01*
X15304379Y84972576D01*
X15461558Y84788543D01*
X15461563Y84788538D01*
X15464776Y84784776D01*
X15468538Y84781563D01*
X15468540Y84781561D01*
X15510398Y84745811D01*
X15549207Y84686360D01*
X15549713Y84615366D01*
X15510398Y84554189D01*
X15464776Y84515224D01*
X15461563Y84511462D01*
X15461558Y84511457D01*
X15304379Y84327424D01*
X15304376Y84327419D01*
X15301164Y84323659D01*
X15169534Y84108859D01*
X15167641Y84104289D01*
X15167639Y84104285D01*
X15107623Y83959393D01*
X15073127Y83876111D01*
X15071972Y83871299D01*
X15015710Y83636949D01*
X15014317Y83631148D01*
X14994551Y83380000D01*
X15014317Y83128852D01*
X15015471Y83124045D01*
X15015472Y83124039D01*
X15039957Y83022054D01*
X15073127Y82883889D01*
X15075020Y82879318D01*
X15075021Y82879316D01*
X15166861Y82657595D01*
X15169534Y82651141D01*
X15301164Y82436341D01*
X15304376Y82432581D01*
X15304379Y82432576D01*
X15461558Y82248543D01*
X15461563Y82248538D01*
X15464776Y82244776D01*
X15468538Y82241563D01*
X15468540Y82241561D01*
X15510398Y82205811D01*
X15549207Y82146360D01*
X15549713Y82075366D01*
X15510398Y82014189D01*
X15487526Y81994654D01*
X15464776Y81975224D01*
X15461563Y81971462D01*
X15461558Y81971457D01*
X15304379Y81787424D01*
X15304376Y81787419D01*
X15301164Y81783659D01*
X15169534Y81568859D01*
X15167641Y81564289D01*
X15167639Y81564285D01*
X15075021Y81340684D01*
X15073127Y81336111D01*
X15071972Y81331299D01*
X15015710Y81096949D01*
X15014317Y81091148D01*
X14994551Y80840000D01*
X15014317Y80588852D01*
X15015471Y80584045D01*
X15015472Y80584039D01*
X15038101Y80489785D01*
X15034554Y80418877D01*
X14993234Y80361143D01*
X14927261Y80334913D01*
X14857579Y80348515D01*
X14826487Y80371276D01*
X14237405Y80960358D01*
X14203379Y81022670D01*
X14200500Y81049453D01*
X14200500Y83955271D01*
X14200770Y83963512D01*
X14204852Y84025794D01*
X14205230Y84031560D01*
X14194298Y84123927D01*
X14193957Y84127176D01*
X14186571Y84207552D01*
X14185454Y84219711D01*
X14183848Y84225406D01*
X14179992Y84244789D01*
X14179975Y84244929D01*
X14179296Y84250667D01*
X14151726Y84339459D01*
X14150814Y84342535D01*
X14125565Y84432064D01*
X14123012Y84437241D01*
X14123008Y84437251D01*
X14122946Y84437376D01*
X14115621Y84455737D01*
X14115583Y84455860D01*
X14115581Y84455864D01*
X14113869Y84461379D01*
X14070593Y84543634D01*
X14069099Y84546565D01*
X14027980Y84629947D01*
X14024436Y84634693D01*
X14013892Y84651405D01*
X14011137Y84656641D01*
X13953572Y84729663D01*
X13951575Y84732265D01*
X13899420Y84802109D01*
X13895967Y84806733D01*
X13832495Y84865406D01*
X13828929Y84868835D01*
X13065512Y85632251D01*
X13059875Y85638270D01*
X13018715Y85685204D01*
X13014910Y85689543D01*
X13010379Y85693115D01*
X12941886Y85747111D01*
X12939324Y85749186D01*
X12872325Y85804908D01*
X12872323Y85804910D01*
X12867883Y85808602D01*
X12862839Y85811427D01*
X12862713Y85811498D01*
X12846291Y85822471D01*
X12846176Y85822562D01*
X12846171Y85822565D01*
X12841640Y85826137D01*
X12770834Y85863390D01*
X12759383Y85869415D01*
X12756502Y85870979D01*
X12675379Y85916410D01*
X12669780Y85918310D01*
X12651613Y85926116D01*
X12651494Y85926178D01*
X12646380Y85928869D01*
X12557606Y85956434D01*
X12554480Y85957450D01*
X12471921Y85985475D01*
X12471916Y85985476D01*
X12466452Y85987331D01*
X12460584Y85988182D01*
X12441330Y85992539D01*
X12441183Y85992585D01*
X12441177Y85992586D01*
X12435667Y85994297D01*
X12429939Y85994975D01*
X12429934Y85994976D01*
X12356194Y86003703D01*
X12343344Y86005224D01*
X12340085Y86005653D01*
X12323827Y86008010D01*
X12253811Y86018163D01*
X12253807Y86018163D01*
X12248098Y86018991D01*
X12161714Y86015597D01*
X12156767Y86015500D01*
X11498406Y86015500D01*
X11430285Y86035502D01*
X11383792Y86089158D01*
X11373688Y86159432D01*
X11384965Y86196335D01*
X11404827Y86237423D01*
X11420449Y86305091D01*
X11444026Y86407212D01*
X11444026Y86407215D01*
X11445226Y86412411D01*
X11445500Y86417163D01*
X11445499Y88292836D01*
X11445226Y88297589D01*
X11404827Y88472577D01*
X11326664Y88634266D01*
X11214620Y88774620D01*
X11102690Y88863973D01*
X11079774Y88882267D01*
X11074266Y88886664D01*
X10912577Y88964827D01*
X10905716Y88966411D01*
X10742788Y89004026D01*
X10742785Y89004026D01*
X10737589Y89005226D01*
X10732837Y89005500D01*
X10731013Y89005500D01*
X9786963Y89005499D01*
X8857164Y89005499D01*
X8852411Y89005226D01*
X8677423Y88964827D01*
X8515734Y88886664D01*
X8510226Y88882267D01*
X8487310Y88863973D01*
X8375380Y88774620D01*
X8263336Y88634266D01*
X8185173Y88472577D01*
X8183589Y88465716D01*
X8147482Y88309317D01*
X8144774Y88297589D01*
X8144500Y88292837D01*
X8144501Y86417164D01*
X8144774Y86412411D01*
X8185173Y86237423D01*
X8205033Y86196340D01*
X8256847Y86089158D01*
X8263336Y86075734D01*
X8375380Y85935380D01*
X8402864Y85913440D01*
X8443621Y85855309D01*
X8446481Y85784370D01*
X8431686Y85749136D01*
X8319846Y85566628D01*
X8317953Y85562058D01*
X8317951Y85562054D01*
X8222321Y85331183D01*
X8220427Y85326610D01*
X8219272Y85321798D01*
X8160934Y85078807D01*
X8160933Y85078801D01*
X8159779Y85073994D01*
X8139396Y84815000D01*
X8159779Y84556006D01*
X8160933Y84551199D01*
X8160934Y84551193D01*
X8188260Y84437376D01*
X8220427Y84303390D01*
X8222320Y84298819D01*
X8222321Y84298817D01*
X8309206Y84089060D01*
X8319846Y84063372D01*
X8455588Y83841860D01*
X8624311Y83644311D01*
X8628067Y83641103D01*
X8628072Y83641098D01*
X8628408Y83640811D01*
X8628500Y83640670D01*
X8631575Y83637595D01*
X8630929Y83636949D01*
X8667217Y83581361D01*
X8667725Y83510366D01*
X8630905Y83453075D01*
X8631575Y83452405D01*
X8628496Y83449326D01*
X8628408Y83449189D01*
X8628072Y83448902D01*
X8628067Y83448897D01*
X8624311Y83445689D01*
X8455588Y83248140D01*
X8319846Y83026628D01*
X8317953Y83022058D01*
X8317951Y83022054D01*
X8222321Y82791183D01*
X8220427Y82786610D01*
X8219272Y82781798D01*
X8160934Y82538807D01*
X8160933Y82538801D01*
X8159779Y82533994D01*
X8139396Y82275000D01*
X8159779Y82016006D01*
X8160933Y82011199D01*
X8160934Y82011193D01*
X8179196Y81935129D01*
X8220427Y81763390D01*
X8222320Y81758819D01*
X8222321Y81758817D01*
X8309206Y81549060D01*
X8319846Y81523372D01*
X8455588Y81301860D01*
X8624311Y81104311D01*
X8628067Y81101103D01*
X8628072Y81101098D01*
X8628408Y81100811D01*
X8628500Y81100670D01*
X8631575Y81097595D01*
X8630929Y81096949D01*
X8667217Y81041361D01*
X8667725Y80970366D01*
X8630905Y80913075D01*
X8631575Y80912405D01*
X8628496Y80909326D01*
X8628408Y80909189D01*
X8628072Y80908902D01*
X8628067Y80908897D01*
X8624311Y80905689D01*
X8455588Y80708140D01*
X8319846Y80486628D01*
X8317953Y80482058D01*
X8317951Y80482054D01*
X8222321Y80251183D01*
X8220427Y80246610D01*
X8219272Y80241798D01*
X8160934Y79998807D01*
X8160933Y79998801D01*
X8159779Y79993994D01*
X8139396Y79735000D01*
X8159779Y79476006D01*
X8160933Y79471199D01*
X8160934Y79471193D01*
X8185378Y79369377D01*
X8220427Y79223390D01*
X8222320Y79218819D01*
X8222321Y79218817D01*
X8311619Y79003234D01*
X8319846Y78983372D01*
X8455588Y78761860D01*
X8624311Y78564311D01*
X8628067Y78561103D01*
X8628072Y78561098D01*
X8628408Y78560811D01*
X8628500Y78560670D01*
X8631575Y78557595D01*
X8630929Y78556949D01*
X8667217Y78501361D01*
X8667725Y78430366D01*
X8630905Y78373075D01*
X8631575Y78372405D01*
X8628496Y78369326D01*
X8628408Y78369189D01*
X8628072Y78368902D01*
X8628067Y78368897D01*
X8624311Y78365689D01*
X8455588Y78168140D01*
X8319846Y77946628D01*
X8317953Y77942058D01*
X8317951Y77942054D01*
X8232694Y77736225D01*
X8220427Y77706610D01*
X8219272Y77701798D01*
X8160934Y77458807D01*
X8160933Y77458801D01*
X8159779Y77453994D01*
X8139396Y77195000D01*
X8159779Y76936006D01*
X8160933Y76931199D01*
X8160934Y76931193D01*
X8168798Y76898439D01*
X8220427Y76683390D01*
X8222320Y76678819D01*
X8222321Y76678817D01*
X8309206Y76469060D01*
X8319846Y76443372D01*
X8455588Y76221860D01*
X8624311Y76024311D01*
X8628067Y76021103D01*
X8628072Y76021098D01*
X8628408Y76020811D01*
X8628500Y76020670D01*
X8631575Y76017595D01*
X8630929Y76016949D01*
X8667217Y75961361D01*
X8667725Y75890366D01*
X8630905Y75833075D01*
X8631575Y75832405D01*
X8628496Y75829326D01*
X8628408Y75829189D01*
X8628072Y75828902D01*
X8628067Y75828897D01*
X8624311Y75825689D01*
X8455588Y75628140D01*
X8319846Y75406628D01*
X8317953Y75402058D01*
X8317951Y75402054D01*
X8222321Y75171183D01*
X8220427Y75166610D01*
X8219272Y75161798D01*
X8160934Y74918807D01*
X8160933Y74918801D01*
X8159779Y74913994D01*
X8139396Y74655000D01*
X8159779Y74396006D01*
X8160933Y74391199D01*
X8160934Y74391193D01*
X8168798Y74358439D01*
X8220427Y74143390D01*
X8222320Y74138819D01*
X8222321Y74138817D01*
X8310112Y73926873D01*
X8319846Y73903372D01*
X8455588Y73681860D01*
X8624311Y73484311D01*
X8628067Y73481103D01*
X8628072Y73481098D01*
X8628408Y73480811D01*
X8628500Y73480670D01*
X8631575Y73477595D01*
X8630929Y73476949D01*
X8667217Y73421361D01*
X8667725Y73350366D01*
X8630905Y73293075D01*
X8631575Y73292405D01*
X8628496Y73289326D01*
X8628408Y73289189D01*
X8628072Y73288902D01*
X8628067Y73288897D01*
X8624311Y73285689D01*
X8455588Y73088140D01*
X8319846Y72866628D01*
X8317953Y72862058D01*
X8317951Y72862054D01*
X8230591Y72651148D01*
X8220427Y72626610D01*
X8219272Y72621798D01*
X8160934Y72378807D01*
X8160933Y72378801D01*
X8159779Y72373994D01*
X8139396Y72115000D01*
X8159779Y71856006D01*
X8160933Y71851199D01*
X8160934Y71851193D01*
X8196166Y71704443D01*
X8220427Y71603390D01*
X8222320Y71598819D01*
X8222321Y71598817D01*
X8309206Y71389060D01*
X8319846Y71363372D01*
X8455588Y71141860D01*
X8624311Y70944311D01*
X8628067Y70941103D01*
X8628072Y70941098D01*
X8628408Y70940811D01*
X8628500Y70940670D01*
X8631575Y70937595D01*
X8630929Y70936949D01*
X8667217Y70881361D01*
X8667725Y70810366D01*
X8630905Y70753075D01*
X8631575Y70752405D01*
X8628496Y70749326D01*
X8628408Y70749189D01*
X8628072Y70748902D01*
X8628067Y70748897D01*
X8624311Y70745689D01*
X8455588Y70548140D01*
X8319846Y70326628D01*
X8317953Y70322058D01*
X8317951Y70322054D01*
X8222321Y70091183D01*
X8220427Y70086610D01*
X8219272Y70081798D01*
X8160934Y69838807D01*
X8160933Y69838801D01*
X8159779Y69833994D01*
X8139396Y69575000D01*
X8159779Y69316006D01*
X8160933Y69311199D01*
X8160934Y69311193D01*
X8183614Y69216725D01*
X8220427Y69063390D01*
X8222320Y69058819D01*
X8222321Y69058817D01*
X8309206Y68849060D01*
X8319846Y68823372D01*
X8455588Y68601860D01*
X8624311Y68404311D01*
X8628067Y68401103D01*
X8628072Y68401098D01*
X8628408Y68400811D01*
X8628500Y68400670D01*
X8631575Y68397595D01*
X8630929Y68396949D01*
X8667217Y68341361D01*
X8667725Y68270366D01*
X8630905Y68213075D01*
X8631575Y68212405D01*
X8628496Y68209326D01*
X8628408Y68209189D01*
X8628072Y68208902D01*
X8628067Y68208897D01*
X8624311Y68205689D01*
X8455588Y68008140D01*
X8319846Y67786628D01*
X8317953Y67782058D01*
X8317951Y67782054D01*
X8222321Y67551183D01*
X8220427Y67546610D01*
X8219272Y67541798D01*
X8160934Y67298807D01*
X8160933Y67298801D01*
X8159779Y67293994D01*
X8139396Y67035000D01*
X8159779Y66776006D01*
X8160933Y66771199D01*
X8160934Y66771193D01*
X8178147Y66699499D01*
X8220427Y66523390D01*
X8222320Y66518819D01*
X8222321Y66518817D01*
X8309206Y66309060D01*
X8319846Y66283372D01*
X8455588Y66061860D01*
X8624311Y65864311D01*
X8628067Y65861103D01*
X8628072Y65861098D01*
X8628408Y65860811D01*
X8628500Y65860670D01*
X8631575Y65857595D01*
X8630929Y65856949D01*
X8667217Y65801361D01*
X8667725Y65730366D01*
X8630905Y65673075D01*
X8631575Y65672405D01*
X8628496Y65669326D01*
X8628408Y65669189D01*
X8628072Y65668902D01*
X8628067Y65668897D01*
X8624311Y65665689D01*
X8455588Y65468140D01*
X8319846Y65246628D01*
X8317953Y65242058D01*
X8317951Y65242054D01*
X8222321Y65011183D01*
X8220427Y65006610D01*
X8219272Y65001798D01*
X8160934Y64758807D01*
X8160933Y64758801D01*
X8159779Y64753994D01*
X8139396Y64495000D01*
X8159779Y64236006D01*
X8160933Y64231199D01*
X8160934Y64231193D01*
X8193325Y64096279D01*
X8220427Y63983390D01*
X8222320Y63978819D01*
X8222321Y63978817D01*
X8309206Y63769060D01*
X8319846Y63743372D01*
X8455588Y63521860D01*
X8624311Y63324311D01*
X8821860Y63155588D01*
X9043372Y63019846D01*
X9047942Y63017953D01*
X9047946Y63017951D01*
X9094140Y62998817D01*
X9283390Y62920427D01*
X9371724Y62899220D01*
X9531193Y62860934D01*
X9531199Y62860933D01*
X9536006Y62859779D01*
X9795000Y62839396D01*
X10053994Y62859779D01*
X10058801Y62860933D01*
X10058807Y62860934D01*
X10218276Y62899220D01*
X10306610Y62920427D01*
X10495860Y62998817D01*
X10542054Y63017951D01*
X10542058Y63017953D01*
X10546628Y63019846D01*
X10768140Y63155588D01*
X10965689Y63324311D01*
X11134412Y63521860D01*
X11270154Y63743372D01*
X11280795Y63769060D01*
X11367679Y63978817D01*
X11367680Y63978819D01*
X11369573Y63983390D01*
X11396675Y64096279D01*
X11429066Y64231193D01*
X11429067Y64231199D01*
X11430221Y64236006D01*
X11447888Y64460489D01*
X11460029Y64492345D01*
X11452604Y64503899D01*
X11447888Y64529511D01*
X11435892Y64681933D01*
X11430221Y64753994D01*
X11429067Y64758801D01*
X11429066Y64758807D01*
X11370728Y65001798D01*
X11369573Y65006610D01*
X11367679Y65011183D01*
X11272049Y65242054D01*
X11272047Y65242058D01*
X11270154Y65246628D01*
X11134412Y65468140D01*
X11131196Y65471906D01*
X11000772Y65624614D01*
X10971741Y65689404D01*
X10982346Y65759604D01*
X11029221Y65812926D01*
X11081771Y65831570D01*
X11158927Y65840702D01*
X11162149Y65841040D01*
X11254711Y65849546D01*
X11260278Y65851116D01*
X11260282Y65851117D01*
X11260406Y65851152D01*
X11279789Y65855008D01*
X11279929Y65855025D01*
X11285667Y65855704D01*
X11374459Y65883274D01*
X11377535Y65884186D01*
X11467064Y65909435D01*
X11472241Y65911988D01*
X11472251Y65911992D01*
X11472376Y65912054D01*
X11490737Y65919379D01*
X11490860Y65919417D01*
X11490864Y65919419D01*
X11496379Y65921131D01*
X11514831Y65930839D01*
X11584430Y65944857D01*
X11650559Y65919021D01*
X11692222Y65861535D01*
X11699500Y65819332D01*
X11699500Y64539397D01*
X11686612Y64495503D01*
X11696809Y64476507D01*
X11699500Y64450603D01*
X11699500Y59499397D01*
X11686612Y59455503D01*
X11696809Y59436507D01*
X11699500Y59410603D01*
X11699500Y56959397D01*
X11686612Y56915503D01*
X11696809Y56896507D01*
X11699500Y56870603D01*
X11699500Y54449454D01*
X11679498Y54381333D01*
X11662595Y54360359D01*
X11660402Y54358166D01*
X11598090Y54324140D01*
X11527275Y54329205D01*
X11470439Y54371752D01*
X11445695Y54437375D01*
X11441054Y54496341D01*
X11430221Y54633994D01*
X11429067Y54638801D01*
X11429066Y54638807D01*
X11370728Y54881798D01*
X11369573Y54886610D01*
X11354972Y54921860D01*
X11272049Y55122054D01*
X11272047Y55122058D01*
X11270154Y55126628D01*
X11134412Y55348140D01*
X10965689Y55545689D01*
X10961933Y55548897D01*
X10961928Y55548902D01*
X10961592Y55549189D01*
X10961500Y55549330D01*
X10958425Y55552405D01*
X10959071Y55553051D01*
X10922783Y55608639D01*
X10922275Y55679634D01*
X10959095Y55736925D01*
X10958425Y55737595D01*
X10961504Y55740674D01*
X10961592Y55740811D01*
X10961928Y55741098D01*
X10961933Y55741103D01*
X10965689Y55744311D01*
X11134412Y55941860D01*
X11270154Y56163372D01*
X11359654Y56379442D01*
X11367679Y56398817D01*
X11367680Y56398819D01*
X11369573Y56403390D01*
X11401520Y56536459D01*
X11429066Y56651193D01*
X11429067Y56651199D01*
X11430221Y56656006D01*
X11447888Y56880489D01*
X11460029Y56912345D01*
X11452604Y56923899D01*
X11447888Y56949511D01*
X11441054Y57036341D01*
X11430221Y57173994D01*
X11429067Y57178801D01*
X11429066Y57178807D01*
X11370728Y57421798D01*
X11369573Y57426610D01*
X11354972Y57461860D01*
X11272049Y57662054D01*
X11272047Y57662058D01*
X11270154Y57666628D01*
X11134412Y57888140D01*
X10965689Y58085689D01*
X10961933Y58088897D01*
X10961928Y58088902D01*
X10961592Y58089189D01*
X10961500Y58089330D01*
X10958425Y58092405D01*
X10959071Y58093051D01*
X10922783Y58148639D01*
X10922275Y58219634D01*
X10959095Y58276925D01*
X10958425Y58277595D01*
X10961504Y58280674D01*
X10961592Y58280811D01*
X10961928Y58281098D01*
X10961933Y58281103D01*
X10965689Y58284311D01*
X11134412Y58481860D01*
X11270154Y58703372D01*
X11318107Y58819139D01*
X11367679Y58938817D01*
X11367680Y58938819D01*
X11369573Y58943390D01*
X11409709Y59110568D01*
X11429066Y59191193D01*
X11429067Y59191199D01*
X11430221Y59196006D01*
X11447888Y59420489D01*
X11460029Y59452345D01*
X11452604Y59463899D01*
X11447888Y59489511D01*
X11441054Y59576341D01*
X11430221Y59713994D01*
X11429067Y59718801D01*
X11429066Y59718807D01*
X11370728Y59961798D01*
X11369573Y59966610D01*
X11354972Y60001860D01*
X11272049Y60202054D01*
X11272047Y60202058D01*
X11270154Y60206628D01*
X11134412Y60428140D01*
X10965689Y60625689D01*
X10768140Y60794412D01*
X10546628Y60930154D01*
X10542058Y60932047D01*
X10542054Y60932049D01*
X10311183Y61027679D01*
X10311181Y61027680D01*
X10306610Y61029573D01*
X10218276Y61050780D01*
X10058807Y61089066D01*
X10058801Y61089067D01*
X10053994Y61090221D01*
X9795000Y61110604D01*
X9536006Y61090221D01*
X9531199Y61089067D01*
X9531193Y61089066D01*
X9371724Y61050780D01*
X9283390Y61029573D01*
X9278819Y61027680D01*
X9278817Y61027679D01*
X9047946Y60932049D01*
X9047942Y60932047D01*
X9043372Y60930154D01*
X8821860Y60794412D01*
X8624311Y60625689D01*
X8455588Y60428140D01*
X8319846Y60206628D01*
X8317953Y60202058D01*
X8317951Y60202054D01*
X8235028Y60001860D01*
X8220427Y59966610D01*
X8219272Y59961798D01*
X8160934Y59718807D01*
X8160933Y59718801D01*
X8159779Y59713994D01*
X8139396Y59455000D01*
X8159779Y59196006D01*
X8160933Y59191199D01*
X8160934Y59191193D01*
X8180291Y59110568D01*
X8220427Y58943390D01*
X8222320Y58938819D01*
X8222321Y58938817D01*
X8271894Y58819139D01*
X8319846Y58703372D01*
X8455588Y58481860D01*
X8624311Y58284311D01*
X8628067Y58281103D01*
X8628072Y58281098D01*
X8628408Y58280811D01*
X8628500Y58280670D01*
X8631575Y58277595D01*
X8630929Y58276949D01*
X8667217Y58221361D01*
X8667725Y58150366D01*
X8630905Y58093075D01*
X8631575Y58092405D01*
X8628496Y58089326D01*
X8628408Y58089189D01*
X8628072Y58088902D01*
X8628067Y58088897D01*
X8624311Y58085689D01*
X8455588Y57888140D01*
X8319846Y57666628D01*
X8317953Y57662058D01*
X8317951Y57662054D01*
X8235028Y57461860D01*
X8220427Y57426610D01*
X8219272Y57421798D01*
X8160934Y57178807D01*
X8160933Y57178801D01*
X8159779Y57173994D01*
X8139396Y56915000D01*
X8159779Y56656006D01*
X8160933Y56651199D01*
X8160934Y56651193D01*
X8188480Y56536459D01*
X8220427Y56403390D01*
X8222320Y56398819D01*
X8222321Y56398817D01*
X8230347Y56379442D01*
X8319846Y56163372D01*
X8455588Y55941860D01*
X8624311Y55744311D01*
X8628067Y55741103D01*
X8628072Y55741098D01*
X8628408Y55740811D01*
X8628500Y55740670D01*
X8631575Y55737595D01*
X8630929Y55736949D01*
X8667217Y55681361D01*
X8667725Y55610366D01*
X8630905Y55553075D01*
X8631575Y55552405D01*
X8628496Y55549326D01*
X8628408Y55549189D01*
X8628072Y55548902D01*
X8628067Y55548897D01*
X8624311Y55545689D01*
X8455588Y55348140D01*
X8319846Y55126628D01*
X8317953Y55122058D01*
X8317951Y55122054D01*
X8235028Y54921860D01*
X8220427Y54886610D01*
X8219272Y54881798D01*
X8160934Y54638807D01*
X8160933Y54638801D01*
X8159779Y54633994D01*
X8139396Y54375000D01*
X8159779Y54116006D01*
X8160933Y54111199D01*
X8160934Y54111193D01*
X8180291Y54030568D01*
X8220427Y53863390D01*
X8222320Y53858819D01*
X8222321Y53858817D01*
X8307684Y53652734D01*
X8319846Y53623372D01*
X8455588Y53401860D01*
X8624311Y53204311D01*
X8628067Y53201103D01*
X8628072Y53201098D01*
X8628408Y53200811D01*
X8628500Y53200670D01*
X8631575Y53197595D01*
X8630929Y53196949D01*
X8667217Y53141361D01*
X8667725Y53070366D01*
X8630905Y53013075D01*
X8631575Y53012405D01*
X8628496Y53009326D01*
X8628408Y53009189D01*
X8628072Y53008902D01*
X8628067Y53008897D01*
X8624311Y53005689D01*
X8455588Y52808140D01*
X8319846Y52586628D01*
X8317953Y52582058D01*
X8317951Y52582054D01*
X8222321Y52351183D01*
X8220427Y52346610D01*
X8219272Y52341798D01*
X8160934Y52098807D01*
X8160933Y52098801D01*
X8159779Y52093994D01*
X8139396Y51835000D01*
X8159779Y51576006D01*
X8160933Y51571199D01*
X8160934Y51571193D01*
X8187631Y51459994D01*
X8220427Y51323390D01*
X8222320Y51318819D01*
X8222321Y51318817D01*
X8314204Y51096994D01*
X8319846Y51083372D01*
X8455588Y50861860D01*
X8624311Y50664311D01*
X8628067Y50661103D01*
X8628072Y50661098D01*
X8628408Y50660811D01*
X8628500Y50660670D01*
X8631575Y50657595D01*
X8630929Y50656949D01*
X8667217Y50601361D01*
X8667725Y50530366D01*
X8630905Y50473075D01*
X8631575Y50472405D01*
X8628496Y50469326D01*
X8628408Y50469189D01*
X8628072Y50468902D01*
X8628067Y50468897D01*
X8624311Y50465689D01*
X8455588Y50268140D01*
X8319846Y50046628D01*
X8317953Y50042058D01*
X8317951Y50042054D01*
X8222321Y49811183D01*
X8220427Y49806610D01*
X8206853Y49750070D01*
X8160934Y49558807D01*
X8160933Y49558801D01*
X8159779Y49553994D01*
X8139396Y49295000D01*
X8159779Y49036006D01*
X8160933Y49031199D01*
X8160934Y49031193D01*
X8199220Y48871724D01*
X8220427Y48783390D01*
X8222320Y48778819D01*
X8222321Y48778817D01*
X8314416Y48556482D01*
X8319846Y48543372D01*
X8455588Y48321860D01*
X8624311Y48124311D01*
X8628067Y48121103D01*
X8628072Y48121098D01*
X8628408Y48120811D01*
X8628500Y48120670D01*
X8631575Y48117595D01*
X8630929Y48116949D01*
X8667217Y48061361D01*
X8667725Y47990366D01*
X8630905Y47933075D01*
X8631575Y47932405D01*
X8628496Y47929326D01*
X8628408Y47929189D01*
X8628072Y47928902D01*
X8628067Y47928897D01*
X8624311Y47925689D01*
X8455588Y47728140D01*
X8319846Y47506628D01*
X8317953Y47502058D01*
X8317951Y47502054D01*
X8222321Y47271183D01*
X8220427Y47266610D01*
X8206853Y47210070D01*
X8160934Y47018807D01*
X8160933Y47018801D01*
X8159779Y47013994D01*
X8139396Y46755000D01*
X8159779Y46496006D01*
X8160933Y46491199D01*
X8160934Y46491193D01*
X8199220Y46331724D01*
X8220427Y46243390D01*
X8222320Y46238819D01*
X8222321Y46238817D01*
X8305948Y46036925D01*
X8319846Y46003372D01*
X8455588Y45781860D01*
X8624311Y45584311D01*
X8628067Y45581103D01*
X8628072Y45581098D01*
X8628408Y45580811D01*
X8628500Y45580670D01*
X8631575Y45577595D01*
X8630929Y45576949D01*
X8667217Y45521361D01*
X8667725Y45450366D01*
X8630905Y45393075D01*
X8631575Y45392405D01*
X8628496Y45389326D01*
X8628408Y45389189D01*
X8628072Y45388902D01*
X8628067Y45388897D01*
X8624311Y45385689D01*
X8455588Y45188140D01*
X8319846Y44966628D01*
X8317953Y44962058D01*
X8317951Y44962054D01*
X8222321Y44731183D01*
X8220427Y44726610D01*
X8206853Y44670070D01*
X8160934Y44478807D01*
X8160933Y44478801D01*
X8159779Y44473994D01*
X8139396Y44215000D01*
X8159779Y43956006D01*
X8160933Y43951199D01*
X8160934Y43951193D01*
X8199220Y43791724D01*
X8220427Y43703390D01*
X8222320Y43698819D01*
X8222321Y43698817D01*
X8305948Y43496925D01*
X8319846Y43463372D01*
X8455588Y43241860D01*
X8624311Y43044311D01*
X8628067Y43041103D01*
X8628072Y43041098D01*
X8628408Y43040811D01*
X8628500Y43040670D01*
X8631575Y43037595D01*
X8630929Y43036949D01*
X8667217Y42981361D01*
X8667725Y42910366D01*
X8630905Y42853075D01*
X8631575Y42852405D01*
X8628496Y42849326D01*
X8628408Y42849189D01*
X8628072Y42848902D01*
X8628067Y42848897D01*
X8624311Y42845689D01*
X8455588Y42648140D01*
X8319846Y42426628D01*
X8317953Y42422058D01*
X8317951Y42422054D01*
X8222321Y42191183D01*
X8220427Y42186610D01*
X8206853Y42130070D01*
X8160934Y41938807D01*
X8160933Y41938801D01*
X8159779Y41933994D01*
X8139396Y41675000D01*
X8159779Y41416006D01*
X8160933Y41411199D01*
X8160934Y41411193D01*
X8184720Y41312120D01*
X8220427Y41163390D01*
X8222320Y41158819D01*
X8222321Y41158817D01*
X8305948Y40956925D01*
X8319846Y40923372D01*
X8455588Y40701860D01*
X8624311Y40504311D01*
X8628067Y40501103D01*
X8628072Y40501098D01*
X8628408Y40500811D01*
X8628500Y40500670D01*
X8631575Y40497595D01*
X8630929Y40496949D01*
X8667217Y40441361D01*
X8667725Y40370366D01*
X8630905Y40313075D01*
X8631575Y40312405D01*
X8628496Y40309326D01*
X8628408Y40309189D01*
X8628072Y40308902D01*
X8628067Y40308897D01*
X8624311Y40305689D01*
X8455588Y40108140D01*
X8319846Y39886628D01*
X8317953Y39882058D01*
X8317951Y39882054D01*
X8222321Y39651183D01*
X8220427Y39646610D01*
X8206853Y39590070D01*
X8160934Y39398807D01*
X8160933Y39398801D01*
X8159779Y39393994D01*
X8139396Y39135000D01*
X8159779Y38876006D01*
X8160933Y38871199D01*
X8160934Y38871193D01*
X8199220Y38711724D01*
X8220427Y38623390D01*
X8222320Y38618819D01*
X8222321Y38618817D01*
X8305948Y38416925D01*
X8319846Y38383372D01*
X8455588Y38161860D01*
X8624311Y37964311D01*
X8628067Y37961103D01*
X8628072Y37961098D01*
X8628408Y37960811D01*
X8628500Y37960670D01*
X8631575Y37957595D01*
X8630929Y37956949D01*
X8667217Y37901361D01*
X8667725Y37830366D01*
X8630905Y37773075D01*
X8631575Y37772405D01*
X8628496Y37769326D01*
X8628408Y37769189D01*
X8628072Y37768902D01*
X8628067Y37768897D01*
X8624311Y37765689D01*
X8455588Y37568140D01*
X8319846Y37346628D01*
X8317953Y37342058D01*
X8317951Y37342054D01*
X8222321Y37111183D01*
X8220427Y37106610D01*
X8206853Y37050070D01*
X8160934Y36858807D01*
X8160933Y36858801D01*
X8159779Y36853994D01*
X8139396Y36595000D01*
X8159779Y36336006D01*
X8160933Y36331199D01*
X8160934Y36331193D01*
X8199220Y36171724D01*
X8220427Y36083390D01*
X8222320Y36078819D01*
X8222321Y36078817D01*
X8307421Y35873369D01*
X8319846Y35843372D01*
X8455588Y35621860D01*
X8624311Y35424311D01*
X8628067Y35421103D01*
X8628072Y35421098D01*
X8628408Y35420811D01*
X8628500Y35420670D01*
X8631575Y35417595D01*
X8630929Y35416949D01*
X8667217Y35361361D01*
X8667725Y35290366D01*
X8630905Y35233075D01*
X8631575Y35232405D01*
X8628496Y35229326D01*
X8628408Y35229189D01*
X8628072Y35228902D01*
X8628067Y35228897D01*
X8624311Y35225689D01*
X8455588Y35028140D01*
X8319846Y34806628D01*
X8317953Y34802058D01*
X8317951Y34802054D01*
X8255444Y34651148D01*
X8220427Y34566610D01*
X8206853Y34510070D01*
X8160934Y34318807D01*
X8160933Y34318801D01*
X8159779Y34313994D01*
X8139396Y34055000D01*
X8159779Y33796006D01*
X8160933Y33791199D01*
X8160934Y33791193D01*
X8199220Y33631724D01*
X8220427Y33543390D01*
X8222320Y33538819D01*
X8222321Y33538817D01*
X8305948Y33336925D01*
X8319846Y33303372D01*
X8455588Y33081860D01*
X8624311Y32884311D01*
X8628067Y32881103D01*
X8628072Y32881098D01*
X8628408Y32880811D01*
X8628500Y32880670D01*
X8631575Y32877595D01*
X8630929Y32876949D01*
X8667217Y32821361D01*
X8667725Y32750366D01*
X8630905Y32693075D01*
X8631575Y32692405D01*
X8628496Y32689326D01*
X8628408Y32689189D01*
X8628072Y32688902D01*
X8628067Y32688897D01*
X8624311Y32685689D01*
X8621103Y32681933D01*
X8611829Y32671074D01*
X8455588Y32488140D01*
X8319846Y32266628D01*
X8317953Y32262058D01*
X8317951Y32262054D01*
X8222321Y32031183D01*
X8220427Y32026610D01*
X8206853Y31970070D01*
X8160934Y31778807D01*
X8160933Y31778801D01*
X8159779Y31773994D01*
X8139396Y31515000D01*
X8159779Y31256006D01*
X8160933Y31251199D01*
X8160934Y31251193D01*
X8185216Y31150053D01*
X8220427Y31003390D01*
X8222320Y30998819D01*
X8222321Y30998817D01*
X8305948Y30796925D01*
X8319846Y30763372D01*
X8455588Y30541860D01*
X8458801Y30538098D01*
X8458804Y30538094D01*
X8488488Y30503338D01*
X8517519Y30438549D01*
X8506914Y30368349D01*
X8460039Y30315026D01*
X8392677Y30295508D01*
X7426500Y30295508D01*
X7358379Y30315510D01*
X7311886Y30369166D01*
X7300500Y30421508D01*
X7300500Y88409125D01*
X7320502Y88477246D01*
X7337405Y88498220D01*
X13501780Y94662595D01*
X13564092Y94696621D01*
X13590875Y94699500D01*
X27573500Y94699500D01*
X27641621Y94679498D01*
X27688114Y94625842D01*
X27699500Y94573500D01*
X27699500Y87113785D01*
X27699499Y87113779D01*
X27699499Y86886221D01*
X27700455Y86880800D01*
X27708442Y86835501D01*
X27709876Y86824604D01*
X27713884Y86778798D01*
X27713885Y86778790D01*
X27714365Y86773308D01*
X27715789Y86767995D01*
X27727693Y86723567D01*
X27730072Y86712836D01*
X27739015Y86662120D01*
X27740895Y86656955D01*
X27740897Y86656947D01*
X27756626Y86613733D01*
X27759932Y86603248D01*
X27771836Y86558820D01*
X27771838Y86558814D01*
X27773261Y86553504D01*
X27775586Y86548519D01*
X27795026Y86506829D01*
X27799232Y86496673D01*
X27816844Y86448285D01*
X27819596Y86443519D01*
X27819597Y86443516D01*
X27842598Y86403677D01*
X27847664Y86393946D01*
X27869432Y86347266D01*
X27898973Y86305076D01*
X27904864Y86295830D01*
X27930623Y86251214D01*
X27947517Y86231081D01*
X27963721Y86211770D01*
X27970411Y86203053D01*
X27999953Y86160861D01*
X28160861Y85999953D01*
X28160864Y85999951D01*
X29079951Y85080864D01*
X29079953Y85080861D01*
X29240861Y84919953D01*
X29281176Y84891725D01*
X29283048Y84890414D01*
X29291765Y84883725D01*
X29331214Y84850623D01*
X29375830Y84824864D01*
X29385076Y84818973D01*
X29427266Y84789432D01*
X29473946Y84767664D01*
X29483677Y84762598D01*
X29523516Y84739597D01*
X29523519Y84739596D01*
X29528285Y84736844D01*
X29533460Y84734960D01*
X29533461Y84734960D01*
X29576673Y84719232D01*
X29586826Y84715027D01*
X29633504Y84693261D01*
X29670383Y84683379D01*
X29683247Y84679932D01*
X29693726Y84676628D01*
X29736178Y84661178D01*
X29742121Y84659015D01*
X29747535Y84658060D01*
X29747540Y84658059D01*
X29792828Y84650074D01*
X29803561Y84647694D01*
X29847987Y84635790D01*
X29847996Y84635788D01*
X29853308Y84634365D01*
X29904608Y84629877D01*
X29915503Y84628442D01*
X29960794Y84620455D01*
X29960805Y84620454D01*
X29966221Y84619499D01*
X30193779Y84619499D01*
X30193783Y84619500D01*
X30520522Y84619500D01*
X30588643Y84599498D01*
X30635136Y84545842D01*
X30645240Y84475568D01*
X30616335Y84411672D01*
X30541164Y84323659D01*
X30409534Y84108859D01*
X30407641Y84104289D01*
X30407639Y84104285D01*
X30347623Y83959393D01*
X30313127Y83876111D01*
X30311972Y83871299D01*
X30255710Y83636949D01*
X30254317Y83631148D01*
X30234551Y83380000D01*
X30254317Y83128852D01*
X30255471Y83124045D01*
X30255472Y83124039D01*
X30279957Y83022054D01*
X30313127Y82883889D01*
X30315020Y82879318D01*
X30315021Y82879316D01*
X30406861Y82657595D01*
X30409534Y82651141D01*
X30541164Y82436341D01*
X30544376Y82432581D01*
X30544379Y82432576D01*
X30701558Y82248543D01*
X30701563Y82248538D01*
X30704776Y82244776D01*
X30708538Y82241563D01*
X30708540Y82241561D01*
X30750398Y82205811D01*
X30789207Y82146360D01*
X30789713Y82075366D01*
X30750398Y82014189D01*
X30727526Y81994654D01*
X30704776Y81975224D01*
X30701563Y81971462D01*
X30701558Y81971457D01*
X30544379Y81787424D01*
X30544376Y81787419D01*
X30541164Y81783659D01*
X30409534Y81568859D01*
X30407641Y81564289D01*
X30407639Y81564285D01*
X30315021Y81340684D01*
X30313127Y81336111D01*
X30311972Y81331299D01*
X30255710Y81096949D01*
X30254317Y81091148D01*
X30234551Y80840000D01*
X30254317Y80588852D01*
X30255471Y80584045D01*
X30255472Y80584039D01*
X30279957Y80482054D01*
X30313127Y80343889D01*
X30315020Y80339318D01*
X30315021Y80339316D01*
X30406861Y80117595D01*
X30409534Y80111141D01*
X30541164Y79896341D01*
X30544376Y79892581D01*
X30544379Y79892576D01*
X30701558Y79708543D01*
X30701563Y79708538D01*
X30704776Y79704776D01*
X30708538Y79701563D01*
X30708540Y79701561D01*
X30750398Y79665811D01*
X30789207Y79606360D01*
X30789713Y79535366D01*
X30750398Y79474189D01*
X30727526Y79454654D01*
X30704776Y79435224D01*
X30701563Y79431462D01*
X30701558Y79431457D01*
X30544379Y79247424D01*
X30544376Y79247419D01*
X30541164Y79243659D01*
X30409534Y79028859D01*
X30407641Y79024289D01*
X30407639Y79024285D01*
X30362133Y78914423D01*
X30313127Y78796111D01*
X30304441Y78759930D01*
X30255710Y78556949D01*
X30254317Y78551148D01*
X30234551Y78300000D01*
X30254317Y78048852D01*
X30255471Y78044045D01*
X30255472Y78044039D01*
X30279957Y77942054D01*
X30313127Y77803889D01*
X30315020Y77799318D01*
X30315021Y77799316D01*
X30406861Y77577595D01*
X30409534Y77571141D01*
X30541164Y77356341D01*
X30544376Y77352581D01*
X30544379Y77352576D01*
X30701558Y77168543D01*
X30701563Y77168538D01*
X30704776Y77164776D01*
X30708538Y77161563D01*
X30708540Y77161561D01*
X30750398Y77125811D01*
X30789207Y77066360D01*
X30789713Y76995366D01*
X30750398Y76934189D01*
X30704776Y76895224D01*
X30701563Y76891462D01*
X30701558Y76891457D01*
X30544379Y76707424D01*
X30544376Y76707419D01*
X30541164Y76703659D01*
X30409534Y76488859D01*
X30407641Y76484289D01*
X30407639Y76484285D01*
X30315021Y76260684D01*
X30313127Y76256111D01*
X30311972Y76251299D01*
X30255704Y76016925D01*
X30254317Y76011148D01*
X30234551Y75760000D01*
X30254317Y75508852D01*
X30255471Y75504045D01*
X30255472Y75504039D01*
X30279957Y75402054D01*
X30313127Y75263889D01*
X30315020Y75259318D01*
X30315021Y75259316D01*
X30406861Y75037595D01*
X30409534Y75031141D01*
X30541164Y74816341D01*
X30544376Y74812581D01*
X30544379Y74812576D01*
X30701558Y74628543D01*
X30701563Y74628538D01*
X30704776Y74624776D01*
X30708538Y74621563D01*
X30708540Y74621561D01*
X30750398Y74585811D01*
X30789207Y74526360D01*
X30789713Y74455366D01*
X30750398Y74394189D01*
X30704776Y74355224D01*
X30701563Y74351462D01*
X30701558Y74351457D01*
X30544379Y74167424D01*
X30544376Y74167419D01*
X30541164Y74163659D01*
X30409534Y73948859D01*
X30407641Y73944289D01*
X30407639Y73944285D01*
X30361279Y73832361D01*
X30313127Y73716111D01*
X30311972Y73711299D01*
X30255704Y73476925D01*
X30254317Y73471148D01*
X30234551Y73220000D01*
X30254317Y72968852D01*
X30255471Y72964045D01*
X30255472Y72964039D01*
X30279957Y72862054D01*
X30313127Y72723889D01*
X30315020Y72719318D01*
X30315021Y72719316D01*
X30406861Y72497595D01*
X30409534Y72491141D01*
X30541164Y72276341D01*
X30544374Y72272583D01*
X30544379Y72272576D01*
X30701558Y72088543D01*
X30701563Y72088538D01*
X30704776Y72084776D01*
X30708538Y72081563D01*
X30708540Y72081561D01*
X30750398Y72045811D01*
X30789207Y71986360D01*
X30789713Y71915366D01*
X30750398Y71854189D01*
X30704776Y71815224D01*
X30701563Y71811462D01*
X30701558Y71811457D01*
X30544379Y71627424D01*
X30544376Y71627419D01*
X30541164Y71623659D01*
X30409534Y71408859D01*
X30407641Y71404289D01*
X30407639Y71404285D01*
X30315021Y71180684D01*
X30313127Y71176111D01*
X30311972Y71171299D01*
X30255704Y70936925D01*
X30254317Y70931148D01*
X30234551Y70680000D01*
X30254317Y70428852D01*
X30255471Y70424045D01*
X30255472Y70424039D01*
X30279957Y70322054D01*
X30313127Y70183889D01*
X30315020Y70179318D01*
X30315021Y70179316D01*
X30406861Y69957595D01*
X30409534Y69951141D01*
X30541164Y69736341D01*
X30544376Y69732581D01*
X30544379Y69732576D01*
X30701558Y69548543D01*
X30701563Y69548538D01*
X30704776Y69544776D01*
X30708538Y69541563D01*
X30708540Y69541561D01*
X30750398Y69505811D01*
X30789207Y69446360D01*
X30789713Y69375366D01*
X30750398Y69314189D01*
X30704776Y69275224D01*
X30701563Y69271462D01*
X30701558Y69271457D01*
X30544379Y69087424D01*
X30544376Y69087419D01*
X30541164Y69083659D01*
X30409534Y68868859D01*
X30407641Y68864289D01*
X30407639Y68864285D01*
X30351469Y68728677D01*
X30313127Y68636111D01*
X30311972Y68631299D01*
X30255710Y68396949D01*
X30254317Y68391148D01*
X30234551Y68140000D01*
X30254317Y67888852D01*
X30255471Y67884045D01*
X30255472Y67884039D01*
X30279957Y67782054D01*
X30313127Y67643889D01*
X30315020Y67639318D01*
X30315021Y67639316D01*
X30406861Y67417595D01*
X30409534Y67411141D01*
X30541164Y67196341D01*
X30544376Y67192581D01*
X30544379Y67192576D01*
X30701558Y67008543D01*
X30701563Y67008538D01*
X30704776Y67004776D01*
X30708538Y67001563D01*
X30708540Y67001561D01*
X30750398Y66965811D01*
X30789207Y66906360D01*
X30789713Y66835366D01*
X30750398Y66774189D01*
X30709215Y66739015D01*
X30704776Y66735224D01*
X30701563Y66731462D01*
X30701558Y66731457D01*
X30544379Y66547424D01*
X30544376Y66547419D01*
X30541164Y66543659D01*
X30409534Y66328859D01*
X30407641Y66324289D01*
X30407639Y66324285D01*
X30315021Y66100684D01*
X30313127Y66096111D01*
X30311972Y66091299D01*
X30255710Y65856949D01*
X30254317Y65851148D01*
X30234551Y65600000D01*
X30254317Y65348852D01*
X30255471Y65344045D01*
X30255472Y65344039D01*
X30279957Y65242054D01*
X30313127Y65103889D01*
X30315020Y65099318D01*
X30315021Y65099316D01*
X30406861Y64877595D01*
X30409534Y64871141D01*
X30541164Y64656341D01*
X30544374Y64652583D01*
X30544379Y64652576D01*
X30701558Y64468543D01*
X30701563Y64468538D01*
X30704776Y64464776D01*
X30708538Y64461563D01*
X30708540Y64461561D01*
X30750398Y64425811D01*
X30789207Y64366360D01*
X30789713Y64295366D01*
X30750398Y64234189D01*
X30712620Y64201923D01*
X30704776Y64195224D01*
X30701563Y64191462D01*
X30701558Y64191457D01*
X30544379Y64007424D01*
X30544376Y64007419D01*
X30541164Y64003659D01*
X30409534Y63788859D01*
X30407641Y63784289D01*
X30407639Y63784285D01*
X30315021Y63560684D01*
X30313127Y63556111D01*
X30311972Y63551299D01*
X30256707Y63321103D01*
X30254317Y63311148D01*
X30234551Y63060000D01*
X30254317Y62808852D01*
X30255471Y62804045D01*
X30255472Y62804039D01*
X30292865Y62648289D01*
X30313127Y62563889D01*
X30315020Y62559318D01*
X30315021Y62559316D01*
X30406861Y62337595D01*
X30409534Y62331141D01*
X30541164Y62116341D01*
X30544376Y62112581D01*
X30544379Y62112576D01*
X30701558Y61928543D01*
X30701563Y61928538D01*
X30704776Y61924776D01*
X30708538Y61921563D01*
X30708540Y61921561D01*
X30750398Y61885811D01*
X30789207Y61826360D01*
X30789713Y61755366D01*
X30750398Y61694189D01*
X30727526Y61674654D01*
X30704776Y61655224D01*
X30701563Y61651462D01*
X30701558Y61651457D01*
X30544379Y61467424D01*
X30544376Y61467419D01*
X30541164Y61463659D01*
X30409534Y61248859D01*
X30407641Y61244289D01*
X30407639Y61244285D01*
X30315021Y61020684D01*
X30313127Y61016111D01*
X30254317Y60771148D01*
X30234551Y60520000D01*
X30254317Y60268852D01*
X30255471Y60264045D01*
X30255472Y60264039D01*
X30292865Y60108289D01*
X30313127Y60023889D01*
X30315020Y60019318D01*
X30315021Y60019316D01*
X30406861Y59797595D01*
X30409534Y59791141D01*
X30541164Y59576341D01*
X30544376Y59572581D01*
X30544379Y59572576D01*
X30701558Y59388543D01*
X30701563Y59388538D01*
X30704776Y59384776D01*
X30708538Y59381563D01*
X30708540Y59381561D01*
X30750398Y59345811D01*
X30789207Y59286360D01*
X30789713Y59215366D01*
X30750398Y59154189D01*
X30727526Y59134654D01*
X30704776Y59115224D01*
X30701563Y59111462D01*
X30701558Y59111457D01*
X30544379Y58927424D01*
X30544376Y58927419D01*
X30541164Y58923659D01*
X30409534Y58708859D01*
X30407641Y58704289D01*
X30407639Y58704285D01*
X30401333Y58689060D01*
X30313127Y58476111D01*
X30311972Y58471299D01*
X30265313Y58276949D01*
X30254317Y58231148D01*
X30234551Y57980000D01*
X30254317Y57728852D01*
X30255471Y57724045D01*
X30255472Y57724039D01*
X30292865Y57568289D01*
X30313127Y57483889D01*
X30315020Y57479318D01*
X30315021Y57479316D01*
X30406861Y57257595D01*
X30409534Y57251141D01*
X30541164Y57036341D01*
X30544376Y57032581D01*
X30544379Y57032576D01*
X30701558Y56848543D01*
X30701563Y56848538D01*
X30704776Y56844776D01*
X30708538Y56841563D01*
X30708540Y56841561D01*
X30750398Y56805811D01*
X30789207Y56746360D01*
X30789713Y56675366D01*
X30750398Y56614189D01*
X30741582Y56606659D01*
X30704776Y56575224D01*
X30701563Y56571462D01*
X30701558Y56571457D01*
X30544379Y56387424D01*
X30544376Y56387419D01*
X30541164Y56383659D01*
X30409534Y56168859D01*
X30407641Y56164289D01*
X30407639Y56164285D01*
X30401333Y56149060D01*
X30313127Y55936111D01*
X30311972Y55931299D01*
X30259228Y55711602D01*
X30254317Y55691148D01*
X30234551Y55440000D01*
X30254317Y55188852D01*
X30255471Y55184045D01*
X30255472Y55184039D01*
X30286044Y55056698D01*
X30313127Y54943889D01*
X30315020Y54939318D01*
X30315021Y54939316D01*
X30406861Y54717595D01*
X30409534Y54711141D01*
X30541164Y54496341D01*
X30544374Y54492583D01*
X30544379Y54492576D01*
X30701558Y54308543D01*
X30701563Y54308538D01*
X30704776Y54304776D01*
X30708538Y54301563D01*
X30708540Y54301561D01*
X30750398Y54265811D01*
X30789207Y54206360D01*
X30789713Y54135366D01*
X30750398Y54074189D01*
X30727526Y54054654D01*
X30704776Y54035224D01*
X30701563Y54031462D01*
X30701558Y54031457D01*
X30544379Y53847424D01*
X30544376Y53847419D01*
X30541164Y53843659D01*
X30409534Y53628859D01*
X30407641Y53624289D01*
X30407639Y53624285D01*
X30379553Y53556478D01*
X30313127Y53396111D01*
X30311972Y53391299D01*
X30265313Y53196949D01*
X30254317Y53151148D01*
X30234551Y52900000D01*
X30254317Y52648852D01*
X30255471Y52644045D01*
X30255472Y52644039D01*
X30291867Y52492444D01*
X30313127Y52403889D01*
X30315020Y52399318D01*
X30315021Y52399316D01*
X30405408Y52181103D01*
X30409534Y52171141D01*
X30541164Y51956341D01*
X30544376Y51952581D01*
X30544379Y51952576D01*
X30701558Y51768543D01*
X30701563Y51768538D01*
X30704776Y51764776D01*
X30708538Y51761563D01*
X30708540Y51761561D01*
X30750398Y51725811D01*
X30789207Y51666360D01*
X30789713Y51595366D01*
X30750398Y51534189D01*
X30741582Y51526659D01*
X30704776Y51495224D01*
X30701563Y51491462D01*
X30701558Y51491457D01*
X30544379Y51307424D01*
X30544376Y51307419D01*
X30541164Y51303659D01*
X30409534Y51088859D01*
X30407641Y51084289D01*
X30407639Y51084285D01*
X30349229Y50943270D01*
X30313127Y50856111D01*
X30311972Y50851299D01*
X30259564Y50633003D01*
X30254317Y50611148D01*
X30234551Y50360000D01*
X30254317Y50108852D01*
X30255471Y50104045D01*
X30255472Y50104039D01*
X30275935Y50018807D01*
X30313127Y49863889D01*
X30315020Y49859318D01*
X30315021Y49859316D01*
X30336853Y49806610D01*
X30409534Y49631141D01*
X30541164Y49416341D01*
X30544376Y49412581D01*
X30544379Y49412576D01*
X30701558Y49228543D01*
X30701563Y49228538D01*
X30704776Y49224776D01*
X30708538Y49221563D01*
X30708540Y49221561D01*
X30750398Y49185811D01*
X30789207Y49126360D01*
X30789713Y49055366D01*
X30750398Y48994189D01*
X30704776Y48955224D01*
X30701563Y48951462D01*
X30701558Y48951457D01*
X30544379Y48767424D01*
X30544376Y48767419D01*
X30541164Y48763659D01*
X30409534Y48548859D01*
X30407641Y48544289D01*
X30407639Y48544285D01*
X30317254Y48326074D01*
X30313127Y48316111D01*
X30304877Y48281748D01*
X30260360Y48096318D01*
X30254317Y48071148D01*
X30234551Y47820000D01*
X30254317Y47568852D01*
X30255471Y47564045D01*
X30255472Y47564039D01*
X30292664Y47409126D01*
X30313127Y47323889D01*
X30315020Y47319318D01*
X30315021Y47319316D01*
X30336853Y47266610D01*
X30409534Y47091141D01*
X30541164Y46876341D01*
X30544376Y46872581D01*
X30544379Y46872576D01*
X30701558Y46688543D01*
X30701563Y46688538D01*
X30704776Y46684776D01*
X30708538Y46681563D01*
X30708540Y46681561D01*
X30750398Y46645811D01*
X30789207Y46586360D01*
X30789713Y46515366D01*
X30750398Y46454189D01*
X30704776Y46415224D01*
X30701563Y46411462D01*
X30701558Y46411457D01*
X30544379Y46227424D01*
X30544376Y46227419D01*
X30541164Y46223659D01*
X30409534Y46008859D01*
X30407641Y46004289D01*
X30407639Y46004285D01*
X30319894Y45792448D01*
X30313127Y45776111D01*
X30311972Y45771299D01*
X30259255Y45551715D01*
X30254317Y45531148D01*
X30234551Y45280000D01*
X30254317Y45028852D01*
X30255471Y45024045D01*
X30255472Y45024039D01*
X30275935Y44938807D01*
X30313127Y44783889D01*
X30315020Y44779318D01*
X30315021Y44779316D01*
X30336853Y44726610D01*
X30409534Y44551141D01*
X30541164Y44336341D01*
X30544376Y44332581D01*
X30544379Y44332576D01*
X30701558Y44148543D01*
X30701563Y44148538D01*
X30704776Y44144776D01*
X30708538Y44141563D01*
X30708540Y44141561D01*
X30750398Y44105811D01*
X30789207Y44046360D01*
X30789713Y43975366D01*
X30750398Y43914189D01*
X30704776Y43875224D01*
X30701563Y43871462D01*
X30701558Y43871457D01*
X30544379Y43687424D01*
X30544376Y43687419D01*
X30541164Y43683659D01*
X30409534Y43468859D01*
X30407641Y43464289D01*
X30407639Y43464285D01*
X30343397Y43309189D01*
X30313127Y43236111D01*
X30311972Y43231299D01*
X30265313Y43036949D01*
X30254317Y42991148D01*
X30234551Y42740000D01*
X30254317Y42488852D01*
X30255471Y42484045D01*
X30255472Y42484039D01*
X30275935Y42398807D01*
X30313127Y42243889D01*
X30315020Y42239318D01*
X30315021Y42239316D01*
X30336853Y42186610D01*
X30409534Y42011141D01*
X30541164Y41796341D01*
X30544376Y41792581D01*
X30544379Y41792576D01*
X30684768Y41628202D01*
X30704776Y41604776D01*
X30708538Y41601563D01*
X30892576Y41444379D01*
X30892581Y41444376D01*
X30896341Y41441164D01*
X31111141Y41309534D01*
X31115711Y41307641D01*
X31115715Y41307639D01*
X31339316Y41215021D01*
X31343889Y41213127D01*
X31428289Y41192865D01*
X31584039Y41155472D01*
X31584045Y41155471D01*
X31588852Y41154317D01*
X31677149Y41147368D01*
X31774661Y41139693D01*
X31774670Y41139693D01*
X31777118Y41139500D01*
X32702882Y41139500D01*
X32705330Y41139693D01*
X32705339Y41139693D01*
X32802851Y41147368D01*
X32891148Y41154317D01*
X32895955Y41155471D01*
X32895961Y41155472D01*
X33051711Y41192865D01*
X33136111Y41213127D01*
X33140684Y41215021D01*
X33364285Y41307639D01*
X33364289Y41307641D01*
X33368859Y41309534D01*
X33583659Y41441164D01*
X33587419Y41444376D01*
X33587424Y41444379D01*
X33771462Y41601563D01*
X33775224Y41604776D01*
X33795232Y41628202D01*
X33935621Y41792576D01*
X33935624Y41792581D01*
X33938836Y41796341D01*
X34070466Y42011141D01*
X34143148Y42186610D01*
X34164979Y42239316D01*
X34164980Y42239318D01*
X34166873Y42243889D01*
X34204065Y42398807D01*
X34224528Y42484039D01*
X34224529Y42484045D01*
X34225683Y42488852D01*
X34245449Y42740000D01*
X34225683Y42991148D01*
X34214688Y43036949D01*
X34168028Y43231299D01*
X34166873Y43236111D01*
X34136603Y43309189D01*
X34072361Y43464285D01*
X34072359Y43464289D01*
X34070466Y43468859D01*
X33938836Y43683659D01*
X33935624Y43687419D01*
X33935621Y43687424D01*
X33778442Y43871457D01*
X33778437Y43871462D01*
X33775224Y43875224D01*
X33729602Y43914189D01*
X33690793Y43973640D01*
X33690287Y44044634D01*
X33729602Y44105811D01*
X33771460Y44141561D01*
X33771462Y44141563D01*
X33775224Y44144776D01*
X33778437Y44148538D01*
X33778442Y44148543D01*
X33935621Y44332576D01*
X33935624Y44332581D01*
X33938836Y44336341D01*
X34070466Y44551141D01*
X34143148Y44726610D01*
X34164979Y44779316D01*
X34164980Y44779318D01*
X34166873Y44783889D01*
X34204065Y44938807D01*
X34224528Y45024039D01*
X34224529Y45024045D01*
X34225683Y45028852D01*
X34245449Y45280000D01*
X34225683Y45531148D01*
X34220746Y45551715D01*
X34168028Y45771299D01*
X34166873Y45776111D01*
X34160106Y45792448D01*
X34072361Y46004285D01*
X34072359Y46004289D01*
X34070466Y46008859D01*
X33938836Y46223659D01*
X33935624Y46227419D01*
X33935621Y46227424D01*
X33778442Y46411457D01*
X33778437Y46411462D01*
X33775224Y46415224D01*
X33729602Y46454189D01*
X33690793Y46513640D01*
X33690287Y46584634D01*
X33729602Y46645811D01*
X33771460Y46681561D01*
X33771462Y46681563D01*
X33775224Y46684776D01*
X33778437Y46688538D01*
X33778442Y46688543D01*
X33935621Y46872576D01*
X33935624Y46872581D01*
X33938836Y46876341D01*
X34070466Y47091141D01*
X34143148Y47266610D01*
X34164979Y47319316D01*
X34164980Y47319318D01*
X34166873Y47323889D01*
X34187336Y47409126D01*
X34224528Y47564039D01*
X34224529Y47564045D01*
X34225683Y47568852D01*
X34245449Y47820000D01*
X34225683Y48071148D01*
X34219641Y48096318D01*
X34175123Y48281748D01*
X34166873Y48316111D01*
X34162746Y48326074D01*
X34072361Y48544285D01*
X34072359Y48544289D01*
X34070466Y48548859D01*
X33938836Y48763659D01*
X33935624Y48767419D01*
X33935621Y48767424D01*
X33778442Y48951457D01*
X33778437Y48951462D01*
X33775224Y48955224D01*
X33729602Y48994189D01*
X33690793Y49053640D01*
X33690287Y49124634D01*
X33729602Y49185811D01*
X33771460Y49221561D01*
X33771462Y49221563D01*
X33775224Y49224776D01*
X33778437Y49228538D01*
X33778442Y49228543D01*
X33935621Y49412576D01*
X33935624Y49412581D01*
X33938836Y49416341D01*
X34070466Y49631141D01*
X34143148Y49806610D01*
X34164979Y49859316D01*
X34164980Y49859318D01*
X34166873Y49863889D01*
X34204065Y50018807D01*
X34224528Y50104039D01*
X34224529Y50104045D01*
X34225683Y50108852D01*
X34245449Y50360000D01*
X34225683Y50611148D01*
X34220437Y50633003D01*
X34168028Y50851299D01*
X34166873Y50856111D01*
X34130771Y50943270D01*
X34072361Y51084285D01*
X34072359Y51084289D01*
X34070466Y51088859D01*
X33938836Y51303659D01*
X33863666Y51391672D01*
X33834636Y51456459D01*
X33845241Y51526659D01*
X33892115Y51579981D01*
X33959478Y51599500D01*
X34509125Y51599500D01*
X34577246Y51579498D01*
X34598220Y51562595D01*
X38662595Y47498221D01*
X38696621Y47435909D01*
X38699500Y47409126D01*
X38699500Y12587385D01*
X38679498Y12519264D01*
X38662595Y12498290D01*
X38584316Y12420011D01*
X38469711Y12248817D01*
X38390541Y12058623D01*
X38349821Y11856673D01*
X38349500Y11850337D01*
X38349500Y11848740D01*
X38349501Y10995982D01*
X38349501Y10149664D01*
X38349821Y10143327D01*
X38390541Y9941377D01*
X38469711Y9751183D01*
X38584316Y9579989D01*
X38729989Y9434316D01*
X38901183Y9319711D01*
X39091377Y9240541D01*
X39293327Y9199821D01*
X39297993Y9199585D01*
X39297998Y9199584D01*
X39298075Y9199580D01*
X39298093Y9199580D01*
X39299663Y9199500D01*
X39301260Y9199500D01*
X40003304Y9199501D01*
X40700336Y9199501D01*
X40701892Y9199580D01*
X40701909Y9199580D01*
X40702003Y9199585D01*
X40702005Y9199585D01*
X40706673Y9199821D01*
X40908623Y9240541D01*
X41098817Y9319711D01*
X41270011Y9434316D01*
X41415684Y9579989D01*
X41422148Y9589644D01*
X41513651Y9726329D01*
X41568168Y9771810D01*
X41638619Y9780596D01*
X41693568Y9757325D01*
X41777525Y9694859D01*
X41786562Y9689255D01*
X41982482Y9589644D01*
X41992343Y9585641D01*
X42082697Y9557585D01*
X42096799Y9557366D01*
X42100000Y9564097D01*
X42100000Y9565988D01*
X42900000Y9565988D01*
X42903973Y9552457D01*
X42909570Y9551652D01*
X43101029Y9627263D01*
X43110561Y9631994D01*
X43298462Y9746016D01*
X43307052Y9752280D01*
X43473052Y9896327D01*
X43480472Y9903958D01*
X43619826Y10073911D01*
X43625850Y10082678D01*
X43734576Y10273682D01*
X43739041Y10283346D01*
X43814031Y10489941D01*
X43816802Y10500208D01*
X43831624Y10582174D01*
X43830205Y10595414D01*
X43815570Y10600000D01*
X42918115Y10600000D01*
X42902876Y10595525D01*
X42901671Y10594135D01*
X42900000Y10586452D01*
X42900000Y9565988D01*
X42100000Y9565988D01*
X42100000Y11418115D01*
X42900000Y11418115D01*
X42904475Y11402876D01*
X42905865Y11401671D01*
X42913548Y11400000D01*
X43820025Y11400000D01*
X43833556Y11403973D01*
X43834822Y11412782D01*
X43786870Y11597535D01*
X43783335Y11607575D01*
X43693063Y11807970D01*
X43687894Y11817256D01*
X43565150Y11999575D01*
X43558481Y12007870D01*
X43406772Y12166900D01*
X43398814Y12173941D01*
X43222475Y12305141D01*
X43213438Y12310745D01*
X43017518Y12410356D01*
X43007657Y12414359D01*
X42917303Y12442415D01*
X42903201Y12442634D01*
X42900000Y12435903D01*
X42900000Y11418115D01*
X42100000Y11418115D01*
X42100000Y12434012D01*
X42096027Y12447543D01*
X42090430Y12448348D01*
X41898971Y12372737D01*
X41889439Y12368006D01*
X41701540Y12253985D01*
X41690123Y12245659D01*
X41623299Y12221681D01*
X41554118Y12237637D01*
X41511175Y12277369D01*
X41419114Y12414888D01*
X41419110Y12414893D01*
X41415684Y12420011D01*
X41337405Y12498290D01*
X41303379Y12560602D01*
X41300500Y12587385D01*
X41300500Y47886209D01*
X41300501Y47886233D01*
X41300501Y48113779D01*
X41297982Y48128067D01*
X41291558Y48164499D01*
X41290124Y48175396D01*
X41286116Y48221202D01*
X41286115Y48221210D01*
X41285635Y48226692D01*
X41272306Y48276436D01*
X41269928Y48287164D01*
X41261940Y48332464D01*
X41260985Y48337880D01*
X41243373Y48386268D01*
X41240067Y48396753D01*
X41228163Y48441183D01*
X41228161Y48441188D01*
X41226739Y48446496D01*
X41204967Y48493186D01*
X41200768Y48503325D01*
X41185038Y48546543D01*
X41185036Y48546548D01*
X41183155Y48551715D01*
X41157405Y48596317D01*
X41152340Y48606044D01*
X41130568Y48652734D01*
X41127413Y48657240D01*
X41127410Y48657245D01*
X41101025Y48694928D01*
X41095120Y48704196D01*
X41072128Y48744019D01*
X41069376Y48748786D01*
X41036266Y48788245D01*
X41029599Y48796934D01*
X41000047Y48839139D01*
X40839139Y49000047D01*
X40839134Y49000050D01*
X40839126Y49000058D01*
X36100049Y53739136D01*
X36100047Y53739139D01*
X35939139Y53900047D01*
X35896947Y53929589D01*
X35888230Y53936279D01*
X35848786Y53969377D01*
X35804170Y53995136D01*
X35794924Y54001027D01*
X35752734Y54030568D01*
X35706054Y54052336D01*
X35696323Y54057402D01*
X35656484Y54080403D01*
X35656481Y54080404D01*
X35651715Y54083156D01*
X35646539Y54085040D01*
X35603327Y54100768D01*
X35593171Y54104974D01*
X35580574Y54110848D01*
X35546496Y54126739D01*
X35541186Y54128162D01*
X35541180Y54128164D01*
X35496752Y54140068D01*
X35486267Y54143374D01*
X35443053Y54159103D01*
X35443045Y54159105D01*
X35437880Y54160985D01*
X35387165Y54169928D01*
X35376433Y54172307D01*
X35326692Y54185635D01*
X35321210Y54186115D01*
X35321202Y54186116D01*
X35275396Y54190124D01*
X35264499Y54191558D01*
X35225280Y54198473D01*
X35213779Y54200501D01*
X34986221Y54200501D01*
X34986217Y54200500D01*
X33959478Y54200500D01*
X33891357Y54220502D01*
X33844864Y54274158D01*
X33834760Y54344432D01*
X33863665Y54408328D01*
X33938836Y54496341D01*
X34070466Y54711141D01*
X34073140Y54717595D01*
X34164979Y54939316D01*
X34164980Y54939318D01*
X34166873Y54943889D01*
X34193956Y55056698D01*
X34224528Y55184039D01*
X34224529Y55184045D01*
X34225683Y55188852D01*
X34245449Y55440000D01*
X34225683Y55691148D01*
X34220773Y55711602D01*
X34168028Y55931299D01*
X34166873Y55936111D01*
X34078667Y56149060D01*
X34072361Y56164285D01*
X34072359Y56164289D01*
X34070466Y56168859D01*
X33938836Y56383659D01*
X33863666Y56471672D01*
X33834636Y56536459D01*
X33845241Y56606659D01*
X33892115Y56659981D01*
X33959478Y56679500D01*
X35429125Y56679500D01*
X35497246Y56659498D01*
X35518220Y56642595D01*
X47662595Y44498220D01*
X47696621Y44435908D01*
X47699500Y44409125D01*
X47699500Y12587385D01*
X47679498Y12519264D01*
X47662595Y12498290D01*
X47584316Y12420011D01*
X47469711Y12248817D01*
X47390541Y12058623D01*
X47349821Y11856673D01*
X47349500Y11850337D01*
X47349500Y11848740D01*
X47349501Y10995982D01*
X47349501Y10149664D01*
X47349821Y10143327D01*
X47390541Y9941377D01*
X47469711Y9751183D01*
X47584316Y9579989D01*
X47729989Y9434316D01*
X47901183Y9319711D01*
X48091377Y9240541D01*
X48293327Y9199821D01*
X48297993Y9199585D01*
X48297998Y9199584D01*
X48298075Y9199580D01*
X48298093Y9199580D01*
X48299663Y9199500D01*
X48301260Y9199500D01*
X49003304Y9199501D01*
X49700336Y9199501D01*
X49701892Y9199580D01*
X49701909Y9199580D01*
X49702003Y9199585D01*
X49702005Y9199585D01*
X49706673Y9199821D01*
X49908623Y9240541D01*
X50098817Y9319711D01*
X50270011Y9434316D01*
X50347107Y9511412D01*
X50409419Y9545438D01*
X50480234Y9540373D01*
X50518031Y9518129D01*
X50526860Y9510588D01*
X50748372Y9374846D01*
X50752942Y9372953D01*
X50752946Y9372951D01*
X50983817Y9277321D01*
X50988390Y9275427D01*
X51076724Y9254220D01*
X51236193Y9215934D01*
X51236199Y9215933D01*
X51241006Y9214779D01*
X51500000Y9194396D01*
X51758994Y9214779D01*
X51763801Y9215933D01*
X51763807Y9215934D01*
X51923276Y9254220D01*
X52011610Y9275427D01*
X52016183Y9277321D01*
X52247054Y9372951D01*
X52247058Y9372953D01*
X52251628Y9374846D01*
X52473140Y9510588D01*
X52670689Y9679311D01*
X52839412Y9876860D01*
X52975154Y10098372D01*
X52995710Y10147997D01*
X53072679Y10333817D01*
X53072680Y10333819D01*
X53074573Y10338390D01*
X53095780Y10426724D01*
X53134066Y10586193D01*
X53134067Y10586199D01*
X53135221Y10591006D01*
X53143409Y10695041D01*
X53150307Y10782690D01*
X53150307Y10782699D01*
X53150500Y10785147D01*
X53150500Y11000000D01*
X59694564Y11000000D01*
X59714287Y10699080D01*
X59715089Y10695047D01*
X59715090Y10695041D01*
X59772314Y10407359D01*
X59773120Y10403309D01*
X59774447Y10399400D01*
X59774448Y10399396D01*
X59868729Y10121654D01*
X59870055Y10117748D01*
X59887350Y10082678D01*
X59988848Y9876860D01*
X60003434Y9847282D01*
X60005728Y9843849D01*
X60150446Y9627263D01*
X60170975Y9596539D01*
X60173689Y9593445D01*
X60173693Y9593439D01*
X60313241Y9434316D01*
X60369811Y9369811D01*
X60372900Y9367102D01*
X60593439Y9173693D01*
X60593445Y9173689D01*
X60596539Y9170975D01*
X60599965Y9168686D01*
X60599970Y9168682D01*
X60787533Y9043357D01*
X60847282Y9003434D01*
X60850981Y9001610D01*
X60850986Y9001607D01*
X60989834Y8933135D01*
X61117748Y8870055D01*
X61121653Y8868729D01*
X61121654Y8868729D01*
X61399396Y8774448D01*
X61399400Y8774447D01*
X61403309Y8773120D01*
X61407353Y8772316D01*
X61407359Y8772314D01*
X61695041Y8715090D01*
X61695047Y8715089D01*
X61699080Y8714287D01*
X61703185Y8714018D01*
X61703192Y8714017D01*
X61922641Y8699634D01*
X61922650Y8699634D01*
X61924690Y8699500D01*
X62075310Y8699500D01*
X62077350Y8699634D01*
X62077359Y8699634D01*
X62296808Y8714017D01*
X62296815Y8714018D01*
X62300920Y8714287D01*
X62304953Y8715089D01*
X62304959Y8715090D01*
X62592641Y8772314D01*
X62592647Y8772316D01*
X62596691Y8773120D01*
X62600600Y8774447D01*
X62600604Y8774448D01*
X62878346Y8868729D01*
X62878347Y8868729D01*
X62882252Y8870055D01*
X63010166Y8933135D01*
X63149014Y9001607D01*
X63149019Y9001610D01*
X63152718Y9003434D01*
X63212467Y9043357D01*
X63400030Y9168682D01*
X63400035Y9168686D01*
X63403461Y9170975D01*
X63406555Y9173689D01*
X63406561Y9173693D01*
X63627100Y9367102D01*
X63630189Y9369811D01*
X63686759Y9434316D01*
X63826307Y9593439D01*
X63826311Y9593445D01*
X63829025Y9596539D01*
X63849555Y9627263D01*
X63994272Y9843849D01*
X63996566Y9847282D01*
X64011153Y9876860D01*
X64112650Y10082678D01*
X64129945Y10117748D01*
X64131271Y10121654D01*
X64225552Y10399396D01*
X64225553Y10399400D01*
X64226880Y10403309D01*
X64227686Y10407359D01*
X64284910Y10695041D01*
X64284911Y10695047D01*
X64285713Y10699080D01*
X64305436Y11000000D01*
X64285713Y11300920D01*
X64265673Y11401671D01*
X64227686Y11592641D01*
X64227684Y11592647D01*
X64226880Y11596691D01*
X64223186Y11607575D01*
X64131271Y11878346D01*
X64131271Y11878347D01*
X64129945Y11882252D01*
X64045946Y12052585D01*
X63998393Y12149014D01*
X63998390Y12149019D01*
X63996566Y12152718D01*
X63913277Y12277369D01*
X63831318Y12400030D01*
X63831314Y12400035D01*
X63829025Y12403461D01*
X63826311Y12406555D01*
X63826307Y12406561D01*
X63632898Y12627100D01*
X63630189Y12630189D01*
X63627100Y12632898D01*
X63406561Y12826307D01*
X63406555Y12826311D01*
X63403461Y12829025D01*
X63400035Y12831314D01*
X63400030Y12831318D01*
X63156151Y12994272D01*
X63152718Y12996566D01*
X63149019Y12998390D01*
X63149014Y12998393D01*
X63010166Y13066865D01*
X62882252Y13129945D01*
X62878346Y13131271D01*
X62600604Y13225552D01*
X62600600Y13225553D01*
X62596691Y13226880D01*
X62592647Y13227684D01*
X62592641Y13227686D01*
X62304959Y13284910D01*
X62304953Y13284911D01*
X62300920Y13285713D01*
X62296815Y13285982D01*
X62296808Y13285983D01*
X62077359Y13300366D01*
X62077350Y13300366D01*
X62075310Y13300500D01*
X61924690Y13300500D01*
X61922650Y13300366D01*
X61922641Y13300366D01*
X61703192Y13285983D01*
X61703185Y13285982D01*
X61699080Y13285713D01*
X61695047Y13284911D01*
X61695041Y13284910D01*
X61407359Y13227686D01*
X61407353Y13227684D01*
X61403309Y13226880D01*
X61399400Y13225553D01*
X61399396Y13225552D01*
X61121654Y13131271D01*
X61117748Y13129945D01*
X60989834Y13066865D01*
X60850986Y12998393D01*
X60850981Y12998390D01*
X60847282Y12996566D01*
X60843849Y12994272D01*
X60599970Y12831318D01*
X60599965Y12831314D01*
X60596539Y12829025D01*
X60593445Y12826311D01*
X60593439Y12826307D01*
X60372900Y12632898D01*
X60369811Y12630189D01*
X60367102Y12627100D01*
X60173693Y12406561D01*
X60173689Y12406555D01*
X60170975Y12403461D01*
X60168686Y12400035D01*
X60168682Y12400030D01*
X60086723Y12277369D01*
X60003434Y12152718D01*
X60001610Y12149019D01*
X60001607Y12149014D01*
X59954054Y12052585D01*
X59870055Y11882252D01*
X59868729Y11878347D01*
X59868729Y11878346D01*
X59776815Y11607575D01*
X59773120Y11596691D01*
X59772316Y11592647D01*
X59772314Y11592641D01*
X59734328Y11401671D01*
X59714287Y11300920D01*
X59694564Y11000000D01*
X53150500Y11000000D01*
X53150500Y11214853D01*
X53143727Y11300920D01*
X53135609Y11404060D01*
X53135221Y11408994D01*
X53134067Y11413801D01*
X53134066Y11413807D01*
X53075728Y11656798D01*
X53074573Y11661610D01*
X52996400Y11850336D01*
X52977049Y11897054D01*
X52977047Y11897058D01*
X52975154Y11901628D01*
X52839412Y12123140D01*
X52830690Y12133352D01*
X52801658Y12198141D01*
X52800500Y12215184D01*
X52800500Y47386209D01*
X52800501Y47386233D01*
X52800501Y47613779D01*
X52799546Y47619195D01*
X52799545Y47619206D01*
X52791558Y47664497D01*
X52790122Y47675399D01*
X52786114Y47721215D01*
X52785635Y47726692D01*
X52784212Y47732004D01*
X52784210Y47732013D01*
X52772306Y47776439D01*
X52769926Y47787172D01*
X52761941Y47832460D01*
X52761940Y47832465D01*
X52760985Y47837879D01*
X52759102Y47843053D01*
X52743372Y47886274D01*
X52740068Y47896753D01*
X52731453Y47928902D01*
X52726739Y47946496D01*
X52704973Y47993174D01*
X52700768Y48003327D01*
X52685037Y48046549D01*
X52685034Y48046556D01*
X52683156Y48051715D01*
X52674785Y48066214D01*
X52657405Y48096318D01*
X52652329Y48106068D01*
X52632894Y48147746D01*
X52632894Y48147747D01*
X52630568Y48152734D01*
X52627411Y48157242D01*
X52627408Y48157248D01*
X52601030Y48194920D01*
X52595124Y48204190D01*
X52572127Y48244022D01*
X52572126Y48244023D01*
X52569377Y48248785D01*
X52536269Y48288242D01*
X52529593Y48296942D01*
X52500047Y48339139D01*
X52339139Y48500047D01*
X52339136Y48500049D01*
X39480049Y61359136D01*
X39480047Y61359139D01*
X39319139Y61520047D01*
X39304516Y61530286D01*
X39260187Y61585743D01*
X39252878Y61656363D01*
X39284908Y61719723D01*
X39346109Y61755709D01*
X39376786Y61759500D01*
X44349125Y61759500D01*
X44417246Y61739498D01*
X44438220Y61722595D01*
X53662595Y52498221D01*
X53696621Y52435909D01*
X53699500Y52409126D01*
X53699500Y28113785D01*
X53699499Y28113779D01*
X53699499Y27886221D01*
X53700455Y27880800D01*
X53708442Y27835501D01*
X53709876Y27824604D01*
X53713884Y27778798D01*
X53713885Y27778790D01*
X53714365Y27773308D01*
X53715789Y27767995D01*
X53727693Y27723567D01*
X53730072Y27712836D01*
X53739015Y27662120D01*
X53740895Y27656955D01*
X53740897Y27656947D01*
X53756626Y27613733D01*
X53759932Y27603248D01*
X53771836Y27558820D01*
X53771838Y27558814D01*
X53773261Y27553504D01*
X53788952Y27519854D01*
X53795026Y27506829D01*
X53799232Y27496673D01*
X53816844Y27448285D01*
X53819596Y27443519D01*
X53819597Y27443516D01*
X53842598Y27403677D01*
X53847664Y27393946D01*
X53869432Y27347266D01*
X53898973Y27305076D01*
X53904864Y27295830D01*
X53930623Y27251214D01*
X53934162Y27246997D01*
X53963721Y27211770D01*
X53970411Y27203053D01*
X53999953Y27160861D01*
X54160861Y26999953D01*
X54160864Y26999951D01*
X55104951Y26055864D01*
X55104953Y26055861D01*
X55265861Y25894953D01*
X55270364Y25891800D01*
X55308048Y25865414D01*
X55316765Y25858725D01*
X55356214Y25825623D01*
X55400830Y25799864D01*
X55410076Y25793973D01*
X55452266Y25764432D01*
X55498946Y25742664D01*
X55508677Y25737598D01*
X55548516Y25714597D01*
X55548519Y25714596D01*
X55553285Y25711844D01*
X55558460Y25709960D01*
X55558461Y25709960D01*
X55601673Y25694232D01*
X55611826Y25690027D01*
X55658504Y25668261D01*
X55663814Y25666838D01*
X55663820Y25666836D01*
X55708248Y25654932D01*
X55718733Y25651626D01*
X55761947Y25635897D01*
X55761955Y25635895D01*
X55767120Y25634015D01*
X55812546Y25626005D01*
X55817836Y25625072D01*
X55828564Y25622694D01*
X55878308Y25609365D01*
X55883790Y25608885D01*
X55883798Y25608884D01*
X55929604Y25604876D01*
X55940501Y25603442D01*
X55979720Y25596527D01*
X55991221Y25594499D01*
X56218779Y25594499D01*
X56218783Y25594500D01*
X58809766Y25594500D01*
X58877887Y25574498D01*
X58924380Y25520842D01*
X58934484Y25450568D01*
X58905578Y25386670D01*
X58855588Y25328140D01*
X58719846Y25106628D01*
X58717953Y25102058D01*
X58717951Y25102054D01*
X58622618Y24871899D01*
X58620427Y24866610D01*
X58619272Y24861798D01*
X58560934Y24618807D01*
X58560933Y24618801D01*
X58559779Y24613994D01*
X58539396Y24355000D01*
X58559779Y24096006D01*
X58560933Y24091199D01*
X58560934Y24091193D01*
X58599220Y23931724D01*
X58620427Y23843390D01*
X58622320Y23838819D01*
X58622321Y23838817D01*
X58706329Y23636006D01*
X58719846Y23603372D01*
X58855588Y23381860D01*
X59024311Y23184311D01*
X59028067Y23181103D01*
X59028072Y23181098D01*
X59028408Y23180811D01*
X59028500Y23180670D01*
X59031575Y23177595D01*
X59030929Y23176949D01*
X59067217Y23121361D01*
X59067725Y23050366D01*
X59030905Y22993075D01*
X59031575Y22992405D01*
X59028496Y22989326D01*
X59028408Y22989189D01*
X59028072Y22988902D01*
X59028067Y22988897D01*
X59024311Y22985689D01*
X58855588Y22788140D01*
X58719846Y22566628D01*
X58717953Y22562058D01*
X58717951Y22562054D01*
X58692985Y22501780D01*
X58620427Y22326610D01*
X58619272Y22321798D01*
X58560934Y22078807D01*
X58560933Y22078801D01*
X58559779Y22073994D01*
X58539396Y21815000D01*
X58559779Y21556006D01*
X58560933Y21551199D01*
X58560934Y21551193D01*
X58596350Y21403677D01*
X58620427Y21303390D01*
X58622320Y21298819D01*
X58622321Y21298817D01*
X58706329Y21096006D01*
X58719846Y21063372D01*
X58855588Y20841860D01*
X59024311Y20644311D01*
X59028067Y20641103D01*
X59028072Y20641098D01*
X59028408Y20640811D01*
X59028500Y20640670D01*
X59031575Y20637595D01*
X59030929Y20636949D01*
X59067217Y20581361D01*
X59067725Y20510366D01*
X59030905Y20453075D01*
X59031575Y20452405D01*
X59028496Y20449326D01*
X59028408Y20449189D01*
X59028072Y20448902D01*
X59028067Y20448897D01*
X59024311Y20445689D01*
X58855588Y20248140D01*
X58719846Y20026628D01*
X58717953Y20022058D01*
X58717951Y20022054D01*
X58622321Y19791183D01*
X58620427Y19786610D01*
X58615958Y19767995D01*
X58560934Y19538807D01*
X58560933Y19538801D01*
X58559779Y19533994D01*
X58539396Y19275000D01*
X58559779Y19016006D01*
X58560933Y19011199D01*
X58560934Y19011193D01*
X58563633Y18999953D01*
X58620427Y18763390D01*
X58719846Y18523372D01*
X58855588Y18301860D01*
X59024311Y18104311D01*
X59028067Y18101103D01*
X59028072Y18101098D01*
X59028408Y18100811D01*
X59028500Y18100670D01*
X59031575Y18097595D01*
X59030929Y18096949D01*
X59067217Y18041361D01*
X59067725Y17970366D01*
X59030905Y17913075D01*
X59031575Y17912405D01*
X59028496Y17909326D01*
X59028408Y17909189D01*
X59028072Y17908902D01*
X59028067Y17908897D01*
X59024311Y17905689D01*
X58855588Y17708140D01*
X58719846Y17486628D01*
X58620427Y17246610D01*
X58619272Y17241798D01*
X58560934Y16998807D01*
X58560933Y16998801D01*
X58559779Y16993994D01*
X58539396Y16735000D01*
X58559779Y16476006D01*
X58560933Y16471199D01*
X58560934Y16471193D01*
X58599220Y16311724D01*
X58620427Y16223390D01*
X58719846Y15983372D01*
X58855588Y15761860D01*
X59024311Y15564311D01*
X59221860Y15395588D01*
X59443372Y15259846D01*
X59447942Y15257953D01*
X59447946Y15257951D01*
X59678817Y15162321D01*
X59683390Y15160427D01*
X59771724Y15139220D01*
X59931193Y15100934D01*
X59931199Y15100933D01*
X59936006Y15099779D01*
X60195000Y15079396D01*
X60453994Y15099779D01*
X60458801Y15100933D01*
X60458807Y15100934D01*
X60618276Y15139220D01*
X60706610Y15160427D01*
X60711183Y15162321D01*
X60942054Y15257951D01*
X60942058Y15257953D01*
X60946628Y15259846D01*
X61168140Y15395588D01*
X61365689Y15564311D01*
X61534412Y15761860D01*
X61670154Y15983372D01*
X61769573Y16223390D01*
X61790780Y16311724D01*
X61829066Y16471193D01*
X61829067Y16471199D01*
X61830221Y16476006D01*
X61850604Y16735000D01*
X61830221Y16993994D01*
X61829067Y16998801D01*
X61829066Y16998807D01*
X61770728Y17241798D01*
X61769573Y17246610D01*
X61670154Y17486628D01*
X61534412Y17708140D01*
X61365689Y17905689D01*
X61361933Y17908897D01*
X61361928Y17908902D01*
X61361592Y17909189D01*
X61361500Y17909330D01*
X61358425Y17912405D01*
X61359071Y17913051D01*
X61322783Y17968639D01*
X61322275Y18039634D01*
X61359095Y18096925D01*
X61358425Y18097595D01*
X61361504Y18100674D01*
X61361592Y18100811D01*
X61361928Y18101098D01*
X61361933Y18101103D01*
X61365689Y18104311D01*
X61534412Y18301860D01*
X61670154Y18523372D01*
X61769573Y18763390D01*
X61826367Y18999953D01*
X61829066Y19011193D01*
X61829067Y19011199D01*
X61830221Y19016006D01*
X61850604Y19275000D01*
X61830221Y19533994D01*
X61829067Y19538801D01*
X61829066Y19538807D01*
X61774042Y19767995D01*
X61769573Y19786610D01*
X61767679Y19791183D01*
X61672049Y20022054D01*
X61672047Y20022058D01*
X61670154Y20026628D01*
X61534412Y20248140D01*
X61365689Y20445689D01*
X61361933Y20448897D01*
X61361928Y20448902D01*
X61361592Y20449189D01*
X61361500Y20449330D01*
X61358425Y20452405D01*
X61359071Y20453051D01*
X61322783Y20508639D01*
X61322275Y20579634D01*
X61359095Y20636925D01*
X61358425Y20637595D01*
X61361504Y20640674D01*
X61361592Y20640811D01*
X61361928Y20641098D01*
X61361933Y20641103D01*
X61365689Y20644311D01*
X61534412Y20841860D01*
X61670154Y21063372D01*
X61683672Y21096006D01*
X61767679Y21298817D01*
X61767680Y21298819D01*
X61769573Y21303390D01*
X61793650Y21403677D01*
X61829066Y21551193D01*
X61829067Y21551199D01*
X61830221Y21556006D01*
X61850604Y21815000D01*
X61830221Y22073994D01*
X61829067Y22078801D01*
X61829066Y22078807D01*
X61770728Y22321798D01*
X61769573Y22326610D01*
X61697015Y22501780D01*
X61672049Y22562054D01*
X61672047Y22562058D01*
X61670154Y22566628D01*
X61534412Y22788140D01*
X61365689Y22985689D01*
X61361933Y22988897D01*
X61361928Y22988902D01*
X61361592Y22989189D01*
X61361500Y22989330D01*
X61358425Y22992405D01*
X61359071Y22993051D01*
X61322783Y23048639D01*
X61322275Y23119634D01*
X61359095Y23176925D01*
X61358425Y23177595D01*
X61361504Y23180674D01*
X61361592Y23180811D01*
X61361928Y23181098D01*
X61361933Y23181103D01*
X61365689Y23184311D01*
X61534412Y23381860D01*
X61670154Y23603372D01*
X61683672Y23636006D01*
X61767679Y23838817D01*
X61767680Y23838819D01*
X61769573Y23843390D01*
X61790780Y23931724D01*
X61829066Y24091193D01*
X61829067Y24091199D01*
X61830221Y24096006D01*
X61850604Y24355000D01*
X61830221Y24613994D01*
X61829067Y24618801D01*
X61829066Y24618807D01*
X61770728Y24861798D01*
X61769573Y24866610D01*
X61767382Y24871899D01*
X61672049Y25102054D01*
X61672047Y25102058D01*
X61670154Y25106628D01*
X61534412Y25328140D01*
X61365689Y25525689D01*
X61361933Y25528897D01*
X61361928Y25528902D01*
X61361592Y25529189D01*
X61361500Y25529330D01*
X61358425Y25532405D01*
X61359071Y25533051D01*
X61322783Y25588639D01*
X61322275Y25659634D01*
X61359095Y25716925D01*
X61358425Y25717595D01*
X61361504Y25720674D01*
X61361592Y25720811D01*
X61361928Y25721098D01*
X61361933Y25721103D01*
X61365689Y25724311D01*
X61534412Y25921860D01*
X61670154Y26143372D01*
X61710305Y26240303D01*
X61767679Y26378817D01*
X61767680Y26378819D01*
X61769573Y26383390D01*
X61791189Y26473426D01*
X61829066Y26631193D01*
X61829067Y26631199D01*
X61830221Y26636006D01*
X61850604Y26895000D01*
X61830221Y27153994D01*
X61829067Y27158801D01*
X61829066Y27158807D01*
X61770728Y27401798D01*
X61769573Y27406610D01*
X61764325Y27419280D01*
X61672049Y27642054D01*
X61672047Y27642058D01*
X61670154Y27646628D01*
X61534412Y27868140D01*
X61365689Y28065689D01*
X61361933Y28068897D01*
X61361928Y28068902D01*
X61361592Y28069189D01*
X61361500Y28069330D01*
X61358425Y28072405D01*
X61359071Y28073051D01*
X61322783Y28128639D01*
X61322275Y28199634D01*
X61359095Y28256925D01*
X61358425Y28257595D01*
X61361504Y28260674D01*
X61361592Y28260811D01*
X61361928Y28261098D01*
X61361933Y28261103D01*
X61365689Y28264311D01*
X61534412Y28461860D01*
X61670154Y28683372D01*
X61689966Y28731201D01*
X61767679Y28918817D01*
X61767680Y28918819D01*
X61769573Y28923390D01*
X61813959Y29108270D01*
X61829066Y29171193D01*
X61829067Y29171199D01*
X61830221Y29176006D01*
X61850604Y29435000D01*
X61830221Y29693994D01*
X61829067Y29698801D01*
X61829066Y29698807D01*
X61770728Y29941798D01*
X61769573Y29946610D01*
X61670154Y30186628D01*
X61534412Y30408140D01*
X61365689Y30605689D01*
X61361933Y30608897D01*
X61361928Y30608902D01*
X61361592Y30609189D01*
X61361500Y30609330D01*
X61358425Y30612405D01*
X61359071Y30613051D01*
X61322783Y30668639D01*
X61322275Y30739634D01*
X61359095Y30796925D01*
X61358425Y30797595D01*
X61361504Y30800674D01*
X61361592Y30800811D01*
X61361928Y30801098D01*
X61361933Y30801103D01*
X61365689Y30804311D01*
X61534412Y31001860D01*
X61670154Y31223372D01*
X61674323Y31233435D01*
X61767679Y31458817D01*
X61767680Y31458819D01*
X61769573Y31463390D01*
X61792419Y31558548D01*
X61829066Y31711193D01*
X61829067Y31711199D01*
X61830221Y31716006D01*
X61850604Y31975000D01*
X61830221Y32233994D01*
X61829067Y32238801D01*
X61829066Y32238807D01*
X61775586Y32461563D01*
X61769573Y32486610D01*
X61759720Y32510398D01*
X61672049Y32722054D01*
X61672047Y32722058D01*
X61670154Y32726628D01*
X61534412Y32948140D01*
X61365689Y33145689D01*
X61361933Y33148897D01*
X61361928Y33148902D01*
X61361592Y33149189D01*
X61361500Y33149330D01*
X61358425Y33152405D01*
X61359071Y33153051D01*
X61322783Y33208639D01*
X61322275Y33279634D01*
X61359095Y33336925D01*
X61358425Y33337595D01*
X61361504Y33340674D01*
X61361592Y33340811D01*
X61361928Y33341098D01*
X61361933Y33341103D01*
X61365689Y33344311D01*
X61534412Y33541860D01*
X61670154Y33763372D01*
X61683672Y33796006D01*
X61767679Y33998817D01*
X61767680Y33998819D01*
X61769573Y34003390D01*
X61790780Y34091724D01*
X61829066Y34251193D01*
X61829067Y34251199D01*
X61830221Y34256006D01*
X61850604Y34515000D01*
X61830221Y34773994D01*
X61829067Y34778801D01*
X61829066Y34778807D01*
X61770728Y35021798D01*
X61769573Y35026610D01*
X61727220Y35128859D01*
X61672049Y35262054D01*
X61672047Y35262058D01*
X61670154Y35266628D01*
X61534412Y35488140D01*
X61365689Y35685689D01*
X61361933Y35688897D01*
X61361928Y35688902D01*
X61361592Y35689189D01*
X61361500Y35689330D01*
X61358425Y35692405D01*
X61359071Y35693051D01*
X61322783Y35748639D01*
X61322275Y35819634D01*
X61359095Y35876925D01*
X61358425Y35877595D01*
X61361504Y35880674D01*
X61361592Y35880811D01*
X61361928Y35881098D01*
X61361933Y35881103D01*
X61365689Y35884311D01*
X61534412Y36081860D01*
X61670154Y36303372D01*
X61683672Y36336006D01*
X61767679Y36538817D01*
X61767680Y36538819D01*
X61769573Y36543390D01*
X61790780Y36631724D01*
X61829066Y36791193D01*
X61829067Y36791199D01*
X61830221Y36796006D01*
X61850604Y37055000D01*
X61830221Y37313994D01*
X61829067Y37318801D01*
X61829066Y37318807D01*
X61770728Y37561798D01*
X61769573Y37566610D01*
X61767382Y37571899D01*
X61672049Y37802054D01*
X61672047Y37802058D01*
X61670154Y37806628D01*
X61534412Y38028140D01*
X61365689Y38225689D01*
X61361933Y38228897D01*
X61361928Y38228902D01*
X61361592Y38229189D01*
X61361500Y38229330D01*
X61358425Y38232405D01*
X61359071Y38233051D01*
X61322783Y38288639D01*
X61322275Y38359634D01*
X61359095Y38416925D01*
X61358425Y38417595D01*
X61361504Y38420674D01*
X61361592Y38420811D01*
X61361928Y38421098D01*
X61361933Y38421103D01*
X61365689Y38424311D01*
X61534412Y38621860D01*
X61670154Y38843372D01*
X61683672Y38876006D01*
X61767679Y39078817D01*
X61767680Y39078819D01*
X61769573Y39083390D01*
X61790780Y39171724D01*
X61829066Y39331193D01*
X61829067Y39331199D01*
X61830221Y39336006D01*
X61850604Y39595000D01*
X61830221Y39853994D01*
X61829067Y39858801D01*
X61829066Y39858807D01*
X61770728Y40101798D01*
X61769573Y40106610D01*
X61767382Y40111899D01*
X61672049Y40342054D01*
X61672047Y40342058D01*
X61670154Y40346628D01*
X61534412Y40568140D01*
X61365689Y40765689D01*
X61361933Y40768897D01*
X61361928Y40768902D01*
X61361592Y40769189D01*
X61361500Y40769330D01*
X61358425Y40772405D01*
X61359071Y40773051D01*
X61322783Y40828639D01*
X61322275Y40899634D01*
X61359095Y40956925D01*
X61358425Y40957595D01*
X61361504Y40960674D01*
X61361592Y40960811D01*
X61361928Y40961098D01*
X61361933Y40961103D01*
X61365689Y40964311D01*
X61534412Y41161860D01*
X61670154Y41383372D01*
X61683672Y41416006D01*
X61767679Y41618817D01*
X61767680Y41618819D01*
X61769573Y41623390D01*
X61811095Y41796341D01*
X61829066Y41871193D01*
X61829067Y41871199D01*
X61830221Y41876006D01*
X61850604Y42135000D01*
X61830221Y42393994D01*
X61829067Y42398801D01*
X61829066Y42398807D01*
X61770728Y42641798D01*
X61769573Y42646610D01*
X61732932Y42735070D01*
X61672049Y42882054D01*
X61672047Y42882058D01*
X61670154Y42886628D01*
X61534412Y43108140D01*
X61365689Y43305689D01*
X61361933Y43308897D01*
X61361928Y43308902D01*
X61361592Y43309189D01*
X61361500Y43309330D01*
X61358425Y43312405D01*
X61359071Y43313051D01*
X61322783Y43368639D01*
X61322275Y43439634D01*
X61359095Y43496925D01*
X61358425Y43497595D01*
X61361504Y43500674D01*
X61361592Y43500811D01*
X61361928Y43501098D01*
X61361933Y43501103D01*
X61365689Y43504311D01*
X61534412Y43701860D01*
X61670154Y43923372D01*
X61683672Y43956006D01*
X61767679Y44158817D01*
X61767680Y44158819D01*
X61769573Y44163390D01*
X61811095Y44336341D01*
X61829066Y44411193D01*
X61829067Y44411199D01*
X61830221Y44416006D01*
X61850604Y44675000D01*
X61830221Y44933994D01*
X61829067Y44938801D01*
X61829066Y44938807D01*
X61770728Y45181798D01*
X61769573Y45186610D01*
X61732932Y45275070D01*
X61672049Y45422054D01*
X61672047Y45422058D01*
X61670154Y45426628D01*
X61534412Y45648140D01*
X61365689Y45845689D01*
X61361933Y45848897D01*
X61361928Y45848902D01*
X61361592Y45849189D01*
X61361500Y45849330D01*
X61358425Y45852405D01*
X61359071Y45853051D01*
X61322783Y45908639D01*
X61322275Y45979634D01*
X61359095Y46036925D01*
X61358425Y46037595D01*
X61361504Y46040674D01*
X61361592Y46040811D01*
X61361928Y46041098D01*
X61361933Y46041103D01*
X61365689Y46044311D01*
X61534412Y46241860D01*
X61670154Y46463372D01*
X61683672Y46496006D01*
X61767679Y46698817D01*
X61767680Y46698819D01*
X61769573Y46703390D01*
X61811095Y46876341D01*
X61829066Y46951193D01*
X61829067Y46951199D01*
X61830221Y46956006D01*
X61850604Y47215000D01*
X61830221Y47473994D01*
X61829067Y47478801D01*
X61829066Y47478807D01*
X61770728Y47721798D01*
X61769573Y47726610D01*
X61746733Y47781750D01*
X61672049Y47962054D01*
X61672047Y47962058D01*
X61670154Y47966628D01*
X61534412Y48188140D01*
X61365689Y48385689D01*
X61361933Y48388897D01*
X61361928Y48388902D01*
X61361592Y48389189D01*
X61361500Y48389330D01*
X61358425Y48392405D01*
X61359071Y48393051D01*
X61322783Y48448639D01*
X61322275Y48519634D01*
X61359095Y48576925D01*
X61358425Y48577595D01*
X61361504Y48580674D01*
X61361592Y48580811D01*
X61361928Y48581098D01*
X61361933Y48581103D01*
X61365689Y48584311D01*
X61534412Y48781860D01*
X61670154Y49003372D01*
X61683672Y49036006D01*
X61767679Y49238817D01*
X61767680Y49238819D01*
X61769573Y49243390D01*
X61811095Y49416341D01*
X61829066Y49491193D01*
X61829067Y49491199D01*
X61830221Y49496006D01*
X61850604Y49755000D01*
X61830221Y50013994D01*
X61829067Y50018801D01*
X61829066Y50018807D01*
X61770728Y50261798D01*
X61769573Y50266610D01*
X61767382Y50271899D01*
X61672049Y50502054D01*
X61672047Y50502058D01*
X61670154Y50506628D01*
X61534412Y50728140D01*
X61365689Y50925689D01*
X61168140Y51094412D01*
X60946628Y51230154D01*
X60942058Y51232047D01*
X60942054Y51232049D01*
X60711183Y51327679D01*
X60711181Y51327680D01*
X60706610Y51329573D01*
X60618276Y51350780D01*
X60458807Y51389066D01*
X60458801Y51389067D01*
X60453994Y51390221D01*
X60195000Y51410604D01*
X59936006Y51390221D01*
X59931199Y51389067D01*
X59931193Y51389066D01*
X59771724Y51350780D01*
X59683390Y51329573D01*
X59678819Y51327680D01*
X59678817Y51327679D01*
X59447946Y51232049D01*
X59447942Y51232047D01*
X59443372Y51230154D01*
X59221860Y51094412D01*
X59024311Y50925689D01*
X58855588Y50728140D01*
X58719846Y50506628D01*
X58717953Y50502058D01*
X58717951Y50502054D01*
X58622618Y50271899D01*
X58620427Y50266610D01*
X58619272Y50261798D01*
X58560934Y50018807D01*
X58560933Y50018801D01*
X58559779Y50013994D01*
X58539396Y49755000D01*
X58559779Y49496006D01*
X58560933Y49491199D01*
X58560934Y49491193D01*
X58578905Y49416341D01*
X58620427Y49243390D01*
X58622320Y49238819D01*
X58622321Y49238817D01*
X58706329Y49036006D01*
X58719846Y49003372D01*
X58855588Y48781860D01*
X59024311Y48584311D01*
X59028067Y48581103D01*
X59028072Y48581098D01*
X59028408Y48580811D01*
X59028500Y48580670D01*
X59031575Y48577595D01*
X59030929Y48576949D01*
X59067217Y48521361D01*
X59067725Y48450366D01*
X59030905Y48393075D01*
X59031575Y48392405D01*
X59028496Y48389326D01*
X59028408Y48389189D01*
X59028072Y48388902D01*
X59028067Y48388897D01*
X59024311Y48385689D01*
X58855588Y48188140D01*
X58719846Y47966628D01*
X58717953Y47962058D01*
X58717951Y47962054D01*
X58643267Y47781750D01*
X58620427Y47726610D01*
X58619272Y47721798D01*
X58560934Y47478807D01*
X58560933Y47478801D01*
X58559779Y47473994D01*
X58539396Y47215000D01*
X58559779Y46956006D01*
X58560933Y46951199D01*
X58560934Y46951193D01*
X58578905Y46876341D01*
X58620427Y46703390D01*
X58622320Y46698819D01*
X58622321Y46698817D01*
X58706329Y46496006D01*
X58719846Y46463372D01*
X58855588Y46241860D01*
X59024311Y46044311D01*
X59028067Y46041103D01*
X59028072Y46041098D01*
X59028408Y46040811D01*
X59028500Y46040670D01*
X59031575Y46037595D01*
X59030929Y46036949D01*
X59067217Y45981361D01*
X59067725Y45910366D01*
X59030905Y45853075D01*
X59031575Y45852405D01*
X59028496Y45849326D01*
X59028408Y45849189D01*
X59028072Y45848902D01*
X59028067Y45848897D01*
X59024311Y45845689D01*
X58855588Y45648140D01*
X58719846Y45426628D01*
X58717953Y45422058D01*
X58717951Y45422054D01*
X58657068Y45275070D01*
X58620427Y45186610D01*
X58619272Y45181798D01*
X58560934Y44938807D01*
X58560933Y44938801D01*
X58559779Y44933994D01*
X58539396Y44675000D01*
X58559779Y44416006D01*
X58560933Y44411199D01*
X58560934Y44411193D01*
X58578905Y44336341D01*
X58620427Y44163390D01*
X58622320Y44158819D01*
X58622321Y44158817D01*
X58706329Y43956006D01*
X58719846Y43923372D01*
X58855588Y43701860D01*
X59024311Y43504311D01*
X59028067Y43501103D01*
X59028072Y43501098D01*
X59028408Y43500811D01*
X59028500Y43500670D01*
X59031575Y43497595D01*
X59030929Y43496949D01*
X59067217Y43441361D01*
X59067725Y43370366D01*
X59030905Y43313075D01*
X59031575Y43312405D01*
X59028496Y43309326D01*
X59028408Y43309189D01*
X59028072Y43308902D01*
X59028067Y43308897D01*
X59024311Y43305689D01*
X58855588Y43108140D01*
X58719846Y42886628D01*
X58717953Y42882058D01*
X58717951Y42882054D01*
X58657068Y42735070D01*
X58620427Y42646610D01*
X58619272Y42641798D01*
X58560934Y42398807D01*
X58560933Y42398801D01*
X58559779Y42393994D01*
X58539396Y42135000D01*
X58559779Y41876006D01*
X58560933Y41871199D01*
X58560934Y41871193D01*
X58578905Y41796341D01*
X58620427Y41623390D01*
X58622320Y41618819D01*
X58622321Y41618817D01*
X58706329Y41416006D01*
X58719846Y41383372D01*
X58855588Y41161860D01*
X59024311Y40964311D01*
X59028067Y40961103D01*
X59028072Y40961098D01*
X59028408Y40960811D01*
X59028500Y40960670D01*
X59031575Y40957595D01*
X59030929Y40956949D01*
X59067217Y40901361D01*
X59067725Y40830366D01*
X59030905Y40773075D01*
X59031575Y40772405D01*
X59028496Y40769326D01*
X59028408Y40769189D01*
X59028072Y40768902D01*
X59028067Y40768897D01*
X59024311Y40765689D01*
X58855588Y40568140D01*
X58719846Y40346628D01*
X58717953Y40342058D01*
X58717951Y40342054D01*
X58622618Y40111899D01*
X58620427Y40106610D01*
X58619272Y40101798D01*
X58560934Y39858807D01*
X58560933Y39858801D01*
X58559779Y39853994D01*
X58539396Y39595000D01*
X58559779Y39336006D01*
X58560933Y39331199D01*
X58560934Y39331193D01*
X58599220Y39171724D01*
X58620427Y39083390D01*
X58622320Y39078819D01*
X58622321Y39078817D01*
X58706329Y38876006D01*
X58719846Y38843372D01*
X58855588Y38621860D01*
X59024311Y38424311D01*
X59028067Y38421103D01*
X59028072Y38421098D01*
X59028408Y38420811D01*
X59028500Y38420670D01*
X59031575Y38417595D01*
X59030929Y38416949D01*
X59067217Y38361361D01*
X59067725Y38290366D01*
X59030905Y38233075D01*
X59031575Y38232405D01*
X59028496Y38229326D01*
X59028408Y38229189D01*
X59028072Y38228902D01*
X59028067Y38228897D01*
X59024311Y38225689D01*
X58855588Y38028140D01*
X58719846Y37806628D01*
X58717953Y37802058D01*
X58717951Y37802054D01*
X58622618Y37571899D01*
X58620427Y37566610D01*
X58619272Y37561798D01*
X58560934Y37318807D01*
X58560933Y37318801D01*
X58559779Y37313994D01*
X58539396Y37055000D01*
X58559779Y36796006D01*
X58560933Y36791199D01*
X58560934Y36791193D01*
X58599220Y36631724D01*
X58620427Y36543390D01*
X58622320Y36538819D01*
X58622321Y36538817D01*
X58706329Y36336006D01*
X58719846Y36303372D01*
X58855588Y36081860D01*
X59024311Y35884311D01*
X59028067Y35881103D01*
X59028072Y35881098D01*
X59028408Y35880811D01*
X59028500Y35880670D01*
X59031575Y35877595D01*
X59030929Y35876949D01*
X59067217Y35821361D01*
X59067725Y35750366D01*
X59030905Y35693075D01*
X59031575Y35692405D01*
X59028496Y35689326D01*
X59028408Y35689189D01*
X59028072Y35688902D01*
X59028067Y35688897D01*
X59024311Y35685689D01*
X58855588Y35488140D01*
X58719846Y35266628D01*
X58717953Y35262058D01*
X58717951Y35262054D01*
X58662780Y35128859D01*
X58620427Y35026610D01*
X58619272Y35021798D01*
X58560934Y34778807D01*
X58560933Y34778801D01*
X58559779Y34773994D01*
X58539396Y34515000D01*
X58559779Y34256006D01*
X58560933Y34251199D01*
X58560934Y34251193D01*
X58599220Y34091724D01*
X58620427Y34003390D01*
X58622320Y33998819D01*
X58622321Y33998817D01*
X58706329Y33796006D01*
X58719846Y33763372D01*
X58855588Y33541860D01*
X59024311Y33344311D01*
X59028067Y33341103D01*
X59028072Y33341098D01*
X59028408Y33340811D01*
X59028500Y33340670D01*
X59031575Y33337595D01*
X59030929Y33336949D01*
X59067217Y33281361D01*
X59067725Y33210366D01*
X59030905Y33153075D01*
X59031575Y33152405D01*
X59028496Y33149326D01*
X59028408Y33149189D01*
X59028072Y33148902D01*
X59028067Y33148897D01*
X59024311Y33145689D01*
X58855588Y32948140D01*
X58719846Y32726628D01*
X58717953Y32722058D01*
X58717951Y32722054D01*
X58630280Y32510398D01*
X58620427Y32486610D01*
X58614414Y32461563D01*
X58560934Y32238807D01*
X58560933Y32238801D01*
X58559779Y32233994D01*
X58539396Y31975000D01*
X58559779Y31716006D01*
X58560933Y31711199D01*
X58560934Y31711193D01*
X58597581Y31558548D01*
X58620427Y31463390D01*
X58622320Y31458819D01*
X58622321Y31458817D01*
X58715678Y31233435D01*
X58719846Y31223372D01*
X58855588Y31001860D01*
X59024311Y30804311D01*
X59028067Y30801103D01*
X59028072Y30801098D01*
X59028408Y30800811D01*
X59028500Y30800670D01*
X59031575Y30797595D01*
X59030929Y30796949D01*
X59067217Y30741361D01*
X59067725Y30670366D01*
X59030905Y30613075D01*
X59031575Y30612405D01*
X59028496Y30609326D01*
X59028408Y30609189D01*
X59028072Y30608902D01*
X59028067Y30608897D01*
X59024311Y30605689D01*
X58855588Y30408140D01*
X58719846Y30186628D01*
X58620427Y29946610D01*
X58619272Y29941798D01*
X58560934Y29698807D01*
X58560933Y29698801D01*
X58559779Y29693994D01*
X58539396Y29435000D01*
X58559779Y29176006D01*
X58560933Y29171199D01*
X58560934Y29171193D01*
X58576041Y29108270D01*
X58620427Y28923390D01*
X58622320Y28918819D01*
X58622321Y28918817D01*
X58700035Y28731201D01*
X58719846Y28683372D01*
X58855588Y28461860D01*
X58858795Y28458105D01*
X58858798Y28458101D01*
X58905577Y28403331D01*
X58934608Y28338541D01*
X58924003Y28268341D01*
X58877129Y28215019D01*
X58809766Y28195500D01*
X56695875Y28195500D01*
X56627754Y28215502D01*
X56606780Y28232405D01*
X56337405Y28501780D01*
X56303379Y28564092D01*
X56300500Y28590875D01*
X56300500Y52886209D01*
X56300501Y52886233D01*
X56300501Y53113779D01*
X56298473Y53125280D01*
X56291558Y53164499D01*
X56290124Y53175396D01*
X56286116Y53221202D01*
X56286115Y53221210D01*
X56285635Y53226692D01*
X56272306Y53276436D01*
X56269928Y53287164D01*
X56261940Y53332463D01*
X56260985Y53337880D01*
X56259105Y53343045D01*
X56259103Y53343053D01*
X56254755Y53355000D01*
X58539396Y53355000D01*
X58559779Y53096006D01*
X58560933Y53091199D01*
X58560934Y53091193D01*
X58579689Y53013075D01*
X58620427Y52843390D01*
X58622320Y52838819D01*
X58622321Y52838817D01*
X58701008Y52648852D01*
X58719846Y52603372D01*
X58855588Y52381860D01*
X59024311Y52184311D01*
X59221860Y52015588D01*
X59443372Y51879846D01*
X59447942Y51877953D01*
X59447946Y51877951D01*
X59602871Y51813779D01*
X59683390Y51780427D01*
X59748581Y51764776D01*
X59931193Y51720934D01*
X59931199Y51720933D01*
X59936006Y51719779D01*
X60195000Y51699396D01*
X60453994Y51719779D01*
X60458801Y51720933D01*
X60458807Y51720934D01*
X60641419Y51764776D01*
X60706610Y51780427D01*
X60787129Y51813779D01*
X60942054Y51877951D01*
X60942058Y51877953D01*
X60946628Y51879846D01*
X61168140Y52015588D01*
X61365689Y52184311D01*
X61534412Y52381860D01*
X61670154Y52603372D01*
X61688993Y52648852D01*
X61767679Y52838817D01*
X61767680Y52838819D01*
X61769573Y52843390D01*
X61810311Y53013075D01*
X61829066Y53091193D01*
X61829067Y53091199D01*
X61830221Y53096006D01*
X61850604Y53355000D01*
X61830221Y53613994D01*
X61829067Y53618801D01*
X61829066Y53618807D01*
X61770728Y53861798D01*
X61769573Y53866610D01*
X61754417Y53903200D01*
X61672049Y54102054D01*
X61672047Y54102058D01*
X61670154Y54106628D01*
X61534412Y54328140D01*
X61365689Y54525689D01*
X61361933Y54528897D01*
X61361928Y54528902D01*
X61361592Y54529189D01*
X61361500Y54529330D01*
X61358425Y54532405D01*
X61359071Y54533051D01*
X61322783Y54588639D01*
X61322275Y54659634D01*
X61359095Y54716925D01*
X61358425Y54717595D01*
X61361504Y54720674D01*
X61361592Y54720811D01*
X61361928Y54721098D01*
X61361933Y54721103D01*
X61365689Y54724311D01*
X61534412Y54921860D01*
X61670154Y55143372D01*
X61686239Y55182203D01*
X61767679Y55378817D01*
X61767680Y55378819D01*
X61769573Y55383390D01*
X61823651Y55608639D01*
X61829066Y55631193D01*
X61829067Y55631199D01*
X61830221Y55636006D01*
X61850604Y55895000D01*
X61830221Y56153994D01*
X61829067Y56158801D01*
X61829066Y56158807D01*
X61770728Y56401798D01*
X61769573Y56406610D01*
X61670154Y56646628D01*
X61534412Y56868140D01*
X61365689Y57065689D01*
X61361933Y57068897D01*
X61361928Y57068902D01*
X61361592Y57069189D01*
X61361500Y57069330D01*
X61358425Y57072405D01*
X61359071Y57073051D01*
X61322783Y57128639D01*
X61322275Y57199634D01*
X61359095Y57256925D01*
X61358425Y57257595D01*
X61361504Y57260674D01*
X61361592Y57260811D01*
X61361928Y57261098D01*
X61361933Y57261103D01*
X61365689Y57264311D01*
X61534412Y57461860D01*
X61670154Y57683372D01*
X61688993Y57728852D01*
X61767679Y57918817D01*
X61767680Y57918819D01*
X61769573Y57923390D01*
X61823651Y58148639D01*
X61829066Y58171193D01*
X61829067Y58171199D01*
X61830221Y58176006D01*
X61850604Y58435000D01*
X61830221Y58693994D01*
X61829067Y58698801D01*
X61829066Y58698807D01*
X61770728Y58941798D01*
X61769573Y58946610D01*
X61728511Y59045743D01*
X61672049Y59182054D01*
X61672047Y59182058D01*
X61670154Y59186628D01*
X61534412Y59408140D01*
X61365689Y59605689D01*
X61361933Y59608897D01*
X61361928Y59608902D01*
X61361592Y59609189D01*
X61361500Y59609330D01*
X61358425Y59612405D01*
X61359071Y59613051D01*
X61322783Y59668639D01*
X61322275Y59739634D01*
X61359095Y59796925D01*
X61358425Y59797595D01*
X61361504Y59800674D01*
X61361592Y59800811D01*
X61361928Y59801098D01*
X61361933Y59801103D01*
X61365689Y59804311D01*
X61534412Y60001860D01*
X61670154Y60223372D01*
X61688993Y60268852D01*
X61767679Y60458817D01*
X61767680Y60458819D01*
X61769573Y60463390D01*
X61809308Y60628897D01*
X61829066Y60711193D01*
X61829067Y60711199D01*
X61830221Y60716006D01*
X61850604Y60975000D01*
X61830221Y61233994D01*
X61829067Y61238801D01*
X61829066Y61238807D01*
X61770728Y61481798D01*
X61769573Y61486610D01*
X61728511Y61585743D01*
X61672049Y61722054D01*
X61672047Y61722058D01*
X61670154Y61726628D01*
X61534412Y61948140D01*
X61365689Y62145689D01*
X61361933Y62148897D01*
X61361928Y62148902D01*
X61361592Y62149189D01*
X61361500Y62149330D01*
X61358425Y62152405D01*
X61359071Y62153051D01*
X61322783Y62208639D01*
X61322275Y62279634D01*
X61359095Y62336925D01*
X61358425Y62337595D01*
X61361504Y62340674D01*
X61361592Y62340811D01*
X61361928Y62341098D01*
X61361933Y62341103D01*
X61365689Y62344311D01*
X61534412Y62541860D01*
X61670154Y62763372D01*
X61688993Y62808852D01*
X61767679Y62998817D01*
X61767680Y62998819D01*
X61769573Y63003390D01*
X61806884Y63158799D01*
X61829066Y63251193D01*
X61829067Y63251199D01*
X61830221Y63256006D01*
X61850604Y63515000D01*
X61830221Y63773994D01*
X61829067Y63778801D01*
X61829066Y63778807D01*
X61778794Y63988202D01*
X61769573Y64026610D01*
X61757335Y64056156D01*
X61672049Y64262054D01*
X61672047Y64262058D01*
X61670154Y64266628D01*
X61534412Y64488140D01*
X61365689Y64685689D01*
X61361933Y64688897D01*
X61361928Y64688902D01*
X61361592Y64689189D01*
X61361500Y64689330D01*
X61358425Y64692405D01*
X61359071Y64693051D01*
X61322783Y64748639D01*
X61322275Y64819634D01*
X61359095Y64876925D01*
X61358425Y64877595D01*
X61361504Y64880674D01*
X61361592Y64880811D01*
X61361928Y64881098D01*
X61361933Y64881103D01*
X61365689Y64884311D01*
X61534412Y65081860D01*
X61670154Y65303372D01*
X61688993Y65348852D01*
X61767679Y65538817D01*
X61767680Y65538819D01*
X61769573Y65543390D01*
X61821482Y65759604D01*
X61829066Y65791193D01*
X61829067Y65791199D01*
X61830221Y65796006D01*
X61850604Y66055000D01*
X61830221Y66313994D01*
X61829067Y66318801D01*
X61829066Y66318807D01*
X61770728Y66561798D01*
X61769573Y66566610D01*
X61767679Y66571183D01*
X61672049Y66802054D01*
X61672047Y66802058D01*
X61670154Y66806628D01*
X61534412Y67028140D01*
X61365689Y67225689D01*
X61361933Y67228897D01*
X61361928Y67228902D01*
X61361592Y67229189D01*
X61361500Y67229330D01*
X61358425Y67232405D01*
X61359071Y67233051D01*
X61322783Y67288639D01*
X61322275Y67359634D01*
X61359095Y67416925D01*
X61358425Y67417595D01*
X61361504Y67420674D01*
X61361592Y67420811D01*
X61361928Y67421098D01*
X61361933Y67421103D01*
X61365689Y67424311D01*
X61534412Y67621860D01*
X61670154Y67843372D01*
X61688993Y67888852D01*
X61767679Y68078817D01*
X61767680Y68078819D01*
X61769573Y68083390D01*
X61814462Y68270366D01*
X61829066Y68331193D01*
X61829067Y68331199D01*
X61830221Y68336006D01*
X61850604Y68595000D01*
X61830221Y68853994D01*
X61829067Y68858801D01*
X61829066Y68858807D01*
X61778794Y69068202D01*
X61769573Y69106610D01*
X61704221Y69264383D01*
X61672049Y69342054D01*
X61672047Y69342058D01*
X61670154Y69346628D01*
X61534412Y69568140D01*
X61365689Y69765689D01*
X61361933Y69768897D01*
X61361928Y69768902D01*
X61361592Y69769189D01*
X61361500Y69769330D01*
X61358425Y69772405D01*
X61359071Y69773051D01*
X61322783Y69828639D01*
X61322275Y69899634D01*
X61359095Y69956925D01*
X61358425Y69957595D01*
X61361504Y69960674D01*
X61361592Y69960811D01*
X61361928Y69961098D01*
X61361933Y69961103D01*
X61365689Y69964311D01*
X61534412Y70161860D01*
X61670154Y70383372D01*
X61679264Y70405364D01*
X61767679Y70618817D01*
X61767680Y70618819D01*
X61769573Y70623390D01*
X61814462Y70810366D01*
X61829066Y70871193D01*
X61829067Y70871199D01*
X61830221Y70876006D01*
X61850604Y71135000D01*
X61830221Y71393994D01*
X61829067Y71398801D01*
X61829066Y71398807D01*
X61770728Y71641798D01*
X61769573Y71646610D01*
X61767679Y71651183D01*
X61672049Y71882054D01*
X61672047Y71882058D01*
X61670154Y71886628D01*
X61534412Y72108140D01*
X61365689Y72305689D01*
X61361933Y72308897D01*
X61361928Y72308902D01*
X61361592Y72309189D01*
X61361500Y72309330D01*
X61358425Y72312405D01*
X61359071Y72313051D01*
X61322783Y72368639D01*
X61322275Y72439634D01*
X61359095Y72496925D01*
X61358425Y72497595D01*
X61361504Y72500674D01*
X61361592Y72500811D01*
X61361928Y72501098D01*
X61361933Y72501103D01*
X61365689Y72504311D01*
X61534412Y72701860D01*
X61670154Y72923372D01*
X61688993Y72968852D01*
X61767679Y73158817D01*
X61767680Y73158819D01*
X61769573Y73163390D01*
X61820958Y73377422D01*
X61829066Y73411193D01*
X61829067Y73411199D01*
X61830221Y73416006D01*
X61850604Y73675000D01*
X61830221Y73933994D01*
X61829067Y73938801D01*
X61829066Y73938807D01*
X61770728Y74181798D01*
X61769573Y74186610D01*
X61748381Y74237772D01*
X61672049Y74422054D01*
X61672047Y74422058D01*
X61670154Y74426628D01*
X61534412Y74648140D01*
X61365689Y74845689D01*
X61361933Y74848897D01*
X61361928Y74848902D01*
X61361592Y74849189D01*
X61361500Y74849330D01*
X61358425Y74852405D01*
X61359071Y74853051D01*
X61322783Y74908639D01*
X61322275Y74979634D01*
X61359095Y75036925D01*
X61358425Y75037595D01*
X61361504Y75040674D01*
X61361592Y75040811D01*
X61361928Y75041098D01*
X61361933Y75041103D01*
X61365689Y75044311D01*
X61534412Y75241860D01*
X61670154Y75463372D01*
X61688993Y75508852D01*
X61767679Y75698817D01*
X61767680Y75698819D01*
X61769573Y75703390D01*
X61814462Y75890366D01*
X61829066Y75951193D01*
X61829067Y75951199D01*
X61830221Y75956006D01*
X61850604Y76215000D01*
X61830221Y76473994D01*
X61829067Y76478801D01*
X61829066Y76478807D01*
X61770728Y76721798D01*
X61769573Y76726610D01*
X61767679Y76731183D01*
X61672049Y76962054D01*
X61672047Y76962058D01*
X61670154Y76966628D01*
X61534412Y77188140D01*
X61365689Y77385689D01*
X61361933Y77388897D01*
X61361928Y77388902D01*
X61361592Y77389189D01*
X61361500Y77389330D01*
X61358425Y77392405D01*
X61359071Y77393051D01*
X61322783Y77448639D01*
X61322275Y77519634D01*
X61359095Y77576925D01*
X61358425Y77577595D01*
X61361504Y77580674D01*
X61361592Y77580811D01*
X61361928Y77581098D01*
X61361933Y77581103D01*
X61365689Y77584311D01*
X61534412Y77781860D01*
X61670154Y78003372D01*
X61688993Y78048852D01*
X61767679Y78238817D01*
X61767680Y78238819D01*
X61769573Y78243390D01*
X61814462Y78430366D01*
X61829066Y78491193D01*
X61829067Y78491199D01*
X61830221Y78496006D01*
X61850604Y78755000D01*
X61830221Y79013994D01*
X61829067Y79018801D01*
X61829066Y79018807D01*
X61770728Y79261798D01*
X61769573Y79266610D01*
X61728511Y79365743D01*
X61672049Y79502054D01*
X61672047Y79502058D01*
X61670154Y79506628D01*
X61534412Y79728140D01*
X61365689Y79925689D01*
X61361933Y79928897D01*
X61361928Y79928902D01*
X61361592Y79929189D01*
X61361500Y79929330D01*
X61358425Y79932405D01*
X61359071Y79933051D01*
X61322783Y79988639D01*
X61322275Y80059634D01*
X61359095Y80116925D01*
X61358425Y80117595D01*
X61361504Y80120674D01*
X61361592Y80120811D01*
X61361928Y80121098D01*
X61361933Y80121103D01*
X61365689Y80124311D01*
X61534412Y80321860D01*
X61670154Y80543372D01*
X61688993Y80588852D01*
X61767679Y80778817D01*
X61767680Y80778819D01*
X61769573Y80783390D01*
X61810894Y80955502D01*
X61829066Y81031193D01*
X61829067Y81031199D01*
X61830221Y81036006D01*
X61850604Y81295000D01*
X61830221Y81553994D01*
X61829067Y81558801D01*
X61829066Y81558807D01*
X61770728Y81801798D01*
X61769573Y81806610D01*
X61754417Y81843200D01*
X61672049Y82042054D01*
X61672047Y82042058D01*
X61670154Y82046628D01*
X61534412Y82268140D01*
X61365689Y82465689D01*
X61361933Y82468897D01*
X61361928Y82468902D01*
X61361592Y82469189D01*
X61361500Y82469330D01*
X61358425Y82472405D01*
X61359071Y82473051D01*
X61322783Y82528639D01*
X61322275Y82599634D01*
X61359095Y82656925D01*
X61358425Y82657595D01*
X61361504Y82660674D01*
X61361592Y82660811D01*
X61361928Y82661098D01*
X61361933Y82661103D01*
X61365689Y82664311D01*
X61534412Y82861860D01*
X61670154Y83083372D01*
X61688993Y83128852D01*
X61767679Y83318817D01*
X61767680Y83318819D01*
X61769573Y83323390D01*
X61800708Y83453075D01*
X61829066Y83571193D01*
X61829067Y83571199D01*
X61830221Y83576006D01*
X61850604Y83835000D01*
X61830221Y84093994D01*
X61829067Y84098801D01*
X61829066Y84098807D01*
X61781047Y84298817D01*
X61769573Y84346610D01*
X61732028Y84437251D01*
X61672049Y84582054D01*
X61672047Y84582058D01*
X61670154Y84586628D01*
X61534412Y84808140D01*
X61365689Y85005689D01*
X61361933Y85008897D01*
X61361928Y85008902D01*
X61361592Y85009189D01*
X61361500Y85009330D01*
X61358425Y85012405D01*
X61359071Y85013051D01*
X61322783Y85068639D01*
X61322275Y85139634D01*
X61359095Y85196925D01*
X61358425Y85197595D01*
X61361504Y85200674D01*
X61361592Y85200811D01*
X61361928Y85201098D01*
X61361933Y85201103D01*
X61365689Y85204311D01*
X61534412Y85401860D01*
X61670154Y85623372D01*
X61688993Y85668852D01*
X61767679Y85858817D01*
X61767680Y85858819D01*
X61769573Y85863390D01*
X61802359Y85999953D01*
X61829066Y86111193D01*
X61829067Y86111199D01*
X61830221Y86116006D01*
X61850604Y86375000D01*
X61830221Y86633994D01*
X61829067Y86638801D01*
X61829066Y86638807D01*
X61770728Y86881798D01*
X61769573Y86886610D01*
X61683591Y87094189D01*
X61672049Y87122054D01*
X61672047Y87122058D01*
X61670154Y87126628D01*
X61534412Y87348140D01*
X61365689Y87545689D01*
X61361933Y87548897D01*
X61361928Y87548902D01*
X61361592Y87549189D01*
X61361500Y87549330D01*
X61358425Y87552405D01*
X61359071Y87553051D01*
X61322783Y87608639D01*
X61322275Y87679634D01*
X61359095Y87736925D01*
X61358425Y87737595D01*
X61361504Y87740674D01*
X61361592Y87740811D01*
X61361928Y87741098D01*
X61361933Y87741103D01*
X61365689Y87744311D01*
X61534412Y87941860D01*
X61670154Y88163372D01*
X61688993Y88208852D01*
X61767679Y88398817D01*
X61767680Y88398819D01*
X61769573Y88403390D01*
X61792340Y88498220D01*
X61829066Y88651193D01*
X61829067Y88651199D01*
X61830221Y88656006D01*
X61850604Y88915000D01*
X61830221Y89173994D01*
X61829067Y89178801D01*
X61829066Y89178807D01*
X61789633Y89343053D01*
X61769573Y89426610D01*
X61750305Y89473127D01*
X61672049Y89662054D01*
X61672047Y89662058D01*
X61670154Y89666628D01*
X61534412Y89888140D01*
X61365689Y90085689D01*
X61361933Y90088897D01*
X61361928Y90088902D01*
X61361592Y90089189D01*
X61361500Y90089330D01*
X61358425Y90092405D01*
X61359071Y90093051D01*
X61322783Y90148639D01*
X61322275Y90219634D01*
X61359095Y90276925D01*
X61358425Y90277595D01*
X61361504Y90280674D01*
X61361592Y90280811D01*
X61361928Y90281098D01*
X61361933Y90281103D01*
X61365689Y90284311D01*
X61534412Y90481860D01*
X61670154Y90703372D01*
X61679974Y90727078D01*
X61767679Y90938817D01*
X61767680Y90938819D01*
X61769573Y90943390D01*
X61805544Y91093220D01*
X61829066Y91191193D01*
X61829067Y91191199D01*
X61830221Y91196006D01*
X61850604Y91455000D01*
X61830221Y91713994D01*
X61829067Y91718801D01*
X61829066Y91718807D01*
X61776919Y91936013D01*
X61769573Y91966610D01*
X61761361Y91986435D01*
X61672049Y92202054D01*
X61672047Y92202058D01*
X61670154Y92206628D01*
X61534412Y92428140D01*
X61365689Y92625689D01*
X61168140Y92794412D01*
X60946628Y92930154D01*
X60942058Y92932047D01*
X60942054Y92932049D01*
X60711183Y93027679D01*
X60711181Y93027680D01*
X60706610Y93029573D01*
X60618276Y93050780D01*
X60458807Y93089066D01*
X60458801Y93089067D01*
X60453994Y93090221D01*
X60195000Y93110604D01*
X59936006Y93090221D01*
X59931199Y93089067D01*
X59931193Y93089066D01*
X59771724Y93050780D01*
X59683390Y93029573D01*
X59678819Y93027680D01*
X59678817Y93027679D01*
X59447946Y92932049D01*
X59447942Y92932047D01*
X59443372Y92930154D01*
X59221860Y92794412D01*
X59024311Y92625689D01*
X58855588Y92428140D01*
X58719846Y92206628D01*
X58717953Y92202058D01*
X58717951Y92202054D01*
X58628639Y91986435D01*
X58620427Y91966610D01*
X58613081Y91936013D01*
X58560934Y91718807D01*
X58560933Y91718801D01*
X58559779Y91713994D01*
X58539396Y91455000D01*
X58559779Y91196006D01*
X58560933Y91191199D01*
X58560934Y91191193D01*
X58584456Y91093220D01*
X58620427Y90943390D01*
X58622320Y90938819D01*
X58622321Y90938817D01*
X58710027Y90727078D01*
X58719846Y90703372D01*
X58855588Y90481860D01*
X59024311Y90284311D01*
X59028067Y90281103D01*
X59028072Y90281098D01*
X59028408Y90280811D01*
X59028500Y90280670D01*
X59031575Y90277595D01*
X59030929Y90276949D01*
X59067217Y90221361D01*
X59067725Y90150366D01*
X59030905Y90093075D01*
X59031575Y90092405D01*
X59028496Y90089326D01*
X59028408Y90089189D01*
X59028072Y90088902D01*
X59028067Y90088897D01*
X59024311Y90085689D01*
X58855588Y89888140D01*
X58719846Y89666628D01*
X58717953Y89662058D01*
X58717951Y89662054D01*
X58639695Y89473127D01*
X58620427Y89426610D01*
X58600367Y89343053D01*
X58560934Y89178807D01*
X58560933Y89178801D01*
X58559779Y89173994D01*
X58539396Y88915000D01*
X58559779Y88656006D01*
X58560933Y88651199D01*
X58560934Y88651193D01*
X58597660Y88498220D01*
X58620427Y88403390D01*
X58622320Y88398819D01*
X58622321Y88398817D01*
X58701008Y88208852D01*
X58719846Y88163372D01*
X58855588Y87941860D01*
X59024311Y87744311D01*
X59028067Y87741103D01*
X59028072Y87741098D01*
X59028408Y87740811D01*
X59028500Y87740670D01*
X59031575Y87737595D01*
X59030929Y87736949D01*
X59067217Y87681361D01*
X59067725Y87610366D01*
X59030905Y87553075D01*
X59031575Y87552405D01*
X59028496Y87549326D01*
X59028408Y87549189D01*
X59028072Y87548902D01*
X59028067Y87548897D01*
X59024311Y87545689D01*
X58855588Y87348140D01*
X58719846Y87126628D01*
X58717953Y87122058D01*
X58717951Y87122054D01*
X58706409Y87094189D01*
X58620427Y86886610D01*
X58619272Y86881798D01*
X58560934Y86638807D01*
X58560933Y86638801D01*
X58559779Y86633994D01*
X58539396Y86375000D01*
X58559779Y86116006D01*
X58560933Y86111199D01*
X58560934Y86111193D01*
X58587641Y85999953D01*
X58620427Y85863390D01*
X58622320Y85858819D01*
X58622321Y85858817D01*
X58701008Y85668852D01*
X58719846Y85623372D01*
X58855588Y85401860D01*
X59024311Y85204311D01*
X59028067Y85201103D01*
X59028072Y85201098D01*
X59028408Y85200811D01*
X59028500Y85200670D01*
X59031575Y85197595D01*
X59030929Y85196949D01*
X59067217Y85141361D01*
X59067725Y85070366D01*
X59030905Y85013075D01*
X59031575Y85012405D01*
X59028496Y85009326D01*
X59028408Y85009189D01*
X59028072Y85008902D01*
X59028067Y85008897D01*
X59024311Y85005689D01*
X58855588Y84808140D01*
X58719846Y84586628D01*
X58717953Y84582058D01*
X58717951Y84582054D01*
X58657972Y84437251D01*
X58620427Y84346610D01*
X58608953Y84298817D01*
X58560934Y84098807D01*
X58560933Y84098801D01*
X58559779Y84093994D01*
X58539396Y83835000D01*
X58559779Y83576006D01*
X58560933Y83571199D01*
X58560934Y83571193D01*
X58589292Y83453075D01*
X58620427Y83323390D01*
X58622320Y83318819D01*
X58622321Y83318817D01*
X58701008Y83128852D01*
X58719846Y83083372D01*
X58855588Y82861860D01*
X59024311Y82664311D01*
X59028067Y82661103D01*
X59028072Y82661098D01*
X59028408Y82660811D01*
X59028500Y82660670D01*
X59031575Y82657595D01*
X59030929Y82656949D01*
X59067217Y82601361D01*
X59067725Y82530366D01*
X59030905Y82473075D01*
X59031575Y82472405D01*
X59028496Y82469326D01*
X59028408Y82469189D01*
X59028072Y82468902D01*
X59028067Y82468897D01*
X59024311Y82465689D01*
X58855588Y82268140D01*
X58719846Y82046628D01*
X58717953Y82042058D01*
X58717951Y82042054D01*
X58635583Y81843200D01*
X58620427Y81806610D01*
X58619272Y81801798D01*
X58560934Y81558807D01*
X58560933Y81558801D01*
X58559779Y81553994D01*
X58539396Y81295000D01*
X58559779Y81036006D01*
X58560933Y81031199D01*
X58560934Y81031193D01*
X58579106Y80955502D01*
X58620427Y80783390D01*
X58622320Y80778819D01*
X58622321Y80778817D01*
X58701008Y80588852D01*
X58719846Y80543372D01*
X58855588Y80321860D01*
X59024311Y80124311D01*
X59028067Y80121103D01*
X59028072Y80121098D01*
X59028408Y80120811D01*
X59028500Y80120670D01*
X59031575Y80117595D01*
X59030929Y80116949D01*
X59067217Y80061361D01*
X59067725Y79990366D01*
X59030905Y79933075D01*
X59031575Y79932405D01*
X59028496Y79929326D01*
X59028408Y79929189D01*
X59028072Y79928902D01*
X59028067Y79928897D01*
X59024311Y79925689D01*
X58855588Y79728140D01*
X58719846Y79506628D01*
X58717953Y79502058D01*
X58717951Y79502054D01*
X58661489Y79365743D01*
X58620427Y79266610D01*
X58619272Y79261798D01*
X58560934Y79018807D01*
X58560933Y79018801D01*
X58559779Y79013994D01*
X58539396Y78755000D01*
X58559779Y78496006D01*
X58560933Y78491199D01*
X58560934Y78491193D01*
X58575538Y78430366D01*
X58620427Y78243390D01*
X58622320Y78238819D01*
X58622321Y78238817D01*
X58701008Y78048852D01*
X58719846Y78003372D01*
X58855588Y77781860D01*
X59024311Y77584311D01*
X59028067Y77581103D01*
X59028072Y77581098D01*
X59028408Y77580811D01*
X59028500Y77580670D01*
X59031575Y77577595D01*
X59030929Y77576949D01*
X59067217Y77521361D01*
X59067725Y77450366D01*
X59030905Y77393075D01*
X59031575Y77392405D01*
X59028496Y77389326D01*
X59028408Y77389189D01*
X59028072Y77388902D01*
X59028067Y77388897D01*
X59024311Y77385689D01*
X58855588Y77188140D01*
X58719846Y76966628D01*
X58717953Y76962058D01*
X58717951Y76962054D01*
X58622321Y76731183D01*
X58620427Y76726610D01*
X58619272Y76721798D01*
X58560934Y76478807D01*
X58560933Y76478801D01*
X58559779Y76473994D01*
X58539396Y76215000D01*
X58559779Y75956006D01*
X58560933Y75951199D01*
X58560934Y75951193D01*
X58575538Y75890366D01*
X58620427Y75703390D01*
X58622320Y75698819D01*
X58622321Y75698817D01*
X58701008Y75508852D01*
X58719846Y75463372D01*
X58855588Y75241860D01*
X59024311Y75044311D01*
X59028067Y75041103D01*
X59028072Y75041098D01*
X59028408Y75040811D01*
X59028500Y75040670D01*
X59031575Y75037595D01*
X59030929Y75036949D01*
X59067217Y74981361D01*
X59067725Y74910366D01*
X59030905Y74853075D01*
X59031575Y74852405D01*
X59028496Y74849326D01*
X59028408Y74849189D01*
X59028072Y74848902D01*
X59028067Y74848897D01*
X59024311Y74845689D01*
X58855588Y74648140D01*
X58719846Y74426628D01*
X58717953Y74422058D01*
X58717951Y74422054D01*
X58641619Y74237772D01*
X58620427Y74186610D01*
X58619272Y74181798D01*
X58560934Y73938807D01*
X58560933Y73938801D01*
X58559779Y73933994D01*
X58539396Y73675000D01*
X58559779Y73416006D01*
X58560933Y73411199D01*
X58560934Y73411193D01*
X58569042Y73377422D01*
X58620427Y73163390D01*
X58622320Y73158819D01*
X58622321Y73158817D01*
X58701008Y72968852D01*
X58719846Y72923372D01*
X58855588Y72701860D01*
X59024311Y72504311D01*
X59028067Y72501103D01*
X59028072Y72501098D01*
X59028408Y72500811D01*
X59028500Y72500670D01*
X59031575Y72497595D01*
X59030929Y72496949D01*
X59067217Y72441361D01*
X59067725Y72370366D01*
X59030905Y72313075D01*
X59031575Y72312405D01*
X59028496Y72309326D01*
X59028408Y72309189D01*
X59028072Y72308902D01*
X59028067Y72308897D01*
X59024311Y72305689D01*
X58855588Y72108140D01*
X58719846Y71886628D01*
X58717953Y71882058D01*
X58717951Y71882054D01*
X58622321Y71651183D01*
X58620427Y71646610D01*
X58619272Y71641798D01*
X58560934Y71398807D01*
X58560933Y71398801D01*
X58559779Y71393994D01*
X58539396Y71135000D01*
X58559779Y70876006D01*
X58560933Y70871199D01*
X58560934Y70871193D01*
X58575538Y70810366D01*
X58620427Y70623390D01*
X58622320Y70618819D01*
X58622321Y70618817D01*
X58710737Y70405364D01*
X58719846Y70383372D01*
X58855588Y70161860D01*
X59024311Y69964311D01*
X59028067Y69961103D01*
X59028072Y69961098D01*
X59028408Y69960811D01*
X59028500Y69960670D01*
X59031575Y69957595D01*
X59030929Y69956949D01*
X59067217Y69901361D01*
X59067725Y69830366D01*
X59030905Y69773075D01*
X59031575Y69772405D01*
X59028496Y69769326D01*
X59028408Y69769189D01*
X59028072Y69768902D01*
X59028067Y69768897D01*
X59024311Y69765689D01*
X58855588Y69568140D01*
X58719846Y69346628D01*
X58717953Y69342058D01*
X58717951Y69342054D01*
X58685779Y69264383D01*
X58620427Y69106610D01*
X58611206Y69068202D01*
X58560934Y68858807D01*
X58560933Y68858801D01*
X58559779Y68853994D01*
X58539396Y68595000D01*
X58559779Y68336006D01*
X58560933Y68331199D01*
X58560934Y68331193D01*
X58575538Y68270366D01*
X58620427Y68083390D01*
X58622320Y68078819D01*
X58622321Y68078817D01*
X58701008Y67888852D01*
X58719846Y67843372D01*
X58855588Y67621860D01*
X59024311Y67424311D01*
X59028067Y67421103D01*
X59028072Y67421098D01*
X59028408Y67420811D01*
X59028500Y67420670D01*
X59031575Y67417595D01*
X59030929Y67416949D01*
X59067217Y67361361D01*
X59067725Y67290366D01*
X59030905Y67233075D01*
X59031575Y67232405D01*
X59028496Y67229326D01*
X59028408Y67229189D01*
X59028072Y67228902D01*
X59028067Y67228897D01*
X59024311Y67225689D01*
X58855588Y67028140D01*
X58719846Y66806628D01*
X58717953Y66802058D01*
X58717951Y66802054D01*
X58622321Y66571183D01*
X58620427Y66566610D01*
X58619272Y66561798D01*
X58560934Y66318807D01*
X58560933Y66318801D01*
X58559779Y66313994D01*
X58539396Y66055000D01*
X58559779Y65796006D01*
X58560933Y65791199D01*
X58560934Y65791193D01*
X58568518Y65759604D01*
X58620427Y65543390D01*
X58622320Y65538819D01*
X58622321Y65538817D01*
X58701008Y65348852D01*
X58719846Y65303372D01*
X58855588Y65081860D01*
X59024311Y64884311D01*
X59028067Y64881103D01*
X59028072Y64881098D01*
X59028408Y64880811D01*
X59028500Y64880670D01*
X59031575Y64877595D01*
X59030929Y64876949D01*
X59067217Y64821361D01*
X59067725Y64750366D01*
X59030905Y64693075D01*
X59031575Y64692405D01*
X59028496Y64689326D01*
X59028408Y64689189D01*
X59028072Y64688902D01*
X59028067Y64688897D01*
X59024311Y64685689D01*
X58855588Y64488140D01*
X58719846Y64266628D01*
X58717953Y64262058D01*
X58717951Y64262054D01*
X58632665Y64056156D01*
X58620427Y64026610D01*
X58611206Y63988202D01*
X58560934Y63778807D01*
X58560933Y63778801D01*
X58559779Y63773994D01*
X58539396Y63515000D01*
X58559779Y63256006D01*
X58560933Y63251199D01*
X58560934Y63251193D01*
X58583116Y63158799D01*
X58620427Y63003390D01*
X58622320Y62998819D01*
X58622321Y62998817D01*
X58701008Y62808852D01*
X58719846Y62763372D01*
X58855588Y62541860D01*
X59024311Y62344311D01*
X59028067Y62341103D01*
X59028072Y62341098D01*
X59028408Y62340811D01*
X59028500Y62340670D01*
X59031575Y62337595D01*
X59030929Y62336949D01*
X59067217Y62281361D01*
X59067725Y62210366D01*
X59030905Y62153075D01*
X59031575Y62152405D01*
X59028496Y62149326D01*
X59028408Y62149189D01*
X59028072Y62148902D01*
X59028067Y62148897D01*
X59024311Y62145689D01*
X58855588Y61948140D01*
X58719846Y61726628D01*
X58717953Y61722058D01*
X58717951Y61722054D01*
X58661489Y61585743D01*
X58620427Y61486610D01*
X58619272Y61481798D01*
X58560934Y61238807D01*
X58560933Y61238801D01*
X58559779Y61233994D01*
X58539396Y60975000D01*
X58559779Y60716006D01*
X58560933Y60711199D01*
X58560934Y60711193D01*
X58580692Y60628897D01*
X58620427Y60463390D01*
X58622320Y60458819D01*
X58622321Y60458817D01*
X58701008Y60268852D01*
X58719846Y60223372D01*
X58855588Y60001860D01*
X59024311Y59804311D01*
X59028067Y59801103D01*
X59028072Y59801098D01*
X59028408Y59800811D01*
X59028500Y59800670D01*
X59031575Y59797595D01*
X59030929Y59796949D01*
X59067217Y59741361D01*
X59067725Y59670366D01*
X59030905Y59613075D01*
X59031575Y59612405D01*
X59028496Y59609326D01*
X59028408Y59609189D01*
X59028072Y59608902D01*
X59028067Y59608897D01*
X59024311Y59605689D01*
X58855588Y59408140D01*
X58719846Y59186628D01*
X58717953Y59182058D01*
X58717951Y59182054D01*
X58661489Y59045743D01*
X58620427Y58946610D01*
X58619272Y58941798D01*
X58560934Y58698807D01*
X58560933Y58698801D01*
X58559779Y58693994D01*
X58539396Y58435000D01*
X58559779Y58176006D01*
X58560933Y58171199D01*
X58560934Y58171193D01*
X58566349Y58148639D01*
X58620427Y57923390D01*
X58622320Y57918819D01*
X58622321Y57918817D01*
X58701008Y57728852D01*
X58719846Y57683372D01*
X58855588Y57461860D01*
X59024311Y57264311D01*
X59028067Y57261103D01*
X59028072Y57261098D01*
X59028408Y57260811D01*
X59028500Y57260670D01*
X59031575Y57257595D01*
X59030929Y57256949D01*
X59067217Y57201361D01*
X59067725Y57130366D01*
X59030905Y57073075D01*
X59031575Y57072405D01*
X59028496Y57069326D01*
X59028408Y57069189D01*
X59028072Y57068902D01*
X59028067Y57068897D01*
X59024311Y57065689D01*
X58855588Y56868140D01*
X58719846Y56646628D01*
X58620427Y56406610D01*
X58619272Y56401798D01*
X58560934Y56158807D01*
X58560933Y56158801D01*
X58559779Y56153994D01*
X58539396Y55895000D01*
X58559779Y55636006D01*
X58560933Y55631199D01*
X58560934Y55631193D01*
X58566349Y55608639D01*
X58620427Y55383390D01*
X58622320Y55378819D01*
X58622321Y55378817D01*
X58703762Y55182203D01*
X58719846Y55143372D01*
X58855588Y54921860D01*
X59024311Y54724311D01*
X59028067Y54721103D01*
X59028072Y54721098D01*
X59028408Y54720811D01*
X59028500Y54720670D01*
X59031575Y54717595D01*
X59030929Y54716949D01*
X59067217Y54661361D01*
X59067725Y54590366D01*
X59030905Y54533075D01*
X59031575Y54532405D01*
X59028496Y54529326D01*
X59028408Y54529189D01*
X59028072Y54528902D01*
X59028067Y54528897D01*
X59024311Y54525689D01*
X58855588Y54328140D01*
X58719846Y54106628D01*
X58717953Y54102058D01*
X58717951Y54102054D01*
X58635583Y53903200D01*
X58620427Y53866610D01*
X58619272Y53861798D01*
X58560934Y53618807D01*
X58560933Y53618801D01*
X58559779Y53613994D01*
X58539396Y53355000D01*
X56254755Y53355000D01*
X56243374Y53386267D01*
X56240068Y53396752D01*
X56228164Y53441180D01*
X56228162Y53441186D01*
X56226739Y53446496D01*
X56204973Y53493174D01*
X56200768Y53503327D01*
X56185039Y53546544D01*
X56185035Y53546553D01*
X56183156Y53551715D01*
X56157405Y53596317D01*
X56152330Y53606066D01*
X56132893Y53647748D01*
X56130568Y53652734D01*
X56101023Y53694931D01*
X56095127Y53704186D01*
X56072129Y53744019D01*
X56072125Y53744024D01*
X56069376Y53748786D01*
X56036266Y53788245D01*
X56029599Y53796934D01*
X56000047Y53839139D01*
X55839139Y54000047D01*
X55839134Y54000050D01*
X55839126Y54000058D01*
X45940049Y63899136D01*
X45940047Y63899139D01*
X45779139Y64060047D01*
X45736947Y64089589D01*
X45728230Y64096279D01*
X45688786Y64129377D01*
X45644170Y64155136D01*
X45634924Y64161027D01*
X45592734Y64190568D01*
X45546054Y64212336D01*
X45536323Y64217402D01*
X45496484Y64240403D01*
X45496481Y64240404D01*
X45491715Y64243156D01*
X45472299Y64250223D01*
X45443327Y64260768D01*
X45433171Y64264974D01*
X45420574Y64270848D01*
X45386496Y64286739D01*
X45381186Y64288162D01*
X45381180Y64288164D01*
X45336752Y64300068D01*
X45326267Y64303374D01*
X45283053Y64319103D01*
X45283045Y64319105D01*
X45277880Y64320985D01*
X45227165Y64329928D01*
X45216433Y64332307D01*
X45209525Y64334158D01*
X45166692Y64345635D01*
X45161210Y64346115D01*
X45161202Y64346116D01*
X45115396Y64350124D01*
X45104499Y64351558D01*
X45065280Y64358473D01*
X45053779Y64360501D01*
X44826221Y64360501D01*
X44826217Y64360500D01*
X33959478Y64360500D01*
X33891357Y64380502D01*
X33844864Y64434158D01*
X33834760Y64504432D01*
X33863665Y64568328D01*
X33938836Y64656341D01*
X34070466Y64871141D01*
X34073140Y64877595D01*
X34164979Y65099316D01*
X34164980Y65099318D01*
X34166873Y65103889D01*
X34200043Y65242054D01*
X34224528Y65344039D01*
X34224529Y65344045D01*
X34225683Y65348852D01*
X34245449Y65600000D01*
X34225683Y65851148D01*
X34224291Y65856949D01*
X34168028Y66091299D01*
X34166873Y66096111D01*
X34164979Y66100684D01*
X34072361Y66324285D01*
X34072359Y66324289D01*
X34070466Y66328859D01*
X33938836Y66543659D01*
X33935624Y66547419D01*
X33935621Y66547424D01*
X33778442Y66731457D01*
X33778437Y66731462D01*
X33775224Y66735224D01*
X33770786Y66739015D01*
X33729602Y66774189D01*
X33690793Y66833640D01*
X33690287Y66904634D01*
X33729602Y66965811D01*
X33771460Y67001561D01*
X33771462Y67001563D01*
X33775224Y67004776D01*
X33778437Y67008538D01*
X33778442Y67008543D01*
X33935621Y67192576D01*
X33935624Y67192581D01*
X33938836Y67196341D01*
X34070466Y67411141D01*
X34073140Y67417595D01*
X34164979Y67639316D01*
X34164980Y67639318D01*
X34166873Y67643889D01*
X34200043Y67782054D01*
X34224528Y67884039D01*
X34224529Y67884045D01*
X34225683Y67888852D01*
X34245449Y68140000D01*
X34225683Y68391148D01*
X34224291Y68396949D01*
X34168028Y68631299D01*
X34166873Y68636111D01*
X34128531Y68728677D01*
X34072361Y68864285D01*
X34072359Y68864289D01*
X34070466Y68868859D01*
X33938836Y69083659D01*
X33935624Y69087419D01*
X33935621Y69087424D01*
X33778442Y69271457D01*
X33778437Y69271462D01*
X33775224Y69275224D01*
X33729602Y69314189D01*
X33690793Y69373640D01*
X33690287Y69444634D01*
X33729602Y69505811D01*
X33771460Y69541561D01*
X33771462Y69541563D01*
X33775224Y69544776D01*
X33923410Y69718280D01*
X33982860Y69757088D01*
X34053854Y69757594D01*
X34113853Y69719638D01*
X34139694Y69671361D01*
X34139803Y69671401D01*
X34140079Y69670642D01*
X34140926Y69669060D01*
X34141682Y69666239D01*
X34141686Y69666229D01*
X34143109Y69660917D01*
X34145434Y69655932D01*
X34164874Y69614242D01*
X34169080Y69604086D01*
X34186692Y69555698D01*
X34189444Y69550932D01*
X34189445Y69550929D01*
X34212446Y69511090D01*
X34217512Y69501359D01*
X34239280Y69454679D01*
X34268821Y69412489D01*
X34274712Y69403243D01*
X34300471Y69358627D01*
X34332462Y69320502D01*
X34333569Y69319183D01*
X34340259Y69310466D01*
X34369801Y69268274D01*
X34530709Y69107366D01*
X34530712Y69107364D01*
X36477212Y67160864D01*
X36477214Y67160861D01*
X36638122Y66999953D01*
X36642625Y66996800D01*
X36680309Y66970414D01*
X36689026Y66963725D01*
X36728475Y66930623D01*
X36773091Y66904864D01*
X36782337Y66898973D01*
X36824527Y66869432D01*
X36871207Y66847664D01*
X36880938Y66842598D01*
X36920777Y66819597D01*
X36920780Y66819596D01*
X36925546Y66816844D01*
X36930721Y66814960D01*
X36930722Y66814960D01*
X36973934Y66799232D01*
X36984087Y66795027D01*
X37030765Y66773261D01*
X37036075Y66771838D01*
X37036081Y66771836D01*
X37080509Y66759932D01*
X37090994Y66756626D01*
X37134208Y66740897D01*
X37134216Y66740895D01*
X37139381Y66739015D01*
X37182243Y66731457D01*
X37190097Y66730072D01*
X37200825Y66727694D01*
X37250569Y66714365D01*
X37256051Y66713885D01*
X37256059Y66713884D01*
X37301865Y66709876D01*
X37312762Y66708442D01*
X37351981Y66701527D01*
X37363482Y66699499D01*
X37591040Y66699499D01*
X37591044Y66699500D01*
X49886217Y66699500D01*
X49886221Y66699499D01*
X50113779Y66699499D01*
X50125280Y66701527D01*
X50164499Y66708442D01*
X50175396Y66709876D01*
X50221202Y66713884D01*
X50221210Y66713885D01*
X50226692Y66714365D01*
X50276436Y66727694D01*
X50287164Y66730072D01*
X50295018Y66731457D01*
X50337880Y66739015D01*
X50343045Y66740895D01*
X50343053Y66740897D01*
X50386267Y66756626D01*
X50396752Y66759932D01*
X50441180Y66771836D01*
X50441186Y66771838D01*
X50446496Y66773261D01*
X50493174Y66795027D01*
X50503327Y66799232D01*
X50546539Y66814960D01*
X50546540Y66814960D01*
X50551715Y66816844D01*
X50556481Y66819596D01*
X50556484Y66819597D01*
X50596323Y66842598D01*
X50606054Y66847664D01*
X50652734Y66869432D01*
X50694924Y66898973D01*
X50704170Y66904864D01*
X50748786Y66930623D01*
X50788235Y66963725D01*
X50796952Y66970414D01*
X50834636Y66996800D01*
X50839139Y66999953D01*
X51000047Y67160861D01*
X51000049Y67160864D01*
X52164136Y68324951D01*
X52164139Y68324953D01*
X52325047Y68485861D01*
X52354589Y68528053D01*
X52361279Y68536770D01*
X52390838Y68571997D01*
X52394377Y68576214D01*
X52420136Y68620830D01*
X52426027Y68630076D01*
X52455568Y68672266D01*
X52477336Y68718946D01*
X52482402Y68728677D01*
X52505403Y68768516D01*
X52505404Y68768519D01*
X52508156Y68773285D01*
X52525768Y68821673D01*
X52529974Y68831829D01*
X52542554Y68858807D01*
X52551739Y68878504D01*
X52553162Y68883814D01*
X52553164Y68883820D01*
X52565068Y68928248D01*
X52568374Y68938733D01*
X52584103Y68981947D01*
X52584105Y68981955D01*
X52585985Y68987120D01*
X52594928Y69037836D01*
X52597307Y69048567D01*
X52610635Y69098308D01*
X52611115Y69103790D01*
X52611116Y69103798D01*
X52615124Y69149604D01*
X52616558Y69160501D01*
X52624545Y69205800D01*
X52625501Y69211221D01*
X52625501Y69438779D01*
X52625500Y69438785D01*
X52625500Y70623520D01*
X52644067Y70689354D01*
X52667624Y70727796D01*
X52720271Y70775428D01*
X52790313Y70787035D01*
X52855510Y70758932D01*
X52864152Y70751057D01*
X53017125Y70598084D01*
X53025533Y70591028D01*
X53203993Y70466069D01*
X53213489Y70460586D01*
X53410950Y70368509D01*
X53421240Y70364764D01*
X53447501Y70357727D01*
X53461599Y70358062D01*
X53465000Y70366003D01*
X53465000Y73628847D01*
X53461027Y73642378D01*
X53452479Y73643607D01*
X53421240Y73635236D01*
X53410950Y73631491D01*
X53213489Y73539414D01*
X53203993Y73533931D01*
X53025533Y73408972D01*
X53017125Y73401916D01*
X52864152Y73248943D01*
X52801840Y73214917D01*
X52731025Y73219982D01*
X52674189Y73262529D01*
X52667624Y73272204D01*
X52626424Y73339436D01*
X52626420Y73339442D01*
X52623836Y73343659D01*
X52620624Y73347419D01*
X52620621Y73347424D01*
X52463437Y73531462D01*
X52460224Y73535224D01*
X52442052Y73550744D01*
X52272424Y73695621D01*
X52272417Y73695626D01*
X52268659Y73698836D01*
X52053859Y73830466D01*
X52049289Y73832359D01*
X52049285Y73832361D01*
X51825684Y73924979D01*
X51825682Y73924980D01*
X51821111Y73926873D01*
X51721935Y73950683D01*
X51580961Y73984528D01*
X51580955Y73984529D01*
X51576148Y73985683D01*
X51325000Y74005449D01*
X51073852Y73985683D01*
X51069045Y73984529D01*
X51069039Y73984528D01*
X50928065Y73950683D01*
X50828889Y73926873D01*
X50824318Y73924980D01*
X50824316Y73924979D01*
X50600715Y73832361D01*
X50600711Y73832359D01*
X50596141Y73830466D01*
X50381341Y73698836D01*
X50293328Y73623666D01*
X50228541Y73594636D01*
X50158341Y73605241D01*
X50105019Y73652115D01*
X50085500Y73719478D01*
X50085500Y78101209D01*
X50085501Y78101233D01*
X50085501Y78328779D01*
X50084546Y78334195D01*
X50084545Y78334206D01*
X50076558Y78379497D01*
X50075122Y78390399D01*
X50071114Y78436215D01*
X50070635Y78441692D01*
X50069212Y78447004D01*
X50069210Y78447013D01*
X50057306Y78491439D01*
X50054926Y78502172D01*
X50046941Y78547460D01*
X50046940Y78547465D01*
X50045985Y78552879D01*
X50044102Y78558053D01*
X50028372Y78601274D01*
X50025068Y78611753D01*
X50013161Y78656188D01*
X50011739Y78661496D01*
X49989973Y78708174D01*
X49985768Y78718327D01*
X49970037Y78761549D01*
X49970034Y78761556D01*
X49968156Y78766715D01*
X49965407Y78771477D01*
X49942405Y78811318D01*
X49937329Y78821068D01*
X49917894Y78862746D01*
X49917894Y78862747D01*
X49915568Y78867734D01*
X49912411Y78872242D01*
X49912408Y78872248D01*
X49886030Y78909920D01*
X49880124Y78919190D01*
X49857127Y78959022D01*
X49857126Y78959023D01*
X49854377Y78963785D01*
X49821269Y79003242D01*
X49814593Y79011942D01*
X49785047Y79054139D01*
X49624139Y79215047D01*
X49624136Y79215049D01*
X47160049Y81679136D01*
X47160047Y81679139D01*
X46999139Y81840047D01*
X46956947Y81869589D01*
X46948230Y81876279D01*
X46908786Y81909377D01*
X46864170Y81935136D01*
X46854924Y81941027D01*
X46812734Y81970568D01*
X46766054Y81992336D01*
X46756323Y81997402D01*
X46716484Y82020403D01*
X46716481Y82020404D01*
X46711715Y82023156D01*
X46706539Y82025040D01*
X46663327Y82040768D01*
X46653171Y82044974D01*
X46640574Y82050848D01*
X46606496Y82066739D01*
X46601186Y82068162D01*
X46601180Y82068164D01*
X46556752Y82080068D01*
X46546267Y82083374D01*
X46503053Y82099103D01*
X46503045Y82099105D01*
X46497880Y82100985D01*
X46447165Y82109928D01*
X46436433Y82112307D01*
X46386692Y82125635D01*
X46381210Y82126115D01*
X46381202Y82126116D01*
X46335396Y82130124D01*
X46324499Y82131558D01*
X46285280Y82138473D01*
X46273779Y82140501D01*
X46046221Y82140501D01*
X46046217Y82140500D01*
X44276786Y82140500D01*
X44208665Y82160502D01*
X44162172Y82214158D01*
X44152068Y82284432D01*
X44181562Y82349012D01*
X44204516Y82369714D01*
X44214636Y82376800D01*
X44219139Y82379953D01*
X44380047Y82540861D01*
X44380049Y82540864D01*
X45839136Y83999951D01*
X45839139Y83999953D01*
X46000047Y84160861D01*
X46029589Y84203053D01*
X46036279Y84211770D01*
X46069377Y84251214D01*
X46095136Y84295830D01*
X46101027Y84305076D01*
X46130568Y84347266D01*
X46152336Y84393946D01*
X46157402Y84403677D01*
X46180403Y84443516D01*
X46180404Y84443519D01*
X46183156Y84448285D01*
X46187922Y84461379D01*
X46200768Y84496673D01*
X46204974Y84506829D01*
X46224414Y84548519D01*
X46226739Y84553504D01*
X46228162Y84558814D01*
X46228164Y84558820D01*
X46240068Y84603248D01*
X46243374Y84613733D01*
X46259103Y84656947D01*
X46259105Y84656955D01*
X46260985Y84662120D01*
X46269928Y84712836D01*
X46272307Y84723567D01*
X46285635Y84773308D01*
X46286115Y84778790D01*
X46286116Y84778798D01*
X46290124Y84824604D01*
X46291558Y84835501D01*
X46299545Y84880800D01*
X46300501Y84886221D01*
X46300501Y85113779D01*
X46300500Y85113785D01*
X46300500Y90424648D01*
X46320502Y90492769D01*
X46347891Y90523119D01*
X46414117Y90575987D01*
X46419620Y90580380D01*
X46531664Y90720734D01*
X46609827Y90882423D01*
X46638110Y91004930D01*
X46649026Y91052212D01*
X46649026Y91052215D01*
X46650226Y91057411D01*
X46650500Y91062163D01*
X46650499Y92937836D01*
X46650226Y92942589D01*
X46609827Y93117577D01*
X46531664Y93279266D01*
X46419620Y93419620D01*
X46279266Y93531664D01*
X46117577Y93609827D01*
X46110716Y93611411D01*
X45947788Y93649026D01*
X45947785Y93649026D01*
X45942589Y93650226D01*
X45937837Y93650500D01*
X45936013Y93650500D01*
X44991963Y93650499D01*
X44062164Y93650499D01*
X44057411Y93650226D01*
X43882423Y93609827D01*
X43720734Y93531664D01*
X43580380Y93419620D01*
X43468336Y93279266D01*
X43390173Y93117577D01*
X43349774Y92942589D01*
X43349500Y92937837D01*
X43349501Y91062164D01*
X43349774Y91057411D01*
X43390173Y90882423D01*
X43468336Y90720734D01*
X43580380Y90580380D01*
X43585883Y90575987D01*
X43652109Y90523119D01*
X43692868Y90464988D01*
X43699500Y90424648D01*
X43699500Y85590875D01*
X43679498Y85522754D01*
X43662595Y85501780D01*
X42878220Y84717405D01*
X42815908Y84683379D01*
X42789125Y84680500D01*
X33959478Y84680500D01*
X33891357Y84700502D01*
X33844864Y84754158D01*
X33834760Y84824432D01*
X33863665Y84888328D01*
X33938836Y84976341D01*
X34070466Y85191141D01*
X34073140Y85197595D01*
X34164979Y85419316D01*
X34164980Y85419318D01*
X34166873Y85423889D01*
X34200043Y85562054D01*
X34224528Y85664039D01*
X34224529Y85664045D01*
X34225683Y85668852D01*
X34245449Y85920000D01*
X34225683Y86171148D01*
X34216944Y86207552D01*
X34169009Y86407212D01*
X34166873Y86416111D01*
X34151402Y86453461D01*
X34072361Y86644285D01*
X34072359Y86644289D01*
X34070466Y86648859D01*
X33938836Y86863659D01*
X33935624Y86867419D01*
X33935621Y86867424D01*
X33778437Y87051462D01*
X33775224Y87055224D01*
X33617422Y87190000D01*
X33587424Y87215621D01*
X33587419Y87215624D01*
X33583659Y87218836D01*
X33550645Y87239067D01*
X33512204Y87262624D01*
X33464572Y87315272D01*
X33452965Y87385313D01*
X33481068Y87450511D01*
X33488943Y87459152D01*
X33641916Y87612125D01*
X33648972Y87620533D01*
X33773931Y87798993D01*
X33779414Y87808489D01*
X33871491Y88005950D01*
X33875236Y88016240D01*
X33882273Y88042501D01*
X33881938Y88056599D01*
X33873997Y88060000D01*
X31966000Y88060000D01*
X31897879Y88080002D01*
X31851386Y88133658D01*
X31840000Y88186000D01*
X31840000Y88734000D01*
X31860002Y88802121D01*
X31913658Y88848614D01*
X31966000Y88860000D01*
X33868847Y88860000D01*
X33882378Y88863973D01*
X33883607Y88872521D01*
X33875236Y88903760D01*
X33871491Y88914050D01*
X33779414Y89111511D01*
X33773931Y89121007D01*
X33648972Y89299467D01*
X33641916Y89307875D01*
X33488943Y89460848D01*
X33454917Y89523160D01*
X33459982Y89593975D01*
X33502529Y89650811D01*
X33512204Y89657376D01*
X33579436Y89698576D01*
X33579437Y89698577D01*
X33583659Y89701164D01*
X33587419Y89704376D01*
X33587424Y89704379D01*
X33771462Y89861563D01*
X33775224Y89864776D01*
X33817851Y89914686D01*
X33935621Y90052576D01*
X33935624Y90052581D01*
X33938836Y90056341D01*
X34070466Y90271141D01*
X34073140Y90277595D01*
X34164979Y90499316D01*
X34164980Y90499318D01*
X34166873Y90503889D01*
X34187135Y90588289D01*
X34224528Y90744039D01*
X34224529Y90744045D01*
X34225683Y90748852D01*
X34245449Y91000000D01*
X34225683Y91251148D01*
X34166873Y91496111D01*
X34164979Y91500684D01*
X34072361Y91724285D01*
X34072359Y91724289D01*
X34070466Y91728859D01*
X33938836Y91943659D01*
X33935624Y91947419D01*
X33935621Y91947424D01*
X33778437Y92131462D01*
X33775224Y92135224D01*
X33709541Y92191323D01*
X33587424Y92295621D01*
X33587419Y92295624D01*
X33583659Y92298836D01*
X33368859Y92430466D01*
X33364289Y92432359D01*
X33364285Y92432361D01*
X33140684Y92524979D01*
X33140682Y92524980D01*
X33136111Y92526873D01*
X33051711Y92547135D01*
X32895961Y92584528D01*
X32895955Y92584529D01*
X32891148Y92585683D01*
X32802851Y92592632D01*
X32705339Y92600307D01*
X32705330Y92600307D01*
X32702882Y92600500D01*
X31777118Y92600500D01*
X31774670Y92600307D01*
X31774661Y92600307D01*
X31677149Y92592632D01*
X31588852Y92585683D01*
X31584045Y92584529D01*
X31584039Y92584528D01*
X31428289Y92547135D01*
X31343889Y92526873D01*
X31339318Y92524980D01*
X31339316Y92524979D01*
X31115715Y92432361D01*
X31115711Y92432359D01*
X31111141Y92430466D01*
X30896341Y92298836D01*
X30892581Y92295624D01*
X30892576Y92295621D01*
X30770459Y92191323D01*
X30704776Y92135224D01*
X30701563Y92131462D01*
X30544379Y91947424D01*
X30544376Y91947419D01*
X30541164Y91943659D01*
X30538580Y91939442D01*
X30538576Y91939436D01*
X30533933Y91931860D01*
X30481285Y91884228D01*
X30411244Y91872621D01*
X30346046Y91900724D01*
X30306392Y91959614D01*
X30300500Y91997694D01*
X30300500Y94573500D01*
X30320502Y94641621D01*
X30374158Y94688114D01*
X30426500Y94699500D01*
X51409125Y94699500D01*
X51477246Y94679498D01*
X51498220Y94662595D01*
X55067595Y91093220D01*
X55101621Y91030908D01*
X55104500Y91004125D01*
X55104500Y73376480D01*
X55085933Y73310646D01*
X55062376Y73272204D01*
X55009729Y73224572D01*
X54939687Y73212965D01*
X54874490Y73241068D01*
X54865848Y73248943D01*
X54712875Y73401916D01*
X54704467Y73408972D01*
X54526007Y73533931D01*
X54516511Y73539414D01*
X54319050Y73631491D01*
X54308760Y73635236D01*
X54282499Y73642273D01*
X54268401Y73641938D01*
X54265000Y73633997D01*
X54265000Y70371153D01*
X54268973Y70357622D01*
X54277521Y70356393D01*
X54308760Y70364764D01*
X54319050Y70368509D01*
X54516511Y70460586D01*
X54526007Y70466069D01*
X54704467Y70591028D01*
X54712875Y70598084D01*
X54865848Y70751057D01*
X54928160Y70785083D01*
X54998975Y70780018D01*
X55055811Y70737471D01*
X55062376Y70727796D01*
X55091666Y70680000D01*
X55106164Y70656341D01*
X55109376Y70652581D01*
X55109379Y70652576D01*
X55165500Y70586867D01*
X55269776Y70464776D01*
X55273538Y70461563D01*
X55457576Y70304379D01*
X55457581Y70304376D01*
X55461341Y70301164D01*
X55676141Y70169534D01*
X55680711Y70167641D01*
X55680715Y70167639D01*
X55876338Y70086610D01*
X55908889Y70073127D01*
X55993289Y70052865D01*
X56149039Y70015472D01*
X56149045Y70015471D01*
X56153852Y70014317D01*
X56405000Y69994551D01*
X56656148Y70014317D01*
X56660955Y70015471D01*
X56660961Y70015472D01*
X56816711Y70052865D01*
X56901111Y70073127D01*
X56933662Y70086610D01*
X57129285Y70167639D01*
X57129289Y70167641D01*
X57133859Y70169534D01*
X57348659Y70301164D01*
X57352419Y70304376D01*
X57352424Y70304379D01*
X57536462Y70461563D01*
X57540224Y70464776D01*
X57644500Y70586867D01*
X57700621Y70652576D01*
X57700624Y70652581D01*
X57703836Y70656341D01*
X57835466Y70871141D01*
X57837482Y70876006D01*
X57929979Y71099316D01*
X57929980Y71099318D01*
X57931873Y71103889D01*
X57990683Y71348852D01*
X57997632Y71437149D01*
X58005307Y71534661D01*
X58005307Y71534670D01*
X58005500Y71537118D01*
X58005500Y72462882D01*
X58002493Y72501098D01*
X57991071Y72646214D01*
X57990683Y72651148D01*
X57978509Y72701860D01*
X57933028Y72891299D01*
X57931873Y72896111D01*
X57918687Y72927946D01*
X57837361Y73124285D01*
X57837359Y73124289D01*
X57835466Y73128859D01*
X57724067Y73310646D01*
X57705500Y73376480D01*
X57705500Y91481209D01*
X57705501Y91481233D01*
X57705501Y91708779D01*
X57704546Y91714195D01*
X57704545Y91714206D01*
X57696558Y91759497D01*
X57695122Y91770399D01*
X57691114Y91816215D01*
X57690635Y91821692D01*
X57689212Y91827004D01*
X57689210Y91827013D01*
X57677306Y91871439D01*
X57674926Y91882172D01*
X57666941Y91927460D01*
X57666940Y91927465D01*
X57665985Y91932879D01*
X57655460Y91961798D01*
X57648372Y91981274D01*
X57645068Y91991753D01*
X57633161Y92036188D01*
X57631739Y92041496D01*
X57609973Y92088174D01*
X57605768Y92098327D01*
X57590040Y92141539D01*
X57590040Y92141540D01*
X57588156Y92146715D01*
X57562401Y92191325D01*
X57557336Y92201054D01*
X57535568Y92247734D01*
X57506027Y92289924D01*
X57500136Y92299170D01*
X57474377Y92343786D01*
X57441275Y92383235D01*
X57434586Y92391952D01*
X57408200Y92429636D01*
X57405047Y92434139D01*
X57244139Y92595047D01*
X57244136Y92595049D01*
X53000049Y96839136D01*
X53000047Y96839139D01*
X52839139Y97000047D01*
X52796947Y97029589D01*
X52788230Y97036279D01*
X52748786Y97069377D01*
X52704170Y97095136D01*
X52694924Y97101027D01*
X52652734Y97130568D01*
X52606054Y97152336D01*
X52596323Y97157402D01*
X52556484Y97180403D01*
X52556481Y97180404D01*
X52551715Y97183156D01*
X52546539Y97185040D01*
X52503327Y97200768D01*
X52493171Y97204974D01*
X52446496Y97226739D01*
X52441186Y97228162D01*
X52441180Y97228164D01*
X52396752Y97240068D01*
X52386267Y97243374D01*
X52343053Y97259103D01*
X52343045Y97259105D01*
X52337880Y97260985D01*
X52287165Y97269928D01*
X52276433Y97272307D01*
X52226692Y97285635D01*
X52221210Y97286115D01*
X52221202Y97286116D01*
X52175396Y97290124D01*
X52164499Y97291558D01*
X52125280Y97298473D01*
X52113779Y97300501D01*
X51886221Y97300501D01*
X51886217Y97300500D01*
X29062291Y97300500D01*
X29051309Y97300979D01*
X29005475Y97304989D01*
X29000000Y97305468D01*
X28994525Y97304989D01*
X28948691Y97300979D01*
X28937709Y97300500D01*
X13113783Y97300500D01*
X13113779Y97300501D01*
X12886221Y97300501D01*
X12874720Y97298473D01*
X12835501Y97291558D01*
X12824604Y97290124D01*
X12778798Y97286116D01*
X12778790Y97286115D01*
X12773308Y97285635D01*
X12723567Y97272307D01*
X12712835Y97269928D01*
X12662120Y97260985D01*
X12656955Y97259105D01*
X12656947Y97259103D01*
X12613733Y97243374D01*
X12603248Y97240068D01*
X12558820Y97228164D01*
X12558814Y97228162D01*
X12553504Y97226739D01*
X12506829Y97204974D01*
X12496673Y97200768D01*
X12453461Y97185040D01*
X12448285Y97183156D01*
X12443519Y97180404D01*
X12443516Y97180403D01*
X12403677Y97157402D01*
X12393946Y97152336D01*
X12347266Y97130568D01*
X12305076Y97101027D01*
X12295830Y97095136D01*
X12251214Y97069377D01*
X12211770Y97036279D01*
X12203053Y97029589D01*
X12160861Y97000047D01*
X11999953Y96839139D01*
X11999951Y96839136D01*
X5290595Y90129780D01*
X5228283Y90095754D01*
X5157468Y90100819D01*
X5100632Y90143366D01*
X5075821Y90209886D01*
X5075500Y90218875D01*
X5075500Y98798500D01*
X5095502Y98866621D01*
X5149158Y98913114D01*
X5201500Y98924500D01*
X6370633Y98924500D01*
X6438754Y98904498D01*
G37*
%TD.AperFunction*%
%TD*%
M02*
