M48
; DRILL file {KiCad 6.0.11+dfsg-1~bpo11+1} date mar 01 ago 2023 14:35:58
; FORMAT={-:-/ absolute / metric / decimal}
; #@! TF.CreationDate,2023-08-01T14:35:58-03:00
; #@! TF.GenerationSoftware,Kicad,Pcbnew,6.0.11+dfsg-1~bpo11+1
; #@! TF.FileFunction,Plated,1,2,PTH
FMAT,2
METRIC
; #@! TA.AperFunction,Plated,PTH,ComponentDrill
T1C1.000
%
G90
G05
T1
X9.795Y87.355
X9.795Y84.815
X9.795Y82.275
X9.795Y79.735
X9.795Y77.195
X9.795Y74.655
X9.795Y72.115
X9.795Y69.575
X9.795Y67.035
X9.795Y64.495
X9.795Y59.455
X9.795Y56.915
X9.795Y54.375
X9.795Y51.835
X9.795Y49.295
X9.795Y46.755
X9.795Y44.215
X9.795Y41.675
X9.795Y39.135
X9.795Y36.595
X9.795Y34.055
X9.795Y31.515
X9.795Y28.995
X9.795Y26.435
X9.795Y23.895
X9.795Y21.355
X15.22Y34.0
X17.0Y91.0
X17.0Y88.46
X17.0Y85.92
X17.0Y83.38
X17.0Y80.84
X17.0Y78.3
X17.0Y75.76
X17.0Y73.22
X17.0Y70.68
X17.0Y68.14
X17.0Y65.6
X17.0Y63.06
X17.0Y60.52
X17.0Y57.98
X17.0Y55.44
X17.0Y52.9
X17.0Y50.36
X17.0Y47.82
X17.0Y45.28
X17.0Y42.74
X17.76Y34.0
X20.3Y34.0
X22.84Y34.0
X25.38Y34.0
X27.92Y34.0
X30.46Y34.0
X32.24Y91.0
X32.24Y88.46
X32.24Y85.92
X32.24Y83.38
X32.24Y80.84
X32.24Y78.3
X32.24Y75.76
X32.24Y73.22
X32.24Y70.68
X32.24Y68.14
X32.24Y65.6
X32.24Y63.06
X32.24Y60.52
X32.24Y57.98
X32.24Y55.44
X32.24Y52.9
X32.24Y50.36
X32.24Y47.82
X32.24Y45.28
X32.24Y42.74
X33.0Y34.0
X38.625Y72.0
X40.0Y11.0
X41.165Y72.0
X42.5Y11.0
X43.705Y72.0
X45.0Y92.0
X46.245Y72.0
X48.785Y72.0
X49.0Y11.0
X51.325Y72.0
X51.5Y11.0
X53.865Y72.0
X56.405Y72.0
X60.195Y91.455
X60.195Y88.915
X60.195Y86.375
X60.195Y83.835
X60.195Y81.295
X60.195Y78.755
X60.195Y76.215
X60.195Y73.675
X60.195Y71.135
X60.195Y68.595
X60.195Y66.055
X60.195Y63.515
X60.195Y60.975
X60.195Y58.435
X60.195Y55.895
X60.195Y53.355
X60.195Y49.755
X60.195Y47.215
X60.195Y44.675
X60.195Y42.135
X60.195Y39.595
X60.195Y37.055
X60.195Y34.515
X60.195Y31.975
X60.195Y29.435
X60.195Y26.895
X60.195Y24.355
X60.195Y21.815
X60.195Y19.275
X60.195Y16.735
T0
M30
