%TF.GenerationSoftware,KiCad,Pcbnew,6.0.11+dfsg-1~bpo11+1*%
%TF.CreationDate,2023-08-08T14:26:06-03:00*%
%TF.ProjectId,simo_shield_1,73696d6f-5f73-4686-9965-6c645f312e6b,0003*%
%TF.SameCoordinates,PX69db9c0PY791ddc0*%
%TF.FileFunction,Profile,NP*%
%FSLAX46Y46*%
G04 Gerber Fmt 4.6, Leading zero omitted, Abs format (unit mm)*
G04 Created by KiCad (PCBNEW 6.0.11+dfsg-1~bpo11+1) date 2023-08-08 14:26:06*
%MOMM*%
%LPD*%
G01*
G04 APERTURE LIST*
%TA.AperFunction,Profile*%
%ADD10C,0.100000*%
%TD*%
%ADD11C,0.150000*%
G04 APERTURE END LIST*
D10*
X62000000Y500000D02*
X0Y500000D01*
X62000000Y500000D02*
X62000000Y96500000D01*
X0Y500000D02*
X0Y96500000D01*
D11*
X71302380Y43976191D02*
X71302380Y44166667D01*
X71254761Y44261905D01*
X71207142Y44309524D01*
X71064285Y44404762D01*
X70873809Y44452381D01*
X70492857Y44452381D01*
X70397619Y44404762D01*
X70350000Y44357143D01*
X70302380Y44261905D01*
X70302380Y44071429D01*
X70350000Y43976191D01*
X70397619Y43928572D01*
X70492857Y43880953D01*
X70730952Y43880953D01*
X70826190Y43928572D01*
X70873809Y43976191D01*
X70921428Y44071429D01*
X70921428Y44261905D01*
X70873809Y44357143D01*
X70826190Y44404762D01*
X70730952Y44452381D01*
X70302380Y45309524D02*
X70302380Y45119048D01*
X70350000Y45023810D01*
X70397619Y44976191D01*
X70540476Y44880953D01*
X70730952Y44833334D01*
X71111904Y44833334D01*
X71207142Y44880953D01*
X71254761Y44928572D01*
X71302380Y45023810D01*
X71302380Y45214286D01*
X71254761Y45309524D01*
X71207142Y45357143D01*
X71111904Y45404762D01*
X70873809Y45404762D01*
X70778571Y45357143D01*
X70730952Y45309524D01*
X70683333Y45214286D01*
X70683333Y45023810D01*
X70730952Y44928572D01*
X70778571Y44880953D01*
X70873809Y44833334D01*
X71254761Y45880953D02*
X71302380Y45880953D01*
X71397619Y45833334D01*
X71445238Y45785715D01*
X70302380Y46500000D02*
X70302380Y46595239D01*
X70350000Y46690477D01*
X70397619Y46738096D01*
X70492857Y46785715D01*
X70683333Y46833334D01*
X70921428Y46833334D01*
X71111904Y46785715D01*
X71207142Y46738096D01*
X71254761Y46690477D01*
X71302380Y46595239D01*
X71302380Y46500000D01*
X71254761Y46404762D01*
X71207142Y46357143D01*
X71111904Y46309524D01*
X70921428Y46261905D01*
X70683333Y46261905D01*
X70492857Y46309524D01*
X70397619Y46357143D01*
X70350000Y46404762D01*
X70302380Y46500000D01*
X70302380Y47452381D02*
X70302380Y47547620D01*
X70350000Y47642858D01*
X70397619Y47690477D01*
X70492857Y47738096D01*
X70683333Y47785715D01*
X70921428Y47785715D01*
X71111904Y47738096D01*
X71207142Y47690477D01*
X71254761Y47642858D01*
X71302380Y47547620D01*
X71302380Y47452381D01*
X71254761Y47357143D01*
X71207142Y47309524D01*
X71111904Y47261905D01*
X70921428Y47214286D01*
X70683333Y47214286D01*
X70492857Y47261905D01*
X70397619Y47309524D01*
X70350000Y47357143D01*
X70302380Y47452381D01*
X70302380Y48404762D02*
X70302380Y48500000D01*
X70350000Y48595239D01*
X70397619Y48642858D01*
X70492857Y48690477D01*
X70683333Y48738096D01*
X70921428Y48738096D01*
X71111904Y48690477D01*
X71207142Y48642858D01*
X71254761Y48595239D01*
X71302380Y48500000D01*
X71302380Y48404762D01*
X71254761Y48309524D01*
X71207142Y48261905D01*
X71111904Y48214286D01*
X70921428Y48166667D01*
X70683333Y48166667D01*
X70492857Y48214286D01*
X70397619Y48261905D01*
X70350000Y48309524D01*
X70302380Y48404762D01*
X70302380Y49357143D02*
X70302380Y49452381D01*
X70350000Y49547620D01*
X70397619Y49595239D01*
X70492857Y49642858D01*
X70683333Y49690477D01*
X70921428Y49690477D01*
X71111904Y49642858D01*
X71207142Y49595239D01*
X71254761Y49547620D01*
X71302380Y49452381D01*
X71302380Y49357143D01*
X71254761Y49261905D01*
X71207142Y49214286D01*
X71111904Y49166667D01*
X70921428Y49119048D01*
X70683333Y49119048D01*
X70492857Y49166667D01*
X70397619Y49214286D01*
X70350000Y49261905D01*
X70302380Y49357143D01*
X71302380Y50880953D02*
X70635714Y50880953D01*
X70730952Y50880953D02*
X70683333Y50928572D01*
X70635714Y51023810D01*
X70635714Y51166667D01*
X70683333Y51261905D01*
X70778571Y51309524D01*
X71302380Y51309524D01*
X70778571Y51309524D02*
X70683333Y51357143D01*
X70635714Y51452381D01*
X70635714Y51595239D01*
X70683333Y51690477D01*
X70778571Y51738096D01*
X71302380Y51738096D01*
X71302380Y52214286D02*
X70635714Y52214286D01*
X70730952Y52214286D02*
X70683333Y52261905D01*
X70635714Y52357143D01*
X70635714Y52500000D01*
X70683333Y52595239D01*
X70778571Y52642858D01*
X71302380Y52642858D01*
X70778571Y52642858D02*
X70683333Y52690477D01*
X70635714Y52785715D01*
X70635714Y52928572D01*
X70683333Y53023810D01*
X70778571Y53071429D01*
X71302380Y53071429D01*
D10*
X63000000Y500000D02*
X72586420Y500000D01*
X63000000Y96500000D02*
X72586420Y96500000D01*
X72000000Y500000D02*
X72000000Y96500000D01*
X72000000Y500000D02*
X72000000Y96500000D01*
X72000000Y500000D02*
X72586421Y1626504D01*
X72000000Y500000D02*
X71413579Y1626504D01*
X72000000Y96500000D02*
X71413579Y95373496D01*
X72000000Y96500000D02*
X72586421Y95373496D01*
D11*
X-4197620Y43976191D02*
X-4197620Y44166667D01*
X-4245239Y44261905D01*
X-4292858Y44309524D01*
X-4435715Y44404762D01*
X-4626191Y44452381D01*
X-5007143Y44452381D01*
X-5102381Y44404762D01*
X-5150000Y44357143D01*
X-5197620Y44261905D01*
X-5197620Y44071429D01*
X-5150000Y43976191D01*
X-5102381Y43928572D01*
X-5007143Y43880953D01*
X-4769048Y43880953D01*
X-4673810Y43928572D01*
X-4626191Y43976191D01*
X-4578572Y44071429D01*
X-4578572Y44261905D01*
X-4626191Y44357143D01*
X-4673810Y44404762D01*
X-4769048Y44452381D01*
X-5197620Y45309524D02*
X-5197620Y45119048D01*
X-5150000Y45023810D01*
X-5102381Y44976191D01*
X-4959524Y44880953D01*
X-4769048Y44833334D01*
X-4388096Y44833334D01*
X-4292858Y44880953D01*
X-4245239Y44928572D01*
X-4197620Y45023810D01*
X-4197620Y45214286D01*
X-4245239Y45309524D01*
X-4292858Y45357143D01*
X-4388096Y45404762D01*
X-4626191Y45404762D01*
X-4721429Y45357143D01*
X-4769048Y45309524D01*
X-4816667Y45214286D01*
X-4816667Y45023810D01*
X-4769048Y44928572D01*
X-4721429Y44880953D01*
X-4626191Y44833334D01*
X-4245239Y45880953D02*
X-4197620Y45880953D01*
X-4102381Y45833334D01*
X-4054762Y45785715D01*
X-5197620Y46500000D02*
X-5197620Y46595239D01*
X-5150000Y46690477D01*
X-5102381Y46738096D01*
X-5007143Y46785715D01*
X-4816667Y46833334D01*
X-4578572Y46833334D01*
X-4388096Y46785715D01*
X-4292858Y46738096D01*
X-4245239Y46690477D01*
X-4197620Y46595239D01*
X-4197620Y46500000D01*
X-4245239Y46404762D01*
X-4292858Y46357143D01*
X-4388096Y46309524D01*
X-4578572Y46261905D01*
X-4816667Y46261905D01*
X-5007143Y46309524D01*
X-5102381Y46357143D01*
X-5150000Y46404762D01*
X-5197620Y46500000D01*
X-5197620Y47452381D02*
X-5197620Y47547620D01*
X-5150000Y47642858D01*
X-5102381Y47690477D01*
X-5007143Y47738096D01*
X-4816667Y47785715D01*
X-4578572Y47785715D01*
X-4388096Y47738096D01*
X-4292858Y47690477D01*
X-4245239Y47642858D01*
X-4197620Y47547620D01*
X-4197620Y47452381D01*
X-4245239Y47357143D01*
X-4292858Y47309524D01*
X-4388096Y47261905D01*
X-4578572Y47214286D01*
X-4816667Y47214286D01*
X-5007143Y47261905D01*
X-5102381Y47309524D01*
X-5150000Y47357143D01*
X-5197620Y47452381D01*
X-5197620Y48404762D02*
X-5197620Y48500000D01*
X-5150000Y48595239D01*
X-5102381Y48642858D01*
X-5007143Y48690477D01*
X-4816667Y48738096D01*
X-4578572Y48738096D01*
X-4388096Y48690477D01*
X-4292858Y48642858D01*
X-4245239Y48595239D01*
X-4197620Y48500000D01*
X-4197620Y48404762D01*
X-4245239Y48309524D01*
X-4292858Y48261905D01*
X-4388096Y48214286D01*
X-4578572Y48166667D01*
X-4816667Y48166667D01*
X-5007143Y48214286D01*
X-5102381Y48261905D01*
X-5150000Y48309524D01*
X-5197620Y48404762D01*
X-5197620Y49357143D02*
X-5197620Y49452381D01*
X-5150000Y49547620D01*
X-5102381Y49595239D01*
X-5007143Y49642858D01*
X-4816667Y49690477D01*
X-4578572Y49690477D01*
X-4388096Y49642858D01*
X-4292858Y49595239D01*
X-4245239Y49547620D01*
X-4197620Y49452381D01*
X-4197620Y49357143D01*
X-4245239Y49261905D01*
X-4292858Y49214286D01*
X-4388096Y49166667D01*
X-4578572Y49119048D01*
X-4816667Y49119048D01*
X-5007143Y49166667D01*
X-5102381Y49214286D01*
X-5150000Y49261905D01*
X-5197620Y49357143D01*
X-4197620Y50880953D02*
X-4864286Y50880953D01*
X-4769048Y50880953D02*
X-4816667Y50928572D01*
X-4864286Y51023810D01*
X-4864286Y51166667D01*
X-4816667Y51261905D01*
X-4721429Y51309524D01*
X-4197620Y51309524D01*
X-4721429Y51309524D02*
X-4816667Y51357143D01*
X-4864286Y51452381D01*
X-4864286Y51595239D01*
X-4816667Y51690477D01*
X-4721429Y51738096D01*
X-4197620Y51738096D01*
X-4197620Y52214286D02*
X-4864286Y52214286D01*
X-4769048Y52214286D02*
X-4816667Y52261905D01*
X-4864286Y52357143D01*
X-4864286Y52500000D01*
X-4816667Y52595239D01*
X-4721429Y52642858D01*
X-4197620Y52642858D01*
X-4721429Y52642858D02*
X-4816667Y52690477D01*
X-4864286Y52785715D01*
X-4864286Y52928572D01*
X-4816667Y53023810D01*
X-4721429Y53071429D01*
X-4197620Y53071429D01*
D10*
X-1500000Y96500000D02*
X-4086420Y96500000D01*
X-1500000Y500000D02*
X-4086420Y500000D01*
X-3500000Y96500000D02*
X-3500000Y500000D01*
X-3500000Y96500000D02*
X-3500000Y500000D01*
X-3500000Y96500000D02*
X-4086421Y95373496D01*
X-3500000Y96500000D02*
X-2913579Y95373496D01*
X-3500000Y500000D02*
X-2913579Y1626504D01*
X-3500000Y500000D02*
X-4086421Y1626504D01*
M02*
