%TF.GenerationSoftware,KiCad,Pcbnew,6.0.11+dfsg-1~bpo11+1*%
%TF.CreationDate,2023-08-01T15:36:19-03:00*%
%TF.ProjectId,simo_shield_1,73696d6f-5f73-4686-9965-6c645f312e6b,0003*%
%TF.SameCoordinates,PX69db9c0PY791ddc0*%
%TF.FileFunction,Copper,L2,Bot*%
%TF.FilePolarity,Positive*%
%FSLAX46Y46*%
G04 Gerber Fmt 4.6, Leading zero omitted, Abs format (unit mm)*
G04 Created by KiCad (PCBNEW 6.0.11+dfsg-1~bpo11+1) date 2023-08-01 15:36:19*
%MOMM*%
%LPD*%
G01*
G04 APERTURE LIST*
G04 Aperture macros list*
%AMRoundRect*
0 Rectangle with rounded corners*
0 $1 Rounding radius*
0 $2 $3 $4 $5 $6 $7 $8 $9 X,Y pos of 4 corners*
0 Add a 4 corners polygon primitive as box body*
4,1,4,$2,$3,$4,$5,$6,$7,$8,$9,$2,$3,0*
0 Add four circle primitives for the rounded corners*
1,1,$1+$1,$2,$3*
1,1,$1+$1,$4,$5*
1,1,$1+$1,$6,$7*
1,1,$1+$1,$8,$9*
0 Add four rect primitives between the rounded corners*
20,1,$1+$1,$2,$3,$4,$5,0*
20,1,$1+$1,$4,$5,$6,$7,0*
20,1,$1+$1,$6,$7,$8,$9,0*
20,1,$1+$1,$8,$9,$2,$3,0*%
G04 Aperture macros list end*
%ADD10C,0.300000*%
%TA.AperFunction,NonConductor*%
%ADD11C,0.300000*%
%TD*%
%TA.AperFunction,ComponentPad*%
%ADD12O,1.600000X2.400000*%
%TD*%
%TA.AperFunction,ComponentPad*%
%ADD13RoundRect,0.250000X-0.600000X-0.750000X0.600000X-0.750000X0.600000X0.750000X-0.600000X0.750000X0*%
%TD*%
%TA.AperFunction,ComponentPad*%
%ADD14O,1.700000X2.000000*%
%TD*%
%TA.AperFunction,ComponentPad*%
%ADD15R,1.700000X1.700000*%
%TD*%
%TA.AperFunction,ComponentPad*%
%ADD16O,2.400000X1.600000*%
%TD*%
%TA.AperFunction,ComponentPad*%
%ADD17C,1.700000*%
%TD*%
%TA.AperFunction,Conductor*%
%ADD18C,1.000000*%
%TD*%
%TA.AperFunction,Conductor*%
%ADD19C,0.800000*%
%TD*%
G04 APERTURE END LIST*
D10*
D11*
X34892857Y11392858D02*
X34678571Y11321429D01*
X34321428Y11321429D01*
X34178571Y11392858D01*
X34107142Y11464286D01*
X34035714Y11607143D01*
X34035714Y11750000D01*
X34107142Y11892858D01*
X34178571Y11964286D01*
X34321428Y12035715D01*
X34607142Y12107143D01*
X34750000Y12178572D01*
X34821428Y12250000D01*
X34892857Y12392858D01*
X34892857Y12535715D01*
X34821428Y12678572D01*
X34750000Y12750000D01*
X34607142Y12821429D01*
X34250000Y12821429D01*
X34035714Y12750000D01*
X33392857Y11321429D02*
X33392857Y12821429D01*
X32678571Y11321429D02*
X32678571Y12821429D01*
X32178571Y11750000D01*
X31678571Y12821429D01*
X31678571Y11321429D01*
X30678571Y12821429D02*
X30392857Y12821429D01*
X30250000Y12750000D01*
X30107142Y12607143D01*
X30035714Y12321429D01*
X30035714Y11821429D01*
X30107142Y11535715D01*
X30250000Y11392858D01*
X30392857Y11321429D01*
X30678571Y11321429D01*
X30821428Y11392858D01*
X30964285Y11535715D01*
X31035714Y11821429D01*
X31035714Y12321429D01*
X30964285Y12607143D01*
X30821428Y12750000D01*
X30678571Y12821429D01*
X28321428Y11392858D02*
X28107142Y11321429D01*
X27750000Y11321429D01*
X27607142Y11392858D01*
X27535714Y11464286D01*
X27464285Y11607143D01*
X27464285Y11750000D01*
X27535714Y11892858D01*
X27607142Y11964286D01*
X27750000Y12035715D01*
X28035714Y12107143D01*
X28178571Y12178572D01*
X28250000Y12250000D01*
X28321428Y12392858D01*
X28321428Y12535715D01*
X28250000Y12678572D01*
X28178571Y12750000D01*
X28035714Y12821429D01*
X27678571Y12821429D01*
X27464285Y12750000D01*
X26821428Y11321429D02*
X26821428Y12821429D01*
X26821428Y12107143D02*
X25964285Y12107143D01*
X25964285Y11321429D02*
X25964285Y12821429D01*
X25250000Y11321429D02*
X25250000Y12821429D01*
X24535714Y12107143D02*
X24035714Y12107143D01*
X23821428Y11321429D02*
X24535714Y11321429D01*
X24535714Y12821429D01*
X23821428Y12821429D01*
X22464285Y11321429D02*
X23178571Y11321429D01*
X23178571Y12821429D01*
X21964285Y11321429D02*
X21964285Y12821429D01*
X21607142Y12821429D01*
X21392857Y12750000D01*
X21250000Y12607143D01*
X21178571Y12464286D01*
X21107142Y12178572D01*
X21107142Y11964286D01*
X21178571Y11678572D01*
X21250000Y11535715D01*
X21392857Y11392858D01*
X21607142Y11321429D01*
X21964285Y11321429D01*
X19464285Y12321429D02*
X19107142Y11321429D01*
X18750000Y12321429D01*
X17392857Y11321429D02*
X18250000Y11321429D01*
X17821428Y11321429D02*
X17821428Y12821429D01*
X17964285Y12607143D01*
X18107142Y12464286D01*
X18250000Y12392858D01*
X16750000Y11464286D02*
X16678571Y11392858D01*
X16750000Y11321429D01*
X16821428Y11392858D01*
X16750000Y11464286D01*
X16750000Y11321429D01*
X15750000Y12821429D02*
X15607142Y12821429D01*
X15464285Y12750000D01*
X15392857Y12678572D01*
X15321428Y12535715D01*
X15250000Y12250000D01*
X15250000Y11892858D01*
X15321428Y11607143D01*
X15392857Y11464286D01*
X15464285Y11392858D01*
X15607142Y11321429D01*
X15750000Y11321429D01*
X15892857Y11392858D01*
X15964285Y11464286D01*
X16035714Y11607143D01*
X16107142Y11892858D01*
X16107142Y12250000D01*
X16035714Y12535715D01*
X15964285Y12678572D01*
X15892857Y12750000D01*
X15750000Y12821429D01*
X14607142Y11464286D02*
X14535714Y11392858D01*
X14607142Y11321429D01*
X14678571Y11392858D01*
X14607142Y11464286D01*
X14607142Y11321429D01*
X13607142Y12821429D02*
X13464285Y12821429D01*
X13321428Y12750000D01*
X13250000Y12678572D01*
X13178571Y12535715D01*
X13107142Y12250000D01*
X13107142Y11892858D01*
X13178571Y11607143D01*
X13250000Y11464286D01*
X13321428Y11392858D01*
X13464285Y11321429D01*
X13607142Y11321429D01*
X13750000Y11392858D01*
X13821428Y11464286D01*
X13892857Y11607143D01*
X13964285Y11892858D01*
X13964285Y12250000D01*
X13892857Y12535715D01*
X13821428Y12678572D01*
X13750000Y12750000D01*
X13607142Y12821429D01*
D12*
%TO.P,U4,1,INT*%
%TO.N,unconnected-(U4-Pad1)*%
X34625000Y66000000D03*
%TO.P,U4,2,AD0*%
%TO.N,unconnected-(U4-Pad2)*%
X37165000Y66000000D03*
%TO.P,U4,3,XCL*%
%TO.N,unconnected-(U4-Pad3)*%
X39705000Y66000000D03*
%TO.P,U4,4,XDA*%
%TO.N,unconnected-(U4-Pad4)*%
X42245000Y66000000D03*
%TO.P,U4,5,SDA*%
%TO.N,Net-(U3-Pad36)*%
X44785000Y66000000D03*
%TO.P,U4,6,SCL*%
%TO.N,Net-(U3-Pad35)*%
X47325000Y66000000D03*
%TO.P,U4,7,GND*%
%TO.N,GND*%
X49865000Y66000000D03*
%TO.P,U4,8,VCC*%
%TO.N,+3.3V*%
X52405000Y66000000D03*
%TD*%
D13*
%TO.P,J1,1,Pin_1*%
%TO.N,Net-(J1-Pad1)*%
X36000000Y5000000D03*
D14*
%TO.P,J1,2,Pin_2*%
%TO.N,GND*%
X38500000Y5000000D03*
%TD*%
D13*
%TO.P,J2,1,Pin_1*%
%TO.N,/UART_DEBUG_RX*%
X45000000Y5000000D03*
D14*
%TO.P,J2,2,Pin_2*%
%TO.N,/UART_DEBUG_TX*%
X47500000Y5000000D03*
%TD*%
D15*
%TO.P,U3,1,PB12*%
%TO.N,unconnected-(U3-Pad1)*%
X13000000Y85000000D03*
D16*
%TO.P,U3,2,PB13*%
%TO.N,unconnected-(U3-Pad2)*%
X13000000Y82460000D03*
%TO.P,U3,3,PB14*%
%TO.N,unconnected-(U3-Pad3)*%
X13000000Y79920000D03*
%TO.P,U3,4,PB15*%
%TO.N,unconnected-(U3-Pad4)*%
X13000000Y77380000D03*
%TO.P,U3,5,PA8*%
%TO.N,unconnected-(U3-Pad5)*%
X13000000Y74840000D03*
%TO.P,U3,6,PA9*%
%TO.N,Net-(U3-Pad6)*%
X13000000Y72300000D03*
%TO.P,U3,7,PA10*%
%TO.N,Net-(U1-Pad4)*%
X13000000Y69760000D03*
%TO.P,U3,8,PA11*%
%TO.N,unconnected-(U3-Pad8)*%
X13000000Y67220000D03*
%TO.P,U3,9,PA12*%
%TO.N,Net-(U1-Pad9)*%
X13000000Y64680000D03*
%TO.P,U3,10,PA15*%
%TO.N,Net-(U1-Pad14)*%
X13000000Y62140000D03*
%TO.P,U3,11,PB3*%
%TO.N,Net-(U2-Pad5)*%
X13000000Y59600000D03*
%TO.P,U3,12,PB4*%
%TO.N,Net-(U2-Pad3)*%
X13000000Y57060000D03*
%TO.P,U3,13,PB5*%
%TO.N,Net-(U2-Pad4)*%
X13000000Y54520000D03*
%TO.P,U3,14,PB6*%
%TO.N,unconnected-(U3-Pad14)*%
X13000000Y51980000D03*
%TO.P,U3,15,PB7*%
%TO.N,unconnected-(U3-Pad15)*%
X13000000Y49440000D03*
%TO.P,U3,16,PB8*%
%TO.N,Net-(U2-Pad6)*%
X13000000Y46900000D03*
%TO.P,U3,17,PB9*%
%TO.N,unconnected-(U3-Pad17)*%
X13000000Y44360000D03*
%TO.P,U3,18,5V*%
%TO.N,unconnected-(U3-Pad18)*%
X13000000Y41820000D03*
%TO.P,U3,19,GND*%
%TO.N,unconnected-(U3-Pad19)*%
X13000000Y39280000D03*
%TO.P,U3,20,3V3*%
%TO.N,unconnected-(U3-Pad20)*%
X13000000Y36740000D03*
%TO.P,U3,21,VBat*%
%TO.N,unconnected-(U3-Pad21)*%
X28240000Y36740000D03*
%TO.P,U3,22,PC13*%
%TO.N,unconnected-(U3-Pad22)*%
X28240000Y39280000D03*
%TO.P,U3,23,PC14*%
%TO.N,unconnected-(U3-Pad23)*%
X28240000Y41820000D03*
%TO.P,U3,24,PC15*%
%TO.N,unconnected-(U3-Pad24)*%
X28240000Y44360000D03*
%TO.P,U3,25,PA0*%
%TO.N,Net-(J1-Pad1)*%
X28240000Y46900000D03*
%TO.P,U3,26,PA1*%
%TO.N,unconnected-(U3-Pad26)*%
X28240000Y49440000D03*
%TO.P,U3,27,PA2*%
%TO.N,/UART_DEBUG_RX*%
X28240000Y51980000D03*
%TO.P,U3,28,PA3*%
%TO.N,/UART_DEBUG_TX*%
X28240000Y54520000D03*
%TO.P,U3,29,PA4*%
%TO.N,/BAT_ENA_PIN*%
X28240000Y57060000D03*
%TO.P,U3,30,PA5*%
%TO.N,unconnected-(U3-Pad30)*%
X28240000Y59600000D03*
%TO.P,U3,31,PA6*%
%TO.N,unconnected-(U3-Pad31)*%
X28240000Y62140000D03*
%TO.P,U3,32,PA7*%
%TO.N,unconnected-(U3-Pad32)*%
X28240000Y64680000D03*
%TO.P,U3,33,PB0*%
%TO.N,unconnected-(U3-Pad33)*%
X28240000Y67220000D03*
%TO.P,U3,34,PB1*%
%TO.N,unconnected-(U3-Pad34)*%
X28240000Y69760000D03*
%TO.P,U3,35,PB10*%
%TO.N,Net-(U3-Pad35)*%
X28240000Y72300000D03*
%TO.P,U3,36,PB11*%
%TO.N,Net-(U3-Pad36)*%
X28240000Y74840000D03*
%TO.P,U3,37,RST*%
%TO.N,Net-(J3-Pad1)*%
X28240000Y77380000D03*
%TO.P,U3,38,3V3*%
%TO.N,+3.3V*%
X28240000Y79920000D03*
%TO.P,U3,39,GND*%
%TO.N,GND*%
X28240000Y82460000D03*
%TO.P,U3,40,5v*%
%TO.N,unconnected-(U3-Pad40)*%
X28240000Y85000000D03*
%TD*%
D15*
%TO.P,J3,1,Pin_1*%
%TO.N,Net-(J3-Pad1)*%
X41000000Y86000000D03*
%TD*%
%TO.P,U2,1,VCC*%
%TO.N,+3.3V*%
X33000000Y34000000D03*
D12*
%TO.P,U2,2,GND*%
%TO.N,GND*%
X30460000Y34000000D03*
%TO.P,U2,3,MISO*%
%TO.N,Net-(U2-Pad3)*%
X27920000Y34000000D03*
%TO.P,U2,4,MOSI*%
%TO.N,Net-(U2-Pad4)*%
X25380000Y34000000D03*
%TO.P,U2,5,SCK*%
%TO.N,Net-(U2-Pad5)*%
X22840000Y34000000D03*
%TO.P,U2,6,/CS*%
%TO.N,Net-(U2-Pad6)*%
X20300000Y34000000D03*
%TO.P,U2,7,/WP*%
%TO.N,unconnected-(U2-Pad7)*%
X17760000Y34000000D03*
%TO.P,U2,8,/RST*%
%TO.N,unconnected-(U2-Pad8)*%
X15220000Y34000000D03*
%TD*%
D15*
%TO.P,U1,1,PA07*%
%TO.N,unconnected-(U1-Pad1)*%
X5795000Y81355000D03*
D17*
%TO.P,U1,2,SER3_RX*%
%TO.N,Net-(U3-Pad6)*%
X5795000Y78815000D03*
%TO.P,U1,3,PA05*%
%TO.N,unconnected-(U1-Pad3)*%
X5795000Y76275000D03*
%TO.P,U1,4,SER3_TX*%
%TO.N,Net-(U1-Pad4)*%
X5795000Y73735000D03*
%TO.P,U1,5,SER1_TX*%
%TO.N,unconnected-(U1-Pad5)*%
X5795000Y71195000D03*
%TO.P,U1,6,SER1_RX*%
%TO.N,unconnected-(U1-Pad6)*%
X5795000Y68655000D03*
%TO.P,U1,7,STATUS*%
%TO.N,unconnected-(U1-Pad7)*%
X5795000Y66115000D03*
%TO.P,U1,8,D4*%
%TO.N,unconnected-(U1-Pad8)*%
X5795000Y63575000D03*
%TO.P,U1,9,PWRKEY*%
%TO.N,Net-(U1-Pad9)*%
X5795000Y61035000D03*
%TO.P,U1,10,GND*%
%TO.N,unconnected-(U1-Pad10)*%
X5795000Y58495000D03*
%TO.P,U1,11,D6*%
%TO.N,unconnected-(U1-Pad11)*%
X5795000Y53455000D03*
%TO.P,U1,12,A5*%
%TO.N,unconnected-(U1-Pad12)*%
X5795000Y50915000D03*
%TO.P,U1,13,A4*%
%TO.N,unconnected-(U1-Pad13)*%
X5795000Y48375000D03*
%TO.P,U1,14,RI*%
%TO.N,Net-(U1-Pad14)*%
X5795000Y45835000D03*
%TO.P,U1,15,RESET*%
%TO.N,unconnected-(U1-Pad15)*%
X5795000Y43295000D03*
%TO.P,U1,16,A1*%
%TO.N,unconnected-(U1-Pad16)*%
X5795000Y40755000D03*
%TO.P,U1,17,A2*%
%TO.N,unconnected-(U1-Pad17)*%
X5795000Y38215000D03*
%TO.P,U1,18,PB31*%
%TO.N,unconnected-(U1-Pad18)*%
X5795000Y35675000D03*
%TO.P,U1,19,WIRE_SDA*%
%TO.N,unconnected-(U1-Pad19)*%
X5795000Y33135000D03*
%TO.P,U1,20,WIRE_SCL*%
%TO.N,unconnected-(U1-Pad20)*%
X5795000Y30595000D03*
%TO.P,U1,21,+3.3V*%
%TO.N,unconnected-(U1-Pad21)*%
X5795000Y28055000D03*
%TO.P,U1,22,+3.3V*%
%TO.N,unconnected-(U1-Pad22)*%
X5795000Y25515000D03*
%TO.P,U1,23,USB33*%
%TO.N,+3.3V*%
X5795000Y22995008D03*
%TO.P,U1,24,GND*%
%TO.N,GND*%
X5795000Y20435000D03*
%TO.P,U1,25,+5VUSB*%
%TO.N,unconnected-(U1-Pad25)*%
X5795000Y17895000D03*
%TO.P,U1,26,+BATT*%
%TO.N,unconnected-(U1-Pad26)*%
X5795000Y15355000D03*
%TO.P,U1,27,A2*%
%TO.N,unconnected-(U1-Pad27)*%
X56195000Y85455000D03*
%TO.P,U1,28,A3*%
%TO.N,unconnected-(U1-Pad28)*%
X56195000Y82915000D03*
%TO.P,U1,29,D18*%
%TO.N,unconnected-(U1-Pad29)*%
X56195000Y80375000D03*
%TO.P,U1,30,D19*%
%TO.N,unconnected-(U1-Pad30)*%
X56195000Y77835000D03*
%TO.P,U1,31,D10*%
%TO.N,unconnected-(U1-Pad31)*%
X56195000Y75295000D03*
%TO.P,U1,32,D11*%
%TO.N,unconnected-(U1-Pad32)*%
X56195000Y72755000D03*
%TO.P,U1,33,D20*%
%TO.N,unconnected-(U1-Pad33)*%
X56195000Y70215000D03*
%TO.P,U1,34,D21*%
%TO.N,unconnected-(U1-Pad34)*%
X56195000Y67675000D03*
%TO.P,U1,35,D13*%
%TO.N,unconnected-(U1-Pad35)*%
X56195000Y65135000D03*
%TO.P,U1,36,SER2_RX*%
%TO.N,unconnected-(U1-Pad36)*%
X56195000Y62595000D03*
%TO.P,U1,37,PA17*%
%TO.N,unconnected-(U1-Pad37)*%
X56195000Y60055000D03*
%TO.P,U1,38,SER2_TX*%
%TO.N,unconnected-(U1-Pad38)*%
X56195000Y57515000D03*
%TO.P,U1,39,PA19*%
%TO.N,unconnected-(U1-Pad39)*%
X56195000Y54975000D03*
%TO.P,U1,40,D8*%
%TO.N,unconnected-(U1-Pad40)*%
X56195000Y52435000D03*
%TO.P,U1,41,D9*%
%TO.N,unconnected-(U1-Pad41)*%
X56195000Y49895000D03*
%TO.P,U1,42,GND*%
%TO.N,unconnected-(U1-Pad42)*%
X56195000Y47355000D03*
%TO.P,U1,43,NRST*%
%TO.N,unconnected-(U1-Pad43)*%
X56195000Y43755000D03*
%TO.P,U1,44,SER_TX*%
%TO.N,unconnected-(U1-Pad44)*%
X56195000Y41215000D03*
%TO.P,U1,45,SER_RX*%
%TO.N,unconnected-(U1-Pad45)*%
X56195000Y38675000D03*
%TO.P,U1,46,D12*%
%TO.N,unconnected-(U1-Pad46)*%
X56195000Y36135000D03*
%TO.P,U1,47,SPI_MISO*%
%TO.N,unconnected-(U1-Pad47)*%
X56195000Y33595000D03*
%TO.P,U1,48,SPI_SS*%
%TO.N,unconnected-(U1-Pad48)*%
X56195000Y31055000D03*
%TO.P,U1,49,SPI_MOSI*%
%TO.N,unconnected-(U1-Pad49)*%
X56195000Y28515000D03*
%TO.P,U1,50,SPI_SCK*%
%TO.N,unconnected-(U1-Pad50)*%
X56195000Y25975000D03*
%TO.P,U1,51,D15*%
%TO.N,unconnected-(U1-Pad51)*%
X56195000Y23435000D03*
%TO.P,U1,52,BAT_ENA*%
%TO.N,/BAT_ENA_PIN*%
X56195000Y20895000D03*
%TO.P,U1,53,PB11*%
%TO.N,unconnected-(U1-Pad53)*%
X56195000Y18355000D03*
%TO.P,U1,54,PB10*%
%TO.N,unconnected-(U1-Pad54)*%
X56195000Y15815000D03*
%TO.P,U1,55,ESP_RXD0*%
%TO.N,unconnected-(U1-Pad55)*%
X56195000Y13275000D03*
%TO.P,U1,56,ESP_TXD0*%
%TO.N,unconnected-(U1-Pad56)*%
X56195000Y10735000D03*
%TD*%
D18*
%TO.N,/UART_DEBUG_RX*%
X36020000Y57980000D02*
X49000000Y45000000D01*
X32240000Y57980000D02*
X36020000Y57980000D01*
X49000000Y45000000D02*
X49000000Y11000000D01*
%TO.N,Net-(J1-Pad1)*%
X40000000Y48000000D02*
X40000000Y11000000D01*
X35100000Y52900000D02*
X40000000Y48000000D01*
X32240000Y52900000D02*
X35100000Y52900000D01*
D19*
%TO.N,Net-(U1-Pad9)*%
X14680000Y70680000D02*
X17000000Y70680000D01*
X11035000Y67035000D02*
X14680000Y70680000D01*
X9795000Y67035000D02*
X11035000Y67035000D01*
%TO.N,Net-(U1-Pad14)*%
X10835000Y51835000D02*
X12900000Y53900000D01*
X9795000Y51835000D02*
X10835000Y51835000D01*
X14877258Y68140000D02*
X17000000Y68140000D01*
X12900000Y53900000D02*
X12900000Y66162742D01*
X12900000Y66162742D02*
X14877258Y68140000D01*
D18*
%TO.N,/UART_DEBUG_TX*%
X38480000Y60520000D02*
X32240000Y60520000D01*
X51500000Y47500000D02*
X38480000Y60520000D01*
X51500000Y11000000D02*
X51500000Y47500000D01*
%TO.N,/BAT_ENA_PIN*%
X56105000Y26895000D02*
X60195000Y26895000D01*
X44940000Y63060000D02*
X55000000Y53000000D01*
X32240000Y63060000D02*
X44940000Y63060000D01*
X55000000Y28000000D02*
X56105000Y26895000D01*
X55000000Y53000000D02*
X55000000Y28000000D01*
D19*
%TO.N,Net-(U2-Pad4)*%
X25380000Y34000000D02*
X25380000Y55120000D01*
X19980000Y60520000D02*
X17000000Y60520000D01*
X25380000Y55120000D02*
X19980000Y60520000D01*
%TO.N,Net-(U2-Pad3)*%
X27920000Y54842742D02*
X27920000Y34000000D01*
X19702742Y63060000D02*
X27920000Y54842742D01*
X17000000Y63060000D02*
X19702742Y63060000D01*
%TO.N,Net-(U2-Pad5)*%
X13220000Y51957258D02*
X14500000Y53237258D01*
X21000000Y30000000D02*
X15000000Y30000000D01*
X14500000Y53237258D02*
X14500000Y64500000D01*
X22840000Y34000000D02*
X22840000Y31840000D01*
X15600000Y65600000D02*
X17000000Y65600000D01*
X13220000Y31780000D02*
X13220000Y51957258D01*
X14500000Y64500000D02*
X15600000Y65600000D01*
X15000000Y30000000D02*
X13220000Y31780000D01*
X22840000Y31840000D02*
X21000000Y30000000D01*
%TO.N,Net-(U3-Pad6)*%
X15200000Y78300000D02*
X17000000Y78300000D01*
X13000000Y80500000D02*
X15200000Y78300000D01*
X12185000Y84815000D02*
X13000000Y84000000D01*
X13000000Y84000000D02*
X13000000Y80500000D01*
X9795000Y84815000D02*
X12185000Y84815000D01*
D18*
%TO.N,Net-(U3-Pad35)*%
X51325000Y69325000D02*
X51325000Y72000000D01*
X50000000Y68000000D02*
X51325000Y69325000D01*
X35369848Y77130152D02*
X35369848Y70107413D01*
X34200000Y78300000D02*
X35369848Y77130152D01*
X32240000Y78300000D02*
X34200000Y78300000D01*
X37477261Y68000000D02*
X50000000Y68000000D01*
X35369848Y70107413D02*
X37477261Y68000000D01*
%TO.N,Net-(U3-Pad36)*%
X48785000Y78215000D02*
X46160000Y80840000D01*
X46160000Y80840000D02*
X32240000Y80840000D01*
X48785000Y72000000D02*
X48785000Y78215000D01*
%TO.N,Net-(U2-Pad6)*%
X17000000Y52900000D02*
X19100000Y52900000D01*
X20300000Y51700000D02*
X20300000Y34000000D01*
X19100000Y52900000D02*
X20300000Y51700000D01*
%TO.N,+3.3V*%
X30080000Y85920000D02*
X32240000Y85920000D01*
X29000000Y96000000D02*
X29000000Y94500000D01*
X6000000Y28995008D02*
X6000000Y20000000D01*
X29000000Y87000000D02*
X30080000Y85920000D01*
X6000000Y20000000D02*
X8000000Y18000000D01*
X52000000Y96000000D02*
X29000000Y96000000D01*
X33000000Y22000000D02*
X33000000Y34000000D01*
X29000000Y94500000D02*
X29000000Y87000000D01*
X29000000Y18000000D02*
X33000000Y22000000D01*
X13000000Y96000000D02*
X6000000Y89000000D01*
X6000000Y89000000D02*
X6000000Y29575000D01*
X9795000Y28995008D02*
X6595000Y28995008D01*
X56405000Y72000000D02*
X56405000Y91595000D01*
X29000000Y94500000D02*
X29000000Y95250000D01*
X8000000Y18000000D02*
X29000000Y18000000D01*
X56405000Y91595000D02*
X52000000Y96000000D01*
X13000000Y96000000D02*
X29000000Y96000000D01*
%TO.N,Net-(J3-Pad1)*%
X45000000Y85000000D02*
X43380000Y83380000D01*
X43380000Y83380000D02*
X32240000Y83380000D01*
X45000000Y92000000D02*
X45000000Y85000000D01*
D19*
%TO.N,Net-(U1-Pad4)*%
X11265000Y79735000D02*
X15240000Y75760000D01*
X9795000Y79735000D02*
X11265000Y79735000D01*
X15240000Y75760000D02*
X17000000Y75760000D01*
%TD*%
%TA.AperFunction,Conductor*%
%TO.N,GND*%
G36*
X9849246Y94904498D02*
G01*
X9895739Y94850842D01*
X9905843Y94780568D01*
X9876349Y94715988D01*
X9870220Y94709405D01*
X6981603Y91820788D01*
X6919291Y91786762D01*
X6848476Y91791827D01*
X6791640Y91834374D01*
X6768929Y91885301D01*
X6727686Y92092641D01*
X6727684Y92092647D01*
X6726880Y92096691D01*
X6680947Y92232007D01*
X6631271Y92378346D01*
X6631271Y92378347D01*
X6629945Y92382252D01*
X6566865Y92510166D01*
X6498393Y92649014D01*
X6498390Y92649019D01*
X6496566Y92652718D01*
X6456643Y92712467D01*
X6331318Y92900030D01*
X6331314Y92900035D01*
X6329025Y92903461D01*
X6326311Y92906555D01*
X6326307Y92906561D01*
X6132898Y93127100D01*
X6130189Y93130189D01*
X6127100Y93132898D01*
X5906561Y93326307D01*
X5906555Y93326311D01*
X5903461Y93329025D01*
X5900035Y93331314D01*
X5900030Y93331318D01*
X5656151Y93494272D01*
X5652718Y93496566D01*
X5649019Y93498390D01*
X5649014Y93498393D01*
X5510166Y93566865D01*
X5382252Y93629945D01*
X5378346Y93631271D01*
X5100604Y93725552D01*
X5100600Y93725553D01*
X5096691Y93726880D01*
X5092647Y93727684D01*
X5092641Y93727686D01*
X4804959Y93784910D01*
X4804953Y93784911D01*
X4800920Y93785713D01*
X4796815Y93785982D01*
X4796808Y93785983D01*
X4577359Y93800366D01*
X4577350Y93800366D01*
X4575310Y93800500D01*
X4424690Y93800500D01*
X4422650Y93800366D01*
X4422641Y93800366D01*
X4203192Y93785983D01*
X4203185Y93785982D01*
X4199080Y93785713D01*
X4195047Y93784911D01*
X4195041Y93784910D01*
X3907359Y93727686D01*
X3907353Y93727684D01*
X3903309Y93726880D01*
X3899400Y93725553D01*
X3899396Y93725552D01*
X3621654Y93631271D01*
X3617748Y93629945D01*
X3489834Y93566865D01*
X3350986Y93498393D01*
X3350981Y93498390D01*
X3347282Y93496566D01*
X3343849Y93494272D01*
X3099970Y93331318D01*
X3099965Y93331314D01*
X3096539Y93329025D01*
X3093445Y93326311D01*
X3093439Y93326307D01*
X2872900Y93132898D01*
X2869811Y93130189D01*
X2867102Y93127100D01*
X2673693Y92906561D01*
X2673689Y92906555D01*
X2670975Y92903461D01*
X2668686Y92900035D01*
X2668682Y92900030D01*
X2543357Y92712467D01*
X2503434Y92652718D01*
X2501610Y92649019D01*
X2501607Y92649014D01*
X2433135Y92510166D01*
X2370055Y92382252D01*
X2368729Y92378347D01*
X2368729Y92378346D01*
X2319054Y92232007D01*
X2273120Y92096691D01*
X2272316Y92092647D01*
X2272314Y92092641D01*
X2231072Y91885301D01*
X2214287Y91800920D01*
X2194564Y91500000D01*
X2214287Y91199080D01*
X2215089Y91195047D01*
X2215090Y91195041D01*
X2253066Y91004125D01*
X2273120Y90903309D01*
X2370055Y90617748D01*
X2503434Y90347282D01*
X2670975Y90096539D01*
X2673689Y90093445D01*
X2673693Y90093439D01*
X2867102Y89872900D01*
X2869811Y89869811D01*
X2872900Y89867102D01*
X3093439Y89673693D01*
X3093445Y89673689D01*
X3096539Y89670975D01*
X3099965Y89668686D01*
X3099970Y89668682D01*
X3287533Y89543357D01*
X3347282Y89503434D01*
X3350981Y89501610D01*
X3350986Y89501607D01*
X3489834Y89433135D01*
X3617748Y89370055D01*
X3621653Y89368729D01*
X3621654Y89368729D01*
X3899396Y89274448D01*
X3899400Y89274447D01*
X3903309Y89273120D01*
X3907353Y89272316D01*
X3907359Y89272314D01*
X4195041Y89215090D01*
X4195047Y89215089D01*
X4199080Y89214287D01*
X4203185Y89214018D01*
X4203192Y89214017D01*
X4422641Y89199634D01*
X4422650Y89199634D01*
X4424690Y89199500D01*
X4573499Y89199500D01*
X4641620Y89179498D01*
X4688113Y89125842D01*
X4699499Y89073500D01*
X4699499Y88886233D01*
X4699500Y88886209D01*
X4699500Y83054539D01*
X4679498Y82986418D01*
X4628339Y82941099D01*
X4515734Y82886664D01*
X4510226Y82882267D01*
X4487310Y82863973D01*
X4375380Y82774620D01*
X4263336Y82634266D01*
X4185173Y82472577D01*
X4144774Y82297589D01*
X4144500Y82292837D01*
X4144501Y80417164D01*
X4144774Y80412411D01*
X4185173Y80237423D01*
X4214885Y80175961D01*
X4246195Y80111193D01*
X4263336Y80075734D01*
X4375380Y79935380D01*
X4402864Y79913440D01*
X4443621Y79855309D01*
X4446481Y79784370D01*
X4431686Y79749136D01*
X4319846Y79566628D01*
X4317953Y79562058D01*
X4317951Y79562054D01*
X4236636Y79365743D01*
X4220427Y79326610D01*
X4219272Y79321798D01*
X4160934Y79078807D01*
X4160933Y79078801D01*
X4159779Y79073994D01*
X4139396Y78815000D01*
X4159779Y78556006D01*
X4160933Y78551199D01*
X4160934Y78551193D01*
X4168132Y78521212D01*
X4220427Y78303390D01*
X4222320Y78298819D01*
X4222321Y78298817D01*
X4309206Y78089060D01*
X4319846Y78063372D01*
X4455588Y77841860D01*
X4624311Y77644311D01*
X4628067Y77641103D01*
X4628072Y77641098D01*
X4628408Y77640811D01*
X4628500Y77640670D01*
X4631575Y77637595D01*
X4630929Y77636949D01*
X4667217Y77581361D01*
X4667725Y77510366D01*
X4630905Y77453075D01*
X4631575Y77452405D01*
X4628496Y77449326D01*
X4628408Y77449189D01*
X4628072Y77448902D01*
X4628067Y77448897D01*
X4624311Y77445689D01*
X4455588Y77248140D01*
X4319846Y77026628D01*
X4317953Y77022058D01*
X4317951Y77022054D01*
X4222321Y76791183D01*
X4220427Y76786610D01*
X4219272Y76781798D01*
X4160934Y76538807D01*
X4160933Y76538801D01*
X4159779Y76533994D01*
X4139396Y76275000D01*
X4159779Y76016006D01*
X4160933Y76011199D01*
X4160934Y76011193D01*
X4168798Y75978439D01*
X4220427Y75763390D01*
X4222320Y75758819D01*
X4222321Y75758817D01*
X4309206Y75549060D01*
X4319846Y75523372D01*
X4455588Y75301860D01*
X4624311Y75104311D01*
X4628067Y75101103D01*
X4628072Y75101098D01*
X4628408Y75100811D01*
X4628500Y75100670D01*
X4631575Y75097595D01*
X4630929Y75096949D01*
X4667217Y75041361D01*
X4667725Y74970366D01*
X4630905Y74913075D01*
X4631575Y74912405D01*
X4628496Y74909326D01*
X4628408Y74909189D01*
X4628072Y74908902D01*
X4628067Y74908897D01*
X4624311Y74905689D01*
X4455588Y74708140D01*
X4319846Y74486628D01*
X4317953Y74482058D01*
X4317951Y74482054D01*
X4222321Y74251183D01*
X4220427Y74246610D01*
X4219272Y74241798D01*
X4160934Y73998807D01*
X4160933Y73998801D01*
X4159779Y73993994D01*
X4139396Y73735000D01*
X4159779Y73476006D01*
X4160933Y73471199D01*
X4160934Y73471193D01*
X4168798Y73438439D01*
X4220427Y73223390D01*
X4222320Y73218819D01*
X4222321Y73218817D01*
X4309206Y73009060D01*
X4319846Y72983372D01*
X4455588Y72761860D01*
X4624311Y72564311D01*
X4628067Y72561103D01*
X4628072Y72561098D01*
X4628408Y72560811D01*
X4628500Y72560670D01*
X4631575Y72557595D01*
X4630929Y72556949D01*
X4667217Y72501361D01*
X4667725Y72430366D01*
X4630905Y72373075D01*
X4631575Y72372405D01*
X4628496Y72369326D01*
X4628408Y72369189D01*
X4628072Y72368902D01*
X4628067Y72368897D01*
X4624311Y72365689D01*
X4455588Y72168140D01*
X4319846Y71946628D01*
X4317953Y71942058D01*
X4317951Y71942054D01*
X4222321Y71711183D01*
X4220427Y71706610D01*
X4219272Y71701798D01*
X4160934Y71458807D01*
X4160933Y71458801D01*
X4159779Y71453994D01*
X4139396Y71195000D01*
X4159779Y70936006D01*
X4160933Y70931199D01*
X4160934Y70931193D01*
X4197163Y70780292D01*
X4220427Y70683390D01*
X4222320Y70678819D01*
X4222321Y70678817D01*
X4309206Y70469060D01*
X4319846Y70443372D01*
X4455588Y70221860D01*
X4624311Y70024311D01*
X4628067Y70021103D01*
X4628072Y70021098D01*
X4628408Y70020811D01*
X4628500Y70020670D01*
X4631575Y70017595D01*
X4630929Y70016949D01*
X4667217Y69961361D01*
X4667725Y69890366D01*
X4630905Y69833075D01*
X4631575Y69832405D01*
X4628496Y69829326D01*
X4628408Y69829189D01*
X4628072Y69828902D01*
X4628067Y69828897D01*
X4624311Y69825689D01*
X4455588Y69628140D01*
X4319846Y69406628D01*
X4317953Y69402058D01*
X4317951Y69402054D01*
X4236660Y69205800D01*
X4220427Y69166610D01*
X4217660Y69155083D01*
X4160934Y68918807D01*
X4160933Y68918801D01*
X4159779Y68913994D01*
X4139396Y68655000D01*
X4159779Y68396006D01*
X4160933Y68391199D01*
X4160934Y68391193D01*
X4189453Y68272405D01*
X4220427Y68143390D01*
X4222320Y68138819D01*
X4222321Y68138817D01*
X4310171Y67926730D01*
X4319846Y67903372D01*
X4455588Y67681860D01*
X4624311Y67484311D01*
X4628067Y67481103D01*
X4628072Y67481098D01*
X4628408Y67480811D01*
X4628500Y67480670D01*
X4631575Y67477595D01*
X4630929Y67476949D01*
X4667217Y67421361D01*
X4667725Y67350366D01*
X4630905Y67293075D01*
X4631575Y67292405D01*
X4628496Y67289326D01*
X4628408Y67289189D01*
X4628072Y67288902D01*
X4628067Y67288897D01*
X4624311Y67285689D01*
X4455588Y67088140D01*
X4319846Y66866628D01*
X4317953Y66862058D01*
X4317951Y66862054D01*
X4230591Y66651148D01*
X4220427Y66626610D01*
X4219272Y66621798D01*
X4160934Y66378807D01*
X4160933Y66378801D01*
X4159779Y66373994D01*
X4139396Y66115000D01*
X4159779Y65856006D01*
X4160933Y65851199D01*
X4160934Y65851193D01*
X4194078Y65713140D01*
X4220427Y65603390D01*
X4222320Y65598819D01*
X4222321Y65598817D01*
X4309206Y65389060D01*
X4319846Y65363372D01*
X4455588Y65141860D01*
X4624311Y64944311D01*
X4628067Y64941103D01*
X4628072Y64941098D01*
X4628408Y64940811D01*
X4628500Y64940670D01*
X4631575Y64937595D01*
X4630929Y64936949D01*
X4667217Y64881361D01*
X4667725Y64810366D01*
X4630905Y64753075D01*
X4631575Y64752405D01*
X4628496Y64749326D01*
X4628408Y64749189D01*
X4628072Y64748902D01*
X4628067Y64748897D01*
X4624311Y64745689D01*
X4455588Y64548140D01*
X4319846Y64326628D01*
X4317953Y64322058D01*
X4317951Y64322054D01*
X4232596Y64115989D01*
X4220427Y64086610D01*
X4211616Y64049908D01*
X4160934Y63838807D01*
X4160933Y63838801D01*
X4159779Y63833994D01*
X4139396Y63575000D01*
X4159779Y63316006D01*
X4160933Y63311199D01*
X4160934Y63311193D01*
X4168132Y63281212D01*
X4220427Y63063390D01*
X4222320Y63058819D01*
X4222321Y63058817D01*
X4309206Y62849060D01*
X4319846Y62823372D01*
X4455588Y62601860D01*
X4624311Y62404311D01*
X4628067Y62401103D01*
X4628072Y62401098D01*
X4628408Y62400811D01*
X4628500Y62400670D01*
X4631575Y62397595D01*
X4630929Y62396949D01*
X4667217Y62341361D01*
X4667725Y62270366D01*
X4630905Y62213075D01*
X4631575Y62212405D01*
X4628496Y62209326D01*
X4628408Y62209189D01*
X4628072Y62208902D01*
X4628067Y62208897D01*
X4624311Y62205689D01*
X4455588Y62008140D01*
X4319846Y61786628D01*
X4317953Y61782058D01*
X4317951Y61782054D01*
X4236636Y61585743D01*
X4220427Y61546610D01*
X4219272Y61541798D01*
X4160934Y61298807D01*
X4160933Y61298801D01*
X4159779Y61293994D01*
X4139396Y61035000D01*
X4159779Y60776006D01*
X4160933Y60771199D01*
X4160934Y60771193D01*
X4168132Y60741212D01*
X4220427Y60523390D01*
X4222320Y60518819D01*
X4222321Y60518817D01*
X4309206Y60309060D01*
X4319846Y60283372D01*
X4455588Y60061860D01*
X4624311Y59864311D01*
X4628067Y59861103D01*
X4628072Y59861098D01*
X4628408Y59860811D01*
X4628500Y59860670D01*
X4631575Y59857595D01*
X4630929Y59856949D01*
X4667217Y59801361D01*
X4667725Y59730366D01*
X4630905Y59673075D01*
X4631575Y59672405D01*
X4628496Y59669326D01*
X4628408Y59669189D01*
X4628072Y59668902D01*
X4628067Y59668897D01*
X4624311Y59665689D01*
X4455588Y59468140D01*
X4319846Y59246628D01*
X4317953Y59242058D01*
X4317951Y59242054D01*
X4236636Y59045743D01*
X4220427Y59006610D01*
X4219272Y59001798D01*
X4160934Y58758807D01*
X4160933Y58758801D01*
X4159779Y58753994D01*
X4139396Y58495000D01*
X4159779Y58236006D01*
X4160933Y58231199D01*
X4160934Y58231193D01*
X4168132Y58201212D01*
X4220427Y57983390D01*
X4222320Y57978819D01*
X4222321Y57978817D01*
X4309206Y57769060D01*
X4319846Y57743372D01*
X4455588Y57521860D01*
X4624311Y57324311D01*
X4628067Y57321103D01*
X4655331Y57297817D01*
X4694140Y57238366D01*
X4699500Y57202006D01*
X4699500Y54747994D01*
X4679498Y54679873D01*
X4655331Y54652183D01*
X4624311Y54625689D01*
X4455588Y54428140D01*
X4319846Y54206628D01*
X4317953Y54202058D01*
X4317951Y54202054D01*
X4222321Y53971183D01*
X4220427Y53966610D01*
X4199220Y53878276D01*
X4160934Y53718807D01*
X4160933Y53718801D01*
X4159779Y53713994D01*
X4139396Y53455000D01*
X4159779Y53196006D01*
X4160933Y53191199D01*
X4160934Y53191193D01*
X4187495Y53080559D01*
X4220427Y52943390D01*
X4222320Y52938819D01*
X4222321Y52938817D01*
X4310171Y52726730D01*
X4319846Y52703372D01*
X4455588Y52481860D01*
X4624311Y52284311D01*
X4628067Y52281103D01*
X4628072Y52281098D01*
X4628408Y52280811D01*
X4628500Y52280670D01*
X4631575Y52277595D01*
X4630929Y52276949D01*
X4667217Y52221361D01*
X4667725Y52150366D01*
X4630905Y52093075D01*
X4631575Y52092405D01*
X4628496Y52089326D01*
X4628408Y52089189D01*
X4628072Y52088902D01*
X4628067Y52088897D01*
X4624311Y52085689D01*
X4455588Y51888140D01*
X4319846Y51666628D01*
X4317953Y51662058D01*
X4317951Y51662054D01*
X4235028Y51461860D01*
X4220427Y51426610D01*
X4219272Y51421798D01*
X4160934Y51178807D01*
X4160933Y51178801D01*
X4159779Y51173994D01*
X4139396Y50915000D01*
X4159779Y50656006D01*
X4160933Y50651199D01*
X4160934Y50651193D01*
X4185152Y50550321D01*
X4220427Y50403390D01*
X4222320Y50398819D01*
X4222321Y50398817D01*
X4289500Y50236634D01*
X4319846Y50163372D01*
X4455588Y49941860D01*
X4624311Y49744311D01*
X4628067Y49741103D01*
X4628072Y49741098D01*
X4628408Y49740811D01*
X4628500Y49740670D01*
X4631575Y49737595D01*
X4630929Y49736949D01*
X4667217Y49681361D01*
X4667725Y49610366D01*
X4630905Y49553075D01*
X4631575Y49552405D01*
X4628496Y49549326D01*
X4628408Y49549189D01*
X4628072Y49548902D01*
X4628067Y49548897D01*
X4624311Y49545689D01*
X4455588Y49348140D01*
X4319846Y49126628D01*
X4317953Y49122058D01*
X4317951Y49122054D01*
X4235028Y48921860D01*
X4220427Y48886610D01*
X4219272Y48881798D01*
X4160934Y48638807D01*
X4160933Y48638801D01*
X4159779Y48633994D01*
X4139396Y48375000D01*
X4159779Y48116006D01*
X4160933Y48111199D01*
X4160934Y48111193D01*
X4186831Y48003327D01*
X4220427Y47863390D01*
X4222320Y47858819D01*
X4222321Y47858817D01*
X4300567Y47669916D01*
X4319846Y47623372D01*
X4455588Y47401860D01*
X4624311Y47204311D01*
X4628067Y47201103D01*
X4628072Y47201098D01*
X4628408Y47200811D01*
X4628500Y47200670D01*
X4631575Y47197595D01*
X4630929Y47196949D01*
X4667217Y47141361D01*
X4667725Y47070366D01*
X4630905Y47013075D01*
X4631575Y47012405D01*
X4628496Y47009326D01*
X4628408Y47009189D01*
X4628072Y47008902D01*
X4628067Y47008897D01*
X4624311Y47005689D01*
X4455588Y46808140D01*
X4319846Y46586628D01*
X4317953Y46582058D01*
X4317951Y46582054D01*
X4235028Y46381860D01*
X4220427Y46346610D01*
X4219272Y46341798D01*
X4160934Y46098807D01*
X4160933Y46098801D01*
X4159779Y46093994D01*
X4139396Y45835000D01*
X4159779Y45576006D01*
X4160933Y45571199D01*
X4160934Y45571193D01*
X4197605Y45418449D01*
X4220427Y45323390D01*
X4222320Y45318819D01*
X4222321Y45318817D01*
X4314204Y45096994D01*
X4319846Y45083372D01*
X4455588Y44861860D01*
X4624311Y44664311D01*
X4628067Y44661103D01*
X4628072Y44661098D01*
X4628408Y44660811D01*
X4628500Y44660670D01*
X4631575Y44657595D01*
X4630929Y44656949D01*
X4667217Y44601361D01*
X4667725Y44530366D01*
X4630905Y44473075D01*
X4631575Y44472405D01*
X4628496Y44469326D01*
X4628408Y44469189D01*
X4628072Y44468902D01*
X4628067Y44468897D01*
X4624311Y44465689D01*
X4455588Y44268140D01*
X4319846Y44046628D01*
X4317953Y44042058D01*
X4317951Y44042054D01*
X4222321Y43811183D01*
X4220427Y43806610D01*
X4206853Y43750070D01*
X4160934Y43558807D01*
X4160933Y43558801D01*
X4159779Y43553994D01*
X4139396Y43295000D01*
X4159779Y43036006D01*
X4160933Y43031199D01*
X4160934Y43031193D01*
X4199220Y42871724D01*
X4220427Y42783390D01*
X4222320Y42778819D01*
X4222321Y42778817D01*
X4305948Y42576925D01*
X4319846Y42543372D01*
X4455588Y42321860D01*
X4624311Y42124311D01*
X4628067Y42121103D01*
X4628072Y42121098D01*
X4628408Y42120811D01*
X4628500Y42120670D01*
X4631575Y42117595D01*
X4630929Y42116949D01*
X4667217Y42061361D01*
X4667725Y41990366D01*
X4630905Y41933075D01*
X4631575Y41932405D01*
X4628496Y41929326D01*
X4628408Y41929189D01*
X4628072Y41928902D01*
X4628067Y41928897D01*
X4624311Y41925689D01*
X4455588Y41728140D01*
X4319846Y41506628D01*
X4317953Y41502058D01*
X4317951Y41502054D01*
X4222321Y41271183D01*
X4220427Y41266610D01*
X4206853Y41210070D01*
X4160934Y41018807D01*
X4160933Y41018801D01*
X4159779Y41013994D01*
X4139396Y40755000D01*
X4159779Y40496006D01*
X4160933Y40491199D01*
X4160934Y40491193D01*
X4199220Y40331724D01*
X4220427Y40243390D01*
X4222320Y40238819D01*
X4222321Y40238817D01*
X4305948Y40036925D01*
X4319846Y40003372D01*
X4455588Y39781860D01*
X4624311Y39584311D01*
X4628067Y39581103D01*
X4628072Y39581098D01*
X4628408Y39580811D01*
X4628500Y39580670D01*
X4631575Y39577595D01*
X4630929Y39576949D01*
X4667217Y39521361D01*
X4667725Y39450366D01*
X4630905Y39393075D01*
X4631575Y39392405D01*
X4628496Y39389326D01*
X4628408Y39389189D01*
X4628072Y39388902D01*
X4628067Y39388897D01*
X4624311Y39385689D01*
X4455588Y39188140D01*
X4319846Y38966628D01*
X4317953Y38962058D01*
X4317951Y38962054D01*
X4222321Y38731183D01*
X4220427Y38726610D01*
X4206853Y38670070D01*
X4160934Y38478807D01*
X4160933Y38478801D01*
X4159779Y38473994D01*
X4139396Y38215000D01*
X4159779Y37956006D01*
X4160933Y37951199D01*
X4160934Y37951193D01*
X4199220Y37791724D01*
X4220427Y37703390D01*
X4222320Y37698819D01*
X4222321Y37698817D01*
X4305948Y37496925D01*
X4319846Y37463372D01*
X4455588Y37241860D01*
X4624311Y37044311D01*
X4628067Y37041103D01*
X4628072Y37041098D01*
X4628408Y37040811D01*
X4628500Y37040670D01*
X4631575Y37037595D01*
X4630929Y37036949D01*
X4667217Y36981361D01*
X4667725Y36910366D01*
X4630905Y36853075D01*
X4631575Y36852405D01*
X4628496Y36849326D01*
X4628408Y36849189D01*
X4628072Y36848902D01*
X4628067Y36848897D01*
X4624311Y36845689D01*
X4455588Y36648140D01*
X4319846Y36426628D01*
X4317953Y36422058D01*
X4317951Y36422054D01*
X4222321Y36191183D01*
X4220427Y36186610D01*
X4206853Y36130070D01*
X4160934Y35938807D01*
X4160933Y35938801D01*
X4159779Y35933994D01*
X4139396Y35675000D01*
X4159779Y35416006D01*
X4160933Y35411199D01*
X4160934Y35411193D01*
X4194131Y35272922D01*
X4220427Y35163390D01*
X4222320Y35158819D01*
X4222321Y35158817D01*
X4313855Y34937836D01*
X4319846Y34923372D01*
X4455588Y34701860D01*
X4624311Y34504311D01*
X4628067Y34501103D01*
X4628072Y34501098D01*
X4628408Y34500811D01*
X4628500Y34500670D01*
X4631575Y34497595D01*
X4630929Y34496949D01*
X4667217Y34441361D01*
X4667725Y34370366D01*
X4630905Y34313075D01*
X4631575Y34312405D01*
X4628496Y34309326D01*
X4628408Y34309189D01*
X4628072Y34308902D01*
X4628067Y34308897D01*
X4624311Y34305689D01*
X4455588Y34108140D01*
X4319846Y33886628D01*
X4317953Y33882058D01*
X4317951Y33882054D01*
X4222321Y33651183D01*
X4220427Y33646610D01*
X4206853Y33590070D01*
X4160934Y33398807D01*
X4160933Y33398801D01*
X4159779Y33393994D01*
X4139396Y33135000D01*
X4159779Y32876006D01*
X4160933Y32871199D01*
X4160934Y32871193D01*
X4181139Y32787035D01*
X4220427Y32623390D01*
X4222320Y32618819D01*
X4222321Y32618817D01*
X4305948Y32416925D01*
X4319846Y32383372D01*
X4455588Y32161860D01*
X4624311Y31964311D01*
X4628067Y31961103D01*
X4628072Y31961098D01*
X4628408Y31960811D01*
X4628500Y31960670D01*
X4631575Y31957595D01*
X4630929Y31956949D01*
X4667217Y31901361D01*
X4667725Y31830366D01*
X4630905Y31773075D01*
X4631575Y31772405D01*
X4628496Y31769326D01*
X4628408Y31769189D01*
X4628072Y31768902D01*
X4628067Y31768897D01*
X4624311Y31765689D01*
X4455588Y31568140D01*
X4319846Y31346628D01*
X4317953Y31342058D01*
X4317951Y31342054D01*
X4225485Y31118822D01*
X4220427Y31106610D01*
X4206921Y31050352D01*
X4160934Y30858807D01*
X4160933Y30858801D01*
X4159779Y30853994D01*
X4139396Y30595000D01*
X4159779Y30336006D01*
X4160933Y30331199D01*
X4160934Y30331193D01*
X4187210Y30221747D01*
X4220427Y30083390D01*
X4222320Y30078819D01*
X4222321Y30078817D01*
X4305948Y29876925D01*
X4319846Y29843372D01*
X4455588Y29621860D01*
X4624311Y29424311D01*
X4628067Y29421103D01*
X4628072Y29421098D01*
X4628408Y29420811D01*
X4628500Y29420670D01*
X4631575Y29417595D01*
X4630929Y29416949D01*
X4667217Y29361361D01*
X4667725Y29290366D01*
X4630906Y29233068D01*
X4631573Y29232401D01*
X4628510Y29229339D01*
X4628421Y29229199D01*
X4624311Y29225689D01*
X4621098Y29221927D01*
X4621096Y29221925D01*
X4585149Y29179836D01*
X4455588Y29028140D01*
X4319846Y28806628D01*
X4317953Y28802058D01*
X4317951Y28802054D01*
X4301775Y28763001D01*
X4220427Y28566610D01*
X4206853Y28510070D01*
X4160934Y28318807D01*
X4160933Y28318801D01*
X4159779Y28313994D01*
X4139396Y28055000D01*
X4159779Y27796006D01*
X4160933Y27791199D01*
X4160934Y27791193D01*
X4184707Y27692174D01*
X4220427Y27543390D01*
X4222320Y27538819D01*
X4222321Y27538817D01*
X4289500Y27376634D01*
X4319846Y27303372D01*
X4455588Y27081860D01*
X4624311Y26884311D01*
X4628067Y26881103D01*
X4628072Y26881098D01*
X4628408Y26880811D01*
X4628500Y26880670D01*
X4631575Y26877595D01*
X4630929Y26876949D01*
X4667217Y26821361D01*
X4667725Y26750366D01*
X4630905Y26693075D01*
X4631575Y26692405D01*
X4628496Y26689326D01*
X4628408Y26689189D01*
X4628072Y26688902D01*
X4628067Y26688897D01*
X4624311Y26685689D01*
X4455588Y26488140D01*
X4319846Y26266628D01*
X4317953Y26262058D01*
X4317951Y26262054D01*
X4234412Y26060373D01*
X4220427Y26026610D01*
X4199220Y25938276D01*
X4160934Y25778807D01*
X4160933Y25778801D01*
X4159779Y25773994D01*
X4139396Y25515000D01*
X4159779Y25256006D01*
X4160933Y25251199D01*
X4160934Y25251193D01*
X4199220Y25091724D01*
X4220427Y25003390D01*
X4222320Y24998819D01*
X4222321Y24998817D01*
X4305948Y24796925D01*
X4319846Y24763372D01*
X4455588Y24541860D01*
X4624311Y24344311D01*
X4625518Y24343280D01*
X4659097Y24281787D01*
X4654032Y24210972D01*
X4625694Y24166878D01*
X4624311Y24165697D01*
X4455588Y23968148D01*
X4319846Y23746636D01*
X4317953Y23742066D01*
X4317951Y23742062D01*
X4222321Y23511191D01*
X4220427Y23506618D01*
X4219272Y23501806D01*
X4160934Y23258815D01*
X4160933Y23258809D01*
X4159779Y23254002D01*
X4139396Y22995008D01*
X4159779Y22736014D01*
X4160933Y22731207D01*
X4160934Y22731201D01*
X4171319Y22687946D01*
X4220427Y22483398D01*
X4222320Y22478827D01*
X4222321Y22478825D01*
X4314226Y22256949D01*
X4319846Y22243380D01*
X4455588Y22021868D01*
X4624311Y21824319D01*
X4628067Y21821111D01*
X4655331Y21797825D01*
X4694140Y21738374D01*
X4699500Y21702014D01*
X4699500Y21277894D01*
X4677588Y21206889D01*
X4613091Y21112341D01*
X4608003Y21103385D01*
X4518338Y20910217D01*
X4514775Y20900530D01*
X4457864Y20695319D01*
X4455933Y20685200D01*
X4433302Y20473426D01*
X4433050Y20463137D01*
X4445309Y20250523D01*
X4446745Y20240303D01*
X4493565Y20032554D01*
X4496645Y20022725D01*
X4576770Y19825398D01*
X4581415Y19816203D01*
X4583008Y19813604D01*
X4594786Y19802948D01*
X4626954Y19797618D01*
X4629667Y19797948D01*
X4693594Y19767063D01*
X4730675Y19706519D01*
X4733124Y19695528D01*
X4739015Y19662120D01*
X4740895Y19656955D01*
X4740897Y19656947D01*
X4756626Y19613733D01*
X4759932Y19603248D01*
X4771836Y19558820D01*
X4771838Y19558814D01*
X4773261Y19553504D01*
X4787983Y19521933D01*
X4795026Y19506829D01*
X4799232Y19496673D01*
X4816844Y19448285D01*
X4819596Y19443519D01*
X4819597Y19443516D01*
X4842598Y19403677D01*
X4847668Y19393938D01*
X4853025Y19382449D01*
X4863687Y19312260D01*
X4834708Y19247447D01*
X4820662Y19233389D01*
X4624311Y19065689D01*
X4455588Y18868140D01*
X4319846Y18646628D01*
X4317953Y18642058D01*
X4317951Y18642054D01*
X4222321Y18411183D01*
X4220427Y18406610D01*
X4206853Y18350070D01*
X4160934Y18158807D01*
X4160933Y18158801D01*
X4159779Y18153994D01*
X4139396Y17895000D01*
X4159779Y17636006D01*
X4160933Y17631199D01*
X4160934Y17631193D01*
X4199220Y17471724D01*
X4220427Y17383390D01*
X4222320Y17378819D01*
X4222321Y17378817D01*
X4312602Y17160861D01*
X4319846Y17143372D01*
X4455588Y16921860D01*
X4624311Y16724311D01*
X4628067Y16721103D01*
X4628072Y16721098D01*
X4628408Y16720811D01*
X4628500Y16720670D01*
X4631575Y16717595D01*
X4630929Y16716949D01*
X4667217Y16661361D01*
X4667725Y16590366D01*
X4630905Y16533075D01*
X4631575Y16532405D01*
X4628496Y16529326D01*
X4628408Y16529189D01*
X4628072Y16528902D01*
X4628067Y16528897D01*
X4624311Y16525689D01*
X4455588Y16328140D01*
X4319846Y16106628D01*
X4317953Y16102058D01*
X4317951Y16102054D01*
X4222321Y15871183D01*
X4220427Y15866610D01*
X4206853Y15810070D01*
X4160934Y15618807D01*
X4160933Y15618801D01*
X4159779Y15613994D01*
X4139396Y15355000D01*
X4159779Y15096006D01*
X4160933Y15091199D01*
X4160934Y15091193D01*
X4199220Y14931724D01*
X4220427Y14843390D01*
X4222320Y14838819D01*
X4222321Y14838817D01*
X4305948Y14636925D01*
X4319846Y14603372D01*
X4455588Y14381860D01*
X4624311Y14184311D01*
X4821860Y14015588D01*
X5043372Y13879846D01*
X5047942Y13877953D01*
X5047946Y13877951D01*
X5278817Y13782321D01*
X5283390Y13780427D01*
X5371724Y13759220D01*
X5531193Y13720934D01*
X5531199Y13720933D01*
X5536006Y13719779D01*
X5795000Y13699396D01*
X6053994Y13719779D01*
X6058801Y13720933D01*
X6058807Y13720934D01*
X6218276Y13759220D01*
X6306610Y13780427D01*
X6311183Y13782321D01*
X6542054Y13877951D01*
X6542058Y13877953D01*
X6546628Y13879846D01*
X6768140Y14015588D01*
X6965689Y14184311D01*
X7134412Y14381860D01*
X7270154Y14603372D01*
X7284053Y14636925D01*
X7367679Y14838817D01*
X7367680Y14838819D01*
X7369573Y14843390D01*
X7390780Y14931724D01*
X7429066Y15091193D01*
X7429067Y15091199D01*
X7430221Y15096006D01*
X7450604Y15355000D01*
X7430221Y15613994D01*
X7429067Y15618801D01*
X7429066Y15618807D01*
X7383147Y15810070D01*
X7369573Y15866610D01*
X7367679Y15871183D01*
X7272049Y16102054D01*
X7272047Y16102058D01*
X7270154Y16106628D01*
X7134412Y16328140D01*
X6965689Y16525689D01*
X6961933Y16528897D01*
X6961928Y16528902D01*
X6961592Y16529189D01*
X6961500Y16529330D01*
X6958425Y16532405D01*
X6959071Y16533051D01*
X6922783Y16588639D01*
X6922275Y16659634D01*
X6959095Y16716925D01*
X6958425Y16717595D01*
X6961504Y16720674D01*
X6961592Y16720811D01*
X6961928Y16721098D01*
X6961933Y16721103D01*
X6965689Y16724311D01*
X6977432Y16738060D01*
X7109942Y16893209D01*
X7169393Y16932018D01*
X7240387Y16932524D01*
X7268753Y16920497D01*
X7295820Y16904870D01*
X7305076Y16898973D01*
X7347266Y16869432D01*
X7393946Y16847664D01*
X7403677Y16842598D01*
X7443516Y16819597D01*
X7443519Y16819596D01*
X7448285Y16816844D01*
X7453460Y16814960D01*
X7453461Y16814960D01*
X7496673Y16799232D01*
X7506826Y16795027D01*
X7553504Y16773261D01*
X7558814Y16771838D01*
X7558820Y16771836D01*
X7603248Y16759932D01*
X7613733Y16756626D01*
X7656947Y16740897D01*
X7656955Y16740895D01*
X7662120Y16739015D01*
X7707546Y16731005D01*
X7712836Y16730072D01*
X7723564Y16727694D01*
X7773308Y16714365D01*
X7778790Y16713885D01*
X7778798Y16713884D01*
X7824604Y16709876D01*
X7835501Y16708442D01*
X7874720Y16701527D01*
X7886221Y16699499D01*
X8113779Y16699499D01*
X8113783Y16699500D01*
X28886217Y16699500D01*
X28886221Y16699499D01*
X29113779Y16699499D01*
X29125280Y16701527D01*
X29164499Y16708442D01*
X29175396Y16709876D01*
X29221202Y16713884D01*
X29221210Y16713885D01*
X29226692Y16714365D01*
X29276436Y16727694D01*
X29287164Y16730072D01*
X29292454Y16731005D01*
X29337880Y16739015D01*
X29343045Y16740895D01*
X29343053Y16740897D01*
X29386267Y16756626D01*
X29396752Y16759932D01*
X29441180Y16771836D01*
X29441186Y16771838D01*
X29446496Y16773261D01*
X29493174Y16795027D01*
X29503327Y16799232D01*
X29546539Y16814960D01*
X29546540Y16814960D01*
X29551715Y16816844D01*
X29556481Y16819596D01*
X29556484Y16819597D01*
X29596323Y16842598D01*
X29606054Y16847664D01*
X29652734Y16869432D01*
X29694924Y16898973D01*
X29704170Y16904864D01*
X29748786Y16930623D01*
X29788235Y16963725D01*
X29796952Y16970414D01*
X29818768Y16985689D01*
X29839139Y16999953D01*
X30000047Y17160861D01*
X30000049Y17160864D01*
X33839136Y20999951D01*
X33839139Y20999953D01*
X34000047Y21160861D01*
X34029589Y21203053D01*
X34036279Y21211770D01*
X34065838Y21246997D01*
X34069377Y21251214D01*
X34095136Y21295830D01*
X34101027Y21305076D01*
X34130568Y21347266D01*
X34152336Y21393946D01*
X34157402Y21403677D01*
X34180403Y21443516D01*
X34180404Y21443519D01*
X34183156Y21448285D01*
X34200768Y21496673D01*
X34204974Y21506829D01*
X34224414Y21548519D01*
X34226739Y21553504D01*
X34228162Y21558814D01*
X34228164Y21558820D01*
X34240068Y21603248D01*
X34243374Y21613733D01*
X34259103Y21656947D01*
X34259105Y21656955D01*
X34260985Y21662120D01*
X34269928Y21712836D01*
X34272307Y21723567D01*
X34285635Y21773308D01*
X34286115Y21778790D01*
X34286116Y21778798D01*
X34290124Y21824604D01*
X34291558Y21835501D01*
X34299545Y21880800D01*
X34300501Y21886221D01*
X34300501Y22113779D01*
X34300500Y22113785D01*
X34300500Y32424648D01*
X34320502Y32492769D01*
X34347891Y32523119D01*
X34414117Y32575987D01*
X34419620Y32580380D01*
X34531664Y32720734D01*
X34609827Y32882423D01*
X34650226Y33057411D01*
X34650500Y33062163D01*
X34650499Y34937836D01*
X34650226Y34942589D01*
X34609827Y35117577D01*
X34531664Y35279266D01*
X34419620Y35419620D01*
X34279266Y35531664D01*
X34265624Y35538259D01*
X34134672Y35601563D01*
X34117577Y35609827D01*
X34058829Y35623390D01*
X33947788Y35649026D01*
X33947785Y35649026D01*
X33942589Y35650226D01*
X33937837Y35650500D01*
X33936013Y35650500D01*
X32991963Y35650499D01*
X32062164Y35650499D01*
X32057411Y35650226D01*
X31882423Y35609827D01*
X31865328Y35601563D01*
X31734377Y35538259D01*
X31720734Y35531664D01*
X31580380Y35419620D01*
X31539468Y35368371D01*
X31481339Y35327614D01*
X31410400Y35324754D01*
X31351904Y35357887D01*
X31307875Y35401916D01*
X31299467Y35408972D01*
X31121007Y35533931D01*
X31111511Y35539414D01*
X30914050Y35631491D01*
X30903760Y35635236D01*
X30877499Y35642273D01*
X30863401Y35641938D01*
X30860000Y35633997D01*
X30860000Y32371153D01*
X30863973Y32357622D01*
X30872521Y32356393D01*
X30903760Y32364764D01*
X30914050Y32368509D01*
X31111511Y32460586D01*
X31121007Y32466069D01*
X31299467Y32591028D01*
X31307875Y32598084D01*
X31351904Y32642113D01*
X31414216Y32676139D01*
X31485031Y32671074D01*
X31539468Y32631629D01*
X31580380Y32580380D01*
X31585883Y32575987D01*
X31652109Y32523119D01*
X31692868Y32464988D01*
X31699500Y32424648D01*
X31699500Y22590875D01*
X31679498Y22522754D01*
X31662595Y22501780D01*
X28498220Y19337405D01*
X28435908Y19303379D01*
X28409125Y19300500D01*
X8590875Y19300500D01*
X8522754Y19320502D01*
X8501780Y19337405D01*
X7337405Y20501780D01*
X7303379Y20564092D01*
X7300500Y20590875D01*
X7300500Y22291579D01*
X7310091Y22339797D01*
X7367679Y22478825D01*
X7367680Y22478827D01*
X7369573Y22483398D01*
X7418681Y22687946D01*
X7429066Y22731201D01*
X7429067Y22731207D01*
X7430221Y22736014D01*
X7450604Y22995008D01*
X7430221Y23254002D01*
X7429067Y23258809D01*
X7429066Y23258815D01*
X7370728Y23501806D01*
X7369573Y23506618D01*
X7310091Y23650220D01*
X7300500Y23698437D01*
X7300500Y24811571D01*
X7310091Y24859789D01*
X7367679Y24998817D01*
X7367680Y24998819D01*
X7369573Y25003390D01*
X7390780Y25091724D01*
X7429066Y25251193D01*
X7429067Y25251199D01*
X7430221Y25256006D01*
X7450604Y25515000D01*
X7430221Y25773994D01*
X7429067Y25778801D01*
X7429066Y25778807D01*
X7390780Y25938276D01*
X7369573Y26026610D01*
X7310091Y26170212D01*
X7300500Y26218429D01*
X7300500Y27351571D01*
X7310091Y27399789D01*
X7311702Y27403677D01*
X7369573Y27543390D01*
X7382665Y27597922D01*
X7418017Y27659491D01*
X7481044Y27692174D01*
X7505184Y27694508D01*
X9851784Y27694508D01*
X9854501Y27694746D01*
X9854508Y27694746D01*
X9922698Y27700712D01*
X10021692Y27709373D01*
X10027005Y27710797D01*
X10027007Y27710797D01*
X10236186Y27766846D01*
X10236188Y27766847D01*
X10241496Y27768269D01*
X10252302Y27773308D01*
X10442753Y27862117D01*
X10442756Y27862119D01*
X10447734Y27864440D01*
X10634139Y27994961D01*
X10795047Y28155869D01*
X10925568Y28342274D01*
X11021739Y28548512D01*
X11026589Y28566610D01*
X11079211Y28763001D01*
X11079211Y28763003D01*
X11080635Y28768316D01*
X11100468Y28995008D01*
X11080635Y29221700D01*
X11043213Y29361361D01*
X11023162Y29436194D01*
X11023161Y29436196D01*
X11021739Y29441504D01*
X10925568Y29647742D01*
X10795047Y29834147D01*
X10634139Y29995055D01*
X10447734Y30125576D01*
X10442756Y30127897D01*
X10442753Y30127899D01*
X10246478Y30219424D01*
X10246476Y30219425D01*
X10241496Y30221747D01*
X10236188Y30223169D01*
X10236186Y30223170D01*
X10027007Y30279219D01*
X10027005Y30279219D01*
X10021692Y30280643D01*
X9922698Y30289304D01*
X9854508Y30295270D01*
X9854501Y30295270D01*
X9851784Y30295508D01*
X7563340Y30295508D01*
X7495219Y30315510D01*
X7448726Y30369166D01*
X7437728Y30431394D01*
X7450216Y30590070D01*
X7450604Y30595000D01*
X7430221Y30853994D01*
X7429067Y30858801D01*
X7429066Y30858807D01*
X7383079Y31050352D01*
X7369573Y31106610D01*
X7342932Y31170928D01*
X7315396Y31237404D01*
X7310091Y31250212D01*
X7300500Y31298429D01*
X7300500Y32431571D01*
X7310091Y32479789D01*
X7312369Y32485287D01*
X7369573Y32623390D01*
X7408861Y32787035D01*
X7429066Y32871193D01*
X7429067Y32871199D01*
X7430221Y32876006D01*
X7450604Y33135000D01*
X7430221Y33393994D01*
X7429067Y33398801D01*
X7429066Y33398807D01*
X7383147Y33590070D01*
X7369573Y33646610D01*
X7310091Y33790212D01*
X7300500Y33838429D01*
X7300500Y34971571D01*
X7310091Y35019789D01*
X7367679Y35158817D01*
X7367680Y35158819D01*
X7369573Y35163390D01*
X7395869Y35272922D01*
X7429066Y35411193D01*
X7429067Y35411199D01*
X7430221Y35416006D01*
X7450604Y35675000D01*
X7430221Y35933994D01*
X7429067Y35938801D01*
X7429066Y35938807D01*
X7383147Y36130070D01*
X7369573Y36186610D01*
X7310091Y36330212D01*
X7300500Y36378429D01*
X7300500Y37511571D01*
X7310091Y37559789D01*
X7367679Y37698817D01*
X7367680Y37698819D01*
X7369573Y37703390D01*
X7390780Y37791724D01*
X7429066Y37951193D01*
X7429067Y37951199D01*
X7430221Y37956006D01*
X7450604Y38215000D01*
X7430221Y38473994D01*
X7429067Y38478801D01*
X7429066Y38478807D01*
X7383147Y38670070D01*
X7369573Y38726610D01*
X7310091Y38870212D01*
X7300500Y38918429D01*
X7300500Y40051571D01*
X7310091Y40099789D01*
X7367679Y40238817D01*
X7367680Y40238819D01*
X7369573Y40243390D01*
X7390780Y40331724D01*
X7429066Y40491193D01*
X7429067Y40491199D01*
X7430221Y40496006D01*
X7450604Y40755000D01*
X7430221Y41013994D01*
X7429067Y41018801D01*
X7429066Y41018807D01*
X7383147Y41210070D01*
X7369573Y41266610D01*
X7310091Y41410212D01*
X7300500Y41458429D01*
X7300500Y42591571D01*
X7310091Y42639789D01*
X7367679Y42778817D01*
X7367680Y42778819D01*
X7369573Y42783390D01*
X7390780Y42871724D01*
X7429066Y43031193D01*
X7429067Y43031199D01*
X7430221Y43036006D01*
X7450604Y43295000D01*
X7430221Y43553994D01*
X7429067Y43558801D01*
X7429066Y43558807D01*
X7383147Y43750070D01*
X7369573Y43806610D01*
X7310091Y43950212D01*
X7300500Y43998429D01*
X7300500Y45131571D01*
X7310091Y45179789D01*
X7367679Y45318817D01*
X7367680Y45318819D01*
X7369573Y45323390D01*
X7392395Y45418449D01*
X7429066Y45571193D01*
X7429067Y45571199D01*
X7430221Y45576006D01*
X7450604Y45835000D01*
X7430221Y46093994D01*
X7429067Y46098801D01*
X7429066Y46098807D01*
X7370728Y46341798D01*
X7369573Y46346610D01*
X7310091Y46490212D01*
X7300500Y46538429D01*
X7300500Y47671571D01*
X7310091Y47719789D01*
X7312951Y47726692D01*
X7359006Y47837879D01*
X7367679Y47858817D01*
X7367680Y47858819D01*
X7369573Y47863390D01*
X7403169Y48003327D01*
X7429066Y48111193D01*
X7429067Y48111199D01*
X7430221Y48116006D01*
X7450604Y48375000D01*
X7430221Y48633994D01*
X7429067Y48638801D01*
X7429066Y48638807D01*
X7370728Y48881798D01*
X7369573Y48886610D01*
X7310091Y49030212D01*
X7300500Y49078429D01*
X7300500Y50211571D01*
X7310091Y50259789D01*
X7367679Y50398817D01*
X7367680Y50398819D01*
X7369573Y50403390D01*
X7404848Y50550321D01*
X7429066Y50651193D01*
X7429067Y50651199D01*
X7430221Y50656006D01*
X7450604Y50915000D01*
X7430221Y51173994D01*
X7429067Y51178801D01*
X7429066Y51178807D01*
X7370728Y51421798D01*
X7369573Y51426610D01*
X7310091Y51570212D01*
X7300500Y51618429D01*
X7300500Y51740406D01*
X8593074Y51740406D01*
X8594053Y51734709D01*
X8594053Y51734708D01*
X8594212Y51733786D01*
X8630438Y51522957D01*
X8706804Y51315957D01*
X8709756Y51310996D01*
X8709756Y51310995D01*
X8798807Y51161315D01*
X8819614Y51126341D01*
X8965090Y50960457D01*
X9138360Y50823863D01*
X9333620Y50721131D01*
X9544333Y50655703D01*
X9550070Y50655024D01*
X9719789Y50634936D01*
X9719795Y50634936D01*
X9723476Y50634500D01*
X10790271Y50634500D01*
X10798513Y50634230D01*
X10866560Y50629770D01*
X10958927Y50640702D01*
X10962149Y50641040D01*
X11054711Y50649546D01*
X11060278Y50651116D01*
X11060282Y50651117D01*
X11060406Y50651152D01*
X11079789Y50655008D01*
X11079929Y50655025D01*
X11085667Y50655704D01*
X11174459Y50683274D01*
X11177535Y50684186D01*
X11267064Y50709435D01*
X11270080Y50710922D01*
X11340062Y50716598D01*
X11402695Y50683168D01*
X11437312Y50621182D01*
X11432921Y50550321D01*
X11410263Y50511398D01*
X11301164Y50383659D01*
X11169534Y50168859D01*
X11167641Y50164289D01*
X11167639Y50164285D01*
X11161333Y50149060D01*
X11073127Y49936111D01*
X11071972Y49931299D01*
X11025313Y49736949D01*
X11014317Y49691148D01*
X10994551Y49440000D01*
X11014317Y49188852D01*
X11015471Y49184045D01*
X11015472Y49184039D01*
X11040827Y49078429D01*
X11073127Y48943889D01*
X11075020Y48939318D01*
X11075021Y48939316D01*
X11166861Y48717595D01*
X11169534Y48711141D01*
X11301164Y48496341D01*
X11304376Y48492581D01*
X11304379Y48492576D01*
X11461558Y48308543D01*
X11461563Y48308538D01*
X11464776Y48304776D01*
X11468538Y48301563D01*
X11468540Y48301561D01*
X11510398Y48265811D01*
X11549207Y48206360D01*
X11549713Y48135366D01*
X11510398Y48074189D01*
X11464776Y48035224D01*
X11461563Y48031462D01*
X11461558Y48031457D01*
X11304379Y47847424D01*
X11304376Y47847419D01*
X11301164Y47843659D01*
X11169534Y47628859D01*
X11167641Y47624289D01*
X11167639Y47624285D01*
X11089612Y47435909D01*
X11073127Y47396111D01*
X11071972Y47391299D01*
X11025313Y47196949D01*
X11014317Y47151148D01*
X10994551Y46900000D01*
X11014317Y46648852D01*
X11015471Y46644045D01*
X11015472Y46644039D01*
X11040827Y46538429D01*
X11073127Y46403889D01*
X11075020Y46399318D01*
X11075021Y46399316D01*
X11165408Y46181103D01*
X11169534Y46171141D01*
X11301164Y45956341D01*
X11304376Y45952581D01*
X11304379Y45952576D01*
X11461558Y45768543D01*
X11461563Y45768538D01*
X11464776Y45764776D01*
X11468538Y45761563D01*
X11468540Y45761561D01*
X11510398Y45725811D01*
X11549207Y45666360D01*
X11549713Y45595366D01*
X11510398Y45534189D01*
X11492351Y45518775D01*
X11464776Y45495224D01*
X11461563Y45491462D01*
X11461558Y45491457D01*
X11304379Y45307424D01*
X11304376Y45307419D01*
X11301164Y45303659D01*
X11169534Y45088859D01*
X11073127Y44856111D01*
X11071972Y44851299D01*
X11025313Y44656949D01*
X11014317Y44611148D01*
X10994551Y44360000D01*
X11014317Y44108852D01*
X11015471Y44104045D01*
X11015472Y44104039D01*
X11035935Y44018807D01*
X11073127Y43863889D01*
X11075020Y43859318D01*
X11075021Y43859316D01*
X11096853Y43806610D01*
X11169534Y43631141D01*
X11301164Y43416341D01*
X11304376Y43412581D01*
X11304379Y43412576D01*
X11461558Y43228543D01*
X11461563Y43228538D01*
X11464776Y43224776D01*
X11468538Y43221563D01*
X11468540Y43221561D01*
X11510398Y43185811D01*
X11549207Y43126360D01*
X11549713Y43055366D01*
X11510398Y42994189D01*
X11464776Y42955224D01*
X11461563Y42951462D01*
X11461558Y42951457D01*
X11304379Y42767424D01*
X11304376Y42767419D01*
X11301164Y42763659D01*
X11169534Y42548859D01*
X11167641Y42544289D01*
X11167639Y42544285D01*
X11104996Y42393051D01*
X11073127Y42316111D01*
X11071972Y42311299D01*
X11025313Y42116949D01*
X11014317Y42071148D01*
X10994551Y41820000D01*
X11014317Y41568852D01*
X11015471Y41564045D01*
X11015472Y41564039D01*
X11035935Y41478807D01*
X11073127Y41323889D01*
X11075020Y41319318D01*
X11075021Y41319316D01*
X11096853Y41266610D01*
X11169534Y41091141D01*
X11301164Y40876341D01*
X11304376Y40872581D01*
X11304379Y40872576D01*
X11461558Y40688543D01*
X11461563Y40688538D01*
X11464776Y40684776D01*
X11468538Y40681563D01*
X11468540Y40681561D01*
X11510398Y40645811D01*
X11549207Y40586360D01*
X11549713Y40515366D01*
X11510398Y40454189D01*
X11464776Y40415224D01*
X11461563Y40411462D01*
X11461558Y40411457D01*
X11304379Y40227424D01*
X11304376Y40227419D01*
X11301164Y40223659D01*
X11169534Y40008859D01*
X11167641Y40004289D01*
X11167639Y40004285D01*
X11104996Y39853051D01*
X11073127Y39776111D01*
X11071972Y39771299D01*
X11025313Y39576949D01*
X11014317Y39531148D01*
X10994551Y39280000D01*
X11014317Y39028852D01*
X11015471Y39024045D01*
X11015472Y39024039D01*
X11035935Y38938807D01*
X11073127Y38783889D01*
X11075020Y38779318D01*
X11075021Y38779316D01*
X11096853Y38726610D01*
X11169534Y38551141D01*
X11301164Y38336341D01*
X11304376Y38332581D01*
X11304379Y38332576D01*
X11461558Y38148543D01*
X11461563Y38148538D01*
X11464776Y38144776D01*
X11468538Y38141563D01*
X11468540Y38141561D01*
X11510398Y38105811D01*
X11549207Y38046360D01*
X11549713Y37975366D01*
X11510398Y37914189D01*
X11464776Y37875224D01*
X11461563Y37871462D01*
X11461558Y37871457D01*
X11304379Y37687424D01*
X11304376Y37687419D01*
X11301164Y37683659D01*
X11169534Y37468859D01*
X11167641Y37464289D01*
X11167639Y37464285D01*
X11104996Y37313051D01*
X11073127Y37236111D01*
X11071972Y37231299D01*
X11025313Y37036949D01*
X11014317Y36991148D01*
X10994551Y36740000D01*
X11014317Y36488852D01*
X11015471Y36484045D01*
X11015472Y36484039D01*
X11035935Y36398807D01*
X11073127Y36243889D01*
X11075020Y36239318D01*
X11075021Y36239316D01*
X11151725Y36054137D01*
X11169534Y36011141D01*
X11301164Y35796341D01*
X11304376Y35792581D01*
X11304379Y35792576D01*
X11433037Y35641938D01*
X11464776Y35604776D01*
X11468538Y35601563D01*
X11652576Y35444379D01*
X11652581Y35444376D01*
X11656341Y35441164D01*
X11871141Y35309534D01*
X11875711Y35307641D01*
X11875715Y35307639D01*
X11941718Y35280300D01*
X11996999Y35235752D01*
X12019500Y35163891D01*
X12019500Y31824729D01*
X12019230Y31816488D01*
X12014770Y31748440D01*
X12022483Y31683280D01*
X12025699Y31656105D01*
X12026040Y31652851D01*
X12034546Y31560289D01*
X12036116Y31554722D01*
X12036117Y31554718D01*
X12036152Y31554594D01*
X12040008Y31535211D01*
X12040704Y31529333D01*
X12068272Y31440549D01*
X12069186Y31437465D01*
X12094435Y31347936D01*
X12096988Y31342759D01*
X12096992Y31342749D01*
X12097054Y31342624D01*
X12104379Y31324263D01*
X12106131Y31318621D01*
X12149403Y31236375D01*
X12150896Y31233444D01*
X12192020Y31150053D01*
X12195564Y31145307D01*
X12206108Y31128595D01*
X12208863Y31123359D01*
X12258866Y31059930D01*
X12266417Y31050352D01*
X12268413Y31047750D01*
X12324033Y30973267D01*
X12332850Y30965117D01*
X12387518Y30914582D01*
X12391084Y30911152D01*
X14119480Y29182757D01*
X14125117Y29176739D01*
X14170090Y29125457D01*
X14243142Y29067868D01*
X14245633Y29065850D01*
X14298600Y29021798D01*
X14317116Y29006398D01*
X14322151Y29003578D01*
X14322157Y29003574D01*
X14322287Y29003501D01*
X14338713Y28992526D01*
X14338818Y28992443D01*
X14338822Y28992440D01*
X14343360Y28988863D01*
X14425622Y28945583D01*
X14428495Y28944023D01*
X14509621Y28898590D01*
X14515220Y28896690D01*
X14533387Y28888884D01*
X14533465Y28888843D01*
X14538620Y28886131D01*
X14568053Y28876992D01*
X14627384Y28858569D01*
X14630520Y28857550D01*
X14713079Y28829525D01*
X14713084Y28829524D01*
X14718548Y28827669D01*
X14724416Y28826818D01*
X14743670Y28822461D01*
X14743817Y28822415D01*
X14743823Y28822414D01*
X14749333Y28820703D01*
X14755061Y28820025D01*
X14755066Y28820024D01*
X14828806Y28811297D01*
X14841656Y28809776D01*
X14844915Y28809347D01*
X14861173Y28806990D01*
X14931189Y28796837D01*
X14931193Y28796837D01*
X14936902Y28796009D01*
X15023286Y28799403D01*
X15028233Y28799500D01*
X20955271Y28799500D01*
X20963513Y28799230D01*
X21031560Y28794770D01*
X21123927Y28805702D01*
X21127149Y28806040D01*
X21219711Y28814546D01*
X21225278Y28816116D01*
X21225282Y28816117D01*
X21225406Y28816152D01*
X21244789Y28820008D01*
X21244929Y28820025D01*
X21250667Y28820704D01*
X21339459Y28848274D01*
X21342535Y28849186D01*
X21432064Y28874435D01*
X21437241Y28876988D01*
X21437251Y28876992D01*
X21437376Y28877054D01*
X21455737Y28884379D01*
X21455860Y28884417D01*
X21455864Y28884419D01*
X21461379Y28886131D01*
X21543634Y28929407D01*
X21546565Y28930901D01*
X21576366Y28945597D01*
X21629947Y28972020D01*
X21634693Y28975564D01*
X21651405Y28986108D01*
X21656641Y28988863D01*
X21729663Y29046428D01*
X21732265Y29048425D01*
X21802109Y29100580D01*
X21806733Y29104033D01*
X21865418Y29167519D01*
X21868848Y29171084D01*
X23657243Y30959480D01*
X23663261Y30965117D01*
X23710204Y31006285D01*
X23714543Y31010090D01*
X23746283Y31050352D01*
X23772111Y31083114D01*
X23774186Y31085676D01*
X23829908Y31152675D01*
X23829910Y31152677D01*
X23833602Y31157117D01*
X23836498Y31162287D01*
X23847471Y31178709D01*
X23847562Y31178824D01*
X23847565Y31178829D01*
X23851137Y31183360D01*
X23867139Y31213775D01*
X23894415Y31265617D01*
X23895989Y31268517D01*
X23938586Y31344578D01*
X23938587Y31344580D01*
X23941410Y31349621D01*
X23943310Y31355220D01*
X23951116Y31373387D01*
X23951178Y31373506D01*
X23953869Y31378620D01*
X23981434Y31467394D01*
X23982450Y31470520D01*
X24010475Y31553079D01*
X24010476Y31553084D01*
X24012331Y31558548D01*
X24013182Y31564416D01*
X24017539Y31583670D01*
X24017585Y31583817D01*
X24017586Y31583823D01*
X24019297Y31589333D01*
X24026812Y31652824D01*
X24030223Y31681650D01*
X24030654Y31684922D01*
X24043163Y31771189D01*
X24043163Y31771193D01*
X24043991Y31776902D01*
X24040597Y31863286D01*
X24040500Y31868233D01*
X24040500Y32365930D01*
X24060502Y32434051D01*
X24114158Y32480544D01*
X24184432Y32490648D01*
X24248328Y32461742D01*
X24436341Y32301164D01*
X24651141Y32169534D01*
X24655711Y32167641D01*
X24655715Y32167639D01*
X24879316Y32075021D01*
X24883889Y32073127D01*
X24968289Y32052865D01*
X25124039Y32015472D01*
X25124045Y32015471D01*
X25128852Y32014317D01*
X25380000Y31994551D01*
X25631148Y32014317D01*
X25635955Y32015471D01*
X25635961Y32015472D01*
X25791711Y32052865D01*
X25876111Y32073127D01*
X25880684Y32075021D01*
X26104285Y32167639D01*
X26104289Y32167641D01*
X26108859Y32169534D01*
X26323659Y32301164D01*
X26327419Y32304376D01*
X26327424Y32304379D01*
X26511457Y32461558D01*
X26511462Y32461563D01*
X26515224Y32464776D01*
X26528047Y32479789D01*
X26554189Y32510398D01*
X26613640Y32549207D01*
X26684634Y32549713D01*
X26745811Y32510398D01*
X26771954Y32479789D01*
X26784776Y32464776D01*
X26788538Y32461563D01*
X26788543Y32461558D01*
X26972576Y32304379D01*
X26972581Y32304376D01*
X26976341Y32301164D01*
X27191141Y32169534D01*
X27195711Y32167641D01*
X27195715Y32167639D01*
X27419316Y32075021D01*
X27423889Y32073127D01*
X27508289Y32052865D01*
X27664039Y32015472D01*
X27664045Y32015471D01*
X27668852Y32014317D01*
X27920000Y31994551D01*
X28171148Y32014317D01*
X28175955Y32015471D01*
X28175961Y32015472D01*
X28331711Y32052865D01*
X28416111Y32073127D01*
X28420684Y32075021D01*
X28644285Y32167639D01*
X28644289Y32167641D01*
X28648859Y32169534D01*
X28863659Y32301164D01*
X28867419Y32304376D01*
X28867424Y32304379D01*
X29051462Y32461563D01*
X29055224Y32464776D01*
X29127767Y32549713D01*
X29215621Y32652576D01*
X29215624Y32652581D01*
X29218836Y32656341D01*
X29221424Y32660564D01*
X29262624Y32727796D01*
X29315272Y32775428D01*
X29385313Y32787035D01*
X29450511Y32758932D01*
X29459152Y32751057D01*
X29612125Y32598084D01*
X29620533Y32591028D01*
X29798993Y32466069D01*
X29808489Y32460586D01*
X30005950Y32368509D01*
X30016240Y32364764D01*
X30042501Y32357727D01*
X30056599Y32358062D01*
X30060000Y32366003D01*
X30060000Y35628847D01*
X30056027Y35642378D01*
X30051185Y35643074D01*
X29986604Y35672567D01*
X29948221Y35732293D01*
X29948221Y35803290D01*
X29961685Y35833626D01*
X30067875Y36006911D01*
X30067881Y36006922D01*
X30070466Y36011141D01*
X30088276Y36054137D01*
X30164979Y36239316D01*
X30164980Y36239318D01*
X30166873Y36243889D01*
X30204065Y36398807D01*
X30224528Y36484039D01*
X30224529Y36484045D01*
X30225683Y36488852D01*
X30245449Y36740000D01*
X30225683Y36991148D01*
X30214688Y37036949D01*
X30168028Y37231299D01*
X30166873Y37236111D01*
X30135004Y37313051D01*
X30072361Y37464285D01*
X30072359Y37464289D01*
X30070466Y37468859D01*
X29938836Y37683659D01*
X29935624Y37687419D01*
X29935621Y37687424D01*
X29778442Y37871457D01*
X29778437Y37871462D01*
X29775224Y37875224D01*
X29729602Y37914189D01*
X29690793Y37973640D01*
X29690287Y38044634D01*
X29729602Y38105811D01*
X29771460Y38141561D01*
X29771462Y38141563D01*
X29775224Y38144776D01*
X29778437Y38148538D01*
X29778442Y38148543D01*
X29935621Y38332576D01*
X29935624Y38332581D01*
X29938836Y38336341D01*
X30070466Y38551141D01*
X30143148Y38726610D01*
X30164979Y38779316D01*
X30164980Y38779318D01*
X30166873Y38783889D01*
X30204065Y38938807D01*
X30224528Y39024039D01*
X30224529Y39024045D01*
X30225683Y39028852D01*
X30245449Y39280000D01*
X30225683Y39531148D01*
X30214688Y39576949D01*
X30168028Y39771299D01*
X30166873Y39776111D01*
X30135004Y39853051D01*
X30072361Y40004285D01*
X30072359Y40004289D01*
X30070466Y40008859D01*
X29938836Y40223659D01*
X29935624Y40227419D01*
X29935621Y40227424D01*
X29778442Y40411457D01*
X29778437Y40411462D01*
X29775224Y40415224D01*
X29729602Y40454189D01*
X29690793Y40513640D01*
X29690287Y40584634D01*
X29729602Y40645811D01*
X29771460Y40681561D01*
X29771462Y40681563D01*
X29775224Y40684776D01*
X29778437Y40688538D01*
X29778442Y40688543D01*
X29935621Y40872576D01*
X29935624Y40872581D01*
X29938836Y40876341D01*
X30070466Y41091141D01*
X30143148Y41266610D01*
X30164979Y41319316D01*
X30164980Y41319318D01*
X30166873Y41323889D01*
X30204065Y41478807D01*
X30224528Y41564039D01*
X30224529Y41564045D01*
X30225683Y41568852D01*
X30245449Y41820000D01*
X30225683Y42071148D01*
X30214688Y42116949D01*
X30168028Y42311299D01*
X30166873Y42316111D01*
X30135004Y42393051D01*
X30072361Y42544285D01*
X30072359Y42544289D01*
X30070466Y42548859D01*
X29938836Y42763659D01*
X29935624Y42767419D01*
X29935621Y42767424D01*
X29778442Y42951457D01*
X29778437Y42951462D01*
X29775224Y42955224D01*
X29729602Y42994189D01*
X29690793Y43053640D01*
X29690287Y43124634D01*
X29729602Y43185811D01*
X29771460Y43221561D01*
X29771462Y43221563D01*
X29775224Y43224776D01*
X29778437Y43228538D01*
X29778442Y43228543D01*
X29935621Y43412576D01*
X29935624Y43412581D01*
X29938836Y43416341D01*
X30070466Y43631141D01*
X30143148Y43806610D01*
X30164979Y43859316D01*
X30164980Y43859318D01*
X30166873Y43863889D01*
X30204065Y44018807D01*
X30224528Y44104039D01*
X30224529Y44104045D01*
X30225683Y44108852D01*
X30245449Y44360000D01*
X30225683Y44611148D01*
X30214688Y44656949D01*
X30168028Y44851299D01*
X30166873Y44856111D01*
X30070466Y45088859D01*
X29938836Y45303659D01*
X29935624Y45307419D01*
X29935621Y45307424D01*
X29778442Y45491457D01*
X29778437Y45491462D01*
X29775224Y45495224D01*
X29747650Y45518775D01*
X29729602Y45534189D01*
X29690793Y45593640D01*
X29690287Y45664634D01*
X29729602Y45725811D01*
X29771460Y45761561D01*
X29771462Y45761563D01*
X29775224Y45764776D01*
X29778437Y45768538D01*
X29778442Y45768543D01*
X29935621Y45952576D01*
X29935624Y45952581D01*
X29938836Y45956341D01*
X30070466Y46171141D01*
X30074593Y46181103D01*
X30164979Y46399316D01*
X30164980Y46399318D01*
X30166873Y46403889D01*
X30199173Y46538429D01*
X30224528Y46644039D01*
X30224529Y46644045D01*
X30225683Y46648852D01*
X30245449Y46900000D01*
X30225683Y47151148D01*
X30214688Y47196949D01*
X30168028Y47391299D01*
X30166873Y47396111D01*
X30150388Y47435909D01*
X30072361Y47624285D01*
X30072359Y47624289D01*
X30070466Y47628859D01*
X29938836Y47843659D01*
X29935624Y47847419D01*
X29935621Y47847424D01*
X29778442Y48031457D01*
X29778437Y48031462D01*
X29775224Y48035224D01*
X29729602Y48074189D01*
X29690793Y48133640D01*
X29690287Y48204634D01*
X29729602Y48265811D01*
X29771460Y48301561D01*
X29771462Y48301563D01*
X29775224Y48304776D01*
X29778437Y48308538D01*
X29778442Y48308543D01*
X29935621Y48492576D01*
X29935624Y48492581D01*
X29938836Y48496341D01*
X30070466Y48711141D01*
X30073140Y48717595D01*
X30164979Y48939316D01*
X30164980Y48939318D01*
X30166873Y48943889D01*
X30199173Y49078429D01*
X30224528Y49184039D01*
X30224529Y49184045D01*
X30225683Y49188852D01*
X30245449Y49440000D01*
X30225683Y49691148D01*
X30214688Y49736949D01*
X30168028Y49931299D01*
X30166873Y49936111D01*
X30078667Y50149060D01*
X30072361Y50164285D01*
X30072359Y50164289D01*
X30070466Y50168859D01*
X29938836Y50383659D01*
X29935624Y50387419D01*
X29935621Y50387424D01*
X29778442Y50571457D01*
X29778437Y50571462D01*
X29775224Y50575224D01*
X29729602Y50614189D01*
X29690793Y50673640D01*
X29690287Y50744634D01*
X29729602Y50805811D01*
X29771460Y50841561D01*
X29771462Y50841563D01*
X29775224Y50844776D01*
X29778437Y50848538D01*
X29778442Y50848543D01*
X29935621Y51032576D01*
X29935624Y51032581D01*
X29938836Y51036341D01*
X30070466Y51251141D01*
X30073140Y51257595D01*
X30164979Y51479316D01*
X30164980Y51479318D01*
X30166873Y51483889D01*
X30191441Y51586221D01*
X30224528Y51724039D01*
X30224529Y51724045D01*
X30225683Y51728852D01*
X30245449Y51980000D01*
X30225683Y52231148D01*
X30221814Y52247266D01*
X30176743Y52435000D01*
X30166873Y52476111D01*
X30160108Y52492444D01*
X30072361Y52704285D01*
X30072359Y52704289D01*
X30070466Y52708859D01*
X29953334Y52900000D01*
X30934532Y52900000D01*
X30954365Y52673308D01*
X30955789Y52667995D01*
X30955789Y52667993D01*
X31007204Y52476111D01*
X31013261Y52453504D01*
X31015583Y52448524D01*
X31015584Y52448522D01*
X31093790Y52280811D01*
X31109432Y52247266D01*
X31239953Y52060861D01*
X31400861Y51899953D01*
X31587266Y51769432D01*
X31592244Y51767111D01*
X31592247Y51767109D01*
X31788522Y51675584D01*
X31793504Y51673261D01*
X31798812Y51671839D01*
X31798814Y51671838D01*
X32007993Y51615789D01*
X32007995Y51615789D01*
X32013308Y51614365D01*
X32112302Y51605704D01*
X32180492Y51599738D01*
X32180499Y51599738D01*
X32183216Y51599500D01*
X34509125Y51599500D01*
X34577246Y51579498D01*
X34598220Y51562595D01*
X38662595Y47498221D01*
X38696621Y47435909D01*
X38699500Y47409126D01*
X38699500Y10943216D01*
X38714365Y10773308D01*
X38715789Y10767995D01*
X38715789Y10767993D01*
X38725951Y10730070D01*
X38773261Y10553504D01*
X38775583Y10548524D01*
X38775584Y10548522D01*
X38830273Y10431243D01*
X38869432Y10347266D01*
X38999953Y10160861D01*
X39160861Y9999953D01*
X39347266Y9869432D01*
X39352244Y9867111D01*
X39352247Y9867109D01*
X39528083Y9785115D01*
X39553504Y9773261D01*
X39558812Y9771839D01*
X39558814Y9771838D01*
X39767993Y9715789D01*
X39767995Y9715789D01*
X39773308Y9714365D01*
X40000000Y9694532D01*
X40226692Y9714365D01*
X40232005Y9715789D01*
X40232007Y9715789D01*
X40441186Y9771838D01*
X40441188Y9771839D01*
X40446496Y9773261D01*
X40471917Y9785115D01*
X40647753Y9867109D01*
X40647756Y9867111D01*
X40652734Y9869432D01*
X40839139Y9999953D01*
X41000047Y10160861D01*
X41130568Y10347266D01*
X41169728Y10431243D01*
X41224416Y10548522D01*
X41224417Y10548524D01*
X41226739Y10553504D01*
X41274050Y10730070D01*
X41284211Y10767993D01*
X41284211Y10767995D01*
X41285635Y10773308D01*
X41300500Y10943216D01*
X41300500Y47886215D01*
X41300501Y47886221D01*
X41300501Y48113779D01*
X41296999Y48133640D01*
X41291558Y48164499D01*
X41290124Y48175396D01*
X41286116Y48221202D01*
X41286115Y48221210D01*
X41285635Y48226692D01*
X41272306Y48276436D01*
X41269928Y48287164D01*
X41261940Y48332464D01*
X41260985Y48337880D01*
X41243373Y48386268D01*
X41240067Y48396753D01*
X41228163Y48441183D01*
X41228161Y48441188D01*
X41226739Y48446496D01*
X41204967Y48493186D01*
X41200768Y48503325D01*
X41185038Y48546543D01*
X41185036Y48546548D01*
X41183155Y48551715D01*
X41157405Y48596317D01*
X41152340Y48606044D01*
X41130568Y48652734D01*
X41127413Y48657240D01*
X41127410Y48657245D01*
X41101025Y48694928D01*
X41095120Y48704196D01*
X41091110Y48711141D01*
X41069376Y48748786D01*
X41036266Y48788245D01*
X41029599Y48796934D01*
X41000047Y48839139D01*
X40839139Y49000047D01*
X40839134Y49000050D01*
X40839126Y49000058D01*
X36100049Y53739136D01*
X36100047Y53739139D01*
X35939139Y53900047D01*
X35896947Y53929589D01*
X35888230Y53936279D01*
X35857818Y53961798D01*
X35848786Y53969377D01*
X35804170Y53995136D01*
X35794924Y54001027D01*
X35752734Y54030568D01*
X35706054Y54052336D01*
X35696323Y54057402D01*
X35656484Y54080403D01*
X35656481Y54080404D01*
X35651715Y54083156D01*
X35646539Y54085040D01*
X35603327Y54100768D01*
X35593171Y54104974D01*
X35581940Y54110211D01*
X35546496Y54126739D01*
X35541186Y54128162D01*
X35541180Y54128164D01*
X35496752Y54140068D01*
X35486267Y54143374D01*
X35443053Y54159103D01*
X35443045Y54159105D01*
X35437880Y54160985D01*
X35387165Y54169928D01*
X35376433Y54172307D01*
X35326692Y54185635D01*
X35321210Y54186115D01*
X35321202Y54186116D01*
X35275396Y54190124D01*
X35264499Y54191558D01*
X35225280Y54198473D01*
X35213779Y54200501D01*
X34986221Y54200501D01*
X34986217Y54200500D01*
X32183216Y54200500D01*
X32180499Y54200262D01*
X32180492Y54200262D01*
X32112302Y54194296D01*
X32013308Y54185635D01*
X32007995Y54184211D01*
X32007993Y54184211D01*
X31798814Y54128162D01*
X31798812Y54128161D01*
X31793504Y54126739D01*
X31788524Y54124417D01*
X31788522Y54124416D01*
X31592247Y54032891D01*
X31592244Y54032889D01*
X31587266Y54030568D01*
X31400861Y53900047D01*
X31239953Y53739139D01*
X31109432Y53552734D01*
X31107111Y53547756D01*
X31107109Y53547753D01*
X31015584Y53351478D01*
X31013261Y53346496D01*
X31011839Y53341188D01*
X31011838Y53341186D01*
X30971648Y53191193D01*
X30954365Y53126692D01*
X30934532Y52900000D01*
X29953334Y52900000D01*
X29938836Y52923659D01*
X29935624Y52927419D01*
X29935621Y52927424D01*
X29778442Y53111457D01*
X29778437Y53111462D01*
X29775224Y53115224D01*
X29729602Y53154189D01*
X29690793Y53213640D01*
X29690287Y53284634D01*
X29729602Y53345811D01*
X29771460Y53381561D01*
X29771462Y53381563D01*
X29775224Y53384776D01*
X29778437Y53388538D01*
X29778442Y53388543D01*
X29935621Y53572576D01*
X29935624Y53572581D01*
X29938836Y53576341D01*
X30070466Y53791141D01*
X30073140Y53797595D01*
X30164979Y54019316D01*
X30164980Y54019318D01*
X30166873Y54023889D01*
X30206897Y54190602D01*
X30224528Y54264039D01*
X30224529Y54264045D01*
X30225683Y54268852D01*
X30245449Y54520000D01*
X30225683Y54771148D01*
X30166873Y55016111D01*
X30078667Y55229060D01*
X30072361Y55244285D01*
X30072359Y55244289D01*
X30070466Y55248859D01*
X29938836Y55463659D01*
X29935624Y55467419D01*
X29935621Y55467424D01*
X29778442Y55651457D01*
X29778437Y55651462D01*
X29775224Y55655224D01*
X29729602Y55694189D01*
X29690793Y55753640D01*
X29690287Y55824634D01*
X29729602Y55885811D01*
X29771460Y55921561D01*
X29771462Y55921563D01*
X29775224Y55924776D01*
X29778437Y55928538D01*
X29778442Y55928543D01*
X29935621Y56112576D01*
X29935624Y56112581D01*
X29938836Y56116341D01*
X30070466Y56331141D01*
X30073140Y56337595D01*
X30164979Y56559316D01*
X30164980Y56559318D01*
X30166873Y56563889D01*
X30198539Y56695789D01*
X30224528Y56804039D01*
X30224529Y56804045D01*
X30225683Y56808852D01*
X30245449Y57060000D01*
X30225683Y57311148D01*
X30223294Y57321103D01*
X30172300Y57533504D01*
X30166873Y57556111D01*
X30164979Y57560684D01*
X30072361Y57784285D01*
X30072359Y57784289D01*
X30070466Y57788859D01*
X29938836Y58003659D01*
X29935624Y58007419D01*
X29935621Y58007424D01*
X29778442Y58191457D01*
X29778437Y58191462D01*
X29775224Y58195224D01*
X29729602Y58234189D01*
X29690793Y58293640D01*
X29690287Y58364634D01*
X29729602Y58425811D01*
X29771460Y58461561D01*
X29771462Y58461563D01*
X29775224Y58464776D01*
X29778437Y58468538D01*
X29778442Y58468543D01*
X29935621Y58652576D01*
X29935624Y58652581D01*
X29938836Y58656341D01*
X30070466Y58871141D01*
X30073140Y58877595D01*
X30164979Y59099316D01*
X30164980Y59099318D01*
X30166873Y59103889D01*
X30191565Y59206739D01*
X30224528Y59344039D01*
X30224529Y59344045D01*
X30225683Y59348852D01*
X30245449Y59600000D01*
X30225683Y59851148D01*
X30224291Y59856949D01*
X30172300Y60073504D01*
X30166873Y60096111D01*
X30120545Y60207957D01*
X30072361Y60324285D01*
X30072359Y60324289D01*
X30070466Y60328859D01*
X29938836Y60543659D01*
X29935624Y60547419D01*
X29935621Y60547424D01*
X29778442Y60731457D01*
X29778437Y60731462D01*
X29775224Y60735224D01*
X29729602Y60774189D01*
X29690793Y60833640D01*
X29690287Y60904634D01*
X29729602Y60965811D01*
X29771460Y61001561D01*
X29771462Y61001563D01*
X29775224Y61004776D01*
X29778437Y61008538D01*
X29778442Y61008543D01*
X29935621Y61192576D01*
X29935624Y61192581D01*
X29938836Y61196341D01*
X30070466Y61411141D01*
X30073140Y61417595D01*
X30164979Y61639316D01*
X30164980Y61639318D01*
X30166873Y61643889D01*
X30191565Y61746739D01*
X30224528Y61884039D01*
X30224529Y61884045D01*
X30225683Y61888852D01*
X30245449Y62140000D01*
X30225683Y62391148D01*
X30224291Y62396949D01*
X30172300Y62613504D01*
X30166873Y62636111D01*
X30120545Y62747957D01*
X30072361Y62864285D01*
X30072359Y62864289D01*
X30070466Y62868859D01*
X29938836Y63083659D01*
X29935624Y63087419D01*
X29935621Y63087424D01*
X29778442Y63271457D01*
X29778437Y63271462D01*
X29775224Y63275224D01*
X29729602Y63314189D01*
X29690793Y63373640D01*
X29690287Y63444634D01*
X29729602Y63505811D01*
X29771460Y63541561D01*
X29771462Y63541563D01*
X29775224Y63544776D01*
X29778437Y63548538D01*
X29778442Y63548543D01*
X29935621Y63732576D01*
X29935624Y63732581D01*
X29938836Y63736341D01*
X30070466Y63951141D01*
X30073140Y63957595D01*
X30164979Y64179316D01*
X30164980Y64179318D01*
X30166873Y64183889D01*
X30200953Y64325842D01*
X30224528Y64424039D01*
X30224529Y64424045D01*
X30225683Y64428852D01*
X30245449Y64680000D01*
X30225683Y64931148D01*
X30224291Y64936949D01*
X30168028Y65171299D01*
X30166873Y65176111D01*
X30130782Y65263243D01*
X30072361Y65404285D01*
X30072359Y65404289D01*
X30070466Y65408859D01*
X29938836Y65623659D01*
X29935624Y65627419D01*
X29935621Y65627424D01*
X29778442Y65811457D01*
X29778437Y65811462D01*
X29775224Y65815224D01*
X29729602Y65854189D01*
X29690793Y65913640D01*
X29690287Y65984634D01*
X29729602Y66045811D01*
X29771460Y66081561D01*
X29771462Y66081563D01*
X29775224Y66084776D01*
X29778437Y66088538D01*
X29778442Y66088543D01*
X29935621Y66272576D01*
X29935624Y66272581D01*
X29938836Y66276341D01*
X30070466Y66491141D01*
X30073140Y66497595D01*
X30164979Y66719316D01*
X30164980Y66719318D01*
X30166873Y66723889D01*
X30200043Y66862054D01*
X30224528Y66964039D01*
X30224529Y66964045D01*
X30225683Y66968852D01*
X30245449Y67220000D01*
X30225683Y67471148D01*
X30224291Y67476949D01*
X30168028Y67711299D01*
X30166873Y67716111D01*
X30159009Y67735097D01*
X30072361Y67944285D01*
X30072359Y67944289D01*
X30070466Y67948859D01*
X29938836Y68163659D01*
X29935624Y68167419D01*
X29935621Y68167424D01*
X29778442Y68351457D01*
X29778437Y68351462D01*
X29775224Y68355224D01*
X29729602Y68394189D01*
X29690793Y68453640D01*
X29690287Y68524634D01*
X29729602Y68585811D01*
X29771460Y68621561D01*
X29771462Y68621563D01*
X29775224Y68624776D01*
X29778437Y68628538D01*
X29778442Y68628543D01*
X29935621Y68812576D01*
X29935624Y68812581D01*
X29938836Y68816341D01*
X30070466Y69031141D01*
X30073140Y69037595D01*
X30164979Y69259316D01*
X30164980Y69259318D01*
X30166873Y69263889D01*
X30200326Y69403232D01*
X30224528Y69504039D01*
X30224529Y69504045D01*
X30225683Y69508852D01*
X30245449Y69760000D01*
X30225683Y70011148D01*
X30224291Y70016949D01*
X30168028Y70251299D01*
X30166873Y70256111D01*
X30130782Y70343243D01*
X30072361Y70484285D01*
X30072359Y70484289D01*
X30070466Y70488859D01*
X29938836Y70703659D01*
X29935624Y70707419D01*
X29935621Y70707424D01*
X29778442Y70891457D01*
X29778437Y70891462D01*
X29775224Y70895224D01*
X29729602Y70934189D01*
X29690793Y70993640D01*
X29690287Y71064634D01*
X29729602Y71125811D01*
X29771460Y71161561D01*
X29771462Y71161563D01*
X29775224Y71164776D01*
X29778437Y71168538D01*
X29778442Y71168543D01*
X29935621Y71352576D01*
X29935624Y71352581D01*
X29938836Y71356341D01*
X30070466Y71571141D01*
X30073140Y71577595D01*
X30164979Y71799316D01*
X30164980Y71799318D01*
X30166873Y71803889D01*
X30200980Y71945956D01*
X30224528Y72044039D01*
X30224529Y72044045D01*
X30225683Y72048852D01*
X30245449Y72300000D01*
X30225683Y72551148D01*
X30224291Y72556949D01*
X30168028Y72791299D01*
X30166873Y72796111D01*
X30150917Y72834632D01*
X30072361Y73024285D01*
X30072359Y73024289D01*
X30070466Y73028859D01*
X29938836Y73243659D01*
X29935624Y73247419D01*
X29935621Y73247424D01*
X29778442Y73431457D01*
X29778437Y73431462D01*
X29775224Y73435224D01*
X29729602Y73474189D01*
X29690793Y73533640D01*
X29690287Y73604634D01*
X29729602Y73665811D01*
X29771460Y73701561D01*
X29771462Y73701563D01*
X29775224Y73704776D01*
X29778437Y73708538D01*
X29778442Y73708543D01*
X29935621Y73892576D01*
X29935624Y73892581D01*
X29938836Y73896341D01*
X30070466Y74111141D01*
X30073140Y74117595D01*
X30164979Y74339316D01*
X30164980Y74339318D01*
X30166873Y74343889D01*
X30200043Y74482054D01*
X30224528Y74584039D01*
X30224529Y74584045D01*
X30225683Y74588852D01*
X30245449Y74840000D01*
X30225683Y75091148D01*
X30224291Y75096949D01*
X30168028Y75331299D01*
X30166873Y75336111D01*
X30130782Y75423243D01*
X30072361Y75564285D01*
X30072359Y75564289D01*
X30070466Y75568859D01*
X29938836Y75783659D01*
X29935624Y75787419D01*
X29935621Y75787424D01*
X29778442Y75971457D01*
X29778437Y75971462D01*
X29775224Y75975224D01*
X29729602Y76014189D01*
X29690793Y76073640D01*
X29690287Y76144634D01*
X29729602Y76205811D01*
X29771460Y76241561D01*
X29771462Y76241563D01*
X29775224Y76244776D01*
X29778437Y76248538D01*
X29778442Y76248543D01*
X29935621Y76432576D01*
X29935624Y76432581D01*
X29938836Y76436341D01*
X30070466Y76651141D01*
X30073140Y76657595D01*
X30164979Y76879316D01*
X30164980Y76879318D01*
X30166873Y76883889D01*
X30198539Y77015789D01*
X30224528Y77124039D01*
X30224529Y77124045D01*
X30225683Y77128852D01*
X30245449Y77380000D01*
X30225683Y77631148D01*
X30224291Y77636949D01*
X30172300Y77853504D01*
X30166873Y77876111D01*
X30095701Y78047937D01*
X30072361Y78104285D01*
X30072359Y78104289D01*
X30070466Y78108859D01*
X29938836Y78323659D01*
X29935624Y78327419D01*
X29935621Y78327424D01*
X29778442Y78511457D01*
X29778437Y78511462D01*
X29775224Y78515224D01*
X29729602Y78554189D01*
X29690793Y78613640D01*
X29690287Y78684634D01*
X29729602Y78745811D01*
X29771460Y78781561D01*
X29771462Y78781563D01*
X29775224Y78784776D01*
X29778437Y78788538D01*
X29778442Y78788543D01*
X29935621Y78972576D01*
X29935624Y78972581D01*
X29938836Y78976341D01*
X30070466Y79191141D01*
X30073140Y79197595D01*
X30164979Y79419316D01*
X30164980Y79419318D01*
X30166873Y79423889D01*
X30191565Y79526739D01*
X30224528Y79664039D01*
X30224529Y79664045D01*
X30225683Y79668852D01*
X30245449Y79920000D01*
X30225683Y80171148D01*
X30221814Y80187266D01*
X30172300Y80393504D01*
X30166873Y80416111D01*
X30164979Y80420684D01*
X30072361Y80644285D01*
X30072359Y80644289D01*
X30070466Y80648859D01*
X29938836Y80863659D01*
X29935624Y80867419D01*
X29935621Y80867424D01*
X29778437Y81051462D01*
X29775224Y81055224D01*
X29617422Y81190000D01*
X29587424Y81215621D01*
X29587419Y81215624D01*
X29583659Y81218836D01*
X29512204Y81262624D01*
X29464572Y81315272D01*
X29452965Y81385313D01*
X29481068Y81450511D01*
X29488943Y81459152D01*
X29641916Y81612125D01*
X29648972Y81620533D01*
X29773931Y81798993D01*
X29779414Y81808489D01*
X29871491Y82005950D01*
X29875236Y82016240D01*
X29882273Y82042501D01*
X29881938Y82056599D01*
X29873997Y82060000D01*
X26611153Y82060000D01*
X26597622Y82056027D01*
X26596393Y82047479D01*
X26604764Y82016240D01*
X26608509Y82005950D01*
X26700586Y81808489D01*
X26706069Y81798993D01*
X26831028Y81620533D01*
X26838084Y81612125D01*
X26991057Y81459152D01*
X27025083Y81396840D01*
X27020018Y81326025D01*
X26977471Y81269189D01*
X26967796Y81262624D01*
X26896341Y81218836D01*
X26892581Y81215624D01*
X26892576Y81215621D01*
X26862578Y81190000D01*
X26704776Y81055224D01*
X26701563Y81051462D01*
X26544379Y80867424D01*
X26544376Y80867419D01*
X26541164Y80863659D01*
X26409534Y80648859D01*
X26407641Y80644289D01*
X26407639Y80644285D01*
X26315021Y80420684D01*
X26313127Y80416111D01*
X26307700Y80393504D01*
X26258187Y80187266D01*
X26254317Y80171148D01*
X26234551Y79920000D01*
X26254317Y79668852D01*
X26255471Y79664045D01*
X26255472Y79664039D01*
X26288435Y79526739D01*
X26313127Y79423889D01*
X26315020Y79419318D01*
X26315021Y79419316D01*
X26406861Y79197595D01*
X26409534Y79191141D01*
X26541164Y78976341D01*
X26544376Y78972581D01*
X26544379Y78972576D01*
X26701558Y78788543D01*
X26701563Y78788538D01*
X26704776Y78784776D01*
X26708538Y78781563D01*
X26708540Y78781561D01*
X26750398Y78745811D01*
X26789207Y78686360D01*
X26789713Y78615366D01*
X26750398Y78554189D01*
X26704776Y78515224D01*
X26701563Y78511462D01*
X26701558Y78511457D01*
X26544379Y78327424D01*
X26544376Y78327419D01*
X26541164Y78323659D01*
X26409534Y78108859D01*
X26407641Y78104289D01*
X26407639Y78104285D01*
X26384299Y78047937D01*
X26313127Y77876111D01*
X26307700Y77853504D01*
X26255710Y77636949D01*
X26254317Y77631148D01*
X26234551Y77380000D01*
X26254317Y77128852D01*
X26255471Y77124045D01*
X26255472Y77124039D01*
X26281461Y77015789D01*
X26313127Y76883889D01*
X26315020Y76879318D01*
X26315021Y76879316D01*
X26406861Y76657595D01*
X26409534Y76651141D01*
X26541164Y76436341D01*
X26544376Y76432581D01*
X26544379Y76432576D01*
X26701558Y76248543D01*
X26701563Y76248538D01*
X26704776Y76244776D01*
X26708538Y76241563D01*
X26708540Y76241561D01*
X26750398Y76205811D01*
X26789207Y76146360D01*
X26789713Y76075366D01*
X26750398Y76014189D01*
X26704776Y75975224D01*
X26701563Y75971462D01*
X26701558Y75971457D01*
X26544379Y75787424D01*
X26544376Y75787419D01*
X26541164Y75783659D01*
X26409534Y75568859D01*
X26407641Y75564289D01*
X26407639Y75564285D01*
X26349218Y75423243D01*
X26313127Y75336111D01*
X26311972Y75331299D01*
X26255710Y75096949D01*
X26254317Y75091148D01*
X26234551Y74840000D01*
X26254317Y74588852D01*
X26255471Y74584045D01*
X26255472Y74584039D01*
X26279957Y74482054D01*
X26313127Y74343889D01*
X26315020Y74339318D01*
X26315021Y74339316D01*
X26406861Y74117595D01*
X26409534Y74111141D01*
X26541164Y73896341D01*
X26544376Y73892581D01*
X26544379Y73892576D01*
X26701558Y73708543D01*
X26701563Y73708538D01*
X26704776Y73704776D01*
X26708538Y73701563D01*
X26708540Y73701561D01*
X26750398Y73665811D01*
X26789207Y73606360D01*
X26789713Y73535366D01*
X26750398Y73474189D01*
X26704776Y73435224D01*
X26701563Y73431462D01*
X26701558Y73431457D01*
X26544379Y73247424D01*
X26544376Y73247419D01*
X26541164Y73243659D01*
X26409534Y73028859D01*
X26407641Y73024289D01*
X26407639Y73024285D01*
X26329083Y72834632D01*
X26313127Y72796111D01*
X26311972Y72791299D01*
X26255710Y72556949D01*
X26254317Y72551148D01*
X26234551Y72300000D01*
X26254317Y72048852D01*
X26255471Y72044045D01*
X26255472Y72044039D01*
X26279020Y71945956D01*
X26313127Y71803889D01*
X26315020Y71799318D01*
X26315021Y71799316D01*
X26406861Y71577595D01*
X26409534Y71571141D01*
X26541164Y71356341D01*
X26544376Y71352581D01*
X26544379Y71352576D01*
X26701558Y71168543D01*
X26701563Y71168538D01*
X26704776Y71164776D01*
X26708538Y71161563D01*
X26708540Y71161561D01*
X26750398Y71125811D01*
X26789207Y71066360D01*
X26789713Y70995366D01*
X26750398Y70934189D01*
X26704776Y70895224D01*
X26701563Y70891462D01*
X26701558Y70891457D01*
X26544379Y70707424D01*
X26544376Y70707419D01*
X26541164Y70703659D01*
X26409534Y70488859D01*
X26407641Y70484289D01*
X26407639Y70484285D01*
X26349218Y70343243D01*
X26313127Y70256111D01*
X26311972Y70251299D01*
X26255710Y70016949D01*
X26254317Y70011148D01*
X26234551Y69760000D01*
X26254317Y69508852D01*
X26255471Y69504045D01*
X26255472Y69504039D01*
X26279674Y69403232D01*
X26313127Y69263889D01*
X26315020Y69259318D01*
X26315021Y69259316D01*
X26406861Y69037595D01*
X26409534Y69031141D01*
X26541164Y68816341D01*
X26544376Y68812581D01*
X26544379Y68812576D01*
X26701558Y68628543D01*
X26701563Y68628538D01*
X26704776Y68624776D01*
X26708538Y68621563D01*
X26708540Y68621561D01*
X26750398Y68585811D01*
X26789207Y68526360D01*
X26789713Y68455366D01*
X26750398Y68394189D01*
X26704776Y68355224D01*
X26701563Y68351462D01*
X26701558Y68351457D01*
X26544379Y68167424D01*
X26544376Y68167419D01*
X26541164Y68163659D01*
X26409534Y67948859D01*
X26407641Y67944289D01*
X26407639Y67944285D01*
X26320991Y67735097D01*
X26313127Y67716111D01*
X26311972Y67711299D01*
X26255710Y67476949D01*
X26254317Y67471148D01*
X26234551Y67220000D01*
X26254317Y66968852D01*
X26255471Y66964045D01*
X26255472Y66964039D01*
X26279957Y66862054D01*
X26313127Y66723889D01*
X26315020Y66719318D01*
X26315021Y66719316D01*
X26406861Y66497595D01*
X26409534Y66491141D01*
X26541164Y66276341D01*
X26544376Y66272581D01*
X26544379Y66272576D01*
X26701558Y66088543D01*
X26701563Y66088538D01*
X26704776Y66084776D01*
X26708538Y66081563D01*
X26708540Y66081561D01*
X26750398Y66045811D01*
X26789207Y65986360D01*
X26789713Y65915366D01*
X26750398Y65854189D01*
X26704776Y65815224D01*
X26701563Y65811462D01*
X26701558Y65811457D01*
X26544379Y65627424D01*
X26544376Y65627419D01*
X26541164Y65623659D01*
X26409534Y65408859D01*
X26407641Y65404289D01*
X26407639Y65404285D01*
X26349218Y65263243D01*
X26313127Y65176111D01*
X26311972Y65171299D01*
X26255710Y64936949D01*
X26254317Y64931148D01*
X26234551Y64680000D01*
X26254317Y64428852D01*
X26255471Y64424045D01*
X26255472Y64424039D01*
X26279047Y64325842D01*
X26313127Y64183889D01*
X26315020Y64179318D01*
X26315021Y64179316D01*
X26406861Y63957595D01*
X26409534Y63951141D01*
X26541164Y63736341D01*
X26544376Y63732581D01*
X26544379Y63732576D01*
X26701558Y63548543D01*
X26701563Y63548538D01*
X26704776Y63544776D01*
X26708538Y63541563D01*
X26708540Y63541561D01*
X26750398Y63505811D01*
X26789207Y63446360D01*
X26789713Y63375366D01*
X26750398Y63314189D01*
X26704776Y63275224D01*
X26701563Y63271462D01*
X26701558Y63271457D01*
X26544379Y63087424D01*
X26544376Y63087419D01*
X26541164Y63083659D01*
X26409534Y62868859D01*
X26407641Y62864289D01*
X26407639Y62864285D01*
X26359455Y62747957D01*
X26313127Y62636111D01*
X26307700Y62613504D01*
X26255710Y62396949D01*
X26254317Y62391148D01*
X26234551Y62140000D01*
X26254317Y61888852D01*
X26255471Y61884045D01*
X26255472Y61884039D01*
X26288435Y61746739D01*
X26313127Y61643889D01*
X26315020Y61639318D01*
X26315021Y61639316D01*
X26406861Y61417595D01*
X26409534Y61411141D01*
X26541164Y61196341D01*
X26544376Y61192581D01*
X26544379Y61192576D01*
X26701558Y61008543D01*
X26701563Y61008538D01*
X26704776Y61004776D01*
X26708538Y61001563D01*
X26708540Y61001561D01*
X26750398Y60965811D01*
X26789207Y60906360D01*
X26789713Y60835366D01*
X26750398Y60774189D01*
X26704776Y60735224D01*
X26701563Y60731462D01*
X26701558Y60731457D01*
X26544379Y60547424D01*
X26544376Y60547419D01*
X26541164Y60543659D01*
X26409534Y60328859D01*
X26407641Y60324289D01*
X26407639Y60324285D01*
X26359455Y60207957D01*
X26313127Y60096111D01*
X26307700Y60073504D01*
X26255710Y59856949D01*
X26254317Y59851148D01*
X26234551Y59600000D01*
X26254317Y59348852D01*
X26255471Y59344045D01*
X26255472Y59344039D01*
X26288435Y59206739D01*
X26313127Y59103889D01*
X26315020Y59099318D01*
X26315021Y59099316D01*
X26406861Y58877595D01*
X26409534Y58871141D01*
X26541164Y58656341D01*
X26544376Y58652581D01*
X26544379Y58652576D01*
X26701558Y58468543D01*
X26701563Y58468538D01*
X26704776Y58464776D01*
X26708538Y58461563D01*
X26708540Y58461561D01*
X26750398Y58425811D01*
X26789207Y58366360D01*
X26789713Y58295366D01*
X26750398Y58234189D01*
X26704776Y58195224D01*
X26590846Y58061829D01*
X26531395Y58023020D01*
X26460400Y58022514D01*
X26405940Y58054565D01*
X20583262Y63877243D01*
X20577625Y63883261D01*
X20536457Y63930204D01*
X20532652Y63934543D01*
X20511598Y63951141D01*
X20459628Y63992111D01*
X20457066Y63994186D01*
X20390067Y64049908D01*
X20390065Y64049910D01*
X20385625Y64053602D01*
X20380581Y64056427D01*
X20380455Y64056498D01*
X20364033Y64067471D01*
X20363918Y64067562D01*
X20363913Y64067565D01*
X20359382Y64071137D01*
X20277125Y64114415D01*
X20274244Y64115979D01*
X20193121Y64161410D01*
X20187522Y64163310D01*
X20169355Y64171116D01*
X20169236Y64171178D01*
X20164122Y64173869D01*
X20075348Y64201434D01*
X20072222Y64202450D01*
X19989663Y64230475D01*
X19989658Y64230476D01*
X19984194Y64232331D01*
X19978326Y64233182D01*
X19959072Y64237539D01*
X19958925Y64237585D01*
X19958919Y64237586D01*
X19953409Y64239297D01*
X19947681Y64239975D01*
X19947676Y64239976D01*
X19873936Y64248703D01*
X19861086Y64250224D01*
X19857827Y64250653D01*
X19839117Y64253366D01*
X19771553Y64263163D01*
X19771549Y64263163D01*
X19765840Y64263991D01*
X19679456Y64260597D01*
X19674509Y64260500D01*
X17538631Y64260500D01*
X17470510Y64280502D01*
X17424017Y64334158D01*
X17413913Y64404432D01*
X17443407Y64469012D01*
X17482903Y64499506D01*
X17624766Y64569465D01*
X17629947Y64572020D01*
X17692616Y64618817D01*
X17802109Y64700580D01*
X17802110Y64700580D01*
X17806733Y64704033D01*
X17956501Y64866051D01*
X18074236Y65052650D01*
X18155994Y65257579D01*
X18174150Y65348852D01*
X18197911Y65468309D01*
X18197911Y65468312D01*
X18199038Y65473976D01*
X18199833Y65534661D01*
X18201235Y65641798D01*
X18201926Y65694594D01*
X18174191Y65856006D01*
X18165541Y65906346D01*
X18165541Y65906347D01*
X18164562Y65912043D01*
X18088196Y66119043D01*
X17994613Y66276341D01*
X17978340Y66303694D01*
X17978339Y66303695D01*
X17975386Y66308659D01*
X17829910Y66474543D01*
X17656640Y66611137D01*
X17461380Y66713869D01*
X17346408Y66749569D01*
X17287284Y66788871D01*
X17258793Y66853900D01*
X17269983Y66924010D01*
X17317300Y66976940D01*
X17349572Y66991170D01*
X17381754Y67000246D01*
X17432064Y67014435D01*
X17629947Y67112020D01*
X17692616Y67158817D01*
X17802109Y67240580D01*
X17802110Y67240580D01*
X17806733Y67244033D01*
X17956501Y67406051D01*
X18074236Y67592650D01*
X18155994Y67797579D01*
X18162022Y67827880D01*
X18197911Y68008309D01*
X18197911Y68008312D01*
X18199038Y68013976D01*
X18199680Y68062980D01*
X18201358Y68191183D01*
X18201926Y68234594D01*
X18164562Y68452043D01*
X18088196Y68659043D01*
X17994613Y68816341D01*
X17978340Y68843694D01*
X17978339Y68843695D01*
X17975386Y68848659D01*
X17829910Y69014543D01*
X17656640Y69151137D01*
X17461380Y69253869D01*
X17346408Y69289569D01*
X17287284Y69328871D01*
X17258793Y69393900D01*
X17269983Y69464010D01*
X17317300Y69516940D01*
X17349572Y69531170D01*
X17381754Y69540246D01*
X17432064Y69554435D01*
X17629947Y69652020D01*
X17641862Y69660917D01*
X17802109Y69780580D01*
X17802110Y69780580D01*
X17806733Y69784033D01*
X17956501Y69946051D01*
X18074236Y70132650D01*
X18155994Y70337579D01*
X18177948Y70447946D01*
X18197911Y70548309D01*
X18197911Y70548312D01*
X18199038Y70553976D01*
X18201926Y70774594D01*
X18164562Y70992043D01*
X18088196Y71199043D01*
X18071490Y71227123D01*
X17978340Y71383694D01*
X17978339Y71383695D01*
X17975386Y71388659D01*
X17829910Y71554543D01*
X17656640Y71691137D01*
X17461380Y71793869D01*
X17250667Y71859297D01*
X17236718Y71860948D01*
X17075211Y71880064D01*
X17075205Y71880064D01*
X17071524Y71880500D01*
X15105096Y71880500D01*
X15036975Y71900502D01*
X14990482Y71954158D01*
X14980378Y72024432D01*
X14982577Y72035913D01*
X14984527Y72044036D01*
X14984527Y72044038D01*
X14985683Y72048852D01*
X15005449Y72300000D01*
X14985683Y72551148D01*
X14984291Y72556949D01*
X14928028Y72791299D01*
X14926873Y72796111D01*
X14910917Y72834632D01*
X14832361Y73024285D01*
X14832359Y73024289D01*
X14830466Y73028859D01*
X14698836Y73243659D01*
X14695624Y73247419D01*
X14695621Y73247424D01*
X14538442Y73431457D01*
X14538437Y73431462D01*
X14535224Y73435224D01*
X14489602Y73474189D01*
X14450793Y73533640D01*
X14450287Y73604634D01*
X14489602Y73665811D01*
X14531460Y73701561D01*
X14531462Y73701563D01*
X14535224Y73704776D01*
X14538437Y73708538D01*
X14538442Y73708543D01*
X14695621Y73892576D01*
X14695624Y73892581D01*
X14698836Y73896341D01*
X14830466Y74111141D01*
X14833140Y74117595D01*
X14924979Y74339316D01*
X14924980Y74339318D01*
X14926873Y74343889D01*
X14957661Y74472130D01*
X14993013Y74533699D01*
X15056040Y74566382D01*
X15098260Y74567412D01*
X15124877Y74563553D01*
X15171189Y74556837D01*
X15171193Y74556837D01*
X15176902Y74556009D01*
X15263286Y74559403D01*
X15268233Y74559500D01*
X17055970Y74559500D01*
X17219711Y74574546D01*
X17225273Y74576115D01*
X17225275Y74576115D01*
X17325888Y74604491D01*
X17432064Y74634435D01*
X17629947Y74732020D01*
X17692616Y74778817D01*
X17802109Y74860580D01*
X17802110Y74860580D01*
X17806733Y74864033D01*
X17956501Y75026051D01*
X18074236Y75212650D01*
X18155994Y75417579D01*
X18177948Y75527946D01*
X18197911Y75628309D01*
X18197911Y75628312D01*
X18199038Y75633976D01*
X18201926Y75854594D01*
X18164562Y76072043D01*
X18088196Y76279043D01*
X17994613Y76436341D01*
X17978340Y76463694D01*
X17978339Y76463695D01*
X17975386Y76468659D01*
X17829910Y76634543D01*
X17656640Y76771137D01*
X17461380Y76873869D01*
X17346408Y76909569D01*
X17287284Y76948871D01*
X17258793Y77013900D01*
X17269983Y77084010D01*
X17317300Y77136940D01*
X17349572Y77151170D01*
X17381754Y77160246D01*
X17432064Y77174435D01*
X17629947Y77272020D01*
X17660254Y77294651D01*
X17802109Y77400580D01*
X17802110Y77400580D01*
X17806733Y77404033D01*
X17956501Y77566051D01*
X18074236Y77752650D01*
X18155994Y77957579D01*
X18173968Y78047937D01*
X18197911Y78168309D01*
X18197911Y78168312D01*
X18199038Y78173976D01*
X18201926Y78394594D01*
X18184373Y78496750D01*
X18165541Y78606346D01*
X18165541Y78606347D01*
X18164562Y78612043D01*
X18088196Y78819043D01*
X18002083Y78963785D01*
X17978340Y79003694D01*
X17978339Y79003695D01*
X17975386Y79008659D01*
X17829910Y79174543D01*
X17656640Y79311137D01*
X17461380Y79413869D01*
X17250667Y79479297D01*
X17218063Y79483156D01*
X17075211Y79500064D01*
X17075205Y79500064D01*
X17071524Y79500500D01*
X15749453Y79500500D01*
X15681332Y79520502D01*
X15660358Y79537405D01*
X14997881Y80199882D01*
X14964457Y80259563D01*
X14935559Y80379930D01*
X14926873Y80416111D01*
X14924979Y80420684D01*
X14832361Y80644285D01*
X14832359Y80644289D01*
X14830466Y80648859D01*
X14698836Y80863659D01*
X14695624Y80867419D01*
X14695621Y80867424D01*
X14538442Y81051457D01*
X14538437Y81051462D01*
X14535224Y81055224D01*
X14489602Y81094189D01*
X14450793Y81153640D01*
X14450287Y81224634D01*
X14489602Y81285811D01*
X14531460Y81321561D01*
X14531462Y81321563D01*
X14535224Y81324776D01*
X14538437Y81328538D01*
X14538442Y81328543D01*
X14695621Y81512576D01*
X14695624Y81512581D01*
X14698836Y81516341D01*
X14830466Y81731141D01*
X14833140Y81737595D01*
X14924979Y81959316D01*
X14924980Y81959318D01*
X14926873Y81963889D01*
X14966897Y82130602D01*
X14984528Y82204039D01*
X14984529Y82204045D01*
X14985683Y82208852D01*
X15005449Y82460000D01*
X14985683Y82711148D01*
X14981814Y82727266D01*
X14932300Y82933504D01*
X14926873Y82956111D01*
X14923263Y82964827D01*
X14832361Y83184285D01*
X14832359Y83184289D01*
X14830466Y83188859D01*
X14698836Y83403659D01*
X14547366Y83581008D01*
X14518336Y83645795D01*
X14528941Y83715995D01*
X14531217Y83720174D01*
X14531664Y83720734D01*
X14609827Y83882423D01*
X14636960Y83999948D01*
X14649026Y84052212D01*
X14649026Y84052215D01*
X14650226Y84057411D01*
X14650500Y84062163D01*
X14650500Y85000000D01*
X14650499Y85936043D01*
X14650499Y85937836D01*
X14650226Y85942589D01*
X14609827Y86117577D01*
X14573821Y86192060D01*
X14534731Y86272922D01*
X14534730Y86272923D01*
X14531664Y86279266D01*
X14419620Y86419620D01*
X14279266Y86531664D01*
X14117577Y86609827D01*
X14034954Y86628902D01*
X13947788Y86649026D01*
X13947785Y86649026D01*
X13942589Y86650226D01*
X13937837Y86650500D01*
X13936013Y86650500D01*
X12991963Y86650499D01*
X12062164Y86650499D01*
X12057411Y86650226D01*
X11882423Y86609827D01*
X11720734Y86531664D01*
X11580380Y86419620D01*
X11468336Y86279266D01*
X11465270Y86272923D01*
X11465269Y86272922D01*
X11401599Y86141212D01*
X11390173Y86117577D01*
X11388589Y86110716D01*
X11386248Y86104067D01*
X11384401Y86104717D01*
X11354348Y86051289D01*
X11291612Y86018052D01*
X11266382Y86015500D01*
X9739030Y86015500D01*
X9575289Y86000454D01*
X9569727Y85998885D01*
X9569725Y85998885D01*
X9471501Y85971183D01*
X9362936Y85940565D01*
X9165053Y85842980D01*
X8988267Y85710967D01*
X8838499Y85548949D01*
X8720764Y85362350D01*
X8639006Y85157421D01*
X8637880Y85151761D01*
X8637879Y85151757D01*
X8607693Y85000000D01*
X8595962Y84941024D01*
X8595886Y84935249D01*
X8595886Y84935245D01*
X8595112Y84876080D01*
X8593074Y84720406D01*
X8594053Y84714709D01*
X8594053Y84714708D01*
X8621753Y84553504D01*
X8630438Y84502957D01*
X8706804Y84295957D01*
X8709756Y84290996D01*
X8709756Y84290995D01*
X8759400Y84207552D01*
X8819614Y84106341D01*
X8965090Y83940457D01*
X9138360Y83803863D01*
X9333620Y83701131D01*
X9544333Y83635703D01*
X9550070Y83635024D01*
X9719789Y83614936D01*
X9719795Y83614936D01*
X9723476Y83614500D01*
X11207925Y83614500D01*
X11276046Y83594498D01*
X11322539Y83540842D01*
X11332643Y83470568D01*
X11306231Y83412191D01*
X11307286Y83411424D01*
X11304380Y83407424D01*
X11301164Y83403659D01*
X11169534Y83188859D01*
X11167641Y83184289D01*
X11167639Y83184285D01*
X11076737Y82964827D01*
X11073127Y82956111D01*
X11067700Y82933504D01*
X11018187Y82727266D01*
X11014317Y82711148D01*
X10994551Y82460000D01*
X11014317Y82208852D01*
X11015471Y82204045D01*
X11015472Y82204039D01*
X11033103Y82130602D01*
X11073127Y81963889D01*
X11075020Y81959318D01*
X11075021Y81959316D01*
X11166861Y81737595D01*
X11169534Y81731141D01*
X11301164Y81516341D01*
X11304376Y81512581D01*
X11304379Y81512576D01*
X11461558Y81328543D01*
X11461563Y81328538D01*
X11464776Y81324776D01*
X11468538Y81321563D01*
X11468540Y81321561D01*
X11510398Y81285811D01*
X11549207Y81226360D01*
X11549713Y81155366D01*
X11510398Y81094189D01*
X11464776Y81055224D01*
X11402596Y80982420D01*
X11343145Y80943611D01*
X11311732Y80938348D01*
X11241714Y80935597D01*
X11236767Y80935500D01*
X9739030Y80935500D01*
X9575289Y80920454D01*
X9569727Y80918885D01*
X9569725Y80918885D01*
X9471501Y80891183D01*
X9362936Y80860565D01*
X9165053Y80762980D01*
X8988267Y80630967D01*
X8838499Y80468949D01*
X8720764Y80282350D01*
X8639006Y80077421D01*
X8637880Y80071761D01*
X8637879Y80071757D01*
X8607693Y79920000D01*
X8595962Y79861024D01*
X8595886Y79855249D01*
X8595886Y79855245D01*
X8594497Y79749135D01*
X8593074Y79640406D01*
X8594053Y79634709D01*
X8594053Y79634708D01*
X8624992Y79454654D01*
X8630438Y79422957D01*
X8706804Y79215957D01*
X8709756Y79210996D01*
X8709756Y79210995D01*
X8800759Y79058034D01*
X8819614Y79026341D01*
X8965090Y78860457D01*
X9138360Y78723863D01*
X9333620Y78621131D01*
X9544333Y78555703D01*
X9550070Y78555024D01*
X9719789Y78534936D01*
X9719795Y78534936D01*
X9723476Y78534500D01*
X10715546Y78534500D01*
X10783667Y78514498D01*
X10804641Y78497595D01*
X11116986Y78185250D01*
X11151012Y78122938D01*
X11144300Y78047939D01*
X11073127Y77876111D01*
X11067700Y77853504D01*
X11015710Y77636949D01*
X11014317Y77631148D01*
X10994551Y77380000D01*
X11014317Y77128852D01*
X11015471Y77124045D01*
X11015472Y77124039D01*
X11041461Y77015789D01*
X11073127Y76883889D01*
X11075020Y76879318D01*
X11075021Y76879316D01*
X11166861Y76657595D01*
X11169534Y76651141D01*
X11301164Y76436341D01*
X11304376Y76432581D01*
X11304379Y76432576D01*
X11461558Y76248543D01*
X11461563Y76248538D01*
X11464776Y76244776D01*
X11468538Y76241563D01*
X11468540Y76241561D01*
X11510398Y76205811D01*
X11549207Y76146360D01*
X11549713Y76075366D01*
X11510398Y76014189D01*
X11464776Y75975224D01*
X11461563Y75971462D01*
X11461558Y75971457D01*
X11304379Y75787424D01*
X11304376Y75787419D01*
X11301164Y75783659D01*
X11169534Y75568859D01*
X11167641Y75564289D01*
X11167639Y75564285D01*
X11109218Y75423243D01*
X11073127Y75336111D01*
X11071972Y75331299D01*
X11015710Y75096949D01*
X11014317Y75091148D01*
X10994551Y74840000D01*
X11014317Y74588852D01*
X11015471Y74584045D01*
X11015472Y74584039D01*
X11039957Y74482054D01*
X11073127Y74343889D01*
X11075020Y74339318D01*
X11075021Y74339316D01*
X11166861Y74117595D01*
X11169534Y74111141D01*
X11301164Y73896341D01*
X11304376Y73892581D01*
X11304379Y73892576D01*
X11461558Y73708543D01*
X11461563Y73708538D01*
X11464776Y73704776D01*
X11468538Y73701563D01*
X11468540Y73701561D01*
X11510398Y73665811D01*
X11549207Y73606360D01*
X11549713Y73535366D01*
X11510398Y73474189D01*
X11464776Y73435224D01*
X11461563Y73431462D01*
X11461558Y73431457D01*
X11304379Y73247424D01*
X11304376Y73247419D01*
X11301164Y73243659D01*
X11169534Y73028859D01*
X11167641Y73024289D01*
X11167639Y73024285D01*
X11089083Y72834632D01*
X11073127Y72796111D01*
X11071972Y72791299D01*
X11015710Y72556949D01*
X11014317Y72551148D01*
X10994551Y72300000D01*
X11014317Y72048852D01*
X11015471Y72044045D01*
X11015472Y72044039D01*
X11039020Y71945956D01*
X11073127Y71803889D01*
X11075020Y71799318D01*
X11075021Y71799316D01*
X11166861Y71577595D01*
X11169534Y71571141D01*
X11301164Y71356341D01*
X11304376Y71352581D01*
X11304379Y71352576D01*
X11461558Y71168543D01*
X11461563Y71168538D01*
X11464776Y71164776D01*
X11468538Y71161563D01*
X11468540Y71161561D01*
X11510398Y71125811D01*
X11549207Y71066360D01*
X11549713Y70995366D01*
X11510398Y70934189D01*
X11464776Y70895224D01*
X11461563Y70891462D01*
X11461558Y70891457D01*
X11304379Y70707424D01*
X11304376Y70707419D01*
X11301164Y70703659D01*
X11169534Y70488859D01*
X11167641Y70484289D01*
X11167639Y70484285D01*
X11109218Y70343243D01*
X11073127Y70256111D01*
X11071972Y70251299D01*
X11015710Y70016949D01*
X11014317Y70011148D01*
X10994551Y69760000D01*
X11014317Y69508852D01*
X11015471Y69504045D01*
X11015472Y69504039D01*
X11039674Y69403232D01*
X11073127Y69263889D01*
X11169534Y69031141D01*
X11172120Y69026921D01*
X11179889Y69014243D01*
X11198427Y68945710D01*
X11176970Y68878033D01*
X11161551Y68859314D01*
X10574642Y68272405D01*
X10512330Y68238379D01*
X10485547Y68235500D01*
X9739030Y68235500D01*
X9575289Y68220454D01*
X9569727Y68218885D01*
X9569725Y68218885D01*
X9493938Y68197511D01*
X9362936Y68160565D01*
X9165053Y68062980D01*
X9160427Y68059526D01*
X9160426Y68059525D01*
X9049422Y67976634D01*
X8988267Y67930967D01*
X8838499Y67768949D01*
X8720764Y67582350D01*
X8639006Y67377421D01*
X8637880Y67371761D01*
X8637879Y67371757D01*
X8607693Y67220000D01*
X8595962Y67161024D01*
X8595886Y67155249D01*
X8595886Y67155245D01*
X8595287Y67109465D01*
X8593074Y66940406D01*
X8594053Y66934709D01*
X8594053Y66934708D01*
X8629380Y66729117D01*
X8630438Y66722957D01*
X8706804Y66515957D01*
X8709756Y66510996D01*
X8709756Y66510995D01*
X8752212Y66439634D01*
X8819614Y66326341D01*
X8965090Y66160457D01*
X9138360Y66023863D01*
X9333620Y65921131D01*
X9544333Y65855703D01*
X9550070Y65855024D01*
X9719789Y65834936D01*
X9719795Y65834936D01*
X9723476Y65834500D01*
X10990271Y65834500D01*
X10998513Y65834230D01*
X11066560Y65829770D01*
X11158928Y65840702D01*
X11162082Y65841034D01*
X11205867Y65845058D01*
X11275530Y65831372D01*
X11326737Y65782195D01*
X11343228Y65713140D01*
X11319767Y65646132D01*
X11313214Y65637767D01*
X11301164Y65623659D01*
X11169534Y65408859D01*
X11167641Y65404289D01*
X11167639Y65404285D01*
X11109218Y65263243D01*
X11073127Y65176111D01*
X11071972Y65171299D01*
X11015710Y64936949D01*
X11014317Y64931148D01*
X10994551Y64680000D01*
X11014317Y64428852D01*
X11015471Y64424045D01*
X11015472Y64424039D01*
X11039047Y64325842D01*
X11073127Y64183889D01*
X11075020Y64179318D01*
X11075021Y64179316D01*
X11166861Y63957595D01*
X11169534Y63951141D01*
X11301164Y63736341D01*
X11304376Y63732581D01*
X11304379Y63732576D01*
X11461558Y63548543D01*
X11461563Y63548538D01*
X11464776Y63544776D01*
X11468538Y63541563D01*
X11468540Y63541561D01*
X11510398Y63505811D01*
X11549207Y63446360D01*
X11549713Y63375366D01*
X11510398Y63314189D01*
X11464776Y63275224D01*
X11461563Y63271462D01*
X11461558Y63271457D01*
X11304379Y63087424D01*
X11304376Y63087419D01*
X11301164Y63083659D01*
X11169534Y62868859D01*
X11167641Y62864289D01*
X11167639Y62864285D01*
X11119455Y62747957D01*
X11073127Y62636111D01*
X11067700Y62613504D01*
X11015710Y62396949D01*
X11014317Y62391148D01*
X10994551Y62140000D01*
X11014317Y61888852D01*
X11015471Y61884045D01*
X11015472Y61884039D01*
X11048435Y61746739D01*
X11073127Y61643889D01*
X11075020Y61639318D01*
X11075021Y61639316D01*
X11166861Y61417595D01*
X11169534Y61411141D01*
X11301164Y61196341D01*
X11304376Y61192581D01*
X11304379Y61192576D01*
X11461558Y61008543D01*
X11461563Y61008538D01*
X11464776Y61004776D01*
X11468538Y61001563D01*
X11468540Y61001561D01*
X11510398Y60965811D01*
X11549207Y60906360D01*
X11549713Y60835366D01*
X11510398Y60774189D01*
X11464776Y60735224D01*
X11461563Y60731462D01*
X11461558Y60731457D01*
X11304379Y60547424D01*
X11304376Y60547419D01*
X11301164Y60543659D01*
X11169534Y60328859D01*
X11167641Y60324289D01*
X11167639Y60324285D01*
X11119455Y60207957D01*
X11073127Y60096111D01*
X11067700Y60073504D01*
X11015710Y59856949D01*
X11014317Y59851148D01*
X10994551Y59600000D01*
X11014317Y59348852D01*
X11015471Y59344045D01*
X11015472Y59344039D01*
X11048435Y59206739D01*
X11073127Y59103889D01*
X11075020Y59099318D01*
X11075021Y59099316D01*
X11166861Y58877595D01*
X11169534Y58871141D01*
X11301164Y58656341D01*
X11304376Y58652581D01*
X11304379Y58652576D01*
X11461558Y58468543D01*
X11461563Y58468538D01*
X11464776Y58464776D01*
X11468538Y58461563D01*
X11468540Y58461561D01*
X11510398Y58425811D01*
X11549207Y58366360D01*
X11549713Y58295366D01*
X11510398Y58234189D01*
X11464776Y58195224D01*
X11461563Y58191462D01*
X11461558Y58191457D01*
X11304379Y58007424D01*
X11304376Y58007419D01*
X11301164Y58003659D01*
X11169534Y57788859D01*
X11167641Y57784289D01*
X11167639Y57784285D01*
X11075021Y57560684D01*
X11073127Y57556111D01*
X11067700Y57533504D01*
X11016707Y57321103D01*
X11014317Y57311148D01*
X10994551Y57060000D01*
X11014317Y56808852D01*
X11015471Y56804045D01*
X11015472Y56804039D01*
X11041461Y56695789D01*
X11073127Y56563889D01*
X11075020Y56559318D01*
X11075021Y56559316D01*
X11166861Y56337595D01*
X11169534Y56331141D01*
X11301164Y56116341D01*
X11304376Y56112581D01*
X11304379Y56112576D01*
X11461558Y55928543D01*
X11461563Y55928538D01*
X11464776Y55924776D01*
X11468538Y55921563D01*
X11468540Y55921561D01*
X11510398Y55885811D01*
X11549207Y55826360D01*
X11549713Y55755366D01*
X11510398Y55694189D01*
X11464776Y55655224D01*
X11461563Y55651462D01*
X11461558Y55651457D01*
X11304379Y55467424D01*
X11304376Y55467419D01*
X11301164Y55463659D01*
X11169534Y55248859D01*
X11167641Y55244289D01*
X11167639Y55244285D01*
X11161333Y55229060D01*
X11073127Y55016111D01*
X11014317Y54771148D01*
X10994551Y54520000D01*
X11014317Y54268852D01*
X11015471Y54264045D01*
X11015472Y54264039D01*
X11033103Y54190602D01*
X11073127Y54023889D01*
X11075020Y54019318D01*
X11075021Y54019316D01*
X11115010Y53922774D01*
X11122599Y53852184D01*
X11087697Y53785461D01*
X10374642Y53072405D01*
X10312329Y53038380D01*
X10285546Y53035500D01*
X9739030Y53035500D01*
X9575289Y53020454D01*
X9569727Y53018885D01*
X9569725Y53018885D01*
X9469112Y52990509D01*
X9362936Y52960565D01*
X9165053Y52862980D01*
X8988267Y52730967D01*
X8926671Y52664333D01*
X8845091Y52576080D01*
X8838499Y52568949D01*
X8720764Y52382350D01*
X8639006Y52177421D01*
X8637880Y52171761D01*
X8637879Y52171757D01*
X8599027Y51976433D01*
X8595962Y51961024D01*
X8595886Y51955249D01*
X8595886Y51955245D01*
X8595121Y51896794D01*
X8593074Y51740406D01*
X7300500Y51740406D01*
X7300500Y52751571D01*
X7310091Y52799789D01*
X7367679Y52938817D01*
X7367680Y52938819D01*
X7369573Y52943390D01*
X7402505Y53080559D01*
X7429066Y53191193D01*
X7429067Y53191199D01*
X7430221Y53196006D01*
X7450604Y53455000D01*
X7430221Y53713994D01*
X7429067Y53718801D01*
X7429066Y53718807D01*
X7390780Y53878276D01*
X7369573Y53966610D01*
X7367288Y53972128D01*
X7333104Y54054654D01*
X7310091Y54110212D01*
X7300500Y54158429D01*
X7300500Y57791571D01*
X7310091Y57839789D01*
X7367679Y57978817D01*
X7367680Y57978819D01*
X7369573Y57983390D01*
X7421868Y58201212D01*
X7429066Y58231193D01*
X7429067Y58231199D01*
X7430221Y58236006D01*
X7450604Y58495000D01*
X7430221Y58753994D01*
X7429067Y58758801D01*
X7429066Y58758807D01*
X7370728Y59001798D01*
X7369573Y59006610D01*
X7353364Y59045743D01*
X7325550Y59112891D01*
X7310091Y59150212D01*
X7300500Y59198429D01*
X7300500Y60331571D01*
X7310091Y60379789D01*
X7367679Y60518817D01*
X7367680Y60518819D01*
X7369573Y60523390D01*
X7421868Y60741212D01*
X7429066Y60771193D01*
X7429067Y60771199D01*
X7430221Y60776006D01*
X7450604Y61035000D01*
X7430221Y61293994D01*
X7429067Y61298801D01*
X7429066Y61298807D01*
X7370728Y61541798D01*
X7369573Y61546610D01*
X7353364Y61585743D01*
X7325550Y61652891D01*
X7310091Y61690212D01*
X7300500Y61738429D01*
X7300500Y62871571D01*
X7310091Y62919789D01*
X7367679Y63058817D01*
X7367680Y63058819D01*
X7369573Y63063390D01*
X7421868Y63281212D01*
X7429066Y63311193D01*
X7429067Y63311199D01*
X7430221Y63316006D01*
X7450604Y63575000D01*
X7430221Y63833994D01*
X7429067Y63838801D01*
X7429066Y63838807D01*
X7378384Y64049908D01*
X7369573Y64086610D01*
X7310091Y64230212D01*
X7300500Y64278429D01*
X7300500Y65411571D01*
X7310091Y65459789D01*
X7367679Y65598817D01*
X7367680Y65598819D01*
X7369573Y65603390D01*
X7395922Y65713140D01*
X7429066Y65851193D01*
X7429067Y65851199D01*
X7430221Y65856006D01*
X7450604Y66115000D01*
X7430221Y66373994D01*
X7429067Y66378801D01*
X7429066Y66378807D01*
X7370728Y66621798D01*
X7369573Y66626610D01*
X7310091Y66770212D01*
X7300500Y66818429D01*
X7300500Y67951571D01*
X7310091Y67999789D01*
X7312436Y68005449D01*
X7369573Y68143390D01*
X7400547Y68272405D01*
X7429066Y68391193D01*
X7429067Y68391199D01*
X7430221Y68396006D01*
X7450604Y68655000D01*
X7430221Y68913994D01*
X7429067Y68918801D01*
X7429066Y68918807D01*
X7372340Y69155083D01*
X7369573Y69166610D01*
X7351095Y69211221D01*
X7318642Y69289568D01*
X7310091Y69310212D01*
X7300500Y69358429D01*
X7300500Y70491571D01*
X7310091Y70539789D01*
X7367679Y70678817D01*
X7367680Y70678819D01*
X7369573Y70683390D01*
X7392837Y70780292D01*
X7429066Y70931193D01*
X7429067Y70931199D01*
X7430221Y70936006D01*
X7450604Y71195000D01*
X7430221Y71453994D01*
X7429067Y71458801D01*
X7429066Y71458807D01*
X7370728Y71701798D01*
X7369573Y71706610D01*
X7310091Y71850212D01*
X7300500Y71898429D01*
X7300500Y73031571D01*
X7310091Y73079789D01*
X7367679Y73218817D01*
X7367680Y73218819D01*
X7369573Y73223390D01*
X7421202Y73438439D01*
X7429066Y73471193D01*
X7429067Y73471199D01*
X7430221Y73476006D01*
X7450604Y73735000D01*
X7430221Y73993994D01*
X7429067Y73998801D01*
X7429066Y73998807D01*
X7370728Y74241798D01*
X7369573Y74246610D01*
X7310091Y74390212D01*
X7300500Y74438429D01*
X7300500Y75571571D01*
X7310091Y75619789D01*
X7367679Y75758817D01*
X7367680Y75758819D01*
X7369573Y75763390D01*
X7421202Y75978439D01*
X7429066Y76011193D01*
X7429067Y76011199D01*
X7430221Y76016006D01*
X7450604Y76275000D01*
X7430221Y76533994D01*
X7429067Y76538801D01*
X7429066Y76538807D01*
X7370728Y76781798D01*
X7369573Y76786610D01*
X7310091Y76930212D01*
X7300500Y76978429D01*
X7300500Y78111571D01*
X7310091Y78159789D01*
X7320638Y78185250D01*
X7369573Y78303390D01*
X7421868Y78521212D01*
X7429066Y78551193D01*
X7429067Y78551199D01*
X7430221Y78556006D01*
X7450604Y78815000D01*
X7430221Y79073994D01*
X7429067Y79078801D01*
X7429066Y79078807D01*
X7370728Y79321798D01*
X7369573Y79326610D01*
X7353364Y79365743D01*
X7331173Y79419316D01*
X7310091Y79470212D01*
X7300500Y79518429D01*
X7300500Y79999293D01*
X7319881Y80066437D01*
X7322268Y80070227D01*
X7326664Y80075734D01*
X7343806Y80111193D01*
X7375115Y80175961D01*
X7404827Y80237423D01*
X7415199Y80282350D01*
X7444026Y80407212D01*
X7444026Y80407215D01*
X7445226Y80412411D01*
X7445500Y80417163D01*
X7445499Y82292836D01*
X7445226Y82297589D01*
X7404827Y82472577D01*
X7326664Y82634266D01*
X7322267Y82639774D01*
X7319881Y82643563D01*
X7300500Y82710707D01*
X7300500Y88409125D01*
X7320502Y88477246D01*
X7337405Y88498220D01*
X13501780Y94662595D01*
X13564092Y94696621D01*
X13590875Y94699500D01*
X27573500Y94699500D01*
X27641621Y94679498D01*
X27688114Y94625842D01*
X27699500Y94573500D01*
X27699500Y87113785D01*
X27699499Y87113779D01*
X27699499Y86886221D01*
X27700455Y86880800D01*
X27708442Y86835501D01*
X27709876Y86824604D01*
X27713884Y86778798D01*
X27713885Y86778790D01*
X27714365Y86773308D01*
X27715787Y86768000D01*
X27715789Y86767990D01*
X27721797Y86745571D01*
X27720109Y86674594D01*
X27680315Y86615798D01*
X27609979Y86587347D01*
X27593798Y86586073D01*
X27593789Y86586072D01*
X27588852Y86585683D01*
X27584045Y86584529D01*
X27584039Y86584528D01*
X27428289Y86547135D01*
X27343889Y86526873D01*
X27339318Y86524980D01*
X27339316Y86524979D01*
X27115715Y86432361D01*
X27115711Y86432359D01*
X27111141Y86430466D01*
X26896341Y86298836D01*
X26892581Y86295624D01*
X26892576Y86295621D01*
X26793320Y86210848D01*
X26704776Y86135224D01*
X26701563Y86131462D01*
X26544379Y85947424D01*
X26544376Y85947419D01*
X26541164Y85943659D01*
X26409534Y85728859D01*
X26407641Y85724289D01*
X26407639Y85724285D01*
X26324163Y85522754D01*
X26313127Y85496111D01*
X26307700Y85473504D01*
X26258187Y85267266D01*
X26254317Y85251148D01*
X26234551Y85000000D01*
X26254317Y84748852D01*
X26255471Y84744045D01*
X26255472Y84744039D01*
X26286756Y84613733D01*
X26313127Y84503889D01*
X26315020Y84499318D01*
X26315021Y84499316D01*
X26406861Y84277595D01*
X26409534Y84271141D01*
X26412120Y84266921D01*
X26427958Y84241076D01*
X26541164Y84056341D01*
X26544376Y84052581D01*
X26544379Y84052576D01*
X26640138Y83940457D01*
X26704776Y83864776D01*
X26708538Y83861563D01*
X26892576Y83704379D01*
X26892581Y83704376D01*
X26896341Y83701164D01*
X26900563Y83698577D01*
X26900564Y83698576D01*
X26967796Y83657376D01*
X27015428Y83604728D01*
X27027035Y83534687D01*
X26998932Y83469489D01*
X26991057Y83460848D01*
X26838084Y83307875D01*
X26831028Y83299467D01*
X26706069Y83121007D01*
X26700586Y83111511D01*
X26608509Y82914050D01*
X26604764Y82903760D01*
X26597727Y82877499D01*
X26598062Y82863401D01*
X26606003Y82860000D01*
X29868847Y82860000D01*
X29882378Y82863973D01*
X29883607Y82872521D01*
X29875236Y82903760D01*
X29871491Y82914050D01*
X29779414Y83111511D01*
X29773931Y83121007D01*
X29648972Y83299467D01*
X29641916Y83307875D01*
X29488943Y83460848D01*
X29454917Y83523160D01*
X29459982Y83593975D01*
X29502529Y83650811D01*
X29512204Y83657376D01*
X29579436Y83698576D01*
X29579437Y83698577D01*
X29583659Y83701164D01*
X29587419Y83704376D01*
X29587424Y83704379D01*
X29771462Y83861563D01*
X29775224Y83864776D01*
X29839862Y83940457D01*
X29935621Y84052576D01*
X29935624Y84052581D01*
X29938836Y84056341D01*
X30052042Y84241076D01*
X30067880Y84266921D01*
X30070466Y84271141D01*
X30073140Y84277595D01*
X30164979Y84499316D01*
X30164980Y84499318D01*
X30166873Y84503889D01*
X30168028Y84508701D01*
X30168030Y84508706D01*
X30171442Y84522917D01*
X30206796Y84584485D01*
X30269823Y84617167D01*
X30293960Y84619500D01*
X31343215Y84619500D01*
X31411336Y84599498D01*
X31457829Y84545842D01*
X31467933Y84475568D01*
X31438439Y84410988D01*
X31415488Y84390289D01*
X31400861Y84380047D01*
X31239953Y84219139D01*
X31109432Y84032734D01*
X31107111Y84027756D01*
X31107109Y84027753D01*
X31031111Y83864776D01*
X31013261Y83826496D01*
X31011839Y83821188D01*
X31011838Y83821186D01*
X30962597Y83637416D01*
X30954365Y83606692D01*
X30934532Y83380000D01*
X30954365Y83153308D01*
X30955789Y83147995D01*
X30955789Y83147993D01*
X31007204Y82956111D01*
X31013261Y82933504D01*
X31015583Y82928524D01*
X31015584Y82928522D01*
X31047537Y82860000D01*
X31109432Y82727266D01*
X31239953Y82540861D01*
X31400861Y82379953D01*
X31587266Y82249432D01*
X31592244Y82247111D01*
X31592247Y82247109D01*
X31621674Y82233387D01*
X31638919Y82225346D01*
X31641387Y82224195D01*
X31694672Y82177278D01*
X31714133Y82109000D01*
X31693591Y82041041D01*
X31641388Y81995805D01*
X31633926Y81992326D01*
X31592247Y81972891D01*
X31592244Y81972889D01*
X31587266Y81970568D01*
X31400861Y81840047D01*
X31239953Y81679139D01*
X31109432Y81492734D01*
X31107111Y81487756D01*
X31107109Y81487753D01*
X31015584Y81291478D01*
X31013261Y81286496D01*
X31011839Y81281188D01*
X31011838Y81281186D01*
X30971555Y81130848D01*
X30954365Y81066692D01*
X30934532Y80840000D01*
X30954365Y80613308D01*
X30955789Y80607995D01*
X30955789Y80607993D01*
X31007204Y80416111D01*
X31013261Y80393504D01*
X31015583Y80388524D01*
X31015584Y80388522D01*
X31089001Y80231081D01*
X31109432Y80187266D01*
X31239953Y80000861D01*
X31400861Y79839953D01*
X31587266Y79709432D01*
X31592244Y79707111D01*
X31592247Y79707109D01*
X31641387Y79684195D01*
X31694672Y79637278D01*
X31714133Y79569000D01*
X31693591Y79501041D01*
X31641388Y79455805D01*
X31621674Y79446613D01*
X31592247Y79432891D01*
X31592244Y79432889D01*
X31587266Y79430568D01*
X31400861Y79300047D01*
X31239953Y79139139D01*
X31109432Y78952734D01*
X31107111Y78947756D01*
X31107109Y78947753D01*
X31066402Y78860457D01*
X31013261Y78746496D01*
X31011839Y78741188D01*
X31011838Y78741186D01*
X30962138Y78555703D01*
X30954365Y78526692D01*
X30934532Y78300000D01*
X30954365Y78073308D01*
X30955789Y78067995D01*
X30955789Y78067993D01*
X31007204Y77876111D01*
X31013261Y77853504D01*
X31015583Y77848524D01*
X31015584Y77848522D01*
X31048515Y77777903D01*
X31109432Y77647266D01*
X31239953Y77460861D01*
X31400861Y77299953D01*
X31587266Y77169432D01*
X31592244Y77167111D01*
X31592247Y77167109D01*
X31788522Y77075584D01*
X31793504Y77073261D01*
X31798812Y77071839D01*
X31798814Y77071838D01*
X32007993Y77015789D01*
X32007995Y77015789D01*
X32013308Y77014365D01*
X32112302Y77005704D01*
X32180492Y76999738D01*
X32180499Y76999738D01*
X32183216Y76999500D01*
X33609125Y76999500D01*
X33677246Y76979498D01*
X33698220Y76962595D01*
X34032443Y76628372D01*
X34066469Y76566060D01*
X34069348Y76539277D01*
X34069348Y70221198D01*
X34069347Y70221192D01*
X34069347Y69993634D01*
X34070303Y69988213D01*
X34078290Y69942914D01*
X34079724Y69932017D01*
X34083732Y69886211D01*
X34083733Y69886203D01*
X34084213Y69880721D01*
X34096980Y69833075D01*
X34097541Y69830980D01*
X34099920Y69820249D01*
X34108863Y69769533D01*
X34110743Y69764368D01*
X34110745Y69764360D01*
X34126474Y69721146D01*
X34129780Y69710661D01*
X34141684Y69666233D01*
X34141686Y69666227D01*
X34143109Y69660917D01*
X34158393Y69628140D01*
X34164874Y69614242D01*
X34169080Y69604086D01*
X34186692Y69555698D01*
X34209069Y69516940D01*
X34212446Y69511090D01*
X34217512Y69501359D01*
X34239280Y69454679D01*
X34268821Y69412489D01*
X34274712Y69403243D01*
X34300471Y69358627D01*
X34332462Y69320502D01*
X34333569Y69319183D01*
X34340259Y69310466D01*
X34369801Y69268274D01*
X34530709Y69107366D01*
X34530711Y69107365D01*
X35840667Y67797409D01*
X35874693Y67735097D01*
X35869628Y67664282D01*
X35827081Y67607446D01*
X35760561Y67582635D01*
X35691187Y67597726D01*
X35669742Y67612503D01*
X35572424Y67695621D01*
X35572419Y67695624D01*
X35568659Y67698836D01*
X35353859Y67830466D01*
X35349289Y67832359D01*
X35349285Y67832361D01*
X35125684Y67924979D01*
X35125682Y67924980D01*
X35121111Y67926873D01*
X35018236Y67951571D01*
X34880961Y67984528D01*
X34880955Y67984529D01*
X34876148Y67985683D01*
X34625000Y68005449D01*
X34373852Y67985683D01*
X34369045Y67984529D01*
X34369039Y67984528D01*
X34231764Y67951571D01*
X34128889Y67926873D01*
X34124318Y67924980D01*
X34124316Y67924979D01*
X33900715Y67832361D01*
X33900711Y67832359D01*
X33896141Y67830466D01*
X33681341Y67698836D01*
X33677581Y67695624D01*
X33677576Y67695621D01*
X33562956Y67597726D01*
X33489776Y67535224D01*
X33486563Y67531462D01*
X33329379Y67347424D01*
X33329376Y67347419D01*
X33326164Y67343659D01*
X33194534Y67128859D01*
X33192641Y67124289D01*
X33192639Y67124285D01*
X33116099Y66939500D01*
X33098127Y66896111D01*
X33079477Y66818429D01*
X33051492Y66701860D01*
X33039317Y66651148D01*
X33038929Y66646214D01*
X33025076Y66470196D01*
X33024500Y66462882D01*
X33024500Y65537118D01*
X33024693Y65534670D01*
X33024693Y65534661D01*
X33029469Y65473976D01*
X33039317Y65348852D01*
X33040471Y65344045D01*
X33040472Y65344039D01*
X33062517Y65252215D01*
X33098127Y65103889D01*
X33100020Y65099318D01*
X33100021Y65099316D01*
X33192519Y64876006D01*
X33194534Y64871141D01*
X33326164Y64656341D01*
X33401334Y64568328D01*
X33430364Y64503541D01*
X33419759Y64433341D01*
X33372885Y64380019D01*
X33305522Y64360500D01*
X32183216Y64360500D01*
X32180499Y64360262D01*
X32180492Y64360262D01*
X32112302Y64354296D01*
X32013308Y64345635D01*
X32007995Y64344211D01*
X32007993Y64344211D01*
X31798814Y64288162D01*
X31798812Y64288161D01*
X31793504Y64286739D01*
X31788524Y64284417D01*
X31788522Y64284416D01*
X31592247Y64192891D01*
X31592244Y64192889D01*
X31587266Y64190568D01*
X31400861Y64060047D01*
X31239953Y63899139D01*
X31109432Y63712734D01*
X31107111Y63707756D01*
X31107109Y63707753D01*
X31032868Y63548543D01*
X31013261Y63506496D01*
X31011839Y63501188D01*
X31011838Y63501186D01*
X30961733Y63314189D01*
X30954365Y63286692D01*
X30934532Y63060000D01*
X30954365Y62833308D01*
X30955789Y62827995D01*
X30955789Y62827993D01*
X31007204Y62636111D01*
X31013261Y62613504D01*
X31015583Y62608524D01*
X31015584Y62608522D01*
X31095144Y62437907D01*
X31109432Y62407266D01*
X31239953Y62220861D01*
X31400861Y62059953D01*
X31587266Y61929432D01*
X31592244Y61927111D01*
X31592247Y61927109D01*
X31621674Y61913387D01*
X31628012Y61910432D01*
X31641387Y61904195D01*
X31694672Y61857278D01*
X31714133Y61789000D01*
X31693591Y61721041D01*
X31641388Y61675805D01*
X31626429Y61668830D01*
X31592247Y61652891D01*
X31592244Y61652889D01*
X31587266Y61650568D01*
X31400861Y61520047D01*
X31239953Y61359139D01*
X31109432Y61172734D01*
X31107111Y61167756D01*
X31107109Y61167753D01*
X31032868Y61008543D01*
X31013261Y60966496D01*
X31011839Y60961188D01*
X31011838Y60961186D01*
X30961733Y60774189D01*
X30954365Y60746692D01*
X30934532Y60520000D01*
X30954365Y60293308D01*
X30955789Y60287995D01*
X30955789Y60287993D01*
X31007204Y60096111D01*
X31013261Y60073504D01*
X31015583Y60068524D01*
X31015584Y60068522D01*
X31095144Y59897907D01*
X31109432Y59867266D01*
X31239953Y59680861D01*
X31400861Y59519953D01*
X31587266Y59389432D01*
X31592244Y59387111D01*
X31592247Y59387109D01*
X31641387Y59364195D01*
X31694672Y59317278D01*
X31714133Y59249000D01*
X31693591Y59181041D01*
X31641388Y59135805D01*
X31621674Y59126613D01*
X31592247Y59112891D01*
X31592244Y59112889D01*
X31587266Y59110568D01*
X31400861Y58980047D01*
X31239953Y58819139D01*
X31109432Y58632734D01*
X31013261Y58426496D01*
X31011839Y58421188D01*
X31011838Y58421186D01*
X30961733Y58234189D01*
X30954365Y58206692D01*
X30934532Y57980000D01*
X30954365Y57753308D01*
X30955789Y57747995D01*
X30955789Y57747993D01*
X31007204Y57556111D01*
X31013261Y57533504D01*
X31015583Y57528524D01*
X31015584Y57528522D01*
X31024189Y57510070D01*
X31109432Y57327266D01*
X31239953Y57140861D01*
X31400861Y56979953D01*
X31587266Y56849432D01*
X31592244Y56847111D01*
X31592247Y56847109D01*
X31788522Y56755584D01*
X31793504Y56753261D01*
X31798812Y56751839D01*
X31798814Y56751838D01*
X32007993Y56695789D01*
X32007995Y56695789D01*
X32013308Y56694365D01*
X32112302Y56685704D01*
X32180492Y56679738D01*
X32180499Y56679738D01*
X32183216Y56679500D01*
X35429125Y56679500D01*
X35497246Y56659498D01*
X35518220Y56642595D01*
X47662595Y44498220D01*
X47696621Y44435908D01*
X47699500Y44409125D01*
X47699500Y10943216D01*
X47714365Y10773308D01*
X47715789Y10767995D01*
X47715789Y10767993D01*
X47725951Y10730070D01*
X47773261Y10553504D01*
X47775583Y10548524D01*
X47775584Y10548522D01*
X47830273Y10431243D01*
X47869432Y10347266D01*
X47999953Y10160861D01*
X48160861Y9999953D01*
X48347266Y9869432D01*
X48352244Y9867111D01*
X48352247Y9867109D01*
X48528083Y9785115D01*
X48553504Y9773261D01*
X48558812Y9771839D01*
X48558814Y9771838D01*
X48767993Y9715789D01*
X48767995Y9715789D01*
X48773308Y9714365D01*
X49000000Y9694532D01*
X49226692Y9714365D01*
X49232005Y9715789D01*
X49232007Y9715789D01*
X49441186Y9771838D01*
X49441188Y9771839D01*
X49446496Y9773261D01*
X49471917Y9785115D01*
X49647753Y9867109D01*
X49647756Y9867111D01*
X49652734Y9869432D01*
X49839139Y9999953D01*
X50000047Y10160861D01*
X50130568Y10347266D01*
X50135805Y10358496D01*
X50182722Y10411782D01*
X50250999Y10431243D01*
X50318959Y10410702D01*
X50364195Y10358496D01*
X50369432Y10347266D01*
X50499953Y10160861D01*
X50660861Y9999953D01*
X50847266Y9869432D01*
X50852244Y9867111D01*
X50852247Y9867109D01*
X51028083Y9785115D01*
X51053504Y9773261D01*
X51058812Y9771839D01*
X51058814Y9771838D01*
X51267993Y9715789D01*
X51267995Y9715789D01*
X51273308Y9714365D01*
X51500000Y9694532D01*
X51726692Y9714365D01*
X51732005Y9715789D01*
X51732007Y9715789D01*
X51941186Y9771838D01*
X51941188Y9771839D01*
X51946496Y9773261D01*
X51971917Y9785115D01*
X52147753Y9867109D01*
X52147756Y9867111D01*
X52152734Y9869432D01*
X52339139Y9999953D01*
X52500047Y10160861D01*
X52630568Y10347266D01*
X52669728Y10431243D01*
X52724416Y10548522D01*
X52724417Y10548524D01*
X52726739Y10553504D01*
X52774050Y10730070D01*
X52784211Y10767993D01*
X52784211Y10767995D01*
X52785635Y10773308D01*
X52800500Y10943216D01*
X52800500Y47386215D01*
X52800501Y47386221D01*
X52800501Y47613779D01*
X52799546Y47619195D01*
X52799545Y47619206D01*
X52791558Y47664497D01*
X52790122Y47675399D01*
X52788265Y47696634D01*
X52785635Y47726692D01*
X52784212Y47732004D01*
X52784210Y47732013D01*
X52772306Y47776439D01*
X52769926Y47787172D01*
X52761941Y47832460D01*
X52761940Y47832465D01*
X52760985Y47837879D01*
X52751700Y47863390D01*
X52743372Y47886274D01*
X52740068Y47896753D01*
X52728161Y47941188D01*
X52726739Y47946496D01*
X52704973Y47993174D01*
X52700768Y48003327D01*
X52685037Y48046549D01*
X52685034Y48046556D01*
X52683156Y48051715D01*
X52680407Y48056477D01*
X52657405Y48096318D01*
X52652329Y48106068D01*
X52632894Y48147746D01*
X52632894Y48147747D01*
X52630568Y48152734D01*
X52627411Y48157242D01*
X52627408Y48157248D01*
X52601030Y48194920D01*
X52595124Y48204190D01*
X52572127Y48244022D01*
X52572126Y48244023D01*
X52569377Y48248785D01*
X52536269Y48288242D01*
X52529593Y48296942D01*
X52500047Y48339139D01*
X52339139Y48500047D01*
X52339136Y48500049D01*
X39480049Y61359136D01*
X39480047Y61359139D01*
X39319139Y61520047D01*
X39304516Y61530286D01*
X39260187Y61585743D01*
X39252878Y61656363D01*
X39284908Y61719723D01*
X39346109Y61755709D01*
X39376786Y61759500D01*
X44349125Y61759500D01*
X44417246Y61739498D01*
X44438220Y61722595D01*
X53662595Y52498221D01*
X53696621Y52435909D01*
X53699500Y52409126D01*
X53699500Y28113785D01*
X53699499Y28113779D01*
X53699499Y27886221D01*
X53700455Y27880800D01*
X53708442Y27835501D01*
X53709876Y27824604D01*
X53713884Y27778798D01*
X53713885Y27778790D01*
X53714365Y27773308D01*
X53723817Y27738034D01*
X53727693Y27723567D01*
X53730072Y27712836D01*
X53739015Y27662120D01*
X53740895Y27656955D01*
X53740897Y27656947D01*
X53756626Y27613733D01*
X53759932Y27603248D01*
X53771836Y27558820D01*
X53771838Y27558814D01*
X53773261Y27553504D01*
X53780110Y27538817D01*
X53795026Y27506829D01*
X53799232Y27496673D01*
X53816844Y27448285D01*
X53819596Y27443519D01*
X53819597Y27443516D01*
X53842598Y27403677D01*
X53847664Y27393946D01*
X53869432Y27347266D01*
X53898973Y27305076D01*
X53904864Y27295830D01*
X53930623Y27251214D01*
X53934162Y27246997D01*
X53963721Y27211770D01*
X53970411Y27203053D01*
X53999953Y27160861D01*
X54160861Y26999953D01*
X54160863Y26999952D01*
X54580942Y26579873D01*
X54614968Y26517561D01*
X54614366Y26461364D01*
X54560934Y26238807D01*
X54560933Y26238801D01*
X54559779Y26233994D01*
X54539396Y25975000D01*
X54559779Y25716006D01*
X54560933Y25711199D01*
X54560934Y25711193D01*
X54571583Y25666838D01*
X54620427Y25463390D01*
X54622320Y25458819D01*
X54622321Y25458817D01*
X54706329Y25256006D01*
X54719846Y25223372D01*
X54855588Y25001860D01*
X55024311Y24804311D01*
X55028067Y24801103D01*
X55028072Y24801098D01*
X55028408Y24800811D01*
X55028500Y24800670D01*
X55031575Y24797595D01*
X55030929Y24796949D01*
X55067217Y24741361D01*
X55067725Y24670366D01*
X55030905Y24613075D01*
X55031575Y24612405D01*
X55028496Y24609326D01*
X55028408Y24609189D01*
X55028072Y24608902D01*
X55028067Y24608897D01*
X55024311Y24605689D01*
X54855588Y24408140D01*
X54719846Y24186628D01*
X54620427Y23946610D01*
X54619272Y23941798D01*
X54560934Y23698807D01*
X54560933Y23698801D01*
X54559779Y23693994D01*
X54539396Y23435000D01*
X54559779Y23176006D01*
X54560933Y23171199D01*
X54560934Y23171193D01*
X54599220Y23011724D01*
X54620427Y22923390D01*
X54622320Y22918819D01*
X54622321Y22918817D01*
X54700035Y22731201D01*
X54719846Y22683372D01*
X54855588Y22461860D01*
X55024311Y22264311D01*
X55028067Y22261103D01*
X55028072Y22261098D01*
X55028408Y22260811D01*
X55028500Y22260670D01*
X55031575Y22257595D01*
X55030929Y22256949D01*
X55067217Y22201361D01*
X55067725Y22130366D01*
X55030905Y22073075D01*
X55031575Y22072405D01*
X55028496Y22069326D01*
X55028408Y22069189D01*
X55028072Y22068902D01*
X55028067Y22068897D01*
X55024311Y22065689D01*
X54855588Y21868140D01*
X54719846Y21646628D01*
X54717953Y21642058D01*
X54717951Y21642054D01*
X54657732Y21496673D01*
X54620427Y21406610D01*
X54619272Y21401798D01*
X54560934Y21158807D01*
X54560933Y21158801D01*
X54559779Y21153994D01*
X54539396Y20895000D01*
X54559779Y20636006D01*
X54560933Y20631199D01*
X54560934Y20631193D01*
X54570614Y20590875D01*
X54620427Y20383390D01*
X54622320Y20378819D01*
X54622321Y20378817D01*
X54679696Y20240303D01*
X54719846Y20143372D01*
X54855588Y19921860D01*
X55024311Y19724311D01*
X55028067Y19721103D01*
X55028072Y19721098D01*
X55028408Y19720811D01*
X55028500Y19720670D01*
X55031575Y19717595D01*
X55030929Y19716949D01*
X55067217Y19661361D01*
X55067725Y19590366D01*
X55030905Y19533075D01*
X55031575Y19532405D01*
X55028496Y19529326D01*
X55028408Y19529189D01*
X55028072Y19528902D01*
X55028067Y19528897D01*
X55024311Y19525689D01*
X54855588Y19328140D01*
X54719846Y19106628D01*
X54717953Y19102058D01*
X54717951Y19102054D01*
X54622618Y18871899D01*
X54620427Y18866610D01*
X54619272Y18861798D01*
X54560934Y18618807D01*
X54560933Y18618801D01*
X54559779Y18613994D01*
X54539396Y18355000D01*
X54559779Y18096006D01*
X54560933Y18091199D01*
X54560934Y18091193D01*
X54599220Y17931724D01*
X54620427Y17843390D01*
X54622320Y17838819D01*
X54622321Y17838817D01*
X54706329Y17636006D01*
X54719846Y17603372D01*
X54855588Y17381860D01*
X55024311Y17184311D01*
X55028067Y17181103D01*
X55028072Y17181098D01*
X55028408Y17180811D01*
X55028500Y17180670D01*
X55031575Y17177595D01*
X55030929Y17176949D01*
X55067217Y17121361D01*
X55067725Y17050366D01*
X55030905Y16993075D01*
X55031575Y16992405D01*
X55028496Y16989326D01*
X55028408Y16989189D01*
X55028072Y16988902D01*
X55028067Y16988897D01*
X55024311Y16985689D01*
X54855588Y16788140D01*
X54719846Y16566628D01*
X54717953Y16562058D01*
X54717951Y16562054D01*
X54622618Y16331899D01*
X54620427Y16326610D01*
X54619272Y16321798D01*
X54560934Y16078807D01*
X54560933Y16078801D01*
X54559779Y16073994D01*
X54539396Y15815000D01*
X54559779Y15556006D01*
X54560933Y15551199D01*
X54560934Y15551193D01*
X54599220Y15391724D01*
X54620427Y15303390D01*
X54622320Y15298819D01*
X54622321Y15298817D01*
X54706329Y15096006D01*
X54719846Y15063372D01*
X54855588Y14841860D01*
X55024311Y14644311D01*
X55028067Y14641103D01*
X55028072Y14641098D01*
X55028408Y14640811D01*
X55028500Y14640670D01*
X55031575Y14637595D01*
X55030929Y14636949D01*
X55067217Y14581361D01*
X55067725Y14510366D01*
X55030905Y14453075D01*
X55031575Y14452405D01*
X55028496Y14449326D01*
X55028408Y14449189D01*
X55028072Y14448902D01*
X55028067Y14448897D01*
X55024311Y14445689D01*
X54855588Y14248140D01*
X54719846Y14026628D01*
X54717953Y14022058D01*
X54717951Y14022054D01*
X54658262Y13877951D01*
X54620427Y13786610D01*
X54604660Y13720934D01*
X54560934Y13538807D01*
X54560933Y13538801D01*
X54559779Y13533994D01*
X54539396Y13275000D01*
X54559779Y13016006D01*
X54560933Y13011199D01*
X54560934Y13011193D01*
X54599220Y12851724D01*
X54620427Y12763390D01*
X54719846Y12523372D01*
X54855588Y12301860D01*
X55024311Y12104311D01*
X55028067Y12101103D01*
X55028072Y12101098D01*
X55028408Y12100811D01*
X55028500Y12100670D01*
X55031575Y12097595D01*
X55030929Y12096949D01*
X55067217Y12041361D01*
X55067725Y11970366D01*
X55030905Y11913075D01*
X55031575Y11912405D01*
X55028496Y11909326D01*
X55028408Y11909189D01*
X55028072Y11908902D01*
X55028067Y11908897D01*
X55024311Y11905689D01*
X54855588Y11708140D01*
X54719846Y11486628D01*
X54620427Y11246610D01*
X54619272Y11241798D01*
X54560934Y10998807D01*
X54560933Y10998801D01*
X54559779Y10993994D01*
X54539396Y10735000D01*
X54559779Y10476006D01*
X54560933Y10471199D01*
X54560934Y10471193D01*
X54575198Y10411782D01*
X54620427Y10223390D01*
X54622320Y10218819D01*
X54622321Y10218817D01*
X54711365Y10003848D01*
X54719846Y9983372D01*
X54855588Y9761860D01*
X55024311Y9564311D01*
X55221860Y9395588D01*
X55443372Y9259846D01*
X55447942Y9257953D01*
X55447946Y9257951D01*
X55678817Y9162321D01*
X55683390Y9160427D01*
X55771724Y9139220D01*
X55931193Y9100934D01*
X55931199Y9100933D01*
X55936006Y9099779D01*
X56195000Y9079396D01*
X56453994Y9099779D01*
X56458801Y9100933D01*
X56458807Y9100934D01*
X56618276Y9139220D01*
X56706610Y9160427D01*
X56711183Y9162321D01*
X56942054Y9257951D01*
X56942058Y9257953D01*
X56946628Y9259846D01*
X57168140Y9395588D01*
X57365689Y9564311D01*
X57534412Y9761860D01*
X57670154Y9983372D01*
X57678636Y10003848D01*
X57767679Y10218817D01*
X57767680Y10218819D01*
X57769573Y10223390D01*
X57814802Y10411782D01*
X57829066Y10471193D01*
X57829067Y10471199D01*
X57830221Y10476006D01*
X57850604Y10735000D01*
X57830221Y10993994D01*
X57829067Y10998801D01*
X57829066Y10998807D01*
X57770728Y11241798D01*
X57769573Y11246610D01*
X57670154Y11486628D01*
X57534412Y11708140D01*
X57365689Y11905689D01*
X57361933Y11908897D01*
X57361928Y11908902D01*
X57361592Y11909189D01*
X57361500Y11909330D01*
X57358425Y11912405D01*
X57359071Y11913051D01*
X57322783Y11968639D01*
X57322275Y12039634D01*
X57359095Y12096925D01*
X57358425Y12097595D01*
X57361504Y12100674D01*
X57361592Y12100811D01*
X57361928Y12101098D01*
X57361933Y12101103D01*
X57365689Y12104311D01*
X57534412Y12301860D01*
X57670154Y12523372D01*
X57769573Y12763390D01*
X57790780Y12851724D01*
X57829066Y13011193D01*
X57829067Y13011199D01*
X57830221Y13016006D01*
X57850604Y13275000D01*
X57830221Y13533994D01*
X57829067Y13538801D01*
X57829066Y13538807D01*
X57785340Y13720934D01*
X57769573Y13786610D01*
X57731738Y13877951D01*
X57672049Y14022054D01*
X57672047Y14022058D01*
X57670154Y14026628D01*
X57534412Y14248140D01*
X57365689Y14445689D01*
X57361933Y14448897D01*
X57361928Y14448902D01*
X57361592Y14449189D01*
X57361500Y14449330D01*
X57358425Y14452405D01*
X57359071Y14453051D01*
X57322783Y14508639D01*
X57322275Y14579634D01*
X57359095Y14636925D01*
X57358425Y14637595D01*
X57361504Y14640674D01*
X57361592Y14640811D01*
X57361928Y14641098D01*
X57361933Y14641103D01*
X57365689Y14644311D01*
X57534412Y14841860D01*
X57670154Y15063372D01*
X57683672Y15096006D01*
X57767679Y15298817D01*
X57767680Y15298819D01*
X57769573Y15303390D01*
X57790780Y15391724D01*
X57829066Y15551193D01*
X57829067Y15551199D01*
X57830221Y15556006D01*
X57850604Y15815000D01*
X57830221Y16073994D01*
X57829067Y16078801D01*
X57829066Y16078807D01*
X57770728Y16321798D01*
X57769573Y16326610D01*
X57767382Y16331899D01*
X57672049Y16562054D01*
X57672047Y16562058D01*
X57670154Y16566628D01*
X57534412Y16788140D01*
X57365689Y16985689D01*
X57361933Y16988897D01*
X57361928Y16988902D01*
X57361592Y16989189D01*
X57361500Y16989330D01*
X57358425Y16992405D01*
X57359071Y16993051D01*
X57322783Y17048639D01*
X57322275Y17119634D01*
X57359095Y17176925D01*
X57358425Y17177595D01*
X57361504Y17180674D01*
X57361592Y17180811D01*
X57361928Y17181098D01*
X57361933Y17181103D01*
X57365689Y17184311D01*
X57534412Y17381860D01*
X57670154Y17603372D01*
X57683672Y17636006D01*
X57767679Y17838817D01*
X57767680Y17838819D01*
X57769573Y17843390D01*
X57790780Y17931724D01*
X57829066Y18091193D01*
X57829067Y18091199D01*
X57830221Y18096006D01*
X57850604Y18355000D01*
X57830221Y18613994D01*
X57829067Y18618801D01*
X57829066Y18618807D01*
X57770728Y18861798D01*
X57769573Y18866610D01*
X57767382Y18871899D01*
X57672049Y19102054D01*
X57672047Y19102058D01*
X57670154Y19106628D01*
X57534412Y19328140D01*
X57365689Y19525689D01*
X57361933Y19528897D01*
X57361928Y19528902D01*
X57361592Y19529189D01*
X57361500Y19529330D01*
X57358425Y19532405D01*
X57359071Y19533051D01*
X57322783Y19588639D01*
X57322275Y19659634D01*
X57359095Y19716925D01*
X57358425Y19717595D01*
X57361504Y19720674D01*
X57361592Y19720811D01*
X57361928Y19721098D01*
X57361933Y19721103D01*
X57365689Y19724311D01*
X57534412Y19921860D01*
X57670154Y20143372D01*
X57710305Y20240303D01*
X57767679Y20378817D01*
X57767680Y20378819D01*
X57769573Y20383390D01*
X57819386Y20590875D01*
X57829066Y20631193D01*
X57829067Y20631199D01*
X57830221Y20636006D01*
X57850604Y20895000D01*
X57830221Y21153994D01*
X57829067Y21158801D01*
X57829066Y21158807D01*
X57770728Y21401798D01*
X57769573Y21406610D01*
X57732268Y21496673D01*
X57672049Y21642054D01*
X57672047Y21642058D01*
X57670154Y21646628D01*
X57534412Y21868140D01*
X57365689Y22065689D01*
X57361933Y22068897D01*
X57361928Y22068902D01*
X57361592Y22069189D01*
X57361500Y22069330D01*
X57358425Y22072405D01*
X57359071Y22073051D01*
X57322783Y22128639D01*
X57322275Y22199634D01*
X57359095Y22256925D01*
X57358425Y22257595D01*
X57361504Y22260674D01*
X57361592Y22260811D01*
X57361928Y22261098D01*
X57361933Y22261103D01*
X57365689Y22264311D01*
X57534412Y22461860D01*
X57670154Y22683372D01*
X57689966Y22731201D01*
X57767679Y22918817D01*
X57767680Y22918819D01*
X57769573Y22923390D01*
X57790780Y23011724D01*
X57829066Y23171193D01*
X57829067Y23171199D01*
X57830221Y23176006D01*
X57850604Y23435000D01*
X57830221Y23693994D01*
X57829067Y23698801D01*
X57829066Y23698807D01*
X57770728Y23941798D01*
X57769573Y23946610D01*
X57670154Y24186628D01*
X57534412Y24408140D01*
X57365689Y24605689D01*
X57361933Y24608897D01*
X57361928Y24608902D01*
X57361592Y24609189D01*
X57361500Y24609330D01*
X57358425Y24612405D01*
X57359071Y24613051D01*
X57322783Y24668639D01*
X57322275Y24739634D01*
X57359095Y24796925D01*
X57358425Y24797595D01*
X57361504Y24800674D01*
X57361592Y24800811D01*
X57361928Y24801098D01*
X57361933Y24801103D01*
X57365689Y24804311D01*
X57534412Y25001860D01*
X57670154Y25223372D01*
X57683672Y25256006D01*
X57767679Y25458817D01*
X57767680Y25458819D01*
X57769573Y25463390D01*
X57770727Y25468197D01*
X57770731Y25468209D01*
X57777863Y25497916D01*
X57813216Y25559485D01*
X57876243Y25592166D01*
X57900381Y25594500D01*
X60251784Y25594500D01*
X60254501Y25594738D01*
X60254508Y25594738D01*
X60322698Y25600704D01*
X60421692Y25609365D01*
X60427005Y25610789D01*
X60427007Y25610789D01*
X60636186Y25666838D01*
X60636188Y25666839D01*
X60641496Y25668261D01*
X60646478Y25670584D01*
X60646483Y25670586D01*
X60745249Y25716642D01*
X60815441Y25727304D01*
X60880254Y25698325D01*
X60919110Y25638905D01*
X60924500Y25602448D01*
X60924500Y5126000D01*
X60904498Y5057879D01*
X60850842Y5011386D01*
X60798500Y5000000D01*
X59849192Y5000000D01*
X59781071Y5020002D01*
X59734578Y5073658D01*
X59727600Y5093070D01*
X59726880Y5096691D01*
X59629945Y5382252D01*
X59496566Y5652718D01*
X59392830Y5807970D01*
X59331318Y5900030D01*
X59331314Y5900035D01*
X59329025Y5903461D01*
X59326311Y5906555D01*
X59326307Y5906561D01*
X59132898Y6127100D01*
X59130189Y6130189D01*
X59001405Y6243130D01*
X58906561Y6326307D01*
X58906555Y6326311D01*
X58903461Y6329025D01*
X58900035Y6331314D01*
X58900030Y6331318D01*
X58702287Y6463445D01*
X58652718Y6496566D01*
X58649019Y6498390D01*
X58649014Y6498393D01*
X58505613Y6569110D01*
X58382252Y6629945D01*
X58378346Y6631271D01*
X58100604Y6725552D01*
X58100600Y6725553D01*
X58096691Y6726880D01*
X58092647Y6727684D01*
X58092641Y6727686D01*
X57804959Y6784910D01*
X57804953Y6784911D01*
X57800920Y6785713D01*
X57796815Y6785982D01*
X57796808Y6785983D01*
X57577359Y6800366D01*
X57577350Y6800366D01*
X57575310Y6800500D01*
X57424690Y6800500D01*
X57422650Y6800366D01*
X57422641Y6800366D01*
X57203192Y6785983D01*
X57203185Y6785982D01*
X57199080Y6785713D01*
X57195047Y6784911D01*
X57195041Y6784910D01*
X56907359Y6727686D01*
X56907353Y6727684D01*
X56903309Y6726880D01*
X56899400Y6725553D01*
X56899396Y6725552D01*
X56621654Y6631271D01*
X56617748Y6629945D01*
X56494387Y6569110D01*
X56350986Y6498393D01*
X56350981Y6498390D01*
X56347282Y6496566D01*
X56297713Y6463445D01*
X56099970Y6331318D01*
X56099965Y6331314D01*
X56096539Y6329025D01*
X56093445Y6326311D01*
X56093439Y6326307D01*
X55998595Y6243130D01*
X55869811Y6130189D01*
X55867102Y6127100D01*
X55673693Y5906561D01*
X55673689Y5906555D01*
X55670975Y5903461D01*
X55668686Y5900035D01*
X55668682Y5900030D01*
X55607170Y5807970D01*
X55503434Y5652718D01*
X55370055Y5382252D01*
X55273120Y5096691D01*
X55272438Y5093264D01*
X55235562Y5032765D01*
X55171701Y5001744D01*
X55150808Y5000000D01*
X49276500Y5000000D01*
X49208379Y5020002D01*
X49161886Y5073658D01*
X49150500Y5126000D01*
X49150500Y5214853D01*
X49135221Y5408994D01*
X49134067Y5413801D01*
X49134066Y5413807D01*
X49076708Y5652718D01*
X49074573Y5661610D01*
X48996400Y5850336D01*
X48977049Y5897054D01*
X48977047Y5897058D01*
X48975154Y5901628D01*
X48839412Y6123140D01*
X48670689Y6320689D01*
X48473140Y6489412D01*
X48251628Y6625154D01*
X48247058Y6627047D01*
X48247054Y6627049D01*
X48016183Y6722679D01*
X48016181Y6722680D01*
X48011610Y6724573D01*
X47923276Y6745780D01*
X47763807Y6784066D01*
X47763801Y6784067D01*
X47758994Y6785221D01*
X47500000Y6805604D01*
X47241006Y6785221D01*
X47236199Y6784067D01*
X47236193Y6784066D01*
X47076724Y6745780D01*
X46988390Y6724573D01*
X46983819Y6722680D01*
X46983817Y6722679D01*
X46752946Y6627049D01*
X46752942Y6627047D01*
X46748372Y6625154D01*
X46526860Y6489412D01*
X46518032Y6481872D01*
X46453244Y6452841D01*
X46383044Y6463445D01*
X46347107Y6488588D01*
X46270011Y6565684D01*
X46098817Y6680289D01*
X45908623Y6759459D01*
X45706673Y6800179D01*
X45702007Y6800415D01*
X45702002Y6800416D01*
X45701925Y6800420D01*
X45701907Y6800420D01*
X45700337Y6800500D01*
X45698740Y6800500D01*
X44996696Y6800499D01*
X44299664Y6800499D01*
X44298108Y6800420D01*
X44298091Y6800420D01*
X44297997Y6800415D01*
X44297995Y6800415D01*
X44293327Y6800179D01*
X44091377Y6759459D01*
X43901183Y6680289D01*
X43729989Y6565684D01*
X43584316Y6420011D01*
X43469711Y6248817D01*
X43390541Y6058623D01*
X43349821Y5856673D01*
X43349500Y5850337D01*
X43349500Y5125998D01*
X43329499Y5057879D01*
X43275843Y5011386D01*
X43223501Y5000000D01*
X39984000Y5000000D01*
X39915879Y5020002D01*
X39869386Y5073658D01*
X39858000Y5126000D01*
X39858000Y5205206D01*
X39857775Y5210515D01*
X39843876Y5374325D01*
X39842086Y5384797D01*
X39786870Y5597535D01*
X39783335Y5607575D01*
X39693063Y5807970D01*
X39687894Y5817256D01*
X39565150Y5999575D01*
X39558481Y6007870D01*
X39406772Y6166900D01*
X39398814Y6173941D01*
X39222475Y6305141D01*
X39213438Y6310745D01*
X39017518Y6410356D01*
X39007657Y6414359D01*
X38917303Y6442415D01*
X38903201Y6442634D01*
X38900000Y6435903D01*
X38900000Y5000000D01*
X38100000Y5000000D01*
X38100000Y6434012D01*
X38096027Y6447543D01*
X38090430Y6448348D01*
X37898971Y6372737D01*
X37889439Y6368006D01*
X37701540Y6253985D01*
X37690123Y6245659D01*
X37623299Y6221681D01*
X37554118Y6237637D01*
X37511175Y6277369D01*
X37419114Y6414888D01*
X37419110Y6414893D01*
X37415684Y6420011D01*
X37270011Y6565684D01*
X37098817Y6680289D01*
X36908623Y6759459D01*
X36706673Y6800179D01*
X36702007Y6800415D01*
X36702002Y6800416D01*
X36701925Y6800420D01*
X36701907Y6800420D01*
X36700337Y6800500D01*
X36698740Y6800500D01*
X35996696Y6800499D01*
X35299664Y6800499D01*
X35298108Y6800420D01*
X35298091Y6800420D01*
X35297997Y6800415D01*
X35297995Y6800415D01*
X35293327Y6800179D01*
X35091377Y6759459D01*
X34901183Y6680289D01*
X34729989Y6565684D01*
X34584316Y6420011D01*
X34469711Y6248817D01*
X34390541Y6058623D01*
X34349821Y5856673D01*
X34349500Y5850337D01*
X34349500Y5125998D01*
X34329499Y5057879D01*
X34275843Y5011386D01*
X34223501Y5000000D01*
X6849192Y5000000D01*
X6781071Y5020002D01*
X6734578Y5073658D01*
X6727600Y5093070D01*
X6726880Y5096691D01*
X6629945Y5382252D01*
X6496566Y5652718D01*
X6392830Y5807970D01*
X6331318Y5900030D01*
X6331314Y5900035D01*
X6329025Y5903461D01*
X6326311Y5906555D01*
X6326307Y5906561D01*
X6132898Y6127100D01*
X6130189Y6130189D01*
X6001405Y6243130D01*
X5906561Y6326307D01*
X5906555Y6326311D01*
X5903461Y6329025D01*
X5900035Y6331314D01*
X5900030Y6331318D01*
X5702287Y6463445D01*
X5652718Y6496566D01*
X5649019Y6498390D01*
X5649014Y6498393D01*
X5505613Y6569110D01*
X5382252Y6629945D01*
X5378346Y6631271D01*
X5100604Y6725552D01*
X5100600Y6725553D01*
X5096691Y6726880D01*
X5092647Y6727684D01*
X5092641Y6727686D01*
X4804959Y6784910D01*
X4804953Y6784911D01*
X4800920Y6785713D01*
X4796815Y6785982D01*
X4796808Y6785983D01*
X4577359Y6800366D01*
X4577350Y6800366D01*
X4575310Y6800500D01*
X4424690Y6800500D01*
X4422650Y6800366D01*
X4422641Y6800366D01*
X4203192Y6785983D01*
X4203185Y6785982D01*
X4199080Y6785713D01*
X4195047Y6784911D01*
X4195041Y6784910D01*
X3907359Y6727686D01*
X3907353Y6727684D01*
X3903309Y6726880D01*
X3899400Y6725553D01*
X3899396Y6725552D01*
X3621654Y6631271D01*
X3617748Y6629945D01*
X3494387Y6569110D01*
X3350986Y6498393D01*
X3350981Y6498390D01*
X3347282Y6496566D01*
X3297713Y6463445D01*
X3099970Y6331318D01*
X3099965Y6331314D01*
X3096539Y6329025D01*
X3093445Y6326311D01*
X3093439Y6326307D01*
X2998595Y6243130D01*
X2869811Y6130189D01*
X2867102Y6127100D01*
X2673693Y5906561D01*
X2673689Y5906555D01*
X2670975Y5903461D01*
X2668686Y5900035D01*
X2668682Y5900030D01*
X2607170Y5807970D01*
X2503434Y5652718D01*
X2370055Y5382252D01*
X2273120Y5096691D01*
X2272438Y5093264D01*
X2235562Y5032765D01*
X2171701Y5001744D01*
X2150808Y5000000D01*
X1201500Y5000000D01*
X1133379Y5020002D01*
X1086886Y5073658D01*
X1075500Y5126000D01*
X1075500Y9767000D01*
X11870929Y9767000D01*
X36129072Y9767000D01*
X36129072Y14233000D01*
X11870929Y14233000D01*
X11870929Y9767000D01*
X1075500Y9767000D01*
X1075500Y94798500D01*
X1095502Y94866621D01*
X1149158Y94913114D01*
X1201500Y94924500D01*
X9781125Y94924500D01*
X9849246Y94904498D01*
G37*
%TD.AperFunction*%
%TA.AperFunction,Conductor*%
G36*
X51477246Y94679498D02*
G01*
X51498220Y94662595D01*
X55067595Y91093220D01*
X55101621Y91030908D01*
X55104500Y91004125D01*
X55104500Y86752264D01*
X55084498Y86684143D01*
X55060330Y86656453D01*
X55028072Y86628902D01*
X55028067Y86628897D01*
X55024311Y86625689D01*
X54855588Y86428140D01*
X54719846Y86206628D01*
X54717953Y86202058D01*
X54717951Y86202054D01*
X54633796Y85998885D01*
X54620427Y85966610D01*
X54599220Y85878276D01*
X54560934Y85718807D01*
X54560933Y85718801D01*
X54559779Y85713994D01*
X54539396Y85455000D01*
X54559779Y85196006D01*
X54560933Y85191199D01*
X54560934Y85191193D01*
X54579520Y85113779D01*
X54620427Y84943390D01*
X54622320Y84938819D01*
X54622321Y84938817D01*
X54715926Y84712836D01*
X54719846Y84703372D01*
X54855588Y84481860D01*
X55024311Y84284311D01*
X55028067Y84281103D01*
X55028072Y84281098D01*
X55028408Y84280811D01*
X55028500Y84280670D01*
X55031575Y84277595D01*
X55030929Y84276949D01*
X55067217Y84221361D01*
X55067725Y84150366D01*
X55030905Y84093075D01*
X55031575Y84092405D01*
X55028496Y84089326D01*
X55028408Y84089189D01*
X55028072Y84088902D01*
X55028067Y84088897D01*
X55024311Y84085689D01*
X54855588Y83888140D01*
X54719846Y83666628D01*
X54717953Y83662058D01*
X54717951Y83662054D01*
X54665194Y83534687D01*
X54620427Y83426610D01*
X54599220Y83338276D01*
X54560934Y83178807D01*
X54560933Y83178801D01*
X54559779Y83173994D01*
X54539396Y82915000D01*
X54559779Y82656006D01*
X54560933Y82651199D01*
X54560934Y82651193D01*
X54566521Y82627922D01*
X54620427Y82403390D01*
X54622320Y82398819D01*
X54622321Y82398817D01*
X54714057Y82177349D01*
X54719846Y82163372D01*
X54855588Y81941860D01*
X55024311Y81744311D01*
X55028067Y81741103D01*
X55028072Y81741098D01*
X55028408Y81740811D01*
X55028500Y81740670D01*
X55031575Y81737595D01*
X55030929Y81736949D01*
X55067217Y81681361D01*
X55067725Y81610366D01*
X55030905Y81553075D01*
X55031575Y81552405D01*
X55028496Y81549326D01*
X55028408Y81549189D01*
X55028072Y81548902D01*
X55028067Y81548897D01*
X55024311Y81545689D01*
X54855588Y81348140D01*
X54719846Y81126628D01*
X54717953Y81122058D01*
X54717951Y81122054D01*
X54633796Y80918885D01*
X54620427Y80886610D01*
X54599220Y80798276D01*
X54560934Y80638807D01*
X54560933Y80638801D01*
X54559779Y80633994D01*
X54539396Y80375000D01*
X54559779Y80116006D01*
X54560933Y80111199D01*
X54560934Y80111193D01*
X54577316Y80042959D01*
X54620427Y79863390D01*
X54622320Y79858819D01*
X54622321Y79858817D01*
X54701008Y79668852D01*
X54719846Y79623372D01*
X54855588Y79401860D01*
X55024311Y79204311D01*
X55028067Y79201103D01*
X55028072Y79201098D01*
X55028408Y79200811D01*
X55028500Y79200670D01*
X55031575Y79197595D01*
X55030929Y79196949D01*
X55067217Y79141361D01*
X55067725Y79070366D01*
X55030905Y79013075D01*
X55031575Y79012405D01*
X55028496Y79009326D01*
X55028408Y79009189D01*
X55028072Y79008902D01*
X55028067Y79008897D01*
X55024311Y79005689D01*
X54855588Y78808140D01*
X54719846Y78586628D01*
X54717953Y78582058D01*
X54717951Y78582054D01*
X54636294Y78384916D01*
X54620427Y78346610D01*
X54599220Y78258276D01*
X54560934Y78098807D01*
X54560933Y78098801D01*
X54559779Y78093994D01*
X54539396Y77835000D01*
X54559779Y77576006D01*
X54560933Y77571199D01*
X54560934Y77571193D01*
X54575538Y77510366D01*
X54620427Y77323390D01*
X54622320Y77318819D01*
X54622321Y77318817D01*
X54713166Y77099500D01*
X54719846Y77083372D01*
X54855588Y76861860D01*
X55024311Y76664311D01*
X55028067Y76661103D01*
X55028072Y76661098D01*
X55028408Y76660811D01*
X55028500Y76660670D01*
X55031575Y76657595D01*
X55030929Y76656949D01*
X55067217Y76601361D01*
X55067725Y76530366D01*
X55030905Y76473075D01*
X55031575Y76472405D01*
X55028496Y76469326D01*
X55028408Y76469189D01*
X55028072Y76468902D01*
X55028067Y76468897D01*
X55024311Y76465689D01*
X54855588Y76268140D01*
X54719846Y76046628D01*
X54717953Y76042058D01*
X54717951Y76042054D01*
X54622321Y75811183D01*
X54620427Y75806610D01*
X54619272Y75801798D01*
X54560934Y75558807D01*
X54560933Y75558801D01*
X54559779Y75553994D01*
X54539396Y75295000D01*
X54559779Y75036006D01*
X54560933Y75031199D01*
X54560934Y75031193D01*
X54575538Y74970366D01*
X54620427Y74783390D01*
X54622320Y74778819D01*
X54622321Y74778817D01*
X54714612Y74556009D01*
X54719846Y74543372D01*
X54855588Y74321860D01*
X55024311Y74124311D01*
X55028067Y74121103D01*
X55028072Y74121098D01*
X55028408Y74120811D01*
X55028500Y74120670D01*
X55031575Y74117595D01*
X55030929Y74116949D01*
X55067217Y74061361D01*
X55067725Y73990366D01*
X55030905Y73933075D01*
X55031575Y73932405D01*
X55028496Y73929326D01*
X55028408Y73929189D01*
X55028072Y73928902D01*
X55028067Y73928897D01*
X55024311Y73925689D01*
X54855588Y73728140D01*
X54719846Y73506628D01*
X54717953Y73502058D01*
X54717951Y73502054D01*
X54622321Y73271183D01*
X54620427Y73266610D01*
X54610855Y73226739D01*
X54560934Y73018807D01*
X54560933Y73018801D01*
X54559779Y73013994D01*
X54539396Y72755000D01*
X54559779Y72496006D01*
X54560933Y72491199D01*
X54560934Y72491193D01*
X54570469Y72451478D01*
X54620427Y72243390D01*
X54622320Y72238819D01*
X54622321Y72238817D01*
X54711123Y72024432D01*
X54719846Y72003372D01*
X54855588Y71781860D01*
X55024311Y71584311D01*
X55028067Y71581103D01*
X55028072Y71581098D01*
X55028408Y71580811D01*
X55028500Y71580670D01*
X55031575Y71577595D01*
X55030929Y71576949D01*
X55067217Y71521361D01*
X55067725Y71450366D01*
X55030905Y71393075D01*
X55031575Y71392405D01*
X55028496Y71389326D01*
X55028408Y71389189D01*
X55028072Y71388902D01*
X55028067Y71388897D01*
X55024311Y71385689D01*
X54855588Y71188140D01*
X54719846Y70966628D01*
X54717953Y70962058D01*
X54717951Y70962054D01*
X54622321Y70731183D01*
X54620427Y70726610D01*
X54601098Y70646098D01*
X54560934Y70478807D01*
X54560933Y70478801D01*
X54559779Y70473994D01*
X54539396Y70215000D01*
X54559779Y69956006D01*
X54560933Y69951199D01*
X54560934Y69951193D01*
X54599220Y69791724D01*
X54620427Y69703390D01*
X54622320Y69698819D01*
X54622321Y69698817D01*
X54713166Y69479500D01*
X54719846Y69463372D01*
X54855588Y69241860D01*
X55024311Y69044311D01*
X55028067Y69041103D01*
X55028072Y69041098D01*
X55028408Y69040811D01*
X55028500Y69040670D01*
X55031575Y69037595D01*
X55030929Y69036949D01*
X55067217Y68981361D01*
X55067725Y68910366D01*
X55030905Y68853075D01*
X55031575Y68852405D01*
X55028496Y68849326D01*
X55028408Y68849189D01*
X55028072Y68848902D01*
X55028067Y68848897D01*
X55024311Y68845689D01*
X54855588Y68648140D01*
X54719846Y68426628D01*
X54717953Y68422058D01*
X54717951Y68422054D01*
X54633796Y68218885D01*
X54620427Y68186610D01*
X54611206Y68148202D01*
X54560934Y67938807D01*
X54560933Y67938801D01*
X54559779Y67933994D01*
X54539396Y67675000D01*
X54559779Y67416006D01*
X54560933Y67411199D01*
X54560934Y67411193D01*
X54569042Y67377422D01*
X54620427Y67163390D01*
X54622320Y67158819D01*
X54622321Y67158817D01*
X54716843Y66930623D01*
X54719846Y66923372D01*
X54855588Y66701860D01*
X55024311Y66504311D01*
X55028067Y66501103D01*
X55028072Y66501098D01*
X55028408Y66500811D01*
X55028500Y66500670D01*
X55031575Y66497595D01*
X55030929Y66496949D01*
X55067217Y66441361D01*
X55067725Y66370366D01*
X55030905Y66313075D01*
X55031575Y66312405D01*
X55028496Y66309326D01*
X55028408Y66309189D01*
X55028072Y66308902D01*
X55028067Y66308897D01*
X55024311Y66305689D01*
X54855588Y66108140D01*
X54719846Y65886628D01*
X54717953Y65882058D01*
X54717951Y65882054D01*
X54622321Y65651183D01*
X54620427Y65646610D01*
X54619272Y65641798D01*
X54560934Y65398807D01*
X54560933Y65398801D01*
X54559779Y65393994D01*
X54539396Y65135000D01*
X54559779Y64876006D01*
X54560933Y64871199D01*
X54560934Y64871193D01*
X54575538Y64810366D01*
X54620427Y64623390D01*
X54622320Y64618819D01*
X54622321Y64618817D01*
X54713166Y64399500D01*
X54719846Y64383372D01*
X54855588Y64161860D01*
X55024311Y63964311D01*
X55028067Y63961103D01*
X55028072Y63961098D01*
X55028408Y63960811D01*
X55028500Y63960670D01*
X55031575Y63957595D01*
X55030929Y63956949D01*
X55067217Y63901361D01*
X55067725Y63830366D01*
X55030905Y63773075D01*
X55031575Y63772405D01*
X55028496Y63769326D01*
X55028408Y63769189D01*
X55028072Y63768902D01*
X55028067Y63768897D01*
X55024311Y63765689D01*
X54855588Y63568140D01*
X54719846Y63346628D01*
X54717953Y63342058D01*
X54717951Y63342054D01*
X54691601Y63278439D01*
X54620427Y63106610D01*
X54599220Y63018276D01*
X54560934Y62858807D01*
X54560933Y62858801D01*
X54559779Y62853994D01*
X54539396Y62595000D01*
X54559779Y62336006D01*
X54560933Y62331199D01*
X54560934Y62331193D01*
X54575538Y62270366D01*
X54620427Y62083390D01*
X54622320Y62078819D01*
X54622321Y62078817D01*
X54713166Y61859500D01*
X54719846Y61843372D01*
X54855588Y61621860D01*
X55024311Y61424311D01*
X55028067Y61421103D01*
X55028072Y61421098D01*
X55028408Y61420811D01*
X55028500Y61420670D01*
X55031575Y61417595D01*
X55030929Y61416949D01*
X55067217Y61361361D01*
X55067725Y61290366D01*
X55030905Y61233075D01*
X55031575Y61232405D01*
X55028496Y61229326D01*
X55028408Y61229189D01*
X55028072Y61228902D01*
X55028067Y61228897D01*
X55024311Y61225689D01*
X54855588Y61028140D01*
X54719846Y60806628D01*
X54717953Y60802058D01*
X54717951Y60802054D01*
X54691601Y60738439D01*
X54620427Y60566610D01*
X54599220Y60478276D01*
X54560934Y60318807D01*
X54560933Y60318801D01*
X54559779Y60313994D01*
X54539396Y60055000D01*
X54559779Y59796006D01*
X54560933Y59791199D01*
X54560934Y59791193D01*
X54575538Y59730366D01*
X54620427Y59543390D01*
X54622320Y59538819D01*
X54622321Y59538817D01*
X54713166Y59319500D01*
X54719846Y59303372D01*
X54855588Y59081860D01*
X55024311Y58884311D01*
X55028067Y58881103D01*
X55028072Y58881098D01*
X55028408Y58880811D01*
X55028500Y58880670D01*
X55031575Y58877595D01*
X55030929Y58876949D01*
X55067217Y58821361D01*
X55067725Y58750366D01*
X55030905Y58693075D01*
X55031575Y58692405D01*
X55028496Y58689326D01*
X55028408Y58689189D01*
X55028072Y58688902D01*
X55028067Y58688897D01*
X55024311Y58685689D01*
X54855588Y58488140D01*
X54719846Y58266628D01*
X54717953Y58262058D01*
X54717951Y58262054D01*
X54691601Y58198439D01*
X54620427Y58026610D01*
X54602366Y57951379D01*
X54560934Y57778807D01*
X54560933Y57778801D01*
X54559779Y57773994D01*
X54539396Y57515000D01*
X54559779Y57256006D01*
X54560933Y57251199D01*
X54560934Y57251193D01*
X54564014Y57238366D01*
X54620427Y57003390D01*
X54622320Y56998819D01*
X54622321Y56998817D01*
X54701008Y56808852D01*
X54719846Y56763372D01*
X54855588Y56541860D01*
X55024311Y56344311D01*
X55028067Y56341103D01*
X55028072Y56341098D01*
X55028408Y56340811D01*
X55028500Y56340670D01*
X55031575Y56337595D01*
X55030929Y56336949D01*
X55067217Y56281361D01*
X55067725Y56210366D01*
X55030905Y56153075D01*
X55031575Y56152405D01*
X55028496Y56149326D01*
X55028408Y56149189D01*
X55028072Y56148902D01*
X55028067Y56148897D01*
X55024311Y56145689D01*
X54855588Y55948140D01*
X54719846Y55726628D01*
X54620427Y55486610D01*
X54619272Y55481800D01*
X54618584Y55479682D01*
X54578508Y55421078D01*
X54513110Y55393444D01*
X54443154Y55405553D01*
X54409657Y55429528D01*
X45940049Y63899136D01*
X45940047Y63899139D01*
X45779139Y64060047D01*
X45736947Y64089589D01*
X45728227Y64096282D01*
X45720797Y64102517D01*
X45681473Y64161628D01*
X45680349Y64232615D01*
X45717783Y64292942D01*
X45725801Y64299413D01*
X45728659Y64301164D01*
X45849570Y64404432D01*
X45916457Y64461558D01*
X45916462Y64461563D01*
X45920224Y64464776D01*
X45959189Y64510398D01*
X46018640Y64549207D01*
X46089634Y64549713D01*
X46150811Y64510398D01*
X46189776Y64464776D01*
X46193538Y64461563D01*
X46193543Y64461558D01*
X46377576Y64304379D01*
X46377581Y64304376D01*
X46381341Y64301164D01*
X46596141Y64169534D01*
X46600711Y64167641D01*
X46600715Y64167639D01*
X46807955Y64081798D01*
X46828889Y64073127D01*
X46910217Y64053602D01*
X47069039Y64015472D01*
X47069045Y64015471D01*
X47073852Y64014317D01*
X47325000Y63994551D01*
X47576148Y64014317D01*
X47580955Y64015471D01*
X47580961Y64015472D01*
X47739783Y64053602D01*
X47821111Y64073127D01*
X47842045Y64081798D01*
X48049285Y64167639D01*
X48049289Y64167641D01*
X48053859Y64169534D01*
X48268659Y64301164D01*
X48272419Y64304376D01*
X48272424Y64304379D01*
X48456462Y64461563D01*
X48460224Y64464776D01*
X48489886Y64499506D01*
X48620621Y64652576D01*
X48620626Y64652583D01*
X48623836Y64656341D01*
X48638334Y64680000D01*
X48667624Y64727796D01*
X48720272Y64775428D01*
X48790313Y64787035D01*
X48855511Y64758932D01*
X48864152Y64751057D01*
X49017125Y64598084D01*
X49025533Y64591028D01*
X49203993Y64466069D01*
X49213489Y64460586D01*
X49410950Y64368509D01*
X49421240Y64364764D01*
X49447501Y64357727D01*
X49461599Y64358062D01*
X49465000Y64366003D01*
X49465000Y66274000D01*
X49485002Y66342121D01*
X49538658Y66388614D01*
X49591000Y66400000D01*
X50139000Y66400000D01*
X50207121Y66379998D01*
X50253614Y66326342D01*
X50265000Y66274000D01*
X50265000Y64371153D01*
X50268973Y64357622D01*
X50277521Y64356393D01*
X50308760Y64364764D01*
X50319050Y64368509D01*
X50516511Y64460586D01*
X50526007Y64466069D01*
X50704467Y64591028D01*
X50712875Y64598084D01*
X50865848Y64751057D01*
X50928160Y64785083D01*
X50998975Y64780018D01*
X51055811Y64737471D01*
X51062376Y64727796D01*
X51091666Y64680000D01*
X51106164Y64656341D01*
X51109374Y64652583D01*
X51109379Y64652576D01*
X51240114Y64499506D01*
X51269776Y64464776D01*
X51273538Y64461563D01*
X51457576Y64304379D01*
X51457581Y64304376D01*
X51461341Y64301164D01*
X51676141Y64169534D01*
X51680711Y64167641D01*
X51680715Y64167639D01*
X51887955Y64081798D01*
X51908889Y64073127D01*
X51990217Y64053602D01*
X52149039Y64015472D01*
X52149045Y64015471D01*
X52153852Y64014317D01*
X52405000Y63994551D01*
X52656148Y64014317D01*
X52660955Y64015471D01*
X52660961Y64015472D01*
X52819783Y64053602D01*
X52901111Y64073127D01*
X52922045Y64081798D01*
X53129285Y64167639D01*
X53129289Y64167641D01*
X53133859Y64169534D01*
X53348659Y64301164D01*
X53352419Y64304376D01*
X53352424Y64304379D01*
X53536462Y64461563D01*
X53540224Y64464776D01*
X53569886Y64499506D01*
X53700621Y64652576D01*
X53700626Y64652583D01*
X53703836Y64656341D01*
X53835466Y64871141D01*
X53837482Y64876006D01*
X53929979Y65099316D01*
X53929980Y65099318D01*
X53931873Y65103889D01*
X53967483Y65252215D01*
X53989528Y65344039D01*
X53989529Y65344045D01*
X53990683Y65348852D01*
X54000531Y65473976D01*
X54005307Y65534661D01*
X54005307Y65534670D01*
X54005500Y65537118D01*
X54005500Y66462882D01*
X54004925Y66470196D01*
X53991071Y66646214D01*
X53990683Y66651148D01*
X53978509Y66701860D01*
X53950523Y66818429D01*
X53931873Y66896111D01*
X53913901Y66939500D01*
X53837361Y67124285D01*
X53837359Y67124289D01*
X53835466Y67128859D01*
X53703836Y67343659D01*
X53700624Y67347419D01*
X53700621Y67347424D01*
X53543437Y67531462D01*
X53540224Y67535224D01*
X53467044Y67597726D01*
X53352424Y67695621D01*
X53352419Y67695624D01*
X53348659Y67698836D01*
X53133859Y67830466D01*
X53129289Y67832359D01*
X53129285Y67832361D01*
X52905684Y67924979D01*
X52905682Y67924980D01*
X52901111Y67926873D01*
X52798236Y67951571D01*
X52660961Y67984528D01*
X52660955Y67984529D01*
X52656148Y67985683D01*
X52405000Y68005449D01*
X52400070Y68005061D01*
X52158778Y67986071D01*
X52158774Y67986070D01*
X52153852Y67985683D01*
X52149046Y67984529D01*
X52145504Y67983968D01*
X52075093Y67993066D01*
X52020778Y68038787D01*
X51999804Y68106614D01*
X52018830Y68175014D01*
X52036696Y68197511D01*
X52164137Y68324952D01*
X52164139Y68324953D01*
X52325047Y68485861D01*
X52354589Y68528053D01*
X52361279Y68536770D01*
X52390838Y68571997D01*
X52394377Y68576214D01*
X52420136Y68620830D01*
X52426027Y68630076D01*
X52455568Y68672266D01*
X52477336Y68718946D01*
X52482402Y68728677D01*
X52505403Y68768516D01*
X52505404Y68768519D01*
X52508156Y68773285D01*
X52525768Y68821673D01*
X52529974Y68831829D01*
X52551739Y68878504D01*
X52553162Y68883814D01*
X52553164Y68883820D01*
X52565068Y68928248D01*
X52568374Y68938733D01*
X52584103Y68981947D01*
X52584105Y68981955D01*
X52585985Y68987120D01*
X52594772Y69036949D01*
X52594928Y69037836D01*
X52597307Y69048567D01*
X52609211Y69092995D01*
X52610635Y69098308D01*
X52611115Y69103790D01*
X52611116Y69103798D01*
X52615124Y69149604D01*
X52616558Y69160501D01*
X52624545Y69205800D01*
X52625501Y69211221D01*
X52625501Y69438779D01*
X52625500Y69438785D01*
X52625500Y72056784D01*
X52620682Y72111860D01*
X52616126Y72163926D01*
X52610635Y72226692D01*
X52606161Y72243390D01*
X52553162Y72441186D01*
X52553161Y72441188D01*
X52551739Y72446496D01*
X52526155Y72501361D01*
X52457891Y72647753D01*
X52457889Y72647756D01*
X52455568Y72652734D01*
X52325047Y72839139D01*
X52164139Y73000047D01*
X51977734Y73130568D01*
X51972756Y73132889D01*
X51972753Y73132891D01*
X51776478Y73224416D01*
X51776476Y73224417D01*
X51771496Y73226739D01*
X51766188Y73228161D01*
X51766186Y73228162D01*
X51557007Y73284211D01*
X51557005Y73284211D01*
X51551692Y73285635D01*
X51325000Y73305468D01*
X51098308Y73285635D01*
X51092995Y73284211D01*
X51092993Y73284211D01*
X50883814Y73228162D01*
X50883812Y73228161D01*
X50878504Y73226739D01*
X50873524Y73224417D01*
X50873522Y73224416D01*
X50677247Y73132891D01*
X50677244Y73132889D01*
X50672266Y73130568D01*
X50485861Y73000047D01*
X50324953Y72839139D01*
X50321794Y72834627D01*
X50314713Y72824514D01*
X50259255Y72780185D01*
X50188636Y72772877D01*
X50125276Y72804908D01*
X50089291Y72866110D01*
X50085500Y72896785D01*
X50085500Y78101209D01*
X50085501Y78101233D01*
X50085501Y78328779D01*
X50084546Y78334195D01*
X50084545Y78334206D01*
X50076558Y78379497D01*
X50075122Y78390399D01*
X50071114Y78436215D01*
X50070635Y78441692D01*
X50069212Y78447004D01*
X50069210Y78447013D01*
X50057306Y78491439D01*
X50054926Y78502172D01*
X50046941Y78547460D01*
X50046940Y78547465D01*
X50045985Y78552879D01*
X50032166Y78590848D01*
X50028372Y78601274D01*
X50025068Y78611753D01*
X50013161Y78656188D01*
X50011739Y78661496D01*
X49989973Y78708174D01*
X49985768Y78718327D01*
X49970037Y78761549D01*
X49970034Y78761556D01*
X49968156Y78766715D01*
X49965407Y78771477D01*
X49942405Y78811318D01*
X49937329Y78821068D01*
X49917894Y78862746D01*
X49917894Y78862747D01*
X49915568Y78867734D01*
X49912411Y78872242D01*
X49912408Y78872248D01*
X49886030Y78909920D01*
X49880124Y78919190D01*
X49857127Y78959022D01*
X49857126Y78959023D01*
X49854377Y78963785D01*
X49821269Y79003242D01*
X49814593Y79011942D01*
X49785047Y79054139D01*
X49624139Y79215047D01*
X49624136Y79215049D01*
X47160049Y81679136D01*
X47160047Y81679139D01*
X46999139Y81840047D01*
X46956947Y81869589D01*
X46948230Y81876279D01*
X46908786Y81909377D01*
X46864170Y81935136D01*
X46854924Y81941027D01*
X46812734Y81970568D01*
X46766054Y81992336D01*
X46756323Y81997402D01*
X46716484Y82020403D01*
X46716481Y82020404D01*
X46711715Y82023156D01*
X46706539Y82025040D01*
X46663327Y82040768D01*
X46653171Y82044974D01*
X46647799Y82047479D01*
X46606496Y82066739D01*
X46601186Y82068162D01*
X46601180Y82068164D01*
X46556752Y82080068D01*
X46546267Y82083374D01*
X46503053Y82099103D01*
X46503045Y82099105D01*
X46497880Y82100985D01*
X46447165Y82109928D01*
X46436433Y82112307D01*
X46386692Y82125635D01*
X46381210Y82126115D01*
X46381202Y82126116D01*
X46335396Y82130124D01*
X46324499Y82131558D01*
X46285280Y82138473D01*
X46273779Y82140501D01*
X46046221Y82140501D01*
X46046217Y82140500D01*
X44276786Y82140500D01*
X44208665Y82160502D01*
X44162172Y82214158D01*
X44152068Y82284432D01*
X44181562Y82349012D01*
X44204516Y82369714D01*
X44214636Y82376800D01*
X44219139Y82379953D01*
X44380047Y82540861D01*
X44380049Y82540864D01*
X45839136Y83999951D01*
X45839139Y83999953D01*
X46000047Y84160861D01*
X46029589Y84203053D01*
X46036279Y84211770D01*
X46069377Y84251214D01*
X46095136Y84295830D01*
X46101027Y84305076D01*
X46130568Y84347266D01*
X46152336Y84393946D01*
X46157402Y84403677D01*
X46180403Y84443516D01*
X46180404Y84443519D01*
X46183156Y84448285D01*
X46200768Y84496673D01*
X46204974Y84506829D01*
X46205849Y84508706D01*
X46226739Y84553504D01*
X46228162Y84558814D01*
X46228164Y84558820D01*
X46240068Y84603248D01*
X46243374Y84613733D01*
X46259103Y84656947D01*
X46259105Y84656955D01*
X46260985Y84662120D01*
X46269928Y84712836D01*
X46272307Y84723567D01*
X46273009Y84726188D01*
X46285635Y84773308D01*
X46286115Y84778790D01*
X46286116Y84778798D01*
X46290124Y84824604D01*
X46291558Y84835501D01*
X46299545Y84880800D01*
X46300501Y84886221D01*
X46300501Y85113779D01*
X46300500Y85113785D01*
X46300500Y92056784D01*
X46285635Y92226692D01*
X46226739Y92446496D01*
X46130568Y92652734D01*
X46000047Y92839139D01*
X45839139Y93000047D01*
X45652734Y93130568D01*
X45647756Y93132889D01*
X45647753Y93132891D01*
X45451478Y93224416D01*
X45451476Y93224417D01*
X45446496Y93226739D01*
X45441188Y93228161D01*
X45441186Y93228162D01*
X45232007Y93284211D01*
X45232005Y93284211D01*
X45226692Y93285635D01*
X45000000Y93305468D01*
X44773308Y93285635D01*
X44767995Y93284211D01*
X44767993Y93284211D01*
X44558814Y93228162D01*
X44558812Y93228161D01*
X44553504Y93226739D01*
X44548524Y93224417D01*
X44548522Y93224416D01*
X44352247Y93132891D01*
X44352244Y93132889D01*
X44347266Y93130568D01*
X44160861Y93000047D01*
X43999953Y92839139D01*
X43869432Y92652734D01*
X43773261Y92446496D01*
X43714365Y92226692D01*
X43699500Y92056784D01*
X43699500Y85590875D01*
X43679498Y85522754D01*
X43662595Y85501780D01*
X42878220Y84717405D01*
X42815908Y84683379D01*
X42789125Y84680500D01*
X42713075Y84680500D01*
X42644954Y84700502D01*
X42598461Y84754158D01*
X42588357Y84824432D01*
X42599634Y84861337D01*
X42606761Y84876080D01*
X42606762Y84876082D01*
X42609827Y84882423D01*
X42617763Y84916798D01*
X42649026Y85052212D01*
X42649026Y85052215D01*
X42650226Y85057411D01*
X42650500Y85062163D01*
X42650499Y86937836D01*
X42650226Y86942589D01*
X42609827Y87117577D01*
X42567027Y87206114D01*
X42534731Y87272922D01*
X42534730Y87272923D01*
X42531664Y87279266D01*
X42419620Y87419620D01*
X42279266Y87531664D01*
X42264743Y87538685D01*
X42123919Y87606761D01*
X42123920Y87606761D01*
X42117577Y87609827D01*
X42110716Y87611411D01*
X41947788Y87649026D01*
X41947785Y87649026D01*
X41942589Y87650226D01*
X41937837Y87650500D01*
X41936013Y87650500D01*
X40991963Y87650499D01*
X40062164Y87650499D01*
X40057411Y87650226D01*
X39882423Y87609827D01*
X39876080Y87606761D01*
X39876081Y87606761D01*
X39735258Y87538685D01*
X39720734Y87531664D01*
X39580380Y87419620D01*
X39468336Y87279266D01*
X39465270Y87272923D01*
X39465269Y87272922D01*
X39432973Y87206114D01*
X39390173Y87117577D01*
X39349774Y86942589D01*
X39349500Y86937837D01*
X39349501Y85062164D01*
X39349774Y85057411D01*
X39390173Y84882423D01*
X39393238Y84876082D01*
X39393239Y84876080D01*
X39400366Y84861337D01*
X39412005Y84791301D01*
X39383932Y84726091D01*
X39325060Y84686409D01*
X39286925Y84680500D01*
X33136785Y84680500D01*
X33068664Y84700502D01*
X33022171Y84754158D01*
X33012067Y84824432D01*
X33041561Y84889012D01*
X33064512Y84909711D01*
X33079139Y84919953D01*
X33240047Y85080861D01*
X33370568Y85267266D01*
X33412406Y85356986D01*
X33464416Y85468522D01*
X33464417Y85468524D01*
X33466739Y85473504D01*
X33472797Y85496111D01*
X33524211Y85687993D01*
X33524211Y85687995D01*
X33525635Y85693308D01*
X33545468Y85920000D01*
X33525635Y86146692D01*
X33485730Y86295621D01*
X33468162Y86361186D01*
X33468161Y86361188D01*
X33466739Y86366496D01*
X33436241Y86431899D01*
X33372891Y86567753D01*
X33372889Y86567756D01*
X33370568Y86572734D01*
X33240047Y86759139D01*
X33079139Y86920047D01*
X32892734Y87050568D01*
X32887756Y87052889D01*
X32887753Y87052891D01*
X32691478Y87144416D01*
X32691476Y87144417D01*
X32686496Y87146739D01*
X32681188Y87148161D01*
X32681186Y87148162D01*
X32472007Y87204211D01*
X32472005Y87204211D01*
X32466692Y87205635D01*
X32367698Y87214296D01*
X32299508Y87220262D01*
X32299501Y87220262D01*
X32296784Y87220500D01*
X30670875Y87220500D01*
X30602754Y87240502D01*
X30581780Y87257405D01*
X30337405Y87501780D01*
X30303379Y87564092D01*
X30300500Y87590875D01*
X30300500Y94573500D01*
X30320502Y94641621D01*
X30374158Y94688114D01*
X30426500Y94699500D01*
X51409125Y94699500D01*
X51477246Y94679498D01*
G37*
%TD.AperFunction*%
%TD*%
M02*
