M48
; DRILL file {KiCad 6.0.11+dfsg-1~bpo11+1} date mar 01 ago 2023 15:36:02
; FORMAT={-:-/ absolute / metric / decimal}
; #@! TF.CreationDate,2023-08-01T15:36:02-03:00
; #@! TF.GenerationSoftware,Kicad,Pcbnew,6.0.11+dfsg-1~bpo11+1
; #@! TF.FileFunction,Plated,1,2,PTH
FMAT,2
METRIC
; #@! TA.AperFunction,Plated,PTH,ComponentDrill
T1C1.000
%
G90
G05
T1
X5.795Y81.355
X5.795Y78.815
X5.795Y76.275
X5.795Y73.735
X5.795Y71.195
X5.795Y68.655
X5.795Y66.115
X5.795Y63.575
X5.795Y61.035
X5.795Y58.495
X5.795Y53.455
X5.795Y50.915
X5.795Y48.375
X5.795Y45.835
X5.795Y43.295
X5.795Y40.755
X5.795Y38.215
X5.795Y35.675
X5.795Y33.135
X5.795Y30.595
X5.795Y28.055
X5.795Y25.515
X5.795Y22.995
X5.795Y20.435
X5.795Y17.895
X5.795Y15.355
X13.0Y85.0
X13.0Y82.46
X13.0Y79.92
X13.0Y77.38
X13.0Y74.84
X13.0Y72.3
X13.0Y69.76
X13.0Y67.22
X13.0Y64.68
X13.0Y62.14
X13.0Y59.6
X13.0Y57.06
X13.0Y54.52
X13.0Y51.98
X13.0Y49.44
X13.0Y46.9
X13.0Y44.36
X13.0Y41.82
X13.0Y39.28
X13.0Y36.74
X15.22Y34.0
X17.76Y34.0
X20.3Y34.0
X22.84Y34.0
X25.38Y34.0
X27.92Y34.0
X28.24Y85.0
X28.24Y82.46
X28.24Y79.92
X28.24Y77.38
X28.24Y74.84
X28.24Y72.3
X28.24Y69.76
X28.24Y67.22
X28.24Y64.68
X28.24Y62.14
X28.24Y59.6
X28.24Y57.06
X28.24Y54.52
X28.24Y51.98
X28.24Y49.44
X28.24Y46.9
X28.24Y44.36
X28.24Y41.82
X28.24Y39.28
X28.24Y36.74
X30.46Y34.0
X33.0Y34.0
X34.625Y66.0
X36.0Y5.0
X37.165Y66.0
X38.5Y5.0
X39.705Y66.0
X41.0Y86.0
X42.245Y66.0
X44.785Y66.0
X45.0Y5.0
X47.325Y66.0
X47.5Y5.0
X49.865Y66.0
X52.405Y66.0
X56.195Y85.455
X56.195Y82.915
X56.195Y80.375
X56.195Y77.835
X56.195Y75.295
X56.195Y72.755
X56.195Y70.215
X56.195Y67.675
X56.195Y65.135
X56.195Y62.595
X56.195Y60.055
X56.195Y57.515
X56.195Y54.975
X56.195Y52.435
X56.195Y49.895
X56.195Y47.355
X56.195Y43.755
X56.195Y41.215
X56.195Y38.675
X56.195Y36.135
X56.195Y33.595
X56.195Y31.055
X56.195Y28.515
X56.195Y25.975
X56.195Y23.435
X56.195Y20.895
X56.195Y18.355
X56.195Y15.815
X56.195Y13.275
X56.195Y10.735
T0
M30
