M48
; DRILL file {KiCad 6.0.11+dfsg-1~bpo11+1} date lun 28 ago 2023 14:59:57
; FORMAT={-:-/ absolute / metric / decimal}
; #@! TF.CreationDate,2023-08-28T14:59:57-03:00
; #@! TF.GenerationSoftware,Kicad,Pcbnew,6.0.11+dfsg-1~bpo11+1
; #@! TF.FileFunction,Plated,1,2,PTH
FMAT,2
METRIC
; #@! TA.AperFunction,Plated,PTH,ComponentDrill
T1C0.762
; #@! TA.AperFunction,Plated,PTH,ComponentDrill
T2C1.000
; #@! TA.AperFunction,Plated,PTH,ComponentDrill
T3C1.200
%
G90
G05
T1
X181.5Y-110.5
X181.5Y-125.5
X208.5Y-110.5
X208.5Y-125.5
T2
X161.5Y-118.5
X161.5Y-121.0
X161.5Y-127.5
X161.5Y-130.0
X172.0Y-138.0
X174.5Y-138.0
X213.0Y-130.0
X215.5Y-130.0
T3
X166.0Y-138.0
X167.0Y-113.0
X167.0Y-133.32
X172.0Y-113.0
X172.0Y-133.32
X178.68Y-129.0
X186.32Y-138.0
X199.0Y-129.0
T0
M30
